<svg xmlns="http://www.w3.org/2000/svg" viewBox="0 0 88.25 84.6" width="120" height="115"><defs><style>.cls-1{fill:#006fb8;}.cls-1,.cls-2,.cls-3{fill-rule:evenodd;}.cls-2{fill:#6ba334;}.cls-3{fill:#23b0a5;}</style></defs><title>Asset 1</title><g id="Layer_2" data-name="Layer 2"><g id="Layer_1-2" data-name="Layer 1"><path class="cls-1" d="M24,1C27.17-.15,28.93.35,30.16,3,31.09,5,32,7.3,32.89,9.42c1.53,3.66,4.55,9.63,5.4,13.06,3,6.81,5.59,13.49,8.52,20.16,1.42,3.25,2.83,6.69,4.13,9.93.72,1.78,1.41,3.21,2.18,5l2.18,5.16v.38c1.21,1.9,7.36,17.87,9,21.28h24L69.13,38.55c-4.22-10.68-9.67-22.34-13.84-32.9-.78-2-1.63-4.86-3.68-5.45-.55-.16-25.7-.37-26.67,0C23.41.85,24.7.18,24,1Z"/><path class="cls-2" d="M24,1c-1.32.58-.81.41-2,3.23l-11,26.28c-2,5-4.15,9.87-6.3,15L.15,56.79a4.66,4.66,0,0,0,1.06,4.43C4.7,63,5.64,62.85,10.33,62.85c3.65,0,7.38.08,11,0C24,56.88,36.72,25.32,38.29,22.48c-.85-3.43-3.87-9.4-5.4-13.06C32,7.3,31.09,5,30.16,3,28.93.35,27.17-.15,24,1Z"/><path class="cls-3" d="M55.3,63.15v-.38l-33.95,0c-3.64.11-7.37,0-11,0-4.69,0-5.63.14-9.12-1.63.38,1.69,6.67,13.21,8.23,16.12,2.65,4.91,4,10.72,15.21,4.69L51.12,65.55A33.6,33.6,0,0,1,55.3,63.15Z"/></g></g></svg>