<svg xmlns="http://www.w3.org/2000/svg" viewBox="0 0 90.25 84.6" width="30" height="28"><defs><style>.cls-1{fill:#fff;fill-rule:evenodd;}</style></defs><title>Asset 1</title><g id="Layer_2" data-name="Layer 2"><g id="Layer_1-2" data-name="Layer 1"><path class="cls-1" d="M32.16,3C33.09,5,34,7.3,34.89,9.42c1.53,3.66,4.55,9.63,5.4,13.06,3,6.81,5.59,13.49,8.52,20.16,1.42,3.25,2.83,6.69,4.13,9.93.72,1.78,1.41,3.21,2.18,5l2.18,5.16v.38c1.21,1.9,7.36,17.87,9,21.28h24L71.13,38.55c-4.22-10.68-9.67-22.34-13.84-32.9-.78-2-1.63-4.86-3.68-5.45-.55-.16-23.7-.37-24.67,0C30.27.32,30.93.35,32.16,3Z"/><path class="cls-1" d="M21.4,5.11,10.76,29.51c-1.93,4.68-4,9.16-6.12,13.91L.14,54a4.23,4.23,0,0,0,1,4.11C4.56,59.7,5.48,59.58,10,59.57c3.54,0,7.16.08,10.69,0C23.28,54,35.63,24.73,37.15,22.1c-.83-3.19-3.76-8.73-5.24-12.12C31,8,30.16,5.91,29.26,4A4.36,4.36,0,0,0,21.4,5.11Z"/><path class="cls-1" d="M55.3,63.15v-.38l-33.95,0c-3.64.11-7.37,0-11,0-4.69,0-5.63.14-9.12-1.63.38,1.69,6.67,13.21,8.23,16.12,2.65,4.91,4,10.72,15.21,4.69L51.12,65.55A33.6,33.6,0,0,1,55.3,63.15Z"/></g></g></svg>