<svg xmlns="http://www.w3.org/2000/svg" viewBox="0 0 141.78 58.45" width="136px" height="56px"><defs><style>.cls-1{fill:#f07e00;}.cls-1,.cls-2,.cls-3,.cls-4{fill-rule:evenodd;}.cls-2{fill:#60b22d;}.cls-3{fill:#3e76bb;}.cls-4{fill:#273641;}</style></defs><title>Asset 1</title><g id="Layer_2" data-name="Layer 2"><g id="Layer_1-2" data-name="Layer 1"><path class="cls-1" d="M34.08,20.91C44.08,2.22,16-4.88.49,4.12,4.82,17.3,13.35,24.51,26,25.85l.44-.28a5.75,5.75,0,0,1,5.65-4.66,5.87,5.87,0,0,1,1.52.2C33.89,21,34.05,20.88,34.08,20.91Z"/><path class="cls-2" d="M29.5,31.81C26.06,41.13,16.9,49.43,0,48.07.37,34.59,13.35,24.51,26,25.85l.34.52c0,.1,0,.2,0,.3A5.76,5.76,0,0,0,29.5,31.81Z"/><path class="cls-3" d="M29.44,31.78C17.9,52.17,46.63,58.67,54.49,58.44c3.17-12.17-3.61-30.8-16.63-28.81l-.93.19a5.77,5.77,0,0,1-4.83,2.61A5.69,5.69,0,0,1,29.44,31.78Z"/><path class="cls-4" d="M64.86,0a4.78,4.78,0,1,1-4.77,4.77A4.78,4.78,0,0,1,64.86,0ZM65,13.87h0a3.32,3.32,0,0,1,3.31,3.31V42.46A3.32,3.32,0,0,1,65,45.77h0a3.32,3.32,0,0,1-3.31-3.31V17.18A3.32,3.32,0,0,1,65,13.87Z"/><path class="cls-4" d="M104.33,17.18V42.46A3.32,3.32,0,0,1,101,45.77h0a3.32,3.32,0,0,1-3.31-3.31V41.8a14.44,14.44,0,0,1-10.32,4.4c-8.32,0-15.06-7.23-15.06-16.15s6.74-16.16,15.06-16.16A14.44,14.44,0,0,1,97.71,18.3V4.92A3.31,3.31,0,0,1,101,1.62h0a3.31,3.31,0,0,1,3.31,3.3V17.18Zm-16,2.88a9.63,9.63,0,0,0-9.4,9.84,9.41,9.41,0,1,0,18.8,0A9.63,9.63,0,0,0,88.34,20.06Z"/><path class="cls-4" d="M109.78,42.39V17.11a3.32,3.32,0,0,1,3.31-3.31h0a3.32,3.32,0,0,1,3.31,3.31v.66a14.48,14.48,0,0,1,10.33-4.41c8.31,0,15,7.24,15,16.16s-6.74,16.15-15,16.15a14.48,14.48,0,0,1-10.33-4.4V54.64A3.32,3.32,0,0,1,113.09,58h0a3.32,3.32,0,0,1-3.31-3.31V42.39Zm16-2.88a9.63,9.63,0,0,0,9.4-9.84,9.41,9.41,0,1,0-18.8,0A9.63,9.63,0,0,0,125.77,39.51Z"/></g></g></svg>