<svg xmlns="http://www.w3.org/2000/svg" viewBox="0 0 120 45.04" width="87" height="33"><defs><style>.cls-1,.cls-2{fill:#fff;}.cls-2{fill-rule:evenodd;}</style></defs><title>Asset 1</title><g id="Layer_2" data-name="Layer 2"><g id="Layer_1-2" data-name="Layer 1"><path class="cls-1" d="M37.76,41.85a.49.49,0,0,0-.26.12.29.29,0,0,0-.09.22.37.37,0,0,0,.08.25.29.29,0,0,0,.23.09.63.63,0,0,0,.51-.24.53.53,0,0,0,.06-.13.5.5,0,0,0,0-.17v-.3a.86.86,0,0,1-.3.11Z"/><path class="cls-1" d="M68.45,40.86a.54.54,0,0,0-.45.2,1,1,0,0,0-.15.6,1,1,0,0,0,.15.58.61.61,0,0,0,.9,0,1,1,0,0,0,.15-.58,1,1,0,0,0-.15-.6A.54.54,0,0,0,68.45,40.86Z"/><path class="cls-1" d="M3.93,40a.8.8,0,0,0-.68.33,1.51,1.51,0,0,0-.25.91,1.45,1.45,0,0,0,.25.89.79.79,0,0,0,.68.32.79.79,0,0,0,.38-.08L4,42l.36-.39.37.35a1.56,1.56,0,0,0,.16-.76,1.51,1.51,0,0,0-.24-.91A.81.81,0,0,0,3.93,40Z"/><path class="cls-1" d="M60.1,41.85a.49.49,0,0,0-.26.12.29.29,0,0,0-.09.22.37.37,0,0,0,.08.25.29.29,0,0,0,.23.09.63.63,0,0,0,.51-.24.53.53,0,0,0,.06-.13,1,1,0,0,0,0-.17v-.3a.94.94,0,0,1-.3.11Z"/><path class="cls-1" d="M80.31,41.85a.49.49,0,0,0-.26.12.29.29,0,0,0-.09.22.37.37,0,0,0,.08.25.29.29,0,0,0,.23.09.63.63,0,0,0,.51-.24.53.53,0,0,0,.06-.13,1,1,0,0,0,0-.17v-.3a.94.94,0,0,1-.3.11Z"/><path class="cls-1" d="M9.58,41.85a.49.49,0,0,0-.26.12.29.29,0,0,0-.09.22.33.33,0,0,0,.08.25.29.29,0,0,0,.23.09.63.63,0,0,0,.51-.24.53.53,0,0,0,.06-.13,1,1,0,0,0,0-.17v-.3a.94.94,0,0,1-.3.11Z"/><path class="cls-1" d="M43.22,40.86a.54.54,0,0,0-.45.2,1,1,0,0,0-.16.6.89.89,0,0,0,.16.58.51.51,0,0,0,.45.2.53.53,0,0,0,.45-.2,1,1,0,0,0,.15-.58,1,1,0,0,0-.15-.6A.56.56,0,0,0,43.22,40.86Z"/><path class="cls-1" d="M32.59,40.88a.49.49,0,0,0-.42.21,1.2,1.2,0,0,0,0,1.16.5.5,0,0,0,.42.2.49.49,0,0,0,.42-.21,1.08,1.08,0,0,0,.15-.61.9.9,0,0,0-.15-.55A.48.48,0,0,0,32.59,40.88Z"/><path class="cls-1" d="M30,40.85a.45.45,0,0,0-.39.2.76.76,0,0,0-.12.33h1a.85.85,0,0,0-.12-.36A.49.49,0,0,0,30,40.85Z"/><path class="cls-1" d="M88,40.85a.45.45,0,0,0-.39.2,1.14,1.14,0,0,0-.12.33h1A.85.85,0,0,0,88.4,41,.49.49,0,0,0,88,40.85Z"/><path class="cls-1" d="M50.52,41.4h-.85v.94h.87a.61.61,0,0,0,.41-.13.47.47,0,0,0,.14-.37.39.39,0,0,0-.14-.33A.74.74,0,0,0,50.52,41.4Z"/><path class="cls-1" d="M57.72,40.85a.45.45,0,0,0-.39.2,1.14,1.14,0,0,0-.12.33h1a.85.85,0,0,0-.12-.36A.49.49,0,0,0,57.72,40.85Z"/><polygon class="cls-1" points="19.86 41.63 20.77 41.63 20.31 40.22 19.86 41.63"/><path class="cls-1" d="M50.88,40.71A.37.37,0,0,0,51,40.4a.3.3,0,0,0-.14-.26.79.79,0,0,0-.42-.09h-.79v.76h.82A.61.61,0,0,0,50.88,40.71Z"/><path class="cls-1" d="M74.66,40a.8.8,0,0,0-.68.33,1.51,1.51,0,0,0-.25.91,1.45,1.45,0,0,0,.25.89.9.9,0,0,0,1.06.24L74.69,42l.36-.39.37.35a1.56,1.56,0,0,0,.16-.76,1.51,1.51,0,0,0-.24-.91A.81.81,0,0,0,74.66,40Z"/><path class="cls-1" d="M98.06,40.86a.54.54,0,0,0-.45.2,1,1,0,0,0-.15.6,1,1,0,0,0,.15.58.61.61,0,0,0,.9,0,1,1,0,0,0,.15-.58,1,1,0,0,0-.15-.6A.54.54,0,0,0,98.06,40.86Z"/><path class="cls-1" d="M114,40.85a.45.45,0,0,0-.39.2.76.76,0,0,0-.12.33h1a.64.64,0,0,0-.12-.36A.45.45,0,0,0,114,40.85Z"/><path class="cls-1" d="M105,40.88a.49.49,0,0,0-.42.21,1.08,1.08,0,0,0-.15.61.9.9,0,0,0,.15.55.48.48,0,0,0,.42.2.5.5,0,0,0,.41-.2,1.2,1.2,0,0,0,0-1.16A.46.46,0,0,0,105,40.88Z"/><path class="cls-1" d="M107.41,41.85a.49.49,0,0,0-.26.12.29.29,0,0,0-.09.22.33.33,0,0,0,.08.25.28.28,0,0,0,.22.09.6.6,0,0,0,.51-.24.32.32,0,0,0,.07-.13,1,1,0,0,0,0-.17v-.3a1,1,0,0,1-.3.11Z"/><path class="cls-1" d="M90.63,40.88a.48.48,0,0,0-.41.21,1.2,1.2,0,0,0,0,1.16.52.52,0,0,0,.83,0,1.08,1.08,0,0,0,.15-.61.9.9,0,0,0-.15-.55A.48.48,0,0,0,90.63,40.88Z"/><path class="cls-1" d="M0,37.44V45H120v-7.6ZM5.21,43.2l-.4-.39a1.58,1.58,0,0,1-.88.23,1.5,1.5,0,0,1-1.19-.49,1.92,1.92,0,0,1-.45-1.34,2,2,0,0,1,.45-1.36,1.48,1.48,0,0,1,1.19-.5,1.48,1.48,0,0,1,1.19.5,2,2,0,0,1,.44,1.36,2,2,0,0,1-.36,1.24l.37.36Zm3-.26H7.6v-.38l-.08.13a.83.83,0,0,1-.71.32.78.78,0,0,1-.62-.24A.94.94,0,0,1,6,42.1V40.36h.67V42a.58.58,0,0,0,.09.35.42.42,0,0,0,.31.11.49.49,0,0,0,.4-.16.71.71,0,0,0,.14-.47V40.36h.66Zm2.69-.09v.09H10.2c0-.1,0-.2,0-.3h0a1,1,0,0,1-.81.38.8.8,0,0,1-.56-.2.73.73,0,0,1-.21-.54.8.8,0,0,1,.19-.57,1,1,0,0,1,.56-.27l.44-.06a.93.93,0,0,0,.28-.08.18.18,0,0,0,.08-.09.25.25,0,0,0,0-.12A.25.25,0,0,0,10,40.9a.6.6,0,0,0-.33-.07.44.44,0,0,0-.29.09.42.42,0,0,0-.12.27H8.65a.86.86,0,0,1,.3-.68,1.29,1.29,0,0,1,.82-.22,1.25,1.25,0,0,1,.74.2.67.67,0,0,1,.27.56v1.44a.73.73,0,0,0,0,.25.2.2,0,0,0,.11.11Zm1,.09h-.67v-3.5h.67Zm1.2,0h-.67V40.36h.67Zm0-2.89h-.68v-.63h.68Zm1.66.78h-.4V42.3a.12.12,0,0,0,0,.12.48.48,0,0,0,.21,0h.14V43h-.41a.75.75,0,0,1-.5-.13.51.51,0,0,1-.16-.42V40.83h-.35v-.47h.35v-.7h.67v.7h.4ZM16.44,43a2.61,2.61,0,0,1-.38.82.72.72,0,0,1-.55.17h-.32v-.55h.13a.44.44,0,0,0,.35-.11,1,1,0,0,0,.1-.3l-.94-2.67h.73l.55,1.92.53-1.92h.7Zm5.12-.06h-.37L21,42.23H19.67l-.23.71h-.73l1.2-3.5h.83l1.2,3.5Zm1.33-.69a.41.41,0,0,0,.38.2.38.38,0,0,0,.3-.13.47.47,0,0,0,.15-.33h.68a1.15,1.15,0,0,1-.35.75,1.12,1.12,0,0,1-.78.27,1.08,1.08,0,0,1-.88-.35,1.42,1.42,0,0,1-.31-1,1.46,1.46,0,0,1,.32-1,1.07,1.07,0,0,1,.87-.37,1.19,1.19,0,0,1,.8.27,1.06,1.06,0,0,1,.33.73h-.68a.46.46,0,0,0-.13-.31.45.45,0,0,0-.32-.12.43.43,0,0,0-.38.2,1.11,1.11,0,0,0-.13.6A1.05,1.05,0,0,0,22.89,42.25Zm2.51,0a.42.42,0,0,0,.38.2.42.42,0,0,0,.31-.13.5.5,0,0,0,.14-.33h.68a1.11,1.11,0,0,1-.35.75,1.12,1.12,0,0,1-.78.27,1.1,1.1,0,0,1-.88-.35,1.42,1.42,0,0,1-.31-1,1.51,1.51,0,0,1,.32-1,1.1,1.1,0,0,1,.87-.37,1.17,1.17,0,0,1,.8.27,1,1,0,0,1,.33.73h-.68A.42.42,0,0,0,26.1,41a.44.44,0,0,0-.32-.12.44.44,0,0,0-.38.2,1.21,1.21,0,0,0-.13.6A1.15,1.15,0,0,0,25.4,42.25ZM28.71,41h-.2a.61.61,0,0,0-.45.15.66.66,0,0,0-.15.47v1.34h-.66V40.36h.63v.46a1.09,1.09,0,0,1,.08-.15.68.68,0,0,1,.6-.38h.15Zm2.45.83H29.44a1,1,0,0,0,.13.46.54.54,0,0,0,.46.19.45.45,0,0,0,.28-.09.35.35,0,0,0,.16-.21h.67a1,1,0,0,1-.39.62A1.31,1.31,0,0,1,30,43a1.09,1.09,0,0,1-.88-.36,1.54,1.54,0,0,1-.32-1,1.4,1.4,0,0,1,.32-1,1.11,1.11,0,0,1,.88-.35,1.12,1.12,0,0,1,.89.36,1.51,1.51,0,0,1,.31,1A.86.86,0,0,1,31.16,41.82Zm2.63,1.12h-.64v-.32h0a.85.85,0,0,1-.73.38.93.93,0,0,1-.77-.38,1.63,1.63,0,0,1-.3-1,1.45,1.45,0,0,1,.3-1,.93.93,0,0,1,.77-.36.8.8,0,0,1,.69.37l0,0V39.44h.66Zm1.16,0h-.67V40.36H35Zm0-2.89h-.68v-.63H35Zm1.66.78h-.4V42.3a.12.12,0,0,0,0,.12.54.54,0,0,0,.22,0h.13V43H36.2a.75.75,0,0,1-.5-.13.51.51,0,0,1-.15-.42V40.83h-.36v-.47h.36v-.7h.66v.7h.4Zm2.49,2v.09h-.71a1.59,1.59,0,0,1-.06-.3h0a1,1,0,0,1-.81.38.82.82,0,0,1-.57-.2.73.73,0,0,1-.21-.54.85.85,0,0,1,.19-.57,1,1,0,0,1,.56-.27l.44-.06a1.11,1.11,0,0,0,.29-.08.22.22,0,0,0,.07-.09.25.25,0,0,0,0-.12.25.25,0,0,0-.11-.18.56.56,0,0,0-.32-.07.45.45,0,0,0-.3.09.37.37,0,0,0-.11.27h-.64a.92.92,0,0,1,.3-.68,1.29,1.29,0,0,1,.82-.22,1.25,1.25,0,0,1,.74.2.67.67,0,0,1,.27.56v1.44a.73.73,0,0,0,0,.25.23.23,0,0,0,.11.11Zm1.48-2h-.4V42.3a.12.12,0,0,0,0,.12.54.54,0,0,0,.22,0h.13V43h-.41a.75.75,0,0,1-.5-.13.51.51,0,0,1-.15-.42V40.83h-.35v-.47h.35v-.7h.66v.7h.4Zm1,2.11h-.66V40.36h.66Zm0-2.89H40.9v-.63h.67Zm2.59,2.6a1.25,1.25,0,0,1-.94.36,1.24,1.24,0,0,1-.94-.36,1.37,1.37,0,0,1-.35-1,1.42,1.42,0,0,1,.35-1,1.21,1.21,0,0,1,.94-.37,1.22,1.22,0,0,1,.94.37,1.41,1.41,0,0,1,.34,1A1.37,1.37,0,0,1,44.16,42.65Zm3,.29h-.66V41.33a.59.59,0,0,0-.1-.36.42.42,0,0,0-.31-.11.51.51,0,0,0-.41.16.71.71,0,0,0-.14.47v1.45h-.66V40.36h.63v.38l.09-.13a.82.82,0,0,1,.71-.32.8.8,0,0,1,.62.24.91.91,0,0,1,.23.67Zm4.35-.28a1.39,1.39,0,0,1-.94.28H49v-3.5h1.65a1.13,1.13,0,0,1,.77.24.79.79,0,0,1,.28.65.78.78,0,0,1-.31.66l-.12.07a1.51,1.51,0,0,1,.22.11.8.8,0,0,1,.32.68A1,1,0,0,1,51.48,42.66Zm3,.28h-.64v-.38l-.08.13a.94.94,0,0,1-1.33.08.93.93,0,0,1-.22-.67V40.36h.66V42a.52.52,0,0,0,.1.35.39.39,0,0,0,.3.11.48.48,0,0,0,.4-.16.66.66,0,0,0,.14-.47V40.36h.67ZM56.47,41h-.2a.61.61,0,0,0-.45.15.66.66,0,0,0-.15.47v1.34H55V40.36h.63v.46a1.09,1.09,0,0,1,.08-.15.69.69,0,0,1,.6-.38h.15Zm2.45.83H57.21a.9.9,0,0,0,.13.46.51.51,0,0,0,.46.19.49.49,0,0,0,.28-.09.38.38,0,0,0,.15-.21h.68a1,1,0,0,1-.4.62,1.31,1.31,0,0,1-.78.22,1.1,1.1,0,0,1-.88-.36,1.54,1.54,0,0,1-.31-1,1.4,1.4,0,0,1,.31-1,1.12,1.12,0,0,1,.88-.35,1.11,1.11,0,0,1,.89.36,1.45,1.45,0,0,1,.31,1A.86.86,0,0,1,58.92,41.82Zm2.52,1v.09h-.72c0-.1,0-.2,0-.3h0a1,1,0,0,1-.82.38.8.8,0,0,1-.56-.2.73.73,0,0,1-.21-.54.8.8,0,0,1,.19-.57,1,1,0,0,1,.56-.27l.44-.06a.93.93,0,0,0,.28-.08.18.18,0,0,0,.08-.09.25.25,0,0,0,0-.12.25.25,0,0,0-.11-.18.6.6,0,0,0-.33-.07.44.44,0,0,0-.29.09.37.37,0,0,0-.11.27h-.64a.86.86,0,0,1,.3-.68,1.29,1.29,0,0,1,.82-.22,1.25,1.25,0,0,1,.74.2.67.67,0,0,1,.27.56v1.44a.73.73,0,0,0,0,.25.2.2,0,0,0,.11.11Zm2.6.09h-.63v-.38l-.08.13a.85.85,0,0,1-.72.32.81.81,0,0,1-.62-.24.93.93,0,0,1-.22-.67V40.36h.66V42a.58.58,0,0,0,.1.35.42.42,0,0,0,.31.11.51.51,0,0,0,.4-.16.71.71,0,0,0,.14-.47V40.36H64Zm3-3h-.21c-.09,0-.15,0-.18,0a.5.5,0,0,0,0,.22v.12h.43v.48h-.43v2.11H66V40.83h-.37v-.48H66v-.22a.72.72,0,0,1,.19-.55.85.85,0,0,1,.59-.18,1.55,1.55,0,0,1,.31,0Zm2.34,2.69a1.24,1.24,0,0,1-.94.36,1.25,1.25,0,0,1-.94-.36,1.37,1.37,0,0,1-.35-1,1.42,1.42,0,0,1,.35-1,1.22,1.22,0,0,1,.94-.37,1.21,1.21,0,0,1,.94.37,1.42,1.42,0,0,1,.35,1A1.37,1.37,0,0,1,69.39,42.65ZM71.54,41h-.2a.61.61,0,0,0-.45.15.66.66,0,0,0-.15.47v1.34h-.66V40.36h.63v.46a1.09,1.09,0,0,1,.08-.15.71.71,0,0,1,.6-.38h.15Zm4.4,2.21-.4-.39a1.58,1.58,0,0,1-.88.23,1.5,1.5,0,0,1-1.19-.49A1.92,1.92,0,0,1,73,41.21a2,2,0,0,1,.45-1.36,1.67,1.67,0,0,1,2.38,0,2,2,0,0,1,.44,1.36,2.07,2.07,0,0,1-.35,1.24l.36.36Zm3-.26h-.63v-.38l-.08.13a.83.83,0,0,1-.71.32.78.78,0,0,1-.62-.24.94.94,0,0,1-.23-.67V40.36h.67V42a.52.52,0,0,0,.1.35.38.38,0,0,0,.3.11.49.49,0,0,0,.4-.16.71.71,0,0,0,.14-.47V40.36H79Zm2.69-.09v.09h-.72c0-.1,0-.2-.05-.3h0a1,1,0,0,1-.82.38.8.8,0,0,1-.56-.2.73.73,0,0,1-.21-.54.8.8,0,0,1,.19-.57,1,1,0,0,1,.56-.27l.44-.06a.93.93,0,0,0,.28-.08.18.18,0,0,0,.08-.09.25.25,0,0,0,0-.12.25.25,0,0,0-.11-.18.6.6,0,0,0-.33-.07.44.44,0,0,0-.29.09.37.37,0,0,0-.11.27h-.64a.86.86,0,0,1,.3-.68,1.29,1.29,0,0,1,.82-.22,1.25,1.25,0,0,1,.74.2.67.67,0,0,1,.27.56v1.44a.73.73,0,0,0,0,.25.2.2,0,0,0,.11.11Zm1,.09H82v-3.5h.67Zm1.2,0h-.67V40.36h.67Zm0-2.89h-.68v-.63h.68Zm1.7-.09h-.21c-.09,0-.15,0-.17,0a.37.37,0,0,0-.05.22v.12h.43v.48h-.43v2.11h-.66V40.83H84.1v-.48h.37v-.22a.72.72,0,0,1,.19-.55.85.85,0,0,1,.59-.18,1.55,1.55,0,0,1,.31,0Zm1,3h-.66V40.36h.66Zm0-2.89h-.67v-.63h.67Zm2.69,1.77H87.49a.81.81,0,0,0,.13.46.51.51,0,0,0,.46.19.49.49,0,0,0,.28-.09.38.38,0,0,0,.15-.21h.68a1,1,0,0,1-.4.62A1.31,1.31,0,0,1,88,43a1.1,1.1,0,0,1-.88-.36,1.54,1.54,0,0,1-.31-1,1.4,1.4,0,0,1,.31-1,1.28,1.28,0,0,1,1.77,0,1.45,1.45,0,0,1,.31,1A.86.86,0,0,1,89.2,41.82Zm2.63,1.12h-.64v-.32h0a.84.84,0,0,1-.72.38,1,1,0,0,1-.78-.38,1.63,1.63,0,0,1-.3-1,1.45,1.45,0,0,1,.3-1,.93.93,0,0,1,.77-.36.79.79,0,0,1,.69.37l0,0V39.44h.66Zm2.64-.85a.78.78,0,0,0,1.14.13.76.76,0,0,0,.23-.5h.71a1.42,1.42,0,0,1-.46,1,1.48,1.48,0,0,1-1,.35,1.41,1.41,0,0,1-1.14-.49,2,2,0,0,1-.42-1.34,2.07,2.07,0,0,1,.42-1.36,1.39,1.39,0,0,1,1.14-.5,1.53,1.53,0,0,1,1,.33,1.36,1.36,0,0,1,.46.91h-.71a.66.66,0,0,0-.23-.44.81.81,0,0,0-.52-.17.71.71,0,0,0-.62.33,1.54,1.54,0,0,0-.22.9A1.51,1.51,0,0,0,94.47,42.09Zm4.53.56a1.24,1.24,0,0,1-.94.36,1.25,1.25,0,0,1-.94-.36,1.37,1.37,0,0,1-.35-1,1.42,1.42,0,0,1,.35-1,1.22,1.22,0,0,1,.94-.37,1.21,1.21,0,0,1,.94.37,1.42,1.42,0,0,1,.35,1A1.37,1.37,0,0,1,99,42.65Zm4.3.29h-.66V41.43a.7.7,0,0,0-.1-.43.29.29,0,0,0-.28-.14.38.38,0,0,0-.32.13.54.54,0,0,0-.11.38v1.57h-.67V41.31a.53.53,0,0,0-.09-.34.41.41,0,0,0-.3-.11.36.36,0,0,0-.31.13.59.59,0,0,0-.11.38v1.57h-.66V40.36h.63v.41a.86.86,0,0,1,.11-.19.74.74,0,0,1,.64-.29.68.68,0,0,1,.54.23.85.85,0,0,1,.14.19l.08-.13a.66.66,0,0,1,.6-.29.83.83,0,0,1,.64.25,1,1,0,0,1,.23.69Zm2.63-.31a.94.94,0,0,1-.77.38.84.84,0,0,1-.71-.36V44h-.67v-3.6h.63v.38l0-.06a.82.82,0,0,1,.71-.39,1,1,0,0,1,.77.36,1.5,1.5,0,0,1,.29,1A1.69,1.69,0,0,1,105.93,42.63Zm2.82.22v.09H108a1,1,0,0,1,0-.3h0a1,1,0,0,1-.81.38.8.8,0,0,1-.56-.2.73.73,0,0,1-.21-.54.8.8,0,0,1,.19-.57,1,1,0,0,1,.56-.27l.44-.06a.93.93,0,0,0,.28-.08.24.24,0,0,0,.08-.09.25.25,0,0,0,0-.12.25.25,0,0,0-.11-.18.62.62,0,0,0-.33-.07.44.44,0,0,0-.29.09.42.42,0,0,0-.12.27h-.63a.86.86,0,0,1,.3-.68,1.27,1.27,0,0,1,.82-.22,1.25,1.25,0,0,1,.74.2.67.67,0,0,1,.27.56v1.44a.73.73,0,0,0,0,.25.2.2,0,0,0,.11.11Zm2.6.09h-.66V41.33a.53.53,0,0,0-.1-.36.42.42,0,0,0-.31-.11.48.48,0,0,0-.4.16.66.66,0,0,0-.14.47v1.45h-.67V40.36h.63v.38l.09-.13a.95.95,0,0,1,1.34-.08,1,1,0,0,1,.22.67Zm1.18,0h-.66V40.36h.66Zm0-2.89h-.68v-.63h.68Zm2.68,1.77h-1.71a1,1,0,0,0,.13.46.52.52,0,0,0,.46.19.47.47,0,0,0,.28-.09.3.3,0,0,0,.15-.21h.68a1,1,0,0,1-.39.62A1.31,1.31,0,0,1,114,43a1.11,1.11,0,0,1-.89-.36,1.59,1.59,0,0,1-.31-1,1.4,1.4,0,0,1,.32-1,1.27,1.27,0,0,1,1.76,0,1.46,1.46,0,0,1,.32,1A.88.88,0,0,1,115.22,41.82Zm2.19,1a1.24,1.24,0,0,1-.79.23,1.46,1.46,0,0,1-.9-.23.8.8,0,0,1-.33-.66h.67a.36.36,0,0,0,.16.28.68.68,0,0,0,.4.1.57.57,0,0,0,.31-.07.23.23,0,0,0,.11-.2.18.18,0,0,0-.11-.15,1.54,1.54,0,0,0-.38-.12,2.57,2.57,0,0,1-.86-.31.6.6,0,0,1-.21-.5.78.78,0,0,1,.28-.63,1.12,1.12,0,0,1,.73-.23,1.32,1.32,0,0,1,.83.23.72.72,0,0,1,.32.61H117a.29.29,0,0,0-.12-.24.53.53,0,0,0-.32-.09.51.51,0,0,0-.3.07.21.21,0,0,0-.11.19s0,.1.12.15a2.58,2.58,0,0,0,.43.13,2.2,2.2,0,0,1,.82.3.65.65,0,0,1,.21.53A.73.73,0,0,1,117.41,42.78Z"/><path class="cls-2" d="M86.12,26.41C87.36,24,88,20.74,88,16.61a20.67,20.67,0,0,0-1.06-6.86,14.41,14.41,0,0,0-3.2-5.3,13.94,13.94,0,0,0-4.89-3.34A16,16,0,0,0,72.78,0a16.32,16.32,0,0,0-5.55.91h0a14.42,14.42,0,0,0-4.66,2.75,13.52,13.52,0,0,0-3.8,5.6,22.26,22.26,0,0,0-1.24,7.79,22.94,22.94,0,0,0,1,7.2,14.17,14.17,0,0,0,3.17,5.41A13.74,13.74,0,0,0,66.63,33a17.28,17.28,0,0,0,10.22.61,15.59,15.59,0,0,0,3.75-1.51h0a13.75,13.75,0,0,0,2.26-1.61l3.06,2,6.83-.06-7.37-4.78C85.63,27.23,85.89,26.84,86.12,26.41ZM76,27.41a7.56,7.56,0,0,1-3.19.66,7.35,7.35,0,0,1-5.85-2.67A8.69,8.69,0,0,1,65.18,22a17.82,17.82,0,0,1-.61-5,17.62,17.62,0,0,1,.61-4.95,8.56,8.56,0,0,1,1.75-3.37,7.41,7.41,0,0,1,5.85-2.65A7.46,7.46,0,0,1,76,6.75a7.65,7.65,0,0,1,2.62,2,8.54,8.54,0,0,1,1.76,3.33,16.79,16.79,0,0,1,.62,4.8A19,19,0,0,1,80.34,22a11,11,0,0,1-.74,1.91L75.19,21l-6.84.06,8.73,5.66A6.75,6.75,0,0,1,76,27.41Z"/><path class="cls-2" d="M20.49,27.18c-.3.2-.32.08-.63.23a7.56,7.56,0,0,1-3.19.66,7.35,7.35,0,0,1-5.85-2.67q-2.36-2.7-2.36-8.34a17.62,17.62,0,0,1,.61-4.95,8.56,8.56,0,0,1,1.75-3.37,7.41,7.41,0,0,1,5.85-2.65,7.5,7.5,0,0,1,3.17.66,7.74,7.74,0,0,1,2.62,2,8.54,8.54,0,0,1,1.76,3.33,16.81,16.81,0,0,1,.61,4.8A17,17,0,0,1,23.89,23l5.87,3.89c.08-.15.17-.3.24-.45,1.25-2.41,1.88-5.67,1.88-9.8a20.93,20.93,0,0,0-1.06-6.86,14.41,14.41,0,0,0-3.2-5.3,13.94,13.94,0,0,0-4.89-3.34A16,16,0,0,0,16.67,0a16.32,16.32,0,0,0-5.55.91h0A14.42,14.42,0,0,0,6.46,3.66a13.43,13.43,0,0,0-3.8,5.6,22.26,22.26,0,0,0-1.24,7.79,22.66,22.66,0,0,0,1,7.2,14,14,0,0,0,3.17,5.41A13.74,13.74,0,0,0,10.52,33a16.35,16.35,0,0,0,6.15,1.11,16.5,16.5,0,0,0,4.07-.5,15.75,15.75,0,0,0,3.75-1.51h0a9.93,9.93,0,0,0,1.67-1.16Z"/><polygon class="cls-2" points="46.7 1.11 40.73 1.11 31.74 29.15 22.37 22.81 15.45 22.81 29.91 32.46 30.67 32.46 36.63 32.46 36.63 32.46 36.63 32.46 46.7 1.11"/><polygon class="cls-2" points="45.39 11.28 48.34 20.58 42.88 20.58 40.75 26.1 50.09 26.1 52.11 32.46 58.84 32.46 48.78 1.11 45.39 11.28"/><path class="cls-2" d="M117.21,21.86h-5.39a11.71,11.71,0,0,1-.75,2.52,6.6,6.6,0,0,1-1.53,2.19h0a6.13,6.13,0,0,1-2.08,1.3,7.66,7.66,0,0,1-2.6.43,7.56,7.56,0,0,1-3.18-.65,7.13,7.13,0,0,1-2.52-2h0a8.65,8.65,0,0,1-1.65-3.43A21,21,0,0,1,96.93,17a19.94,19.94,0,0,1,.59-5.17,8.78,8.78,0,0,1,1.72-3.43h0a7.71,7.71,0,0,1,2.62-2,8.13,8.13,0,0,1,3.3-.65,6.47,6.47,0,0,1,2.2.36,5.62,5.62,0,0,1,1.83,1.06A6.35,6.35,0,0,1,110.6,9a10.25,10.25,0,0,1,.92,2.51H118l-.16-1a14.06,14.06,0,0,0-1.54-4.36,11.2,11.2,0,0,0-2.76-3.28,11.42,11.42,0,0,0-3.83-2A15.6,15.6,0,0,0,105,.23a15.82,15.82,0,0,0-4,.49A15,15,0,0,0,97.33,2.2h0a11.49,11.49,0,0,0-3.1,2.47,13,13,0,0,0-2.18,3.46,19.2,19.2,0,0,0-1.27,4.22,25.42,25.42,0,0,0-.43,4.82,23,23,0,0,0,1,7,13.94,13.94,0,0,0,3,5.3h0A13,13,0,0,0,99,32.78a15.29,15.29,0,0,0,5.91,1.09,14.33,14.33,0,0,0,4.84-.79,12.43,12.43,0,0,0,4-2.37A12.85,12.85,0,0,0,116.72,27,16.41,16.41,0,0,0,118.27,22l0-.17Z"/></g></g></svg>