<svg xmlns="http://www.w3.org/2000/svg" viewBox="0 0 105.44 41.33"><defs><style>.cls-1{fill:#ed1c24;fill-rule:evenodd;}</style></defs><title>Asset 1</title><g id="Layer_2" data-name="Layer 2"><g id="Layer_1-2" data-name="Layer 1"><path class="cls-1" d="M88.07,41.33V21.48H76.49V41.33Zm0-21.49H76.49V0H88.07V19.84ZM103,21.5a13.09,13.09,0,0,1,2.47,7.42A12.44,12.44,0,0,1,93,41.33H89.73V21.48l13.24,0ZM89.73,19.84l11.76,0h0a12.32,12.32,0,0,0-3.88-2.44,9.49,9.49,0,0,0,4.73-8.13A9.37,9.37,0,0,0,93,0H89.73V19.84ZM55.81,41.33H44.26V21.48H55.81V41.33Zm0-21.49H44.26V0H55.81V19.84Zm1.66,21.49V21.48l13.24,0h0a13.09,13.09,0,0,1,2.47,7.42,12.44,12.44,0,0,1-12.4,12.41H57.47Zm0-21.49V0h3.31a9.38,9.38,0,0,1,9.31,9.3,9.5,9.5,0,0,1-4.74,8.13,12.32,12.32,0,0,1,3.88,2.44h0l-11.76,0Zm-37.61,0H7.53L14.47,0h5.39V19.84Zm14,0L26.87,0H21.51V19.84Zm7.53,21.49H31l-2.89-8.26H21.51V21.48H34.42l6.94,19.85ZM0,41.33H10.34l2.9-8.26h6.62V21.48H7L0,41.33Z"/></g></g></svg>