<svg xmlns="http://www.w3.org/2000/svg" width="57.769" height="55" viewBox="0 0 57.769 55">
  <g id="bill" transform="translate(0 -0.39)">
    <path id="Path_414" data-name="Path 414" d="M349.676,43.127c.025,0,.05,0,.076,0a.937.937,0,0,0,.129-.01,2.092,2.092,0,0,1,2.049,2.089.936.936,0,1,0,1.872,0,3.969,3.969,0,0,0-3.114-3.87v-.9a.936.936,0,0,0-1.872,0v.942a3.963,3.963,0,0,0,1.024,7.791,2.091,2.091,0,1,1-2.091,2.091.936.936,0,0,0-1.872,0,3.969,3.969,0,0,0,2.939,3.828v1.026a.936.936,0,1,0,1.872,0v-.983a3.962,3.962,0,0,0-.848-7.833,2.09,2.09,0,0,1-.164-4.174Zm0,0" transform="translate(-305.412 -34.538)" fill="#ff5f3b"/>
    <path id="Path_415" data-name="Path 415" d="M44.481.39A13.429,13.429,0,0,0,31.969,9.178H8.739a.979.979,0,0,0-.936.978L7.582,42.989H.96A.92.92,0,0,0,0,43.881v4.167a7.352,7.352,0,0,0,7.02,7.322v.021h28.9v-.027c.234.009.33.027.478.027h.02a7.352,7.352,0,0,0,7.34-7.351V26.973c.234.013.482.02.724.02a13.3,13.3,0,0,0,0-26.6ZM7.375,53.518H7.369a5.505,5.505,0,0,1-5.5-5.48V44.861H29.014v3.164a7.342,7.342,0,0,0,2.167,5.2c.1.1.22.174.323.291Zm34.508-5.48a5.48,5.48,0,0,1-5.469,5.48H36.4a5.52,5.52,0,0,1-5.511-5.493V43.881a.864.864,0,0,0-.893-.892H9.454L9.669,11.05H31.449a14.063,14.063,0,0,0-.256,2.6,13.2,13.2,0,0,0,1.13,5.356h-8.84a.936.936,0,0,0,0,1.872h9.856a13.208,13.208,0,0,0,8.545,5.862Zm2.6-22.917A11.416,11.416,0,1,1,55.9,13.7,11.416,11.416,0,0,1,44.481,25.121Zm0,0" fill="#ff5f3b"/>
    <path id="Path_416" data-name="Path 416" d="M126.757,212.746a2.9,2.9,0,1,0,3,2.9A2.952,2.952,0,0,0,126.757,212.746Zm0,3.929a1.033,1.033,0,1,1,1.124-1.029A1.08,1.08,0,0,1,126.757,216.675Zm0,0" transform="translate(-109.283 -187.512)" fill="#ff5f3b"/>
    <path id="Path_417" data-name="Path 417" d="M192.719,230.44a.936.936,0,0,0,.936.936h12.478a.936.936,0,0,0,0-1.872H193.655A.936.936,0,0,0,192.719,230.44Zm0,0" transform="translate(-170.173 -202.309)" fill="#ff5f3b"/>
    <path id="Path_418" data-name="Path 418" d="M126.757,143.2a2.9,2.9,0,1,0,3,2.9A2.953,2.953,0,0,0,126.757,143.2Zm0,3.93a1.033,1.033,0,1,1,1.124-1.029,1.08,1.08,0,0,1-1.124,1.029Zm0,0" transform="translate(-109.283 -126.105)" fill="#ff5f3b"/>
    <path id="Path_419" data-name="Path 419" d="M126.757,282.281a2.9,2.9,0,1,0,3,2.9A2.952,2.952,0,0,0,126.757,282.281Zm0,3.929a1.033,1.033,0,1,1,1.124-1.029A1.08,1.08,0,0,1,126.757,286.21Zm0,0" transform="translate(-109.283 -248.911)" fill="#ff5f3b"/>
    <path id="Path_420" data-name="Path 420" d="M206.133,299.5H193.655a.936.936,0,0,0,0,1.872h12.478a.936.936,0,1,0,0-1.872Zm0,0" transform="translate(-170.173 -264.119)" fill="#ff5f3b"/>
  </g>
</svg>
