<svg xmlns="http://www.w3.org/2000/svg" viewBox="0 0 29.66 44.49" width="15" height="25"><defs><style>.cls-1{isolation:isolate;}.cls-2{fill:#ff5f3b;}</style></defs><title>Asset 8</title><g id="Layer_2" data-name="Layer 2"><g id="Layer_1-2" data-name="Layer 1"><g id="_" data-name=" " class="cls-1"><g class="cls-1"><path class="cls-2" d="M29.66,14.83A12.34,12.34,0,0,1,28.71,20L18.16,42.44a3.55,3.55,0,0,1-1.37,1.5,3.75,3.75,0,0,1-3.91,0,3.32,3.32,0,0,1-1.35-1.5L1,20a12.18,12.18,0,0,1-1-5.19A14.29,14.29,0,0,1,4.34,4.35,14.3,14.3,0,0,1,14.83,0,14.3,14.3,0,0,1,25.32,4.35,14.29,14.29,0,0,1,29.66,14.83Zm-9.59,5.24a7.12,7.12,0,0,0,2.18-5.24,7.14,7.14,0,0,0-2.18-5.24,7.11,7.11,0,0,0-5.24-2.17A7.13,7.13,0,0,0,9.59,9.59a7.13,7.13,0,0,0-2.17,5.24,7.11,7.11,0,0,0,2.17,5.24,7.14,7.14,0,0,0,5.24,2.18A7.12,7.12,0,0,0,20.07,20.07Z"/></g></g></g></g></svg>