<svg id="chatting" xmlns="http://www.w3.org/2000/svg" width="50" height="50" viewBox="0 0 50 50">
  <g id="XMLID_1_">
    <path id="Path_435" data-name="Path 435" d="M19.625,2.042a1.381,1.381,0,0,1,1.458.417v.625c0,.417-.208.625-.625.833L19,4.751V2.459Z" transform="translate(20.583 2.124)" fill="#ff5f3b"/>
    <path id="Path_436" data-name="Path 436" d="M17.625,9.908,7,4.492V2.2L18.458,8.033a1.562,1.562,0,0,0,1.875,0L32,2.2V4.492L21.375,9.908a3.1,3.1,0,0,1-1.875.417A3.1,3.1,0,0,1,17.625,9.908Z" transform="translate(7.583 2.383)" fill="#ff5f3b"/>
    <path id="Path_437" data-name="Path 437" d="M33.958,25.551a3.2,3.2,0,0,0,3.125-3.125V9.926a3.251,3.251,0,0,0-1.667-2.708A1.2,1.2,0,0,1,35,5.759a1.2,1.2,0,0,1,1.458-.417,5.429,5.429,0,0,1,2.708,4.583v12.5a5.158,5.158,0,0,1-5.208,5.208h-7.5L20,33.676a.765.765,0,0,1-.625.208h-.417a1.146,1.146,0,0,1-.625-1.042V27.634H15.208A5.158,5.158,0,0,1,10,22.426V20.342A.984.984,0,0,1,11.042,19.3a.984.984,0,0,1,1.042,1.042v2.083a3.2,3.2,0,0,0,3.125,3.125h4.167a.984.984,0,0,1,1.042,1.042v3.958l5-4.583a.765.765,0,0,1,.625-.208h7.917Z" transform="translate(10.833 5.699)" fill="#ff5f3b"/>
    <path id="Path_438" data-name="Path 438" d="M6.208,2.459a1,1,0,0,1,1.25-.417l.625.417V4.751L6.625,3.917A1.116,1.116,0,0,1,6,3.084.765.765,0,0,1,6.208,2.459Z" transform="translate(6.5 2.124)" fill="#ff5f3b"/>
    <path id="Path_439" data-name="Path 439" d="M9.125,18.125A3.2,3.2,0,0,1,6,15V2.5c0,.417.208.625.625.833l1.458.833V15a.984.984,0,0,0,1.042,1.042H32.042A.984.984,0,0,0,33.083,15V4.167l1.458-.833a1.116,1.116,0,0,0,.625-.833V15a3.2,3.2,0,0,1-3.125,3.125Z" transform="translate(6.5 2.708)" fill="#ff5f3b"/>
    <path id="Path_440" data-name="Path 440" d="M8.083,3.125V4.583l-.625-.417a1,1,0,0,0-1.25.417A.765.765,0,0,0,6,5.208V3.125A3.2,3.2,0,0,1,9.125,0H32.042a3.2,3.2,0,0,1,3.125,3.125V5.208c0-.208,0-.417-.208-.417a.929.929,0,0,0-1.25-.625l-.625.417V3.125a.984.984,0,0,0-1.042-1.042H9.125A.984.984,0,0,0,8.083,3.125Z" transform="translate(6.5)" fill="#ff5f3b"/>
    <path id="Path_441" data-name="Path 441" d="M12.917,17.75A4.167,4.167,0,1,0,8.75,21.917,4.179,4.179,0,0,0,12.917,17.75ZM8.75,24A6.25,6.25,0,1,1,15,17.75,6.268,6.268,0,0,1,8.75,24Z" transform="translate(2.708 12.458)" fill="#ff5f3b"/>
    <path id="Path_442" data-name="Path 442" d="M20.833,28.375V24.208a3.2,3.2,0,0,0-3.125-3.125H5.208a3.2,3.2,0,0,0-3.125,3.125v4.167a.984.984,0,0,1-1.042,1.042A.984.984,0,0,1,0,28.375V24.208A5.158,5.158,0,0,1,5.208,19h12.5a5.158,5.158,0,0,1,5.208,5.208v4.167a1.042,1.042,0,1,1-2.083,0Z" transform="translate(0 20.583)" fill="#ff5f3b"/>
  </g>
</svg>
