<svg xmlns="http://www.w3.org/2000/svg" width="25.573" height="18.988" viewBox="0 0 25.573 18.988">
  <g id="Group_187" data-name="Group 187" transform="translate(0)">
    <path id="Rectangle_143" data-name="Rectangle 143" d="M3.012,0H25.573a0,0,0,0,1,0,0V18.988a0,0,0,0,1,0,0H2.676A2.676,2.676,0,0,1,0,16.312V3.012A3.012,3.012,0,0,1,3.012,0Z" transform="translate(0 0)" fill="#83cbe6"/>
    <path id="Rectangle_144" data-name="Rectangle 144" d="M4.168,0H15.344a0,0,0,0,1,0,0V8.737a0,0,0,0,1,0,0H4.568A4.568,4.568,0,0,1,0,4.168v0A4.168,4.168,0,0,1,4.168,0Z" transform="translate(10.229 4.994)" fill="#fff"/>
    <path id="Path_131" data-name="Path 131" d="M2.473,0A2.473,2.473,0,1,1,0,2.473,2.473,2.473,0,0,1,2.473,0Z" transform="translate(12.422 6.818)" fill="#83cbe6"/>
  </g>
</svg>
