<svg xmlns="http://www.w3.org/2000/svg" viewBox="0 0 175.92 59.4" width="170" height="60"><defs><style>.cls-1{fill:#0b0305;}.cls-1,.cls-10,.cls-11,.cls-12,.cls-13,.cls-14,.cls-15,.cls-16,.cls-17,.cls-18,.cls-19,.cls-2,.cls-20,.cls-21,.cls-22,.cls-3,.cls-4,.cls-5,.cls-6,.cls-7,.cls-8,.cls-9{fill-rule:evenodd;}.cls-2{fill:#110707;}.cls-3{fill:#787779;}.cls-4{fill:#5c5a5b;}.cls-5{fill:#8c898a;}.cls-6{fill:#878486;}.cls-7{fill:#15a8e1;}.cls-8{fill:#fffffd;}.cls-9{fill:#f59c00;}.cls-10{fill:#f5c700;}.cls-11{fill:#251903;}.cls-12{fill:#170b02;}.cls-13{fill:#1d1300;}.cls-14{fill:#092f3f;}.cls-15{fill:#f9c06c;}.cls-16{fill:#023f53;}.cls-17{fill:#06262f;}.cls-18{fill:#051d26;}.cls-19{fill:#51bce9;}.cls-20{fill:#007297;}.cls-21{fill:#0e050a;}.cls-22{fill:#0c9ed2;}</style></defs><title>Asset 2</title><g id="Layer_2" data-name="Layer 2"><g id="Layer_1-2" data-name="Layer 1"><path class="cls-1" d="M97,24.45c-1.78,1-2.84-.61-2.1-1.91s2.78-.83,2.1,1.91Zm26.3.57.06-1.2-3.15-.22c-.71-.19-.75-2.13.33-2.61,2-.45.59,1,2.68.34-.63-2.56-5.43-2.41-4.74,2.43-6.62,0-6,.46-6.46-.89a3.58,3.58,0,0,0-2-2.73c-1.22-.55-5.09-.31-4.09,1.42,1,.51,1.07-1,3.09-.47a2.45,2.45,0,0,1,1.76,2.63H98.63c-.2-1.79-.74-3.13-2.84-3-2.76.13-1.79,2.78-2.88,3H82.58c-2.42-.16-1.4-1.61-1.55-6.13l-1.26-.1c-.18,8.88-1.64,7.69,12.19,7.55,3.26,0,3.23,1.95,5.32.65.8-.49.21-.68,2.59-.65C105.27,25.11,119.57,25.28,123.25,25Z"/><path class="cls-1" d="M155.24,24.71c-1-1.77,0-3.6,1.44-2.61,1.06.72,1,3.26-1.44,2.61ZM128.82,23a2.45,2.45,0,0,1-.43-2.48c.39-1,1.13-.88,2.42-.88.09,1.77.42,3.61-2,3.36Zm16.89-.51c-.59-.47-1.08-.76-1.82-1.34a3.43,3.43,0,0,1,3.22-.06,2.53,2.53,0,0,1-1.4,1.4Zm-14.88.94c.42,1.16,1.11,1.62,2.64,1.62h8.64c1.88,0,2.34-.58,3.22-.68a12.27,12.27,0,0,0,3,.66c1.37,0,2.74,0,4.1,0,2.55,0,1.64.91,3.38,1a2.66,2.66,0,0,0,2-4.62,2.61,2.61,0,0,0-4.19.8c-.55,1.44,1.06,1.79-5.52,1.51l-1.28-.11c0-.88,1.23-1,1.82-2.82-1.32-1.39-5.3-1.9-6.39,0-.37,1.58,1.29.93,2.23,2.4-1.19.87-8.55.46-10.28.46-2.58,0-2.05-1.12-2.05-4.94-1-.33-6.08-1-5.2,3.5A2.31,2.31,0,0,0,128.37,24,2.49,2.49,0,0,0,130.83,23.46Z"/><path class="cls-1" d="M175.62,25.05c1-4.53-4.09-7-6.53-4l.54.81c2.18-1.16,4.6-1.26,4.65,1.87-2.25,0-11.34.31-12.73-.23-.79-1.18-.39-4.4-.39-6-1.68,0-1.32-.28-1.29,2.42.06,4.94-.47,5.19,3.84,5.18C167.68,25,171.66,25.09,175.62,25.05Z"/><path class="cls-1" d="M85.26,42.47l1.18,0,.38-5.12,1.63,2.85c1.6,3,2.07-2.25,3.36-2.92.08,1,.15,2,.2,3,0,.13.07,1.49.08,1.5.27,1-.38.71,1.06.73l.16-1.71c0-.58-.08-1.12-.11-1.7,0-.78,0-3.35-.37-3.81-1.44-1.62-2.41,2.7-3.52,4-.66-.76-1.84-5.18-3.39-4.1C85.33,35.57,85.29,41.3,85.26,42.47Z"/><path class="cls-1" d="M122,37.41a16.65,16.65,0,0,1,2.19,3c1.56,2.35,1.17,2.42,2.82,2.41l.09-5.71c0-1.49-.21-1.3-.24-1.54s-.06-.13-.1-.19c-1,0-.78-.21-1,.76V40.6c-2-1.71-2.56-5.77-4.94-5a33.59,33.59,0,0,0-.09,7.31l1.19,0Z"/><path class="cls-1" d="M103.23,42.5c.76-.37.53.06.51-2.7A23.41,23.41,0,0,1,103.8,37c2.35,2.55,2.53,5.49,5,5.48l-.14-7.41c-2-.12-.78,1.37-1.2,5.16a23.59,23.59,0,0,1-2.15-3c-.61-.91-1.21-2.66-2.59-2-.39.33-.34,1.16-.34,1.94s0,1.29,0,1.93C102.44,43.09,102.08,42.35,103.23,42.5Z"/><path class="cls-1" d="M146.5,36.53c1.17-.1,3.24-.28,3.14,1.35-.08,1.4-1.93,1.27-3.22,1.15l.08-2.5Zm3.29,3.27c3.67-3.1-1.18-5.48-4.64-4.1l.09,7.15h1.17l.11-2.72h1.82c.55.71,1.14,2,1.63,2.74l1.4,0Z"/><path class="cls-1" d="M152.11,42l.59.45a5.43,5.43,0,0,0,2.61.51c1.28,0,2.5-.53,2.81-1.53,1-3.21-3.31-2.3-4.66-3.52,0-2.51,2.91-.88,4.18-.77.64-1.87-2.47-2.05-3.94-1.58a1.94,1.94,0,0,0-.41,3.67c.73.35,4.91.66,3.33,2.13a3.11,3.11,0,0,1-2.57.2C152.61,41.11,152.65,40.48,152.11,42Z"/><path class="cls-1" d="M143.72,41.69l-4,0,.08-2c1.2,0,3.16.3,4-.34-.14-1-.42-.88-1.64-.87-.85,0-1.59,0-2.44,0v-1.8c1-.07,5.1.42,4.17-.94-.3-.45-2.21-.32-2.72-.32-.75,0-2.33-.28-2.49.48l-.09,6.94h5.25Z"/><path class="cls-1" d="M97.72,36.43a7.17,7.17,0,0,1,1.34,3.06l-2.56,0,1.22-3Zm-3.64,6c1.37,0,1,.27,1.5-.74.54-1.17-.35-1.34,4-1.14.84,1.73.11,1.9,2.09,1.89A30.93,30.93,0,0,0,100,38.22C98.69,35,99.05,35,97.43,35,96.57,36,94.4,41.07,94.08,42.48Z"/><path class="cls-1" d="M74.91,36.6a6.9,6.9,0,0,1,1.21,2.9l-2.52,0,1.31-2.86Zm-3.74,5.9c2.76-.07.5-1.93,2.78-1.93,3.48,0,2.53-.14,3.13,1.14.48,1,.26.82,1.64.77a32.52,32.52,0,0,0-1.53-4c-1.64-4.25-2.39-5.08-4.35-.27A33.08,33.08,0,0,0,71.17,42.5Z"/><path class="cls-1" d="M112.83,35.46c0,.09-1.85,7.38,3.12,7.46s3.29-7.26,3.12-7.5c-1.19,0-1,.12-1,1.48,0,1.94.49,4.54-1.63,4.84-3.78.53-1.84-4-2.61-6.28Z"/><path class="cls-1" d="M72.36,19.8l-1.15,0c-1.23,7.38,3.87,8.66,6.24,6,1-1.11,1-2.22,1.09-4,.06-2.58.08-1.91-.56-2-2-.37.43,4.14-1.88,5.62a2.25,2.25,0,0,1-3.33-1C72.14,23.07,72.6,21.3,72.36,19.8Z"/><path class="cls-1" d="M134.43,42.86c.86-.34,3.27-6.81,3.36-7.37-1.74-.25-1.64,1-2.27,2.51-.5,1.22-.85,2.23-1.41,3.38-1.11-1.62-1.94-5.52-2.66-5.85-.95-.44-.89.11-.94.14-.2.92.9,2.82,1.35,3.83C133,42.09,132.82,42.86,134.43,42.86Z"/><path class="cls-1" d="M164.67,35.37c-1,0-2.88-.41-3.28.59.33.34-.39.44,1.1.59.39,0,1.16,0,1.68,0l.08,6.32h1.17l.1-6.27c.57,0,1.08,0,1.57,0,1.41-.08.88.18,1.26-.61C167.82,35,167.1,35.37,164.67,35.37Z"/><path class="cls-1" d="M169.1,35.49A14.4,14.4,0,0,0,171,38.78c1.3,1.88.58,1.69.9,4.09l1.14,0c.3-2.82-.42-2.06,1-4.21a13.15,13.15,0,0,0,1.86-3.11c-.4-.07-1-.33-1.17,0l-2.15,3.3-2.37-3.26Z"/><path class="cls-1" d="M79.56,40.61a3.35,3.35,0,0,0-.59.89,4.23,4.23,0,0,0,3.59.94C84.84,41.87,84.3,39,84.3,36c0-.79,0-.45-.27-.9l-.73,0c-.68,1.31,0,3.56-.31,5.21C82.52,42.41,80.4,41,79.56,40.61Z"/><path class="cls-2" d="M160.59,35.49c-1.08-.16-1.07-.15-1.14.93l.06,6.42,1.19-.05C160.8,41.42,161,36.52,160.59,35.49Z"/><polygon class="cls-2" points="128.53 42.85 129.74 42.76 129.64 35.47 128.51 35.44 128.53 42.85"/><path class="cls-3" d="M143.72,41.69l.1,1.09h-5.25l.09-6.94c-.34.3-.2-.47-.34.6l0,6.39a19.23,19.23,0,0,0,5.62,0C144.09,41.71,144,42,143.72,41.69Z"/><path class="cls-1" d="M107.56,27.57h1.3v-1.3H108c-.58.3-.16-.33-.41.35A3,3,0,0,0,107.56,27.57Z"/><polygon class="cls-2" points="74.22 18.62 75.41 18.62 75.52 17.72 75.39 17.31 74.27 17.32 74.22 18.62"/><polygon class="cls-1" points="130.8 17.54 132 17.56 131.83 16.35 130.89 16.34 130.8 17.54"/><polygon class="cls-1" points="172.29 26.3 171.33 26.27 171.33 27.61 172.29 27.61 172.29 26.3"/><polygon class="cls-1" points="129.89 17.51 129.82 16.35 128.88 16.35 128.66 17.54 129.89 17.51"/><path class="cls-4" d="M172.29,26.3v1.31h-1V26.27c-.27.62-.22.66-.14,1.49h1.33C172.59,26.63,172.7,26.94,172.29,26.3Z"/><path class="cls-5" d="M130.8,17.54c.71.43.72.28,1.37.08.15-1.18.06-.94-.34-1.27l.17,1.21Z"/><path class="cls-6" d="M129.89,17.51l-1.23,0,.22-1.19c-.6.48-.18-.31-.38.45a1.51,1.51,0,0,0,0,.82C129.77,18,129.61,17.7,129.89,17.51Z"/><path class="cls-7" d="M47.44,28.85c.25.26.43-.49.44,1,0,.84-.14.65-.33.89a2.19,2.19,0,0,1-.11-1.87Zm2.31.38c.3.66.25.66.13,1.49-.59,0-.16.11-.64-.17l-.14-.1L48.56,30c-.61-.54-.38,0-.3-.89.83-.49,1.05-.42,1.49.12Zm-42.92.12c.66-.79.68-.78,1.54-.42.21,1.08-.21,1.23-.69,1.79l-.85-1.37ZM52.6,30.74a1.52,1.52,0,0,1,.47-2c.46.39.11-.13.41.44.71,1.34.07,1.5.07,1.5l-.46-1-.49,1.1Zm-2.31,0c.45-2.4.35-1.66.86-1.95.37.48.79,1.34.48,1.91-.46-.45-.39-.56-.58-1.28-.28.76,0,.64-.76,1.32ZM11,28.74h.72c.19.5.6.74.27,1.77-2,.92-1.54-1.29-1-1.77Zm-1.21,0c-.88-.21-1.11.25-1.14,1,0,1.16.36,1.05,1.52.92A2.14,2.14,0,0,0,10,29c0-.12-.08-.13-.13-.19Zm-3.26-.05v1.93a2.88,2.88,0,0,1-.41-1.19l-.27-.32c0-.42.17-.24.68-.42ZM17,48.54v-.2l-4.31.07a7.86,7.86,0,0,1,.6-3c-.16-1.82,4.65-31.93,5-35,2.59-.09,1.84.14,2.08,2.36h1.7c.14-1.33-.36-2.43,1-2.45s.88,1.09,1,2.43l1.74,0,.11-2.3h1.62l.18,2.29,1.75.05a6,6,0,0,1,.25-2.21c2.1-.76,1.52.62,1.72,2.21h1.69c.13-1.3-.35-2.4,1-2.43s.84,1.08,1,2.44h1.69L37,10.41c1-.09,1-.26,1.63.29.27.23.34-.47.34,1.87h1.42c0-.92-.15-1.33.28-2,.67-.38,1-.24,1.88-.24.69,5.85,1.32,11.69,2,17.55.28,2.52,2.2,16.45,1.68,17.5.61.53.58,2.24.53,3.09,2.13.13,1.82.54,3.62-1.51,6.27-7.11,7.91-18.48,4.15-27.66-9-21.89-40-21.95-49.29-.92a26.94,26.94,0,0,0,3,27.54c.79,1.07,1.66,1.92,2.38,2.86A36.11,36.11,0,0,1,17,48.54Z"/><path class="cls-8" d="M13.28,45.44l2.06.66,1.4-2.84-2.11-1.61c1-1.88,2.35-2.72,3.58-4.1a4.89,4.89,0,0,1,1.63,2,10.56,10.56,0,0,0,3-1.78l-1-2.39a11,11,0,0,1,5.29-1.65l.39,2.51,4.29,0,.36-2.56,4.45,1c.32-1.28,5.61-14.56,6.14-15.23.19.31.13-.09.14.48,0,.89-4.13,12-4.6,13.32A33.88,33.88,0,0,0,36.65,38c1.34.42,1.56,1.1,2.83,1.48a4.89,4.89,0,0,1,1.63-2c1.12,1.3,2.77,2.34,3.53,4l-2.1,1.59L44,46.07l2.12-.67c.52-1-1.4-15-1.68-17.5-.65-5.86-1.28-11.7-2-17.55-.84,0-1.21-.14-1.88.24l-.08,2.21-1.85-.05-.11-2.05c-.58-.55-.65-.38-1.63-.29l-.17,2.34H35.09c-.13-1.36.4-2.47-1-2.44s-.86,1.13-1,2.43H31.44c-.2-1.59.38-3-1.72-2.21a6,6,0,0,0-.25,2.21l-1.75-.05-.18-2.29H25.92l-.11,2.3-1.74,0c-.12-1.34.37-2.45-1-2.43s-.83,1.12-1,2.45H20.4c-.24-2.22.51-2.45-2.08-2.36C17.93,13.51,13.12,43.62,13.28,45.44Z"/><path class="cls-9" d="M31,55.94l.41.06c2.64-2.75,9.89-6.14,15.51-4.9.08.67-2.14,2-3,2.14-8.52,1-5,.07-13.16,3.63-.2.4-.06.52-.73.59s-.8-.34-1-.59c-6.11-2.79-6.28-3.19-13.41-3.63a4.89,4.89,0,0,1-3.28-2.16c7.29-.55,12.08,1.32,16.09,4.93l.41-.07c-1.2-1.76-4.52-4.12-7.28-5.18-4.74-1.81-6-1.09-11-1-.49-.49-.91-.83-1.58-1.53C.82,39.61-.35,25.06,6.38,14.59A27.15,27.15,0,0,1,19.76,3.72,27.79,27.79,0,0,1,57,34.46a27.38,27.38,0,0,1-5.57,12.43c-3.75,4.8-3,2-8.85,2.71-4.3.56-9.8,3.47-11.61,6.34ZM26.43.21C11.17,2-1.79,15.49.2,33,1.91,48.08,15.62,61.26,33,59.18c15.09-1.81,28.09-15.31,26.1-32.77C57.41,11.3,43.8-1.84,26.43.21Z"/><path class="cls-1" d="M13.28,45.44a7.86,7.86,0,0,0-.6,3L17,48.34c1.08-1.77,1.05-3.1,2.48-4.83a12.93,12.93,0,0,1,15.05-4l-1.17,3.19,1.1.31,1.34-2.84c3,1.19,5.61,5,6.45,8.37l4.44-.07c0-.85.08-2.56-.53-3.09L44,46.07l-1.49-2.89,2.1-1.59c-.76-1.7-2.41-2.74-3.53-4a4.89,4.89,0,0,0-1.63,2C38.21,39.12,38,38.44,36.65,38a33.88,33.88,0,0,1,1.64-4.72C38.76,32,42.91,20.87,42.89,20c0-.57,0-.17-.14-.48-.53.67-5.82,14-6.14,15.23l-4.45-1-.36,2.56-4.29,0-.39-2.51a11,11,0,0,0-5.29,1.65l1,2.39a10.56,10.56,0,0,1-3,1.78,4.89,4.89,0,0,0-1.63-2c-1.23,1.38-2.62,2.22-3.58,4.1l2.11,1.61-1.4,2.84Z"/><path class="cls-10" d="M20.06,46c1,.19,4,1.34,4.43,2.08-.69.16-2.15-.65-3.38-1.17s-.74-.66-1.05-.91Zm15.06,2.06c.18-.26,0-.14.32-.37a3.31,3.31,0,0,1,.65-.29l2.36-1c1.75-.78,1-.12,1.3.13-1.74.5-3.87,2-4.63,1.56ZM30,45.1c-.59-.27-.39,0-.4-1.09,0-1.3-.24-3.93.4-4.25a13.34,13.34,0,0,1,0,5.34Zm3.62,1.48c.94-.22,1.41-1.08,2-1.74a7.26,7.26,0,0,0,1.81-2.14c-.9.16-.49,0-1.24.79s-2.49,1.86-2.6,3.09ZM26,46.44c-.34-1.06-1.55-2-2.45-3-.61-.64-.29-.56-1.23-.74a7.25,7.25,0,0,0,1.66,2c.66.68,1,1.35,2,1.72Zm1.83-1.07c-.63-.33-.39-.16-.76-1.1-.16-.4-.3-.76-.48-1.2s-.37-.86-.58-1.36c-.35-.83-.27-.79-.1-1.19.66.51,2.18,4.31,1.92,4.85ZM17,48.34v.2c3.54.37,4.69,1.35,7.49,2.41.87-2,.62-2.59,2.29-3.74,1.82-1.25,2.84-.8,5-.57.22-.6.48-1.24.69-1.89.43-1.34.21-1.6,1.53-1.13.13,1.1-.9,2.27-1.07,3.48.21,1.06.54.79,1.11,1.76a5.07,5.07,0,0,1,.63,2.59c1.61-1.4,4.95-2.53,7.57-2.89-.84-3.41-3.44-7.18-6.45-8.37L34.45,43l-1.1-.31,1.17-3.19a12.93,12.93,0,0,0-15.05,4C18,45.24,18.07,46.57,17,48.34Z"/><path class="cls-8" d="M46.68,48.49l-4.44.07c-2.62.36-6,1.49-7.57,2.89-2.6,1.59-4.21,3.67-5,4.06-3.55-3.75-1.9-1.86-5.24-4.56-2.8-1.06-3.95-2-7.49-2.41a36.11,36.11,0,0,0-6.46.26c-.72-.94-1.59-1.79-2.38-2.86a26.94,26.94,0,0,1-3-27.54c9.3-21,40.33-21,49.29.92C58.21,28.5,56.57,39.87,50.3,47c-1.8,2.05-1.49,1.64-3.62,1.51ZM28.85,55.94c.62.36.64.64,1.13,1.13.4-.65.37-.81,1-1.13,1.81-2.87,7.31-5.78,11.61-6.34,5.82-.76,5.1,2.09,8.85-2.71A27.38,27.38,0,0,0,57,34.46,27.79,27.79,0,0,0,19.76,3.72,27.15,27.15,0,0,0,6.38,14.59C-.35,25.06.82,39.61,9,48.21c.67.7,1.09,1,1.58,1.53,4.94-.07,6.24-.79,11,1C24.33,51.82,27.65,54.18,28.85,55.94Z"/><path class="cls-9" d="M30.27,51.29a6.46,6.46,0,0,1,.38-1.15c.37-.71.27-.4.58-.62.68,1.09-.06,1.36-1,1.77ZM24.48,51c3.34,2.7,1.69.81,5.24,4.56.74-.39,2.35-2.47,5-4.06A5.07,5.07,0,0,0,34,48.86c-.57-1-.9-.7-1.11-1.76a5.46,5.46,0,0,0-.73,1.47c-.47,1,0,.76-1.21.57l.79-2.5c-2.17-.23-3.19-.68-5,.57C25.1,48.36,25.35,49,24.48,51Z"/><path class="cls-8" d="M31.37,56c0,.06-.1.08-.12.18l-.5.69c8.18-3.56,4.64-2.62,13.16-3.63.83-.1,3.05-1.47,3-2.14C41.26,49.86,34,53.25,31.37,56Z"/><path class="cls-8" d="M29,56.87l-.09,0c-.05-.08-.16-.28-.19-.32l-.21-.34a1.42,1.42,0,0,1-.11-.18c-4-3.61-8.8-5.48-16.09-4.93a4.89,4.89,0,0,0,3.28,2.16C22.76,53.68,22.93,54.08,29,56.87Z"/><path class="cls-1" d="M31.78,46.64,31,49.14c1.23.19.74.44,1.21-.57a5.46,5.46,0,0,1,.73-1.47c.17-1.21,1.2-2.38,1.07-3.48-1.32-.47-1.1-.21-1.53,1.13C32.26,45.4,32,46,31.78,46.64Z"/><path class="cls-11" d="M30,45.1a13.34,13.34,0,0,0,0-5.34c-.64.32-.41,3-.4,4.25C29.64,45.1,29.44,44.83,30,45.1Z"/><path class="cls-11" d="M33.65,46.58c.94-.22,1.41-1.08,2-1.74a7.26,7.26,0,0,0,1.81-2.14c-.9.16-.49,0-1.24.79S33.76,45.35,33.65,46.58Z"/><path class="cls-12" d="M27.87,45.37c.26-.54-1.26-4.34-1.92-4.85-.17.4-.25.36.1,1.19.21.5.39.9.58,1.36s.32.8.48,1.2C27.48,45.21,27.24,45,27.87,45.37Z"/><path class="cls-13" d="M35.12,48.07c.76.41,2.89-1.06,4.63-1.56-.28-.25.45-.91-1.3-.13l-2.36,1a3.31,3.31,0,0,0-.65.29C35.09,47.93,35.3,47.81,35.12,48.07Z"/><path class="cls-13" d="M26,46.44c-.34-1.06-1.55-2-2.45-3-.61-.64-.29-.56-1.23-.74a7.25,7.25,0,0,0,1.66,2C24.68,45.4,25,46.07,26,46.44Z"/><path class="cls-13" d="M20.06,46c.31.25-.2.39,1.05.91s2.69,1.33,3.38,1.17C24.08,47.35,21.05,46.2,20.06,46Z"/><path class="cls-14" d="M9.14,30.07l.69-.1c-.23.69-.68.1-.69.1Zm.43-.92c.73,0-.15-.2.26.29l-.61-.09c.4-.43-.33-.17.35-.2ZM10,29c0-.12-.08-.13-.13-.19-.88-.21-1.11.25-1.14,1,0,1.16.36,1.05,1.52.92A2.14,2.14,0,0,0,10,29Z"/><path class="cls-14" d="M11.05,30.07l.68-.1c-.4.48.79.41-.26.3-.52-.06-.1.05-.42-.2Zm.43-.91c.69,0-.19-.26.24.29l-.59-.1c.33-.34-.27-.18.35-.19ZM12,30.51c.33-1-.08-1.27-.27-1.77H11C10.49,29.22,10.05,31.43,12,30.51Z"/><path class="cls-15" d="M29,56.87c.18.25.18.66,1,.59s.53-.19.73-.59l.5-.69c0-.1.08-.12.12-.18L31,55.94c-.61.32-.58.48-1,1.13-.49-.49-.51-.77-1.13-1.13l-.41.07a1.42,1.42,0,0,0,.11.18l.21.34s.14.24.19.32Z"/><path class="cls-16" d="M7.37,29.2c.51-.17.2-.16.63.1-.47,1-.48.25-.63-.1Zm.31,1.52c.48-.56.9-.71.69-1.79-.86-.36-.88-.37-1.54.42Z"/><path class="cls-17" d="M53.09,29.64l.46,1s.64-.16-.07-1.5c-.3-.57.05-.05-.41-.44a1.52,1.52,0,0,0-.47,2Z"/><path class="cls-18" d="M50.29,30.73c.76-.68.48-.56.76-1.32.19.72.12.83.58,1.28.31-.57-.11-1.43-.48-1.91C50.64,29.07,50.74,28.33,50.29,30.73Z"/><path class="cls-19" d="M40.62,10.59c-.43.65-.28,1.06-.28,2H38.92c0-2.34-.07-1.64-.34-1.87l.11,2.05,1.85.05Z"/><path class="cls-18" d="M49.18,29.53c.1,1,.19-.18-.19.26-.74-.63-.19-.44,0-.69.24.33.14-.05.19.43Zm-.62.47c.5.09.39,0,.75.24l.44-1c-.44-.54-.66-.61-1.49-.12C48.18,30,48,29.46,48.56,30Z"/><path class="cls-13" d="M30.27,51.29c.9-.41,1.64-.68,1-1.77-.31.22-.21-.09-.58.62A6.46,6.46,0,0,0,30.27,51.29Z"/><path class="cls-16" d="M47.44,28.85a2.19,2.19,0,0,0,.11,1.87c.19-.24.34,0,.33-.89C47.87,28.36,47.69,29.11,47.44,28.85Z"/><path class="cls-20" d="M48.56,30l.54.45.14.1c.48.28,0,.17.64.17.12-.83.17-.83-.13-1.49l-.44,1C49,30,49.06,30.09,48.56,30Z"/><path class="cls-21" d="M6.16,29.47a2.88,2.88,0,0,0,.41,1.19V28.73c-.51.18-.66,0-.68.42Z"/><path class="cls-22" d="M7.37,29.2c.15.35.16,1.11.63.1C7.57,29,7.88,29,7.37,29.2Z"/><path class="cls-7" d="M49,29.79c.38-.44.29.72.19-.26,0-.48,0-.1-.19-.43C48.8,29.35,48.25,29.16,49,29.79Z"/><path class="cls-7" d="M9.14,30.07s.46.59.69-.1Z"/><path class="cls-7" d="M11.05,30.07c.32.25-.1.14.42.2,1,.11-.14.18.26-.3Z"/><path class="cls-22" d="M9.22,29.35l.61.09c-.41-.49.47-.32-.26-.29S9.62,28.92,9.22,29.35Z"/><path class="cls-22" d="M11.13,29.35l.59.1c-.43-.55.45-.31-.24-.29S11.46,29,11.13,29.35Z"/></g></g></svg>