<svg xmlns="http://www.w3.org/2000/svg" viewBox="0 0 315.1 109.07" width="130" height="50"><defs><style>.cls-1{fill:#b0966a;fill-rule:evenodd;}</style></defs><title>Asset 1</title><g id="Layer_2" data-name="Layer 2"><g id="Layer_1-2" data-name="Layer 1"><path class="cls-1" d="M185.74,57.52l10.62.17c.49,0,.37-.28.26-.39-.46-.48-1.6-1-1-2.63l16.09-44,18.72,46.84h11.9c.24-.2,0-.45-1.31-.75s-2-1.49-2.71-3.08L216.84,0H206.79l-21,57.52Zm117.3,0h10.13a4.34,4.34,0,0,1-.82-.25,3.66,3.66,0,0,1-2-2.82V3.06a3.66,3.66,0,0,1,2-2.81,3.72,3.72,0,0,1,.82-.25h-12.9A3.91,3.91,0,0,1,303,2.09V55.43a3.91,3.91,0,0,1-2.77,2.09Zm-19.53,0h14.9c-1.64-.31-3.92-.27-6.87-3.07l-28.15-28.1h-.05l23.34-23.3C289.62.27,291.9.31,293.54,0H277.38c1.34.35,1.82,1.31.35,2.93L254.32,26.11v-23A3.63,3.63,0,0,1,256.27.25a3.72,3.72,0,0,1,.82-.25h-12.9A3.91,3.91,0,0,1,247,2.09V55.43a3.91,3.91,0,0,1-2.77,2.09h12.9a4.34,4.34,0,0,1-.82-.25,3.64,3.64,0,0,1-1.95-2.82V28.36l26.77,26.23c1.47,1.62,1,2.58-.35,2.93Z"/><path class="cls-1" d="M309.21,82.59h2.46a.66.66,0,0,1-.2-.06.86.86,0,0,1-.47-.68V69.36a.86.86,0,0,1,.47-.68.66.66,0,0,1,.2-.06h-3.14a.94.94,0,0,1,.68.51v13a1,1,0,0,1-.68.5ZM187.3,75.7h17.6V83H185.52v-.41h0v-.46s0,0,0,0v-13a.94.94,0,0,0-.67-.51H188a.66.66,0,0,0-.2.06.86.86,0,0,0-.47.68V75.7Zm16.08,1.5H187.3v4.29h16.08V77.2Zm76.49-7.14a.94.94,0,1,1-.93.93.93.93,0,0,1,.93-.93ZM257.08,85.33a.93.93,0,1,1-.93.93.94.94,0,0,1,.93-.93Zm-3.26,0a.93.93,0,1,1-.93.93.94.94,0,0,1,.93-.93Zm34.85-3.84-7.94-6.69c-.42-.42-.55-.67-.46-.79a.23.23,0,0,1,.11-.07h-3.13a4.34,4.34,0,0,1,1.37.59l8.26,7H256.69V75.9a.91.91,0,0,1,.48-.69l.19-.06h-3.13a1,1,0,0,1,.67.51v5.83H211.72V69.36a.86.86,0,0,1,.47-.68.66.66,0,0,1,.2-.06h-3.13a.94.94,0,0,1,.67.51v13a1,1,0,0,1-.67.5H210a1.5,1.5,0,0,1-.3.24h91.91v-.24h.82a.76.76,0,0,1-.2-.06.86.86,0,0,1-.47-.68V69.36a.86.86,0,0,1,.47-.68.76.76,0,0,1,.2-.06h-3.13a.94.94,0,0,1,.67.51V81.49Zm-144,7.07H140L140,88a2.68,2.68,0,0,1,1.59-2.19,8.89,8.89,0,0,1,2.89-.63l.09,1a8,8,0,0,0-2.55.54,1.7,1.7,0,0,0-.87.86h3.5v1ZM103.48,69.83a.93.93,0,1,1-.93.93.93.93,0,0,1,.93-.93Zm-3.26,0a.93.93,0,1,1-.93.93.93.93,0,0,1,.93-.93Zm-16-2.8a.94.94,0,1,1-.94.94.94.94,0,0,1,.94-.94Zm1.39,2.8a.93.93,0,1,1-.93.93.93.93,0,0,1,.93-.93Zm-3.26,0a.93.93,0,1,1-.93.93.93.93,0,0,1,.93-.93Zm56.87,11.66h7l-2-5.57-.22-.63-2.21-6.16a1.49,1.49,0,0,0-.85-.51h3.13a.49.49,0,0,0-.17.06c-.2.1-.29.31-.23.68l2.12,5.93.22.63,2,5.57h4.32V69.13a.94.94,0,0,0-.68-.51h3.14a.66.66,0,0,0-.2.06.84.84,0,0,0-.47.68V81.49h10.6V69.13a.94.94,0,0,0-.68-.51h3.14a.66.66,0,0,0-.2.06.84.84,0,0,0-.47.68V81.85a.84.84,0,0,0,.47.68.66.66,0,0,0,.2.06h-.71v.24H139a2.74,2.74,0,0,0,.2-1.34ZM68.31,75.61H65a2.8,2.8,0,0,0-2.8,2.8v2.8h6.1v-5.6ZM65,74.26a4.15,4.15,0,0,0-4.15,4.15v3.08h-43V69.36a.87.87,0,0,1,.48-.68.66.66,0,0,1,.2-.06H15.39a.9.9,0,0,1,.67.51V81.49H16a1.6,1.6,0,0,1-.41,1.06l-.16,0h.1a2.37,2.37,0,0,1-.39.24H134.47l-.2-.07a.87.87,0,0,1-.48-.68V75.9a.91.91,0,0,1,.48-.69l.2-.06h-3.14a.93.93,0,0,1,.67.51v5.83h-5.91V75.9a.92.92,0,0,1,.47-.69l.2-.06h-3.13a1,1,0,0,1,.67.51v5.83h-5.58V75.9a.91.91,0,0,1,.48-.69l.2-.06h-3.14a1,1,0,0,1,.68.51v5.83H102.32V75.9a.88.88,0,0,1,.47-.69l.2-.06H99.85a1,1,0,0,1,.68.51v5.83H85.24V75.9a.88.88,0,0,1,.47-.69l.2-.06H82.77a1,1,0,0,1,.68.51v5.83H69.66V74.26H65ZM9.22,82.08V75.9a.92.92,0,0,1,.47-.69l.2-.06H6.76a1,1,0,0,1,.67.51v6.8c.17,1.81-3.3,3.68-4.78,1.36l-1,.83C1.88,86.53,8.9,87.61,9.22,82.08Z"/><path class="cls-1" d="M8,93.36h-.2A11.34,11.34,0,0,1,7,95.59l-4.88,11.6a2.15,2.15,0,0,1-1.9,1.36H0v.22H4.34v-.22H4.15a.91.91,0,0,1-.82-1.34l1.44-3.69h5.81L12,107.2a.91.91,0,0,1-.82,1.35H11v.22h4.86v-.22h-.18a2.15,2.15,0,0,1-1.9-1.36L8,93.36ZM5,102.88,7.74,96l2.6,6.93Zm23.3,2.4c-.66,1.64-1.54,2.82-3.82,2.82h-3.1V95.24a1.39,1.39,0,0,1,1.38-1.36h.28v-.21H18.35v.21h.28A1.39,1.39,0,0,1,20,95.24v12a1.39,1.39,0,0,1-1.38,1.36h-.28v.22h9l1.25-3.49ZM40.41,95.22a1.38,1.38,0,0,1,1.38-1.34h.28v-.22H37.35v.22h.28A1.38,1.38,0,0,1,39,95.23v12a1.39,1.39,0,0,1-1.38,1.36h-.28v.22h4.72v-.22h-.28a1.38,1.38,0,0,1-1.38-1.36v-12Zm2.11,5.51,5.9,6.94a2.73,2.73,0,0,0,2,.88v.21h-.91a4.29,4.29,0,0,1-3.25-1.22l-5.2-6.28,5.09-6.39a.6.6,0,0,0-.52-1h-.21v-.19H50v.19h-.1a3.09,3.09,0,0,0-2.32,1l-5.08,5.86Zm25.43,8v-.22h-.27a1.39,1.39,0,0,1-1.39-1.36v-12a1.39,1.39,0,0,1,1.39-1.36H68v-.21H63.23v.21h.27a1.38,1.38,0,0,1,1.38,1.33V101H56.07V95.22a1.37,1.37,0,0,1,1.38-1.34h.27v-.21H53v.21h.27a1.38,1.38,0,0,1,1.38,1.35v12a1.38,1.38,0,0,1-1.38,1.36H53v.22h4.72v-.22h-.27a1.37,1.37,0,0,1-1.38-1.36v-5.56h8.82v5.58a1.38,1.38,0,0,1-1.38,1.34h-.27v.22ZM78.48,93.36h-.2a11.43,11.43,0,0,1-.79,2.23l-4.89,11.6a2.15,2.15,0,0,1-1.89,1.36h-.2v.22h4.34v-.22h-.19a.91.91,0,0,1-.82-1.34l1.44-3.69H81.1l1.37,3.68a.91.91,0,0,1-.82,1.35h-.18v.22h4.85v-.22h-.18a2.13,2.13,0,0,1-1.89-1.36L78.48,93.36Zm-2.94,9.52L78.25,96l2.6,6.93Zm19.57-9.21H99.9v.21h-.3a2.79,2.79,0,0,0-2.17,1.25L93.17,102v5.16a1.37,1.37,0,0,0,1.38,1.36h.27v.22H90.11v-.22h.27a1.39,1.39,0,0,0,1.39-1.34V102l-4.11-6.87a2.74,2.74,0,0,0-2.17-1.26H85.2v-.21h5.3v.21h-.27a.92.92,0,0,0-.76,1.34l3.24,6,3.43-6v0a.91.91,0,0,0-.76-1.32h-.28v-.21Zm15.74,0v.21h.28a.91.91,0,0,1,.76,1.32v0l-3.43,6-3.24-6a.92.92,0,0,1,.76-1.34h.27v-.21h-5.3v.21h.29a2.74,2.74,0,0,1,2.17,1.26l4.11,6.87v5.2a1.38,1.38,0,0,1-1.39,1.34h-.27v.22h4.72v-.22h-.27a1.38,1.38,0,0,1-1.38-1.36V102l4.26-6.9a2.79,2.79,0,0,1,2.17-1.25h.3v-.21Zm11.64-.31,5.76,13.83a2.15,2.15,0,0,0,1.9,1.36h.18v.22h-4.86v-.22h.19a.91.91,0,0,0,.82-1.35l-1.38-3.68h-5.81l-1.44,3.69a.91.91,0,0,0,.82,1.34h.19v.22h-4.34v-.22h.19a2.13,2.13,0,0,0,1.89-1.36l4.89-11.6a11.34,11.34,0,0,0,.8-2.23Zm-2.94,9.52h5.31L122.26,96l-2.71,6.93Zm13.55-9.24a9.14,9.14,0,0,1-2.6-.39V96h.21v-.38A1.29,1.29,0,0,1,132,94.29H136v12.94a1.39,1.39,0,0,1-1.38,1.32h-.28v.22h4.72v-.22h-.28a1.39,1.39,0,0,1-1.38-1.34V94.29h4.09a1.28,1.28,0,0,1,1.23,1.29V96H143V93.25a9.26,9.26,0,0,1-2.6.39Zm23.18,14.91H156a1.37,1.37,0,0,1-1.38-1.36v-12A1.38,1.38,0,0,1,156,93.88h.27v-.22h-4.72v.22h.27a1.38,1.38,0,0,1,1.38,1.35v12a1.37,1.37,0,0,1-1.38,1.36h-.27v.22h4.72v-.22Zm15.49-14.88v.21h.4a1.33,1.33,0,0,1,1.33,1.31v10.7L161.76,93.34h-.21a18.64,18.64,0,0,1,.2,2.7v11.2a1.34,1.34,0,0,1-1.33,1.31H160v.22h4.44v-.22h-.4a1.32,1.32,0,0,1-1.33-1.29V96.52l11.76,12.55h.2a21.59,21.59,0,0,1-.2-2.75V95.17a1.33,1.33,0,0,1,1.33-1.29h.4v-.21Zm18.74,0v.22h.19a.92.92,0,0,1,.82,1.35l-4.69,11.3-4.52-11.3a.91.91,0,0,1,.81-1.35h.19v-.22h-4.86v.22h.17a2.14,2.14,0,0,1,1.91,1.35l6.06,13.84h.2a11.29,11.29,0,0,1,.79-2.22l5.19-11.63a2.13,2.13,0,0,1,1.89-1.34h.19v-.22Zm17.1,11.62h-.22c-.66,1.64-1.54,2.82-3.83,2.82h-3.09v-6.46h3.67a1.07,1.07,0,0,1,1,1.06V103h.21V99.61h-.21v.32a1.06,1.06,0,0,1-1,1.06h-3.64V94.32h4.4a1.29,1.29,0,0,1,1.2,1.29V96h.22V93.27a9.26,9.26,0,0,1-2.57.4h-6.3v.21h.27a1.39,1.39,0,0,1,1.38,1.23v12.08a1.39,1.39,0,0,1-1.39,1.36h-.27v.22h8.94l1.26-3.49Zm6.13-6.8a2.72,2.72,0,0,1-.87-2A2.53,2.53,0,0,1,215.52,94,2.24,2.24,0,0,1,218,96.23h.21V93.59h-.86a9,9,0,0,0-1.85-.23,3.65,3.65,0,0,0-2.62,6.32l4.13,3.84a2.64,2.64,0,0,1,.85,2,2.88,2.88,0,0,1-2.89,2.89c-1.92.11-3.33-1.32-3.11-3.54h-.19a6.6,6.6,0,0,0-.25,3,5.61,5.61,0,0,0,3.65,1.18,3.81,3.81,0,0,0,4-4,3.38,3.38,0,0,0-1.08-2.62l-4.24-3.93Zm11.06-4.84a9.2,9.2,0,0,1-2.6-.39V96h.22v-.38a1.28,1.28,0,0,1,1.23-1.29h4.09v12.94a1.38,1.38,0,0,1-1.38,1.32h-.27v.22h4.72v-.22h-.27a1.37,1.37,0,0,1-1.38-1.34V94.29h4.08a1.28,1.28,0,0,1,1.23,1.29V96h.22V93.25a9.14,9.14,0,0,1-2.6.39Zm27.74-.27h-.2l-5.88,13-6-13h-.2l-1.63,13.84a1.53,1.53,0,0,1-1.57,1.35h-.34v.22h4.18v-.21h-.34a.89.89,0,0,1-.84-.92l1-10.54,5.51,12h.2a11.61,11.61,0,0,1,.75-2.21l4.53-10.07,1,10.85a.89.89,0,0,1-.84.92h-.34v.21h4.69v-.22h-.34a1.53,1.53,0,0,1-1.58-1.35l-1.67-13.83Zm16.89,11.91h-.22c-.67,1.64-1.54,2.82-3.83,2.82h-3.09v-6.46H266a1.07,1.07,0,0,1,1,1.06V103h.21V99.61H267v.32a1.06,1.06,0,0,1-1.05,1.06h-3.64V94.32h4.4a1.29,1.29,0,0,1,1.2,1.29V96h.22V93.27a9.26,9.26,0,0,1-2.57.4h-6.3v.21h.27a1.39,1.39,0,0,1,1.38,1.23v12.08a1.39,1.39,0,0,1-1.39,1.36h-.27v.22h8.94l1.26-3.49Zm14.94-11.61v.21h.4a1.33,1.33,0,0,1,1.33,1.31v10.7L274.36,93.34h-.21a18.64,18.64,0,0,1,.2,2.7v11.2a1.34,1.34,0,0,1-1.33,1.31h-.4v.22h4.45v-.22h-.4a1.32,1.32,0,0,1-1.33-1.29V96.52l11.76,12.55h.2a21.59,21.59,0,0,1-.2-2.75V95.17a1.33,1.33,0,0,1,1.33-1.29h.4v-.21Zm9.93,0a9.14,9.14,0,0,1-2.6-.39V96h.21v-.38a1.29,1.29,0,0,1,1.24-1.29h4.09v12.94a1.38,1.38,0,0,1-1.38,1.32h-.27v.22h4.72v-.22H300a1.39,1.39,0,0,1-1.39-1.34V94.29h4.09A1.28,1.28,0,0,1,304,95.58V96h.22V93.25a9.14,9.14,0,0,1-2.6.39Zm15.48,4.84a2.72,2.72,0,0,1-.87-2A2.53,2.53,0,0,1,311.56,94,2.24,2.24,0,0,1,314,96.23h.2V93.59h-.85a9,9,0,0,0-1.85-.23,3.65,3.65,0,0,0-2.62,6.32l4.13,3.84a2.64,2.64,0,0,1,.85,2,2.88,2.88,0,0,1-2.89,2.89c-1.92.11-3.33-1.32-3.11-3.54h-.19a6.6,6.6,0,0,0-.25,3,5.61,5.61,0,0,0,3.65,1.18,3.81,3.81,0,0,0,4-4,3.38,3.38,0,0,0-1.08-2.62Z"/></g></g></svg>