<svg xmlns="http://www.w3.org/2000/svg" width="116" height="35" viewBox="0 0 190 57.2"><defs><style>.cls-1{fill:#f90;}.cls-2,.cls-3{fill:none;}.cls-3{stroke:#000;stroke-linecap:round;stroke-linejoin:round;stroke-width:0;}</style></defs><title>Asset 1</title><g id="Layer_2" data-name="Layer 2"><g id="Layer_1-2" data-name="Layer 1"><path class="cls-1" d="M117.87,44.73c-11,8.14-27,12.47-40.8,12.47a74,74,0,0,1-49.87-19c-1-.93-.13-2.2,1.13-1.47A100.19,100.19,0,0,0,78.2,49.93a99.17,99.17,0,0,0,38.07-7.8c1.86-.73,3.4,1.27,1.6,2.6Z"/><path class="cls-1" d="M122.47,39.47c-1.4-1.8-9.34-.87-12.87-.4-1.07.13-1.27-.8-.27-1.47,6.34-4.47,16.67-3.13,17.87-1.67s-.33,11.87-6.27,16.8c-.93.74-1.8.34-1.4-.66C120.87,48.73,123.87,41.33,122.47,39.47Z"/><path class="cls-2" d="M148,6.47c-4.33,0-4.6,5.93-4.6,9.6s-.07,11.53,4.53,11.53,4.8-6.33,4.8-10.2a29.31,29.31,0,0,0-.86-8A3.69,3.69,0,0,0,148,6.47Z"/><line class="cls-3" x1="39.33" y1="33.13" x2="39.33" y2="33.13"/><path d="M25.67,22.2V13.07c0-3.87.26-7.47-2.6-10.14C20.8.73,17.07,0,14.2,0,8.6,0,2.4,2.07,1.07,9a1,1,0,0,0,.86,1.2l5.67.6c.53,0,.87-.53,1-1.07.47-2.4,2.47-3.53,4.73-3.53A4,4,0,0,1,16.6,7.73c.87,1.2.73,2.87.73,4.27v.73c-3.4.4-7.86.67-11.06,2.07A10,10,0,0,0,0,24.4c0,6.07,3.87,9.13,8.8,9.13,4.13,0,6.47-1,9.67-4.26a14.52,14.52,0,0,0,3.4,3.93,1.21,1.21,0,0,0,1.4-.13h0c1.2-1,3.33-2.87,4.6-3.87.46-.33.4-1,0-1.53C26.8,26.13,25.67,24.93,25.67,22.2ZM16.33,25a4.71,4.71,0,0,1-4.06,2.67c-2.27,0-3.6-1.74-3.6-4.27,0-5,4.46-5.93,8.73-5.93v1.26C17.4,21,17.47,22.93,16.33,25Z"/><path d="M148,.27h0C139.47.27,134.73,7.6,134.8,17s4.67,16.8,13.2,16.8c8.27,0,13.47-7.33,13.47-16.53C161.47,7.73,156.73.27,148,.27Zm-.07,27.33c-4.6,0-4.53-7.87-4.53-11.53s.27-9.6,4.6-9.6a3.69,3.69,0,0,1,3.87,2.93,29.31,29.31,0,0,1,.86,8C152.73,21.27,152.47,27.6,147.93,27.6Z"/><path d="M130.87,24.93a21.77,21.77,0,0,0-11-2.33l10-14.27c.93-1.33,1.46-2.13,1.46-2.73V1.93A1.1,1.1,0,0,0,130.2.87H110.87a1,1,0,0,0-1.07,1.06V6.27h0a1.1,1.1,0,0,0,1.13,1.06H121l-11.6,16.6a5,5,0,0,0-.73,2.94v4.4a1,1,0,0,0,1.4,1,22,22,0,0,1,20.4-.07c.73.4,1.4-.33,1.4-1V26.6A2,2,0,0,0,130.87,24.93Z"/><path d="M188.47,3.8A7.77,7.77,0,0,0,181.6.27c-4.07,0-6.33,1.93-8,6.06h-.13V1.73A1.15,1.15,0,0,0,172.4.87h-5.47a1.15,1.15,0,0,0-1.13,1v30.2a1.14,1.14,0,0,0,1.07,1.06h5.86a1.21,1.21,0,0,0,1.2-1.06V15.8a13.8,13.8,0,0,1,.94-5.73,3.85,3.85,0,0,1,3.4-2.4c4.06,0,3.66,4.8,3.66,8.13V32.2a1.21,1.21,0,0,0,1.07.93h5.87A1.1,1.1,0,0,0,190,32.2v-19C190,10.27,190,6.2,188.47,3.8Z"/><path d="M63.67.27a8.36,8.36,0,0,0-8.14,5.6c-1.6-3.8-3.93-5.6-7.6-5.6s-6.33,1.8-7.73,5.6h-.13V1.93A1.09,1.09,0,0,0,39,.93H33.53A1.11,1.11,0,0,0,32.4,2V32.13a1.19,1.19,0,0,0,1.07,1h5.86a1.16,1.16,0,0,0,1.2-1v-16c0-3.53-.13-8.33,4.07-8.33s3.6,5,3.6,8.33v16a1.15,1.15,0,0,0,1.07,1.07h5.86a1.12,1.12,0,0,0,1.14-1.07v-16c0-1.73-.07-4.26.53-5.8a3.92,3.92,0,0,1,3.53-2.46c1.74,0,3,.6,3.47,2.6a39.43,39.43,0,0,1,.13,5.66v16A1.15,1.15,0,0,0,65,33.2h5.8a1.11,1.11,0,0,0,1.13-1.07V13.07c0-3.27.4-6.94-1.46-9.47A8.28,8.28,0,0,0,63.67.27Z"/><path d="M102.73,22.2V13.07c0-3.87.27-7.47-2.6-10.14C97.87.73,94.13,0,91.27,0c-5.6,0-11.8,2.07-13.14,9A1,1,0,0,0,79,10.2l5.67.6c.53,0,.86-.53,1-1.07.46-2.4,2.46-3.53,4.73-3.53a4,4,0,0,1,3.27,1.53c.86,1.2.73,2.87.73,4.27v.73c-3.4.4-7.87.67-11.07,2.07a10,10,0,0,0-6.26,9.6c0,6.07,3.86,9.13,8.8,9.13,4.13,0,6.46-1,9.66-4.26a14.89,14.89,0,0,0,3.4,3.93,1.2,1.2,0,0,0,1.4-.13h0c1.2-1,3.34-2.87,4.6-3.87.47-.33.4-1,0-1.53C103.87,26.13,102.73,24.93,102.73,22.2ZM93.33,25a4.71,4.71,0,0,1-4.06,2.67c-2.27,0-3.6-1.74-3.6-4.27,0-5,4.46-5.93,8.73-5.93v1.26C94.4,21,94.47,22.93,93.33,25Z"/></g></g></svg>