<svg xmlns="http://www.w3.org/2000/svg" viewBox="0 0 27.03 34.85"><defs><style>.cls-1{fill:none;stroke:#231f20;stroke-miterlimit:10;stroke-width:2px;}</style></defs><title>Asset 2</title><g id="Layer_2" data-name="Layer 2"><g id="Layer_1-2" data-name="Layer 1"><polygon class="cls-1" points="16.86 1 12.64 1 12.64 14.31 16.86 11.31 21.07 14.31 21.07 1 16.86 1"/><path class="cls-1" d="M5.81,1A4.82,4.82,0,0,0,1,5.81V29.94H1A4,4,0,0,1,5,26H26V1Z"/><path class="cls-1" d="M5,26H26a0,0,0,0,1,0,0v7.82a0,0,0,0,1,0,0H4.81A3.81,3.81,0,0,1,1,30v0a4,4,0,0,1,4-4Z"/></g></g></svg>