<svg xmlns="http://www.w3.org/2000/svg" viewBox="0 0 469.06 95.65" width="80" height="17"><defs><style>.cls-1,.cls-2{fill:#2f4353;}.cls-1{fill-rule:evenodd;}</style></defs><title>Asset 1</title><g id="Layer_2" data-name="Layer 2"><g id="Layer_1-2" data-name="Layer 1"><polygon class="cls-1" points="0 95.21 19.18 95.21 48.28 18.96 77.38 95.21 96.55 95.21 60.26 0.12 55.47 0.12 41.09 0.12 36.29 0.12 0 95.21"/><polygon class="cls-1" points="117.86 95.21 135.45 95.21 135.47 14.91 164.21 14.92 164.21 0.14 135.48 0.13 135.48 0.12 117.9 0.12 117.9 0.13 85.12 0.12 90.49 14.89 117.89 14.9 117.86 95.21"/><polygon class="cls-1" points="175.95 95.21 193.53 95.21 193.54 49.78 202.44 59.69 202.48 59.64 230.46 95.57 253.5 95.57 214.53 45.58 253.5 0.12 230.46 0.12 193.55 43.22 193.56 0.12 175.98 0.12 175.95 95.21"/><rect class="cls-2" x="266.67" y="0.12" width="17.58" height="95.09"/><polygon class="cls-1" points="369.06 95.21 380.52 95.21 386.64 95.21 386.68 0.12 369.09 0.12 369.07 73.18 331.1 0.12 324.53 0.12 313.51 0.12 306.95 0.12 306.92 95.21 324.5 95.21 324.53 21.31 362.94 95.21 369.06 95.21"/><path class="cls-1" d="M462.81,4.94C440.87-5.83,410.37,1.31,406,23.39c-6.45,35.21,43,28.38,43.15,44.48.39,9.46-11.71,20.89-42.56,5.62-.79,6-1.58,11.2-2.38,17.19,11.48,5.6,61,13.87,64.87-22.53.33-32.64-46.6-25.45-44-39.7.09-15.26,28.23-13.39,36.6-7.87C462,16.09,462.42,9.44,462.81,4.94Z"/></g></g></svg>