<svg id="Group_183" data-name="Group 183" xmlns="http://www.w3.org/2000/svg" width="28.42" height="27.027" viewBox="0 0 28.42 27.027">
  <path id="Path_101" data-name="Path 101" d="M34.13,179.292a1.254,1.254,0,0,0-1,.483l0,.006h0L25.8,197.206c0,.017-.011.039-.022.067a1.4,1.4,0,0,0,0,1.1l.082.151a1.733,1.733,0,0,0,1.312.764H32.48l5.565-13.1c-1.409-3.337-2.469-5.831-2.622-6.153A1.325,1.325,0,0,0,34.13,179.292Z" transform="translate(-25.665 -179.2)" fill="#4cc18e"/>
  <path id="Path_102" data-name="Path 102" d="M27.287,210.3a1.733,1.733,0,0,1-1.312-.764l2.069,3.829,1.676,3.1a1.78,1.78,0,0,0,1.3.739,7.918,7.918,0,0,0,3.1-1.032c.339-.2,8.457-5.2,9.543-5.873H27.287Z" transform="translate(-25.778 -190.205)" fill="#4cc18e"/>
  <path id="Path_103" data-name="Path 103" d="M25.928,209.447l-.082-.151A1.283,1.283,0,0,0,25.928,209.447Z" transform="translate(-25.731 -190.118)" fill="#4cc18e"/>
  <path id="Path_104" data-name="Path 104" d="M37.4,180.063h0Z" transform="translate(-29.933 -179.481)" fill="#4cc18e"/>
  <path id="Path_105" data-name="Path 105" d="M37.4,180.063Z" transform="translate(-29.934 -179.481)" fill="#4cc18e"/>
  <path id="Path_106" data-name="Path 106" d="M37.4,180.053l0,.006h0Z" transform="translate(-29.933 -179.478)" fill="#4cc18e"/>
  <path id="Path_107" data-name="Path 107" d="M47.24,179.831a1.091,1.091,0,0,0-1.128-.671l-2.8-.008c-2.143,0-4.763-.007-4.939.008a1.359,1.359,0,0,0-.968.564,1.254,1.254,0,0,1,1-.483,1.325,1.325,0,0,1,1.293.751c.152.322,1.212,2.817,2.622,6.153,3.075,7.279,7.813,18.565,8.428,20.03h7.612Z" transform="translate(-29.936 -179.149)" fill="#4cc18e"/>
</svg>
