<svg xmlns="http://www.w3.org/2000/svg" viewBox="0 0 487.9 71.51" width="195" height="29"><defs><style>.cls-1{fill:#2f2483;}.cls-1,.cls-2,.cls-3,.cls-4,.cls-5{fill-rule:evenodd;}.cls-2{fill:#e49800;}.cls-3{fill:#fc0;}.cls-4{fill:#ef7c00;}.cls-5{fill:#014698;}</style></defs><title>Asset 1</title><g id="Layer_2" data-name="Layer 2"><g id="Layer_1-2" data-name="Layer 1"><path class="cls-1" d="M95.07,33.67a12.25,12.25,0,0,1-.38,3.15,9.37,9.37,0,0,1-1,2.49,8,8,0,0,1-1.6,1.87,9,9,0,0,1-2,1.28,9.85,9.85,0,0,1-2.38.74,15.32,15.32,0,0,1-2.83.24H77.94a1.43,1.43,0,0,1-1.1-.49,2.31,2.31,0,0,1-.45-1.59V13a2.34,2.34,0,0,1,.45-1.6,1.46,1.46,0,0,1,1.1-.49h6.48a14,14,0,0,1,4,.51,7.21,7.21,0,0,1,2.77,1.52,6.65,6.65,0,0,1,1.72,2.57,10.19,10.19,0,0,1,.6,3.67,9.81,9.81,0,0,1-.24,2.22,7.77,7.77,0,0,1-.69,1.9,6.55,6.55,0,0,1-1.13,1.51,5.54,5.54,0,0,1-1.52,1.06,6.11,6.11,0,0,1,2,.88,6.2,6.2,0,0,1,1.61,1.62,8,8,0,0,1,1.09,2.33,10.3,10.3,0,0,1,.4,3ZM88.29,20a6.35,6.35,0,0,0-.24-1.76,3.35,3.35,0,0,0-.72-1.3,3.26,3.26,0,0,0-1.2-.79,5.78,5.78,0,0,0-1.95-.27H81.54v8.44h2.92a4,4,0,0,0,1.82-.34A3.06,3.06,0,0,0,87.4,23a4,4,0,0,0,.67-1.38A6.48,6.48,0,0,0,88.29,20Zm1.35,13.95a6.71,6.71,0,0,0-.3-2,3.88,3.88,0,0,0-.88-1.49A3.8,3.8,0,0,0,87,29.45a7.12,7.12,0,0,0-2.33-.33H81.54v9.27h3.79a5.06,5.06,0,0,0,1.85-.29,3.61,3.61,0,0,0,1.29-.86,4,4,0,0,0,.86-1.4A5.7,5.7,0,0,0,89.64,33.91Z"/><path class="cls-1" d="M117.74,41a10.57,10.57,0,0,1,.3,1.43,1,1,0,0,1-.16.8,1.23,1.23,0,0,1-.78.33,15.2,15.2,0,0,1-1.53.06c-.69,0-1.22,0-1.59,0a3.2,3.2,0,0,1-.87-.15.79.79,0,0,1-.42-.32,1.82,1.82,0,0,1-.2-.52L110.8,36h-9.75l-1.63,6.36a2,2,0,0,1-.21.59.9.9,0,0,1-.41.38,2.51,2.51,0,0,1-.82.18,13,13,0,0,1-1.39.06,10.6,10.6,0,0,1-1.44-.08,1,1,0,0,1-.71-.36,1.18,1.18,0,0,1-.15-.83,11.73,11.73,0,0,1,.3-1.4l8-28.89a2.58,2.58,0,0,1,.28-.68,1,1,0,0,1,.5-.41,3.58,3.58,0,0,1,1-.18c.41,0,1,0,1.63,0s1.42,0,1.88,0a4.3,4.3,0,0,1,1.09.18,1.13,1.13,0,0,1,.56.42,2.57,2.57,0,0,1,.28.75l8,28.86Zm-11.86-23.9h0l-3.6,13.85h7.26Z"/><path class="cls-1" d="M140.33,41.12a3.35,3.35,0,0,1-.15,1,2.45,2.45,0,0,1-.44.76,1.71,1.71,0,0,1-.63.44,2.24,2.24,0,0,1-.75.13h-2.25a3.92,3.92,0,0,1-1.21-.17,2.33,2.33,0,0,1-.93-.64,4.91,4.91,0,0,1-.83-1.26c-.27-.53-.57-1.21-.9-2.06l-6.42-15.21c-.37-.91-.75-1.89-1.13-2.94s-.73-2.07-1-3.05h0c0,1.21.1,2.41.12,3.61s0,2.44,0,3.71v17a.9.9,0,0,1-.11.46.84.84,0,0,1-.38.33,2.18,2.18,0,0,1-.73.22,7.43,7.43,0,0,1-1.18.08,7.34,7.34,0,0,1-1.16-.08,2.12,2.12,0,0,1-.72-.22.73.73,0,0,1-.36-.33,1,1,0,0,1-.1-.46V13.26a2.49,2.49,0,0,1,.55-1.77,1.74,1.74,0,0,1,1.35-.6h2.82a4.31,4.31,0,0,1,1.28.17,2.46,2.46,0,0,1,.92.54,3.57,3.57,0,0,1,.77,1.05,13.18,13.18,0,0,1,.74,1.64l5,11.91.87,2.13c.28.69.56,1.39.82,2.08s.53,1.38.78,2.05.5,1.35.74,2h0c0-1.18-.07-2.4-.09-3.67s0-2.5,0-3.66V11.87a.89.89,0,0,1,.12-.45,1,1,0,0,1,.4-.35,2,2,0,0,1,.74-.22,9.48,9.48,0,0,1,1.18-.06,8.9,8.9,0,0,1,1.14.06,1.7,1.7,0,0,1,.71.22.84.84,0,0,1,.35.35,1,1,0,0,1,.1.45Z"/><path class="cls-1" d="M162.48,42.46a.94.94,0,0,1-.11.49.75.75,0,0,1-.42.35,2.88,2.88,0,0,1-.85.22,12.56,12.56,0,0,1-3.22-.05,1.61,1.61,0,0,1-.82-.38,1.94,1.94,0,0,1-.39-.6L148.87,27V42.49a1,1,0,0,1-.13.48.82.82,0,0,1-.41.33,2.76,2.76,0,0,1-.8.22,10,10,0,0,1-2.53,0,2.66,2.66,0,0,1-.81-.22,1,1,0,0,1-.43-.33.86.86,0,0,1-.13-.48V11.82a.84.84,0,0,1,.13-.48,1,1,0,0,1,.43-.33,3.59,3.59,0,0,1,.81-.19,10,10,0,0,1,2.53,0,3.77,3.77,0,0,1,.8.19.88.88,0,0,1,.41.33.93.93,0,0,1,.13.48V25.68l7.56-13.83a1.78,1.78,0,0,1,.34-.54,1.4,1.4,0,0,1,.52-.35,4.15,4.15,0,0,1,.82-.17c.33,0,.75,0,1.27,0a9.5,9.5,0,0,1,1.32.08,3.44,3.44,0,0,1,.83.21.93.93,0,0,1,.42.34.84.84,0,0,1,.12.45,2.48,2.48,0,0,1-.18.89c-.12.3-.34.77-.68,1.43l-7.07,11.7,7.72,14.71c.29.69.47,1.15.53,1.37A2.29,2.29,0,0,1,162.48,42.46Z"/><path class="cls-1" d="M196.13,26.79a30,30,0,0,1-.8,7.24A15.69,15.69,0,0,1,193,39.44a10.49,10.49,0,0,1-3.9,3.4A11.81,11.81,0,0,1,183.67,44a13,13,0,0,1-5.26-1,9.14,9.14,0,0,1-3.74-3,14,14,0,0,1-2.24-5.17,32.43,32.43,0,0,1-.75-7.44,29.1,29.1,0,0,1,.79-7.1,15.65,15.65,0,0,1,2.38-5.37,10.64,10.64,0,0,1,3.9-3.39,11.74,11.74,0,0,1,5.4-1.18,12.73,12.73,0,0,1,5.18,1,9.06,9.06,0,0,1,3.75,3,14.28,14.28,0,0,1,2.28,5.13,31,31,0,0,1,.77,7.33Zm-5.52.34a31.63,31.63,0,0,0-.32-4.67,12,12,0,0,0-1.09-3.59A5.39,5.39,0,0,0,184,15.74a5.4,5.4,0,0,0-3.22.91,6.74,6.74,0,0,0-2.1,2.46,11.76,11.76,0,0,0-1.13,3.58A27.33,27.33,0,0,0,177.2,27a31.5,31.5,0,0,0,.32,4.79,12.21,12.21,0,0,0,1.07,3.64,5.64,5.64,0,0,0,2,2.3,6.06,6.06,0,0,0,3.21.79,5.45,5.45,0,0,0,3.23-.91,6.65,6.65,0,0,0,2.09-2.46,11.9,11.9,0,0,0,1.13-3.63A28.24,28.24,0,0,0,190.61,27.13Z"/><path class="cls-1" d="M212.74,13.61a11.66,11.66,0,0,1-.05,1.27,3.6,3.6,0,0,1-.16.82,1.53,1.53,0,0,1-.25.45.42.42,0,0,1-.32.15H203.5v8.76h7.94a.44.44,0,0,1,.32.13.86.86,0,0,1,.25.42,3.4,3.4,0,0,1,.16.8c0,.34.05.76.05,1.26s0,.92-.05,1.26a3.94,3.94,0,0,1-.16.83,1.09,1.09,0,0,1-.25.46.41.41,0,0,1-.32.14H203.5V42.49a1,1,0,0,1-.12.48.89.89,0,0,1-.43.33,2.94,2.94,0,0,1-.81.22,10.12,10.12,0,0,1-2.54,0,2.66,2.66,0,0,1-.81-.22.88.88,0,0,1-.43-.33.86.86,0,0,1-.13-.48V13a2.34,2.34,0,0,1,.45-1.6,1.46,1.46,0,0,1,1.11-.49H212a.45.45,0,0,1,.32.14,1.37,1.37,0,0,1,.25.46,3.58,3.58,0,0,1,.16.84A11.85,11.85,0,0,1,212.74,13.61Z"/><path class="cls-1" d="M242.75,42.46a.94.94,0,0,1-.11.49.75.75,0,0,1-.42.35,2.8,2.8,0,0,1-.84.22,12.64,12.64,0,0,1-3.23-.05,1.53,1.53,0,0,1-.81-.38,1.64,1.64,0,0,1-.39-.6L229.14,27V42.49A1,1,0,0,1,229,43a.85.85,0,0,1-.42.33,2.67,2.67,0,0,1-.8.22,8.49,8.49,0,0,1-1.26.08,8.83,8.83,0,0,1-1.27-.08,2.75,2.75,0,0,1-.81-.22A1.07,1.07,0,0,1,224,43a1,1,0,0,1-.12-.48V11.82a.92.92,0,0,1,.12-.48,1.07,1.07,0,0,1,.43-.33,3.73,3.73,0,0,1,.81-.19,8.83,8.83,0,0,1,1.27-.08,8.49,8.49,0,0,1,1.26.08,3.62,3.62,0,0,1,.8.19.91.91,0,0,1,.42.33.92.92,0,0,1,.12.48V25.68l7.56-13.83a2,2,0,0,1,.34-.54,1.4,1.4,0,0,1,.52-.35,4.32,4.32,0,0,1,.82-.17c.33,0,.76,0,1.27,0a9.5,9.5,0,0,1,1.32.08,3.32,3.32,0,0,1,.83.21.87.87,0,0,1,.42.34.84.84,0,0,1,.12.45,2.69,2.69,0,0,1-.17.89c-.12.3-.35.77-.68,1.43l-7.08,11.7,7.72,14.71c.3.69.47,1.15.54,1.37A2.18,2.18,0,0,1,242.75,42.46Z"/><path class="cls-1" d="M249.21,42.54a.84.84,0,0,1-.13.46,1,1,0,0,1-.43.32,3.71,3.71,0,0,1-.8.2,8.78,8.78,0,0,1-1.28.08,9,9,0,0,1-1.27-.08,3.66,3.66,0,0,1-.81-.2,1.05,1.05,0,0,1-.43-.32.93.93,0,0,1-.12-.46V11.8a.9.9,0,0,1,.12-.46,1,1,0,0,1,.45-.33,3.77,3.77,0,0,1,.8-.19,10.12,10.12,0,0,1,2.54,0,3.77,3.77,0,0,1,.8.19,1,1,0,0,1,.43.33.82.82,0,0,1,.13.46Z"/><path class="cls-1" d="M273.24,16a11.49,11.49,0,0,1-.05,1.25,4.4,4.4,0,0,1-.14.84.89.89,0,0,1-.22.44.42.42,0,0,1-.31.13,1.78,1.78,0,0,1-.83-.46,12,12,0,0,0-1.54-1,14.67,14.67,0,0,0-2.29-1,9.56,9.56,0,0,0-3.08-.45,7.08,7.08,0,0,0-3.39.81,7.66,7.66,0,0,0-2.6,2.32,11.49,11.49,0,0,0-1.65,3.6,17.31,17.31,0,0,0-.58,4.65,19.09,19.09,0,0,0,.58,4.92,11.24,11.24,0,0,0,1.65,3.57,7.1,7.1,0,0,0,2.55,2.16,7.35,7.35,0,0,0,3.29.73,6.4,6.4,0,0,0,1.73-.25,5.5,5.5,0,0,0,1.6-.77V29.9h-4.88c-.24,0-.42-.19-.56-.57a6.51,6.51,0,0,1-.2-1.92c0-.47,0-.86.05-1.18a3.62,3.62,0,0,1,.15-.76,1.13,1.13,0,0,1,.24-.43.41.41,0,0,1,.32-.14h8.72a1.1,1.1,0,0,1,.57.14,1.25,1.25,0,0,1,.44.42,2.23,2.23,0,0,1,.29.66,4.13,4.13,0,0,1,.1.9V40a3.77,3.77,0,0,1-.21,1.32,1.62,1.62,0,0,1-.86.89,13.82,13.82,0,0,1-1.61.69,17.69,17.69,0,0,1-2,.6,17.75,17.75,0,0,1-4.18.51,13.13,13.13,0,0,1-5.55-1.13,11.08,11.08,0,0,1-4.14-3.24,15,15,0,0,1-2.6-5.18,24.68,24.68,0,0,1-.9-6.94,24.81,24.81,0,0,1,1-7.18,16.12,16.12,0,0,1,2.71-5.42,12,12,0,0,1,4.25-3.41,12.66,12.66,0,0,1,5.53-1.18,14.4,14.4,0,0,1,3.06.29,15.13,15.13,0,0,1,2.41.71,9.19,9.19,0,0,1,1.7.89,4.44,4.44,0,0,1,1,.85,2.28,2.28,0,0,1,.39,1A11.08,11.08,0,0,1,273.24,16Z"/><path class="cls-1" d="M297.39,41a10.57,10.57,0,0,1,.3,1.43,1,1,0,0,1-.16.8,1.21,1.21,0,0,1-.78.33,15.2,15.2,0,0,1-1.53.06c-.68,0-1.22,0-1.59,0a3.2,3.2,0,0,1-.87-.15.79.79,0,0,1-.42-.32,1.82,1.82,0,0,1-.2-.52L290.45,36H280.7l-1.63,6.36a2,2,0,0,1-.21.59.9.9,0,0,1-.41.38,2.51,2.51,0,0,1-.82.18,12.88,12.88,0,0,1-1.39.06,10.6,10.6,0,0,1-1.44-.08,1,1,0,0,1-.71-.36,1.18,1.18,0,0,1-.15-.83,11.73,11.73,0,0,1,.3-1.4l8-28.89a2.58,2.58,0,0,1,.28-.68A1,1,0,0,1,283,11a3.42,3.42,0,0,1,1-.18c.41,0,1,0,1.64,0s1.41,0,1.87,0a4.3,4.3,0,0,1,1.09.18,1.13,1.13,0,0,1,.56.42,2.57,2.57,0,0,1,.28.75l8,28.86Zm-11.86-23.9h0l-3.59,13.85h7.25Z"/><path class="cls-1" d="M312.87,40.68a11.66,11.66,0,0,1-.05,1.27,5.07,5.07,0,0,1-.15.85,1.17,1.17,0,0,1-.25.49.49.49,0,0,1-.35.15H300.24a1.44,1.44,0,0,1-1.11-.49,2.31,2.31,0,0,1-.45-1.59V11.8a.82.82,0,0,1,.13-.46,1,1,0,0,1,.43-.33,3.73,3.73,0,0,1,.81-.19,10.2,10.2,0,0,1,2.55,0,3.77,3.77,0,0,1,.8.19,1.07,1.07,0,0,1,.43.33.91.91,0,0,1,.13.46V38h8.11a.52.52,0,0,1,.35.14,1,1,0,0,1,.25.45,3.76,3.76,0,0,1,.15.84A11.44,11.44,0,0,1,312.87,40.68Z"/><path class="cls-1" d="M318.92,42.54a.94.94,0,0,1-.13.46,1.05,1.05,0,0,1-.43.32,3.71,3.71,0,0,1-.8.2,10.2,10.2,0,0,1-2.55,0,3.66,3.66,0,0,1-.81-.2,1,1,0,0,1-.43-.32.84.84,0,0,1-.13-.46V11.8a.82.82,0,0,1,.13-.46,1,1,0,0,1,.44-.33,3.88,3.88,0,0,1,.81-.19,8.58,8.58,0,0,1,1.26-.08,8.78,8.78,0,0,1,1.28.08,3.77,3.77,0,0,1,.8.19,1.07,1.07,0,0,1,.43.33.91.91,0,0,1,.13.46Z"/><path class="cls-2" d="M83.55,52.15a2.42,2.42,0,0,1,0,.4.9.9,0,0,1-.06.27.49.49,0,0,1-.12.15.17.17,0,0,1-.13.05H78.59V58.4H83a.22.22,0,0,1,.13,0,.37.37,0,0,1,.11.15.74.74,0,0,1,.07.26c0,.11,0,.25,0,.42s0,.29,0,.4a.88.88,0,0,1-.07.27.5.5,0,0,1-.11.16.18.18,0,0,1-.13,0H78.59v6.59a.35.35,0,0,1,0,.17.26.26,0,0,1-.13.12,1.2,1.2,0,0,1-.26.07,2.22,2.22,0,0,1-.41,0,2.33,2.33,0,0,1-.4,0,1.05,1.05,0,0,1-.26-.07.28.28,0,0,1-.14-.12.53.53,0,0,1,0-.17V52.1a.92.92,0,0,1,.2-.67.65.65,0,0,1,.43-.18h5.68a.17.17,0,0,1,.13,0,.44.44,0,0,1,.12.16.9.9,0,0,1,.06.28A2.55,2.55,0,0,1,83.55,52.15Z"/><path class="cls-2" d="M87.88,66.75a.31.31,0,0,1,0,.17.34.34,0,0,1-.12.12,1,1,0,0,1-.25.07l-.4,0-.39,0a1,1,0,0,1-.25-.07.3.3,0,0,1-.17-.29v-11a.26.26,0,0,1,0-.15.24.24,0,0,1,.13-.13,1,1,0,0,1,.25-.07,2.06,2.06,0,0,1,.39,0,2.17,2.17,0,0,1,.4,0,1,1,0,0,1,.25.07.25.25,0,0,1,.12.13.26.26,0,0,1,0,.15v11Zm.18-14.7a1.58,1.58,0,0,1-.21,1,1,1,0,0,1-.8.26,1,1,0,0,1-.78-.25,1.52,1.52,0,0,1-.21-1,1.62,1.62,0,0,1,.22-1,1,1,0,0,1,.79-.25,1,1,0,0,1,.78.25A1.52,1.52,0,0,1,88.06,52.05Z"/><path class="cls-2" d="M98.76,66.75a.43.43,0,0,1,0,.17.51.51,0,0,1-.13.12,1,1,0,0,1-.25.07l-.39,0-.4,0A1,1,0,0,1,97.3,67a.34.34,0,0,1-.12-.12.31.31,0,0,1,0-.17V60.31A7.66,7.66,0,0,0,97,58.8a3.48,3.48,0,0,0-.34-1,1.64,1.64,0,0,0-.58-.64,1.57,1.57,0,0,0-.82-.22,1.81,1.81,0,0,0-1.2.54,7.65,7.65,0,0,0-1.26,1.57v7.69a.43.43,0,0,1,0,.17.51.51,0,0,1-.13.12,1,1,0,0,1-.25.07l-.4,0-.39,0a1,1,0,0,1-.25-.07.38.38,0,0,1-.13-.12.43.43,0,0,1,0-.17v-11a.38.38,0,0,1,0-.16.25.25,0,0,1,.11-.12.52.52,0,0,1,.23-.08l.36,0,.36,0a.41.41,0,0,1,.22.08.46.46,0,0,1,.12.12.38.38,0,0,1,0,.16v1.46a5.57,5.57,0,0,1,1.48-1.53,2.68,2.68,0,0,1,1.48-.48,2.76,2.76,0,0,1,1.48.37,2.9,2.9,0,0,1,1,1A4.66,4.66,0,0,1,98.6,58a11.52,11.52,0,0,1,.16,2Z"/><path class="cls-2" d="M108.66,66.77a.31.31,0,0,1-.07.22.5.5,0,0,1-.22.1,1.36,1.36,0,0,1-.4,0,1.45,1.45,0,0,1-.4,0,.38.38,0,0,1-.22-.1.29.29,0,0,1-.07-.22V65.66a4.4,4.4,0,0,1-1.29,1.2,2.88,2.88,0,0,1-1.5.42,3.31,3.31,0,0,1-1.25-.22,2.5,2.5,0,0,1-1-.66,3.11,3.11,0,0,1-.62-1.05,4.41,4.41,0,0,1-.22-1.42,3.82,3.82,0,0,1,.31-1.61,2.9,2.9,0,0,1,.87-1.14A3.8,3.8,0,0,1,104,60.5a7.06,7.06,0,0,1,1.85-.22h1.21v-.86a5.52,5.52,0,0,0-.1-1.13,2.31,2.31,0,0,0-.35-.81A1.49,1.49,0,0,0,106,57a2.37,2.37,0,0,0-.94-.16A3,3,0,0,0,104,57a5,5,0,0,0-.83.4c-.24.15-.44.28-.6.4a.75.75,0,0,1-.35.18.22.22,0,0,1-.14,0,.36.36,0,0,1-.1-.15,1.09,1.09,0,0,1-.07-.25,3.25,3.25,0,0,1,0-.33,2,2,0,0,1,0-.48.81.81,0,0,1,.16-.34,2.26,2.26,0,0,1,.46-.37,4.64,4.64,0,0,1,.74-.4,6.65,6.65,0,0,1,.92-.29,4.21,4.21,0,0,1,1-.12,4.27,4.27,0,0,1,1.61.27,2.52,2.52,0,0,1,1.07.79,3.21,3.21,0,0,1,.6,1.29,7.9,7.9,0,0,1,.18,1.79v7.43Zm-1.6-5h-1.37a3.93,3.93,0,0,0-1.15.14,2,2,0,0,0-.81.42,1.66,1.66,0,0,0-.48.66,2.39,2.39,0,0,0-.15.88,2,2,0,0,0,.44,1.37,1.5,1.5,0,0,0,1.21.51,1.94,1.94,0,0,0,1.18-.41,5.32,5.32,0,0,0,1.13-1.23Z"/><path class="cls-2" d="M119.53,66.75a.43.43,0,0,1,0,.17.51.51,0,0,1-.13.12,1,1,0,0,1-.25.07l-.39,0-.4,0a1,1,0,0,1-.25-.07.34.34,0,0,1-.12-.12.31.31,0,0,1,0-.17V60.31a7.66,7.66,0,0,0-.12-1.51,3.48,3.48,0,0,0-.34-1,1.64,1.64,0,0,0-.58-.64,1.57,1.57,0,0,0-.82-.22,1.81,1.81,0,0,0-1.2.54,7.65,7.65,0,0,0-1.26,1.57v7.69a.43.43,0,0,1,0,.17.51.51,0,0,1-.13.12,1,1,0,0,1-.25.07l-.4,0-.39,0a1,1,0,0,1-.25-.07.38.38,0,0,1-.13-.12.43.43,0,0,1,0-.17v-11a.38.38,0,0,1,0-.16.25.25,0,0,1,.11-.12.52.52,0,0,1,.23-.08l.36,0,.36,0a.41.41,0,0,1,.22.08.46.46,0,0,1,.12.12.38.38,0,0,1,0,.16v1.46a5.57,5.57,0,0,1,1.48-1.53,2.68,2.68,0,0,1,1.48-.48,2.76,2.76,0,0,1,1.48.37,2.9,2.9,0,0,1,1,1,4.66,4.66,0,0,1,.53,1.46,11.52,11.52,0,0,1,.16,2Z"/><path class="cls-2" d="M129.13,65.06c0,.14,0,.26,0,.36a1,1,0,0,1,0,.26,1.89,1.89,0,0,1-.06.18.73.73,0,0,1-.16.23,2.64,2.64,0,0,1-.41.39,3.62,3.62,0,0,1-.66.4,4,4,0,0,1-.8.29,3.24,3.24,0,0,1-.89.11,3.53,3.53,0,0,1-1.68-.39,3.24,3.24,0,0,1-1.22-1.14,5.86,5.86,0,0,1-.76-1.84,11.16,11.16,0,0,1-.26-2.52,10.81,10.81,0,0,1,.32-2.79,5.55,5.55,0,0,1,.87-1.91,3.5,3.5,0,0,1,1.3-1.11,3.84,3.84,0,0,1,1.62-.36,3.59,3.59,0,0,1,.81.1,3.68,3.68,0,0,1,.73.26,3.12,3.12,0,0,1,.59.37,2.81,2.81,0,0,1,.38.35,1.4,1.4,0,0,1,.16.24.93.93,0,0,1,.08.2,1.86,1.86,0,0,1,0,.26c0,.1,0,.23,0,.37A2,2,0,0,1,129,58c-.06.12-.13.19-.22.19a.52.52,0,0,1-.34-.21,4.39,4.39,0,0,0-.48-.44,3.08,3.08,0,0,0-.71-.45,2.15,2.15,0,0,0-1-.2A2,2,0,0,0,124.49,58a6.87,6.87,0,0,0-.62,3.24,10.23,10.23,0,0,0,.16,1.86,4.4,4.4,0,0,0,.48,1.33,2.12,2.12,0,0,0,.77.8,2.08,2.08,0,0,0,1,.26,2.05,2.05,0,0,0,1-.22,3.63,3.63,0,0,0,.72-.49,6.6,6.6,0,0,0,.52-.47c.14-.15.25-.22.33-.22a.21.21,0,0,1,.12.05.4.4,0,0,1,.08.16,1.86,1.86,0,0,1,.05.3C129.13,64.76,129.13,64.9,129.13,65.06Z"/><path class="cls-2" d="M133.23,66.75a.31.31,0,0,1,0,.17.34.34,0,0,1-.12.12,1,1,0,0,1-.25.07l-.4,0-.39,0a1,1,0,0,1-.25-.07.3.3,0,0,1-.17-.29v-11a.26.26,0,0,1,0-.15.24.24,0,0,1,.13-.13,1,1,0,0,1,.25-.07,2.06,2.06,0,0,1,.39,0,2.17,2.17,0,0,1,.4,0,1,1,0,0,1,.25.07.25.25,0,0,1,.12.13.26.26,0,0,1,0,.15v11Zm.18-14.7a1.58,1.58,0,0,1-.21,1,1,1,0,0,1-.8.26,1,1,0,0,1-.78-.25,1.52,1.52,0,0,1-.21-1,1.62,1.62,0,0,1,.22-1,1,1,0,0,1,.79-.25,1,1,0,0,1,.78.25A1.52,1.52,0,0,1,133.41,52.05Z"/><path class="cls-2" d="M143.16,66.77a.31.31,0,0,1-.07.22.5.5,0,0,1-.22.1,1.36,1.36,0,0,1-.4,0,1.45,1.45,0,0,1-.4,0,.38.38,0,0,1-.22-.1.29.29,0,0,1-.07-.22V65.66a4.4,4.4,0,0,1-1.29,1.2,2.88,2.88,0,0,1-1.5.42,3.31,3.31,0,0,1-1.25-.22,2.5,2.5,0,0,1-1-.66,3.11,3.11,0,0,1-.62-1.05,4.41,4.41,0,0,1-.22-1.42,3.82,3.82,0,0,1,.31-1.61,2.9,2.9,0,0,1,.87-1.14,3.8,3.8,0,0,1,1.38-.68,7.06,7.06,0,0,1,1.85-.22h1.21v-.86a5.52,5.52,0,0,0-.1-1.13,2.31,2.31,0,0,0-.35-.81,1.49,1.49,0,0,0-.62-.49,2.37,2.37,0,0,0-.94-.16,3,3,0,0,0-1.06.17,5,5,0,0,0-.83.4c-.24.15-.44.28-.6.4a.75.75,0,0,1-.35.18.22.22,0,0,1-.14,0,.36.36,0,0,1-.1-.15,1.09,1.09,0,0,1-.07-.25,3.25,3.25,0,0,1,0-.33,2,2,0,0,1,0-.48.81.81,0,0,1,.16-.34A2.26,2.26,0,0,1,137,56a4.64,4.64,0,0,1,.74-.4,6.65,6.65,0,0,1,.92-.29,4.21,4.21,0,0,1,1-.12,4.27,4.27,0,0,1,1.61.27,2.52,2.52,0,0,1,1.07.79,3.21,3.21,0,0,1,.6,1.29,7.9,7.9,0,0,1,.18,1.79v7.43Zm-1.6-5h-1.37a3.93,3.93,0,0,0-1.15.14,2,2,0,0,0-.81.42,1.66,1.66,0,0,0-.48.66,2.39,2.39,0,0,0-.15.88A2,2,0,0,0,138,65.2a1.5,1.5,0,0,0,1.21.51,1.94,1.94,0,0,0,1.18-.41,5.32,5.32,0,0,0,1.13-1.23Z"/><path class="cls-2" d="M148.09,66.75a.43.43,0,0,1,0,.17.51.51,0,0,1-.13.12,1,1,0,0,1-.25.07l-.4,0-.39,0a1,1,0,0,1-.25-.07.38.38,0,0,1-.13-.12.43.43,0,0,1,0-.17V50.44a.4.4,0,0,1,0-.17.32.32,0,0,1,.13-.13,1,1,0,0,1,.25-.07,2.18,2.18,0,0,1,.39,0,2.24,2.24,0,0,1,.4,0,1,1,0,0,1,.25.07.4.4,0,0,1,.13.13.39.39,0,0,1,0,.17Z"/><path class="cls-2" d="M153,66.75a.43.43,0,0,1,0,.17.51.51,0,0,1-.13.12,1,1,0,0,1-.25.07l-.4,0-.39,0a1,1,0,0,1-.25-.07.38.38,0,0,1-.13-.12.43.43,0,0,1,0-.17V50.44a.4.4,0,0,1,0-.17.32.32,0,0,1,.13-.13,1,1,0,0,1,.25-.07,2.18,2.18,0,0,1,.39,0,2.24,2.24,0,0,1,.4,0,1,1,0,0,1,.25.07.4.4,0,0,1,.13.13.39.39,0,0,1,0,.17Z"/><path class="cls-2" d="M160.33,67.06l-1.18,4a.45.45,0,0,1-.3.3,1.87,1.87,0,0,1-.72.1,2.22,2.22,0,0,1-.41,0,.67.67,0,0,1-.24-.1.29.29,0,0,1-.09-.2.66.66,0,0,1,.05-.29l1.21-3.83a.64.64,0,0,1-.17-.16.58.58,0,0,1-.1-.23l-3.14-10.51a1.61,1.61,0,0,1-.08-.41.34.34,0,0,1,.08-.23.42.42,0,0,1,.25-.12,2.91,2.91,0,0,1,.47,0l.46,0a.88.88,0,0,1,.27.07.32.32,0,0,1,.14.14c0,.06,0,.15.09.25l2.51,8.82h0l2.42-8.87a.69.69,0,0,1,.14-.3.59.59,0,0,1,.25-.1,2.88,2.88,0,0,1,.48,0,2.81,2.81,0,0,1,.45,0,.49.49,0,0,1,.26.12.34.34,0,0,1,.08.23,1.48,1.48,0,0,1-.06.37Z"/><path class="cls-2" d="M174.8,65.94a2.86,2.86,0,0,1,0,.56.61.61,0,0,1-.11.3.69.69,0,0,1-.24.19,1.6,1.6,0,0,1-.35.14c-.14,0-.28.06-.43.09a2.18,2.18,0,0,1-.44,0A2.74,2.74,0,0,1,172,67a2,2,0,0,1-.8-.68,3.24,3.24,0,0,1-.46-1.16,8.83,8.83,0,0,1-.14-1.65V57.13h-1.23c-.1,0-.18-.07-.24-.2a1.63,1.63,0,0,1-.09-.64,2.21,2.21,0,0,1,0-.39,1.43,1.43,0,0,1,.06-.26.36.36,0,0,1,.1-.15.26.26,0,0,1,.15,0h1.22V52.84a.29.29,0,0,1,0-.16.27.27,0,0,1,.13-.13.67.67,0,0,1,.25-.08l.39,0,.4,0a.67.67,0,0,1,.25.08.35.35,0,0,1,.16.29v2.61h2.24a.21.21,0,0,1,.14,0,.36.36,0,0,1,.1.15.91.91,0,0,1,.06.26,2.3,2.3,0,0,1,0,.39,1.91,1.91,0,0,1-.08.64c-.06.13-.14.2-.24.2h-2.24v6.11a4.17,4.17,0,0,0,.27,1.71,1,1,0,0,0,1,.58,1.54,1.54,0,0,0,.39,0l.31-.12.24-.12a.41.41,0,0,1,.17,0,.16.16,0,0,1,.09,0,.22.22,0,0,1,.07.12,1,1,0,0,1,0,.23A2,2,0,0,1,174.8,65.94Z"/><path class="cls-2" d="M182.42,56.47c0,.18,0,.33,0,.45a1.12,1.12,0,0,1,0,.29.26.26,0,0,1-.07.15.14.14,0,0,1-.12.06.45.45,0,0,1-.19-.06l-.25-.11-.32-.1a1.52,1.52,0,0,0-.38,0,1.07,1.07,0,0,0-.48.12,2.12,2.12,0,0,0-.49.41,5.25,5.25,0,0,0-.54.75q-.28.46-.63,1.14v7.23a.43.43,0,0,1,0,.17.51.51,0,0,1-.13.12,1,1,0,0,1-.25.07l-.4,0-.39,0a1,1,0,0,1-.25-.07.3.3,0,0,1-.17-.29v-11a.38.38,0,0,1,0-.16.28.28,0,0,1,.12-.12.52.52,0,0,1,.23-.08l.36,0,.36,0a.44.44,0,0,1,.22.08.31.31,0,0,1,.11.12.38.38,0,0,1,0,.16v1.61a8.76,8.76,0,0,1,.67-1.08,5.15,5.15,0,0,1,.6-.66,1.74,1.74,0,0,1,.56-.33,1.88,1.88,0,0,1,.57-.09,1.42,1.42,0,0,1,.28,0l.34.06a2,2,0,0,1,.32.12.53.53,0,0,1,.2.12.28.28,0,0,1,.07.11.57.57,0,0,1,0,.14,1.47,1.47,0,0,1,0,.25Z"/><path class="cls-2" d="M190.81,66.77a.31.31,0,0,1-.08.22.41.41,0,0,1-.21.1,1.4,1.4,0,0,1-.4,0,1.53,1.53,0,0,1-.41,0,.41.41,0,0,1-.22-.1.34.34,0,0,1-.07-.22V65.66a4.37,4.37,0,0,1-1.28,1.2,2.88,2.88,0,0,1-1.5.42,3.4,3.4,0,0,1-1.26-.22,2.54,2.54,0,0,1-.95-.66,3,3,0,0,1-.62-1.05,4.15,4.15,0,0,1-.22-1.42,4,4,0,0,1,.3-1.61,2.9,2.9,0,0,1,.87-1.14,3.84,3.84,0,0,1,1.39-.68,7,7,0,0,1,1.85-.22h1.21v-.86a5.48,5.48,0,0,0-.11-1.13,2.13,2.13,0,0,0-.34-.81,1.49,1.49,0,0,0-.62-.49,2.4,2.4,0,0,0-.94-.16,3,3,0,0,0-1.07.17,5.84,5.84,0,0,0-.83.4c-.23.15-.43.28-.59.4a.73.73,0,0,1-.36.18.19.19,0,0,1-.13,0,.37.37,0,0,1-.11-.15.76.76,0,0,1-.06-.25,3.25,3.25,0,0,1,0-.33,3,3,0,0,1,0-.48.84.84,0,0,1,.17-.34,2.45,2.45,0,0,1,.45-.37,5.25,5.25,0,0,1,.75-.4,6.5,6.5,0,0,1,.91-.29,4.68,4.68,0,0,1,2.62.15,2.52,2.52,0,0,1,1.07.79,3.21,3.21,0,0,1,.59,1.29,7.33,7.33,0,0,1,.19,1.79v7.43Zm-1.6-5h-1.38a4,4,0,0,0-1.15.14,2.08,2.08,0,0,0-.81.42,1.63,1.63,0,0,0-.47.66,2.39,2.39,0,0,0-.15.88,2,2,0,0,0,.43,1.37,1.52,1.52,0,0,0,1.22.51,1.92,1.92,0,0,0,1.17-.41,5.56,5.56,0,0,0,1.14-1.23Z"/><path class="cls-2" d="M201.67,66.75a.31.31,0,0,1,0,.17.68.68,0,0,1-.12.12,1.26,1.26,0,0,1-.25.07l-.39,0-.41,0a1,1,0,0,1-.24-.07.51.51,0,0,1-.13-.12.31.31,0,0,1,0-.17V60.31a7.66,7.66,0,0,0-.12-1.51,3.2,3.2,0,0,0-.34-1,1.7,1.7,0,0,0-.57-.64,1.59,1.59,0,0,0-.82-.22,1.81,1.81,0,0,0-1.21.54,7.65,7.65,0,0,0-1.26,1.57v7.69a.31.31,0,0,1,0,.17.51.51,0,0,1-.13.12,1,1,0,0,1-.24.07l-.4,0-.39,0a1.2,1.2,0,0,1-.26-.07.51.51,0,0,1-.13-.12.43.43,0,0,1,0-.17v-11a.38.38,0,0,1,0-.16.28.28,0,0,1,.12-.12.48.48,0,0,1,.22-.08l.37,0,.36,0a.48.48,0,0,1,.22.08.31.31,0,0,1,.11.12.38.38,0,0,1,0,.16v1.46a5.87,5.87,0,0,1,1.48-1.53,2.68,2.68,0,0,1,1.48-.48,2.73,2.73,0,0,1,1.48.37,2.9,2.9,0,0,1,1,1,4.43,4.43,0,0,1,.53,1.46,10.62,10.62,0,0,1,.16,2Z"/><path class="cls-2" d="M210.48,63.75a4.23,4.23,0,0,1-.25,1.51,3.11,3.11,0,0,1-.71,1.11,3.05,3.05,0,0,1-1.09.68,4.15,4.15,0,0,1-1.4.23,4.26,4.26,0,0,1-.89-.09,3.78,3.78,0,0,1-.76-.23,3,3,0,0,1-.57-.29,1.53,1.53,0,0,1-.34-.27.64.64,0,0,1-.16-.34,3,3,0,0,1-.05-.6c0-.15,0-.28,0-.39a1.33,1.33,0,0,1,.05-.26.37.37,0,0,1,.08-.14.19.19,0,0,1,.12,0,.66.66,0,0,1,.32.17,5.66,5.66,0,0,0,.52.36,3.45,3.45,0,0,0,.72.35,2.71,2.71,0,0,0,1.71.06,1.47,1.47,0,0,0,.57-.33,1.32,1.32,0,0,0,.38-.54,2.11,2.11,0,0,0,.13-.79,1.46,1.46,0,0,0-.19-.78,2,2,0,0,0-.5-.56,3.78,3.78,0,0,0-.7-.44l-.81-.39c-.27-.14-.54-.3-.8-.47a3.12,3.12,0,0,1-.71-.65,3,3,0,0,1-.5-.9,3.63,3.63,0,0,1-.19-1.26,4,4,0,0,1,.2-1.24,2.92,2.92,0,0,1,.6-1,3.07,3.07,0,0,1,1-.71,3.72,3.72,0,0,1,2.11-.2,3.58,3.58,0,0,1,.63.2,2.49,2.49,0,0,1,.49.24,2.22,2.22,0,0,1,.3.24.88.88,0,0,1,.14.17.84.84,0,0,1,.05.17c0,.06,0,.13,0,.22a3.22,3.22,0,0,1,0,.33c0,.14,0,.26,0,.36a1.11,1.11,0,0,1-.05.24c0,.07,0,.12-.09.14a.16.16,0,0,1-.1.05.51.51,0,0,1-.26-.14,3.94,3.94,0,0,0-.43-.29,4.52,4.52,0,0,0-.62-.29,2.31,2.31,0,0,0-.82-.13,2,2,0,0,0-.72.11,1.33,1.33,0,0,0-.51.33,1.36,1.36,0,0,0-.31.5,1.85,1.85,0,0,0-.1.63,1.51,1.51,0,0,0,.2.8,1.94,1.94,0,0,0,.5.57,4.18,4.18,0,0,0,.72.44l.81.4c.28.14.55.3.82.47a3.28,3.28,0,0,1,.72.62,3,3,0,0,1,.5.88A3.44,3.44,0,0,1,210.48,63.75Z"/><path class="cls-2" d="M217.76,51.23a3.79,3.79,0,0,1,0,.38c0,.09,0,.16-.05.22a.2.2,0,0,1-.06.12.29.29,0,0,1-.1,0,.38.38,0,0,1-.17-.06l-.25-.12a2,2,0,0,0-.35-.12,1.6,1.6,0,0,0-.46-.06,1.21,1.21,0,0,0-.62.15,1,1,0,0,0-.41.46,2.62,2.62,0,0,0-.22.81,8.3,8.3,0,0,0-.07,1.21v1.2h2a.2.2,0,0,1,.13,0,.49.49,0,0,1,.09.15.89.89,0,0,1,.07.26,2.21,2.21,0,0,1,0,.39,1.63,1.63,0,0,1-.09.64c-.06.13-.14.2-.23.2h-2v9.62a.43.43,0,0,1,0,.17.51.51,0,0,1-.13.12,1.26,1.26,0,0,1-.25.07l-.39,0-.39,0a1,1,0,0,1-.25-.07.51.51,0,0,1-.13-.12.31.31,0,0,1,0-.17V57.13h-1.25c-.1,0-.18-.07-.23-.2a1.68,1.68,0,0,1-.08-.64,2.3,2.3,0,0,1,0-.39.91.91,0,0,1,.06-.26.27.27,0,0,1,.09-.15.23.23,0,0,1,.14,0h1.25V54.31a9.48,9.48,0,0,1,.17-2,3.81,3.81,0,0,1,.52-1.35,2.14,2.14,0,0,1,.89-.78,2.85,2.85,0,0,1,1.25-.25,2.51,2.51,0,0,1,.67.08,1.93,1.93,0,0,1,.5.17.81.81,0,0,1,.23.16.85.85,0,0,1,.1.19,1.78,1.78,0,0,1,.05.28C217.75,50.94,217.76,51.08,217.76,51.23Z"/><path class="cls-2" d="M227.12,61.12a10.12,10.12,0,0,1-.28,2.48,6.18,6.18,0,0,1-.84,1.95,4.07,4.07,0,0,1-1.41,1.27,4,4,0,0,1-2,.46,4.12,4.12,0,0,1-1.89-.4,3.51,3.51,0,0,1-1.34-1.17,5.4,5.4,0,0,1-.8-1.87,10.5,10.5,0,0,1-.27-2.49,10.63,10.63,0,0,1,.28-2.48,6.18,6.18,0,0,1,.84-1.95,4,4,0,0,1,1.4-1.27,4.08,4.08,0,0,1,2-.45,4.18,4.18,0,0,1,1.89.4,3.52,3.52,0,0,1,1.34,1.18,5.46,5.46,0,0,1,.81,1.86,11,11,0,0,1,.26,2.48Zm-1.68.13a10,10,0,0,0-.13-1.68,4.7,4.7,0,0,0-.44-1.4,2.35,2.35,0,0,0-.82-.94,2.2,2.2,0,0,0-1.29-.35,2.29,2.29,0,0,0-1.23.31,2.54,2.54,0,0,0-.85.9,4.49,4.49,0,0,0-.49,1.38A8.53,8.53,0,0,0,220,61.2a10,10,0,0,0,.14,1.7,4.28,4.28,0,0,0,.44,1.39,2.43,2.43,0,0,0,.82.94,2.31,2.31,0,0,0,1.3.35,2.2,2.2,0,0,0,1.22-.32,2.45,2.45,0,0,0,.86-.89,4.6,4.6,0,0,0,.49-1.37A9.43,9.43,0,0,0,225.44,61.25Z"/><path class="cls-2" d="M235,56.47c0,.18,0,.33,0,.45a1.84,1.84,0,0,1,0,.29.35.35,0,0,1-.07.15.14.14,0,0,1-.12.06.38.38,0,0,1-.19-.06l-.26-.11-.31-.1a1.58,1.58,0,0,0-.38,0,1,1,0,0,0-.48.12,1.94,1.94,0,0,0-.49.41,4.56,4.56,0,0,0-.55.75c-.18.31-.39.69-.62,1.14v7.23a.31.31,0,0,1,0,.17.51.51,0,0,1-.13.12,1,1,0,0,1-.24.07l-.4,0-.4,0A1.09,1.09,0,0,1,230,67a.51.51,0,0,1-.13-.12.43.43,0,0,1,0-.17v-11a.38.38,0,0,1,0-.16.28.28,0,0,1,.12-.12.48.48,0,0,1,.22-.08l.37,0,.35,0a.48.48,0,0,1,.23.08.31.31,0,0,1,.11.12.38.38,0,0,1,0,.16v1.61a7.64,7.64,0,0,1,.68-1.08,4,4,0,0,1,.6-.66,1.74,1.74,0,0,1,.56-.33,1.82,1.82,0,0,1,.56-.09,1.52,1.52,0,0,1,.29,0l.34.06a2.23,2.23,0,0,1,.31.12.46.46,0,0,1,.2.12.33.33,0,0,1,.08.11s0,.09,0,.14,0,.14,0,.25Z"/><path class="cls-2" d="M250.21,66.75a.43.43,0,0,1,0,.17A.51.51,0,0,1,250,67a1,1,0,0,1-.24.07l-.39,0-.4,0a1,1,0,0,1-.25-.07.38.38,0,0,1-.13-.12.31.31,0,0,1,0-.17V60.07a8.08,8.08,0,0,0-.1-1.27,3.5,3.5,0,0,0-.31-1,1.74,1.74,0,0,0-.55-.64,1.43,1.43,0,0,0-.78-.22,1.62,1.62,0,0,0-1.11.54,8.85,8.85,0,0,0-1.23,1.57v7.69a.43.43,0,0,1,0,.17.43.43,0,0,1-.14.12,1,1,0,0,1-.25.07l-.39,0-.39,0a1.09,1.09,0,0,1-.25-.07.38.38,0,0,1-.13-.12.43.43,0,0,1,0-.17V60.07a7,7,0,0,0-.11-1.27,3.49,3.49,0,0,0-.32-1,1.82,1.82,0,0,0-.54-.64,1.43,1.43,0,0,0-.78-.22,1.64,1.64,0,0,0-1.12.54,8.41,8.41,0,0,0-1.23,1.57v7.69a.43.43,0,0,1,0,.17.51.51,0,0,1-.13.12,1,1,0,0,1-.25.07l-.4,0-.39,0a1,1,0,0,1-.25-.07.38.38,0,0,1-.13-.12.43.43,0,0,1,0-.17v-11a.38.38,0,0,1,0-.16.25.25,0,0,1,.11-.12.52.52,0,0,1,.23-.08l.36,0,.36,0a.41.41,0,0,1,.22.08.46.46,0,0,1,.12.12.38.38,0,0,1,0,.16v1.46a6.14,6.14,0,0,1,1.44-1.53,2.49,2.49,0,0,1,1.41-.48,2.78,2.78,0,0,1,1,.16,2.48,2.48,0,0,1,.76.44,2.69,2.69,0,0,1,.57.69,3.8,3.8,0,0,1,.39.89,10.92,10.92,0,0,1,.84-1,4.51,4.51,0,0,1,.76-.67,2.55,2.55,0,0,1,.71-.37,2.09,2.09,0,0,1,.69-.12,2.58,2.58,0,0,1,1.43.37,2.89,2.89,0,0,1,.93,1,4.65,4.65,0,0,1,.51,1.46,10.06,10.06,0,0,1,.15,1.77Z"/><path class="cls-2" d="M255.1,66.75a.31.31,0,0,1,0,.17.34.34,0,0,1-.12.12,1,1,0,0,1-.25.07l-.4,0-.39,0a1,1,0,0,1-.25-.07.3.3,0,0,1-.17-.29v-11a.26.26,0,0,1,0-.15.24.24,0,0,1,.13-.13,1,1,0,0,1,.25-.07,2.06,2.06,0,0,1,.39,0,2.17,2.17,0,0,1,.4,0,1,1,0,0,1,.25.07.25.25,0,0,1,.12.13.26.26,0,0,1,0,.15v11Zm.18-14.7a1.58,1.58,0,0,1-.21,1,1,1,0,0,1-.8.26,1,1,0,0,1-.78-.25,1.52,1.52,0,0,1-.21-1,1.62,1.62,0,0,1,.22-1,1,1,0,0,1,.79-.25,1,1,0,0,1,.78.25A1.52,1.52,0,0,1,255.28,52.05Z"/><path class="cls-2" d="M266,66.75a.43.43,0,0,1,0,.17.51.51,0,0,1-.13.12,1,1,0,0,1-.25.07l-.39,0-.4,0a1,1,0,0,1-.25-.07.34.34,0,0,1-.12-.12.31.31,0,0,1,0-.17V60.31a7.66,7.66,0,0,0-.12-1.51,3.48,3.48,0,0,0-.34-1,1.64,1.64,0,0,0-.58-.64,1.57,1.57,0,0,0-.82-.22,1.81,1.81,0,0,0-1.2.54A7.65,7.65,0,0,0,260,59.06v7.69a.43.43,0,0,1,0,.17.51.51,0,0,1-.13.12,1,1,0,0,1-.25.07l-.4,0-.39,0a1,1,0,0,1-.25-.07.38.38,0,0,1-.13-.12.43.43,0,0,1,0-.17v-11a.38.38,0,0,1,0-.16.25.25,0,0,1,.11-.12.52.52,0,0,1,.23-.08l.36,0,.36,0a.41.41,0,0,1,.22.08.46.46,0,0,1,.12.12.38.38,0,0,1,0,.16v1.46a5.57,5.57,0,0,1,1.48-1.53,2.68,2.68,0,0,1,1.48-.48,2.76,2.76,0,0,1,1.48.37,2.9,2.9,0,0,1,1,1,4.66,4.66,0,0,1,.53,1.46,11.52,11.52,0,0,1,.16,2Z"/><path class="cls-2" d="M276.6,56.27a1.59,1.59,0,0,1-.09.62c-.06.12-.14.19-.24.19H275a2.55,2.55,0,0,1,.48,1,4.42,4.42,0,0,1,.13,1.1,5.41,5.41,0,0,1-.24,1.68,3.49,3.49,0,0,1-.7,1.24,3,3,0,0,1-1.08.78,3.48,3.48,0,0,1-1.39.26,2.91,2.91,0,0,1-1-.17,2.08,2.08,0,0,1-.75-.45,2.19,2.19,0,0,0-.27.5,1.93,1.93,0,0,0-.11.65.93.93,0,0,0,.32.72,1.32,1.32,0,0,0,.84.31l2.29.12a3.77,3.77,0,0,1,1.2.22,3,3,0,0,1,1,.58,2.58,2.58,0,0,1,.62.91,3.26,3.26,0,0,1,.22,1.26,4,4,0,0,1-.25,1.44,3.2,3.2,0,0,1-.78,1.2,3.53,3.53,0,0,1-1.33.82,5.51,5.51,0,0,1-1.91.3,6.31,6.31,0,0,1-1.81-.22,3.55,3.55,0,0,1-1.23-.62,2.2,2.2,0,0,1-.69-.94,3,3,0,0,1-.22-1.18,4,4,0,0,1,.08-.78,3,3,0,0,1,.24-.72,3.34,3.34,0,0,1,.4-.65,6.12,6.12,0,0,1,.55-.62,1.91,1.91,0,0,1-.7-.77,2.26,2.26,0,0,1-.23-1,3.47,3.47,0,0,1,.24-1.33,4.77,4.77,0,0,1,.6-1.06,3.93,3.93,0,0,1-.48-1,4.62,4.62,0,0,1-.18-1.38,5.15,5.15,0,0,1,.26-1.68,3.65,3.65,0,0,1,.7-1.26,3,3,0,0,1,1.08-.79,3.46,3.46,0,0,1,1.37-.28,5.7,5.7,0,0,1,.75.06,4.11,4.11,0,0,1,.65.17h2.66c.11,0,.19.07.25.2a1.66,1.66,0,0,1,.08.62Zm-2.52,2.88a2.73,2.73,0,0,0-.49-1.74,1.87,1.87,0,0,0-2.22-.44,1.63,1.63,0,0,0-.57.54,2.2,2.2,0,0,0-.34.78,3.61,3.61,0,0,0-.12.94,2.65,2.65,0,0,0,.5,1.7,1.65,1.65,0,0,0,1.38.62,1.81,1.81,0,0,0,.83-.18,1.63,1.63,0,0,0,.58-.53,2.34,2.34,0,0,0,.34-.77,3.51,3.51,0,0,0,.11-.92Zm.8,8.7a1.34,1.34,0,0,0-.46-1.09,2.07,2.07,0,0,0-1.25-.41l-2.27-.09a4.45,4.45,0,0,0-.52.58,3.23,3.23,0,0,0-.31.52,1.87,1.87,0,0,0-.16.49,2.83,2.83,0,0,0-.05.5,1.33,1.33,0,0,0,.65,1.2,3.34,3.34,0,0,0,1.79.41,3.53,3.53,0,0,0,1.22-.18,2.15,2.15,0,0,0,.8-.47,1.68,1.68,0,0,0,.43-.66A2.4,2.4,0,0,0,274.88,67.85Z"/><path class="cls-2" d="M285.16,66.75a.31.31,0,0,1,0,.17A.51.51,0,0,1,285,67a1,1,0,0,1-.24.07l-.4,0-.4,0a1.09,1.09,0,0,1-.25-.07.51.51,0,0,1-.13-.12.43.43,0,0,1,0-.17V50.44a.3.3,0,0,1,.16-.3,1.09,1.09,0,0,1,.25-.07,4,4,0,0,1,.8,0,1,1,0,0,1,.24.07.4.4,0,0,1,.13.13.29.29,0,0,1,0,.17Z"/><path class="cls-2" d="M290.09,66.75a.31.31,0,0,1,0,.17.51.51,0,0,1-.13.12,1,1,0,0,1-.24.07l-.4,0-.4,0a1.09,1.09,0,0,1-.25-.07.51.51,0,0,1-.13-.12.43.43,0,0,1,0-.17v-11a.37.37,0,0,1,0-.15.33.33,0,0,1,.13-.13,1.09,1.09,0,0,1,.25-.07,2.68,2.68,0,0,1,.8,0,1,1,0,0,1,.24.07.33.33,0,0,1,.13.13.26.26,0,0,1,0,.15v11Zm.18-14.7a1.5,1.5,0,0,1-.22,1,1,1,0,0,1-.79.26,1,1,0,0,1-.78-.25,1.52,1.52,0,0,1-.21-1,1.55,1.55,0,0,1,.22-1,1,1,0,0,1,.79-.25,1,1,0,0,1,.78.25A1.52,1.52,0,0,1,290.27,52.05Z"/><path class="cls-2" d="M300.6,55.73v.1s0,.08,0,.12l0,.13,0,.16-3,10.45a.76.76,0,0,1-.1.22.45.45,0,0,1-.19.14,2.09,2.09,0,0,1-.33.07h-.49l-.48,0a1.73,1.73,0,0,1-.32-.07.47.47,0,0,1-.19-.14.7.7,0,0,1-.11-.21l-3-10.45c0-.09,0-.18-.06-.25a.75.75,0,0,1,0-.17v-.09a.43.43,0,0,1,0-.17.28.28,0,0,1,.14-.12.72.72,0,0,1,.24,0l.38,0,.45,0a.74.74,0,0,1,.26.07.28.28,0,0,1,.14.12.68.68,0,0,1,.08.19l2.48,9.07,0,.14,0-.14L299,55.77a.69.69,0,0,1,.07-.19.33.33,0,0,1,.14-.12.81.81,0,0,1,.26-.07l.42,0,.37,0a.58.58,0,0,1,.23.06.26.26,0,0,1,.12.11A.43.43,0,0,1,300.6,55.73Z"/><path class="cls-2" d="M310.06,60.77a1,1,0,0,1-.19.68.57.57,0,0,1-.44.2h-5.77a8.32,8.32,0,0,0,.15,1.66,3.39,3.39,0,0,0,.49,1.26,2.18,2.18,0,0,0,.88.8,2.91,2.91,0,0,0,1.34.29,4.72,4.72,0,0,0,1.12-.13,5.44,5.44,0,0,0,.84-.29c.24-.1.44-.2.59-.28a.76.76,0,0,1,.35-.13.19.19,0,0,1,.12,0,.32.32,0,0,1,.08.13,1.11,1.11,0,0,1,.05.24c0,.1,0,.22,0,.37a2.26,2.26,0,0,1,0,.27c0,.08,0,.15,0,.21a.75.75,0,0,1,0,.16,1.1,1.1,0,0,1-.09.14,1.23,1.23,0,0,1-.32.22,4.11,4.11,0,0,1-.68.3c-.28.09-.6.18-1,.26a5.53,5.53,0,0,1-1.17.11,4.33,4.33,0,0,1-1.9-.38,3.52,3.52,0,0,1-1.37-1.12,5.29,5.29,0,0,1-.84-1.87A10.71,10.71,0,0,1,302,61.3a10.4,10.4,0,0,1,.29-2.55,6,6,0,0,1,.85-1.92,3.74,3.74,0,0,1,1.33-1.21,3.62,3.62,0,0,1,1.75-.42,3.47,3.47,0,0,1,1.76.42,3.51,3.51,0,0,1,1.19,1.11,5.13,5.13,0,0,1,.69,1.65,8.77,8.77,0,0,1,.22,2v.36Zm-1.62-.59a4.42,4.42,0,0,0-.56-2.5,2,2,0,0,0-1.76-.9,2,2,0,0,0-1.05.27,2.37,2.37,0,0,0-.75.76,3.43,3.43,0,0,0-.47,1.08,5.43,5.43,0,0,0-.19,1.29Z"/><path class="cls-2" d="M318.39,63.75a4.23,4.23,0,0,1-.25,1.51,2.89,2.89,0,0,1-1.8,1.79,4.14,4.14,0,0,1-1.39.23,4.36,4.36,0,0,1-.9-.09,4,4,0,0,1-.76-.23,3.77,3.77,0,0,1-.57-.29,1.53,1.53,0,0,1-.34-.27.72.72,0,0,1-.16-.34,3,3,0,0,1-.05-.6c0-.15,0-.28,0-.39s0-.19.05-.26a.37.37,0,0,1,.08-.14.2.2,0,0,1,.13,0,.64.64,0,0,1,.31.17c.14.11.32.23.52.36a3.55,3.55,0,0,0,.73.35,2.42,2.42,0,0,0,1,.17,2.45,2.45,0,0,0,.74-.11,1.59,1.59,0,0,0,.58-.33,1.41,1.41,0,0,0,.37-.54,2.11,2.11,0,0,0,.13-.79,1.46,1.46,0,0,0-.19-.78,1.89,1.89,0,0,0-.5-.56,3.78,3.78,0,0,0-.7-.44l-.8-.39a8.13,8.13,0,0,1-.81-.47,3.35,3.35,0,0,1-.71-.65,3.24,3.24,0,0,1-.5-.9,3.89,3.89,0,0,1-.19-1.26,4,4,0,0,1,.2-1.24,3.25,3.25,0,0,1,.6-1,3.11,3.11,0,0,1,1-.71,3.36,3.36,0,0,1,1.4-.27,3.33,3.33,0,0,1,.7.07,3.44,3.44,0,0,1,.64.2,2.15,2.15,0,0,1,.48.24,1.73,1.73,0,0,1,.3.24.61.61,0,0,1,.14.17.84.84,0,0,1,.05.17c0,.06,0,.13,0,.22a3.22,3.22,0,0,1,0,.33c0,.14,0,.26,0,.36a1.11,1.11,0,0,1-.05.24.26.26,0,0,1-.08.14.18.18,0,0,1-.11.05.55.55,0,0,1-.26-.14,3.94,3.94,0,0,0-.43-.29,4,4,0,0,0-.62-.29,2.26,2.26,0,0,0-.81-.13,2,2,0,0,0-.73.11,1.32,1.32,0,0,0-.81.83,1.85,1.85,0,0,0-.11.63,1.51,1.51,0,0,0,.2.8,2,2,0,0,0,.51.57,3.73,3.73,0,0,0,.71.44l.81.4c.28.14.55.3.82.47a3.28,3.28,0,0,1,.72.62,2.8,2.8,0,0,1,.5.88A3.44,3.44,0,0,1,318.39,63.75Z"/><polygon class="cls-3" points="335.67 10.62 347.41 34.43 335.67 56.57 335.67 10.62"/><polygon class="cls-4" points="347.41 34.43 335.67 56.57 335.67 34.2 347.41 34.43"/><polygon class="cls-5" points="487.9 0.72 338.87 0.72 356.4 33.84 338.87 68.9 487.9 68.9 487.9 0.72"/><path class="cls-5" d="M57.85,1.44H1.44V68.18H57.85V1.44ZM.72,0H59.29V69.62H0V0Z"/><path class="cls-5" d="M6.37.72H.72V68.9H2.84a19,19,0,0,0,3.48.32,18.7,18.7,0,0,0,13.11-5.3,18,18,0,0,0,5-8.81V68.9h5.65v-13a18.25,18.25,0,0,0,4.55,8.05,17.24,17.24,0,0,0,15.74,5H47v-4a13.3,13.3,0,0,1-9.54-4.07,14.12,14.12,0,0,1,0-19.55A13.3,13.3,0,0,1,47,37.21V32.89a17.28,17.28,0,0,0-12.39,5.3,18.25,18.25,0,0,0-4.55,8.05V.72H24.43V47a18,18,0,0,0-5-8.81,18.7,18.7,0,0,0-13.06-5.3V.72Zm0,64.18V37.21a14.41,14.41,0,0,1,10.06,4.07,13.59,13.59,0,0,1,0,19.55A14.41,14.41,0,0,1,6.37,64.9Z"/></g></g></svg>