<svg width="140" height="32" xmlns="http://www.w3.org/2000/svg" viewBox="0 0 140.6 32.13"><defs><style>.cls-1{fill:#9c9d9d;}.cls-1,.cls-2{fill-rule:evenodd;}.cls-2{fill:#e3000f;}</style></defs><title>Asset 1</title><g id="Layer_2" data-name="Layer 2"><g id="Camada_1" data-name="Camada 1"><path class="cls-1" d="M16.17,0A16.07,16.07,0,1,1,0,16.06,16.12,16.12,0,0,1,16.17,0Zm.06,2.75A13.44,13.44,0,1,0,29.67,16.18,13.43,13.43,0,0,0,16.23,2.75Zm-5.5,2.82C2.24,10.36,2.16,22.48,11,26.64c.32.15.67-.2.67-.61V21L21,20.94l.07,5c0,.16.05.91.83.43,8.58-5.19,7.64-17-.22-20.75-.41-.19-.63.22-.63.53l0,4.94H11.73L11.67,6c0-.46-.46-.67-.94-.4ZM22.84,8.84l.06,14.52c4.17-4.91,3.86-9.75-.06-14.52ZM9.86,9c-3.92,4.77-4.23,9.61-.06,14.52L9.86,9Zm1.74,4.67V18.7h9.5V13.63Z"/><path class="cls-2" d="M57.94,11.64c0-3.69-2.75-6-6.9-6H42.55V26.74h9.22c4.18,0,6.94-2.41,6.94-6.19a5.74,5.74,0,0,0-2.89-4.89,4.65,4.65,0,0,0,2.12-4ZM48.19,13.9V10.28h2.36a1.68,1.68,0,0,1,1.72,1.9,1.67,1.67,0,0,1-1.72,1.72Zm0,8.1V18.25h3.12A1.79,1.79,0,0,1,53,20.19,1.72,1.72,0,0,1,51.31,22ZM81.1,16.17c0-6.53-4-10.88-10.12-10.88S60.8,9.64,60.8,16.17,64.88,27.05,71,27.05,81.1,22.69,81.1,16.17Zm-14.6,0c0-3.38,1.79-5.68,4.48-5.68s4.34,2.3,4.34,5.68S73.6,21.88,71,21.88s-4.48-2.33-4.48-5.71Zm16.72,3.9c-.13,4.2,3.12,7,8.12,7s8.16-2.57,8.16-6.62c0-5.14-3.71-6.25-7.92-6.65C89.79,13.57,89,12.91,89,12c0-1.21.86-1.93,2.22-1.93a2,2,0,0,1,2.16,2.17h5.37c.14-4.14-2.92-6.92-7.63-6.92S83.38,7.86,83.38,12c0,4.41,3.62,6.19,7.23,6.43,1.17.1,3.22.22,3.22,1.94,0,1.21-1,1.9-2.55,1.9s-2.66-.9-2.62-2.2Zm18.27-3.87c0,6.49,4.05,10.81,10.09,10.81,4.28,0,8.72-2.38,9.45-8.39h-5.54A3.71,3.71,0,0,1,111.61,22c-2.65,0-4.41-2.33-4.41-5.8s1.76-5.89,4.38-5.89a3.71,3.71,0,0,1,3.88,3.11H121c-.66-5.65-5.27-8.1-9.38-8.1-6,0-10.09,4.35-10.09,10.91Zm33.37,2.08v8.46h5.74V5.6h-5.74v7.64h-5.24V5.6h-5.74V26.74h5.74V18.28Z"/></g></g></svg>