<svg xmlns="http://www.w3.org/2000/svg" width="25" height="25" viewBox="0 0 25 25">
  <path id="Path_473" data-name="Path 473" d="M25-5.4a.906.906,0,0,0-.053-.373c-.124-.373-.994-.763-1.349-.941-1.012-.568-2.042-1.119-3.036-1.7-.462-.284-1.03-.817-1.58-.817-1.083,0-2.663,3.214-3.622,3.214a3.817,3.817,0,0,1-1.527-.692A17.667,17.667,0,0,1,6.57-13.975,3.817,3.817,0,0,1,5.877-15.5c0-.959,3.214-2.539,3.214-3.622,0-.55-.533-1.119-.817-1.58-.586-.994-1.136-2.024-1.7-3.036C6.392-24.1,6-24.965,5.629-25.09a.907.907,0,0,0-.373-.053,7.9,7.9,0,0,0-2.468.55A4.678,4.678,0,0,0,.906-22.426,6.786,6.786,0,0,0,0-19.124a13.677,13.677,0,0,0,1.225,4.652A16.6,16.6,0,0,0,2.7-11.364a29.975,29.975,0,0,0,8.523,8.523,16.6,16.6,0,0,0,3.107,1.474A13.677,13.677,0,0,0,18.981-.143a6.786,6.786,0,0,0,3.3-.906A4.678,4.678,0,0,0,24.45-2.931,7.9,7.9,0,0,0,25-5.4Z" transform="translate(0 25.143)" fill="#ff5f3b"/>
</svg>
