<svg width="78" height="51" xmlns="http://www.w3.org/2000/svg" viewBox="0 0 150 86.27"><defs><style>.cls-1{fill:#21254f;}.cls-2{fill:#e30613;}</style></defs><title>Asset 1</title><g id="Layer_2" data-name="Layer 2"><g id="Layer_1-2" data-name="Layer 1"><path class="cls-1" d="M40.68,69.57a17.07,17.07,0,1,1-.52-21.85l6.4-8.14a27.31,27.31,0,1,0,.06,38.7Z"/><rect class="cls-1" x="52.09" y="32.75" width="11.52" height="52.92"/><rect class="cls-1" x="114.93" y="33.02" width="11.52" height="52.92"/><path class="cls-1" d="M95.22,86.21c-9.91,0-12.28-8.47-12.52-13.24h-.07V42.73H72.5V33H82.63V22.76L92.9,16.52l-.28,7.87V33H103v9.7H92.62V69.57a6.34,6.34,0,0,0-.1,1.16,6.23,6.23,0,0,0,.1,1.15v.61a6.91,6.91,0,0,0,4.1,5.2,6.82,6.82,0,0,0,2.72.56,6.91,6.91,0,0,0,5.35-2.54,7.06,7.06,0,0,0,.75-1.12h0S105.76,86.21,95.22,86.21Z"/><path class="cls-1" d="M92.62,69.57v2.31a6.23,6.23,0,0,1-.1-1.15A6.34,6.34,0,0,1,92.62,69.57Z"/><path class="cls-2" d="M91.15,0A56.25,56.25,0,0,0,44.28,25.09H60.57a43.71,43.71,0,0,1,61.16,0H138A56.27,56.27,0,0,0,91.15,0Z"/><path class="cls-1" d="M141.84,24.15V18.28h2.82a3.73,3.73,0,0,1,1.2.15,1.26,1.26,0,0,1,.66.53,1.71,1.71,0,0,1,.26.95,1.68,1.68,0,0,1-.2.84,1.55,1.55,0,0,1-.53.58,2,2,0,0,1-.59.23,1.81,1.81,0,0,1,.44.21,2,2,0,0,1,.27.31,2.74,2.74,0,0,1,.23.37l.82,1.7h-1.91l-.9-1.8a1.46,1.46,0,0,0-.31-.45.67.67,0,0,0-.41-.13h-.15v2.38Zm1.7-3.49h.71a2.66,2.66,0,0,0,.45-.08.47.47,0,0,0,.27-.19.55.55,0,0,0,.11-.34.56.56,0,0,0-.17-.43,1,1,0,0,0-.63-.15h-.74Z"/><path class="cls-1" d="M144.08,15.37A5.92,5.92,0,1,0,150,21.29,5.92,5.92,0,0,0,144.08,15.37Zm0,10.75a4.83,4.83,0,1,1,4.83-4.83A4.84,4.84,0,0,1,144.08,26.12Z"/><path class="cls-1" d="M75.05,42v2.31a6.34,6.34,0,0,1-.1-1.16A6.23,6.23,0,0,1,75.05,42Z"/></g></g></svg>