<svg xmlns="http://www.w3.org/2000/svg" width="49" height="37.816" viewBox="0 0 49 37.816">
  <g id="shake-hands" transform="translate(0 -58.432)">
    <path id="Path_174" data-name="Path 174" d="M49,84.368V64.179H31.682V62.741a4.314,4.314,0,0,0-4.309-4.309H18.081l-5.747,5.747H0V84.368H5.747V88.45l12.355,7.2a4.286,4.286,0,0,0,5.69-1.236l1.473-2.085,16.876-7.965Zm-8.618-4.993-9.111-9.449H23.905l-5.168,5.168A1.438,1.438,0,0,1,16.7,73.06l6.011-6.011H40.382ZM46.129,81.5H43.253V67.05h2.876ZM13.524,67.05,19.271,61.3h8.1a1.439,1.439,0,0,1,1.438,1.438v1.438H21.525L14.673,71.03a4.309,4.309,0,1,0,6.094,6.094L25.095,72.8h4.957L39.4,82.488,24.644,89.45,13.385,81.5H8.618V67.05Zm-10.653,0H5.747V81.5H2.871ZM19.548,93.173,8.618,86.8V84.368h3.855l9.941,7.023-.968,1.371a1.43,1.43,0,0,1-1.9.412Z" fill="#52ec9f"/>
  </g>
</svg>
