<svg id="Layer_2" data-name="Layer 2" xmlns="http://www.w3.org/2000/svg" width="50.46" height="40" viewBox="0 0 50.46 40">
  <g id="Layer_1" data-name="Layer 1">
    <path id="Path_399" data-name="Path 399" d="M25.23,24.38,0,13.35,25.23,0,50.46,13.35ZM4.6,13.18l20.63,9,20.63-9L25.23,2.26Z" fill="#ff903b"/>
    <path id="Path_400" data-name="Path 400" d="M4.9,29.59a1,1,0,0,1-1-1V14.81a1,1,0,0,1,2,0V28.59A1,1,0,0,1,4.9,29.59Z" fill="#ff903b"/>
    <path id="Path_401" data-name="Path 401" d="M25.23,40,9.12,33V21.36l16.11,7,16.11-7V33ZM11.12,31.64l14.11,6.17,14.11-6.17V24.41L25.23,30.59,11.12,24.41Z" fill="#ff903b"/>
  </g>
</svg>
