<svg xmlns="http://www.w3.org/2000/svg" width="63.021" height="60" viewBox="0 0 63.021 60">
  <g id="bill" transform="translate(0 -0.39)">
    <path id="Path_256" data-name="Path 256" d="M350.275,43.7c.029,0,.058,0,.088,0a1.084,1.084,0,0,0,.15-.011,2.421,2.421,0,0,1,2.372,2.418,1.083,1.083,0,0,0,2.167,0,4.594,4.594,0,0,0-3.605-4.48V40.587a1.083,1.083,0,1,0-2.167,0v1.09a4.587,4.587,0,0,0,1.185,9.018,2.421,2.421,0,1,1-2.42,2.421,1.083,1.083,0,0,0-2.167,0,4.6,4.6,0,0,0,3.4,4.431v1.187a1.083,1.083,0,1,0,2.167,0V57.6a4.587,4.587,0,0,0-.982-9.067,2.419,2.419,0,0,1-.189-4.832Zm0,0" transform="translate(-302.163 -33.817)" fill="#ff903b"/>
    <path id="Path_257" data-name="Path 257" d="M48.525.39a14.65,14.65,0,0,0-13.65,9.587H9.533a1.068,1.068,0,0,0-1.021,1.067L8.271,46.862H1.048A1,1,0,0,0,0,47.835V52.38a8.02,8.02,0,0,0,7.658,7.988v.022H39.182v-.03c.255.009.36.03.522.03h.022a8.02,8.02,0,0,0,8.007-8.02V29.389c.255.014.525.021.79.021a14.51,14.51,0,0,0,0-29.021ZM8.046,58.348H8.039a6.006,6.006,0,0,1-6-5.979V48.9h29.61v3.451a8.01,8.01,0,0,0,2.364,5.675c.107.107.24.19.352.318ZM45.691,52.37a5.978,5.978,0,0,1-5.966,5.979h-.019a6.022,6.022,0,0,1-6.012-5.992V47.835a.942.942,0,0,0-.975-.973H10.313l.234-34.843H34.308a15.341,15.341,0,0,0-.28,2.836A14.4,14.4,0,0,0,35.261,20.7H25.617a1.021,1.021,0,0,0,0,2.042H36.369a14.409,14.409,0,0,0,9.322,6.394Zm2.834-25A12.454,12.454,0,1,1,60.979,14.915,12.454,12.454,0,0,1,48.525,27.369Zm0,0" fill="#ff903b"/>
    <path id="Path_258" data-name="Path 258" d="M127.229,212.746A3.359,3.359,0,1,0,130.7,216.1,3.418,3.418,0,0,0,127.229,212.746Zm0,4.548a1.2,1.2,0,1,1,1.3-1.191A1.251,1.251,0,0,1,127.229,217.294Zm0,0" transform="translate(-108.078 -185.448)" fill="#ff903b"/>
    <path id="Path_259" data-name="Path 259" d="M192.719,230.587a1.083,1.083,0,0,0,1.083,1.083h14.444a1.083,1.083,0,1,0,0-2.167H193.8A1.083,1.083,0,0,0,192.719,230.587Zm0,0" transform="translate(-168.62 -199.935)" fill="#ff903b"/>
    <path id="Path_260" data-name="Path 260" d="M127.229,143.2a3.36,3.36,0,1,0,3.468,3.358A3.418,3.418,0,0,0,127.229,143.2Zm0,4.549a1.2,1.2,0,1,1,1.3-1.191,1.251,1.251,0,0,1-1.3,1.191Zm0,0" transform="translate(-108.078 -124.717)" fill="#ff903b"/>
    <path id="Path_261" data-name="Path 261" d="M127.229,282.281a3.359,3.359,0,1,0,3.468,3.358A3.418,3.418,0,0,0,127.229,282.281Zm0,4.548a1.2,1.2,0,1,1,1.3-1.191A1.25,1.25,0,0,1,127.229,286.829Zm0,0" transform="translate(-108.078 -246.173)" fill="#ff903b"/>
    <path id="Path_262" data-name="Path 262" d="M208.247,299.5H193.8a1.083,1.083,0,1,0,0,2.167h14.444a1.083,1.083,0,1,0,0-2.167Zm0,0" transform="translate(-168.62 -261.02)" fill="#ff903b"/>
  </g>
</svg>
