<svg xmlns="http://www.w3.org/2000/svg" width="25" height="19" viewBox="0 0 25 19">
  <g id="Group_187" data-name="Group 187" transform="translate(0)">
    <path id="Rectangle_143" data-name="Rectangle 143" d="M3.012,0H25a0,0,0,0,1,0,0V19a0,0,0,0,1,0,0H2.676A2.676,2.676,0,0,1,0,16.324V3.012A3.012,3.012,0,0,1,3.012,0Z" transform="translate(0 0)" fill="#7e9bd8"/>
    <path id="Rectangle_144" data-name="Rectangle 144" d="M4.057,0H14.932a0,0,0,0,1,0,0V8.5a0,0,0,0,1,0,0H4.446A4.446,4.446,0,0,1,0,4.057v0A4.057,4.057,0,0,1,4.057,0Z" transform="translate(10.068 5.114)" fill="#fff"/>
    <path id="Path_131" data-name="Path 131" d="M2.406,0A2.406,2.406,0,1,1,0,2.406,2.406,2.406,0,0,1,2.406,0Z" transform="translate(12.157 6.888)" fill="#7e9bd8"/>
  </g>
</svg>
