<svg xmlns="http://www.w3.org/2000/svg" width="32.155" height="41.57" viewBox="0 0 32.155 41.57">
  <g id="Group_287" data-name="Group 287" transform="translate(-84.422 -104.831)">
    <path id="Path_229" data-name="Path 229" d="M102.141,105.831H97.059v16.037l5.082-3.614,5.082,3.614V105.831Z" transform="translate(2.381 0)" fill="none" stroke="#7bcc86" stroke-miterlimit="10" stroke-width="2"/>
    <path id="Path_230" data-name="Path 230" d="M91.222,105.831a5.8,5.8,0,0,0-5.8,5.8v29.062h.012a4.819,4.819,0,0,1,4.814-4.708h25.329V105.831Z" fill="none" stroke="#7bcc86" stroke-miterlimit="10" stroke-width="2"/>
    <path id="Rectangle_242" data-name="Rectangle 242" d="M4.006,0H30.155a0,0,0,0,1,0,0V9.414a0,0,0,0,1,0,0H3.809A3.809,3.809,0,0,1,0,5.6v-1.6A4.006,4.006,0,0,1,4.006,0Z" transform="translate(85.422 135.986)" fill="none" stroke="#7bcc86" stroke-miterlimit="10" stroke-width="2"/>
  </g>
</svg>
