<svg xmlns="http://www.w3.org/2000/svg" width="40" height="45" viewBox="0 0 40 45">
  <g id="Layer_2" data-name="Layer 2" transform="translate(0)">
    <g id="Capa_1" data-name="Capa 1" transform="translate(0)">
      <path id="Path_493" data-name="Path 493" d="M38.865,5.374c-5.1,0-14.523-1.025-17.5-4.852L21.352.507A1.094,1.094,0,0,0,20.482,0h-.057a1.124,1.124,0,0,0-.874.424l-.008.01c-3.57,3.9-13.25,4.94-18.407,4.94A1.126,1.126,0,0,0,0,6.488V27.867C0,32.1,2.3,36.053,6.657,39.286a34.878,34.878,0,0,0,13.1,5.709,20.717,20.717,0,0,0,5.213-1.369,33.189,33.189,0,0,0,9.083-4.9C38,35.588,40,31.939,40,27.867V6.488a1.126,1.126,0,0,0-1.135-1.115ZM37.729,27.867a10.289,10.289,0,0,1-2.461,6.584,19.592,19.592,0,0,1-5.541,4.492,39.576,39.576,0,0,1-9.675,3.8L20,42.757l-.055-.013a39.63,39.63,0,0,1-9.674-3.8,19.593,19.593,0,0,1-5.541-4.492,10.288,10.288,0,0,1-2.459-6.584V7.592l.222-.005c10.342-.233,15.54-3.08,17.719-4.756l.149-.114.142.123c4.516,3.9,12.592,4.65,17,4.749h.223Z" transform="translate(0)" fill="#ff5f3b"/>
      <path id="Path_494" data-name="Path 494" d="M136.117,132.447a1.114,1.114,0,0,0-1.124-1.1H122.638V127.12a4.268,4.268,0,0,1,8.531,0,1.124,1.124,0,0,0,2.247,0,6.515,6.515,0,0,0-13.026,0v4.225h-1.578a1.114,1.114,0,0,0-1.124,1.1v10.565a1.115,1.115,0,0,0,1.124,1.1h16.18a1.114,1.114,0,0,0,1.124-1.1Zm-2.247,9.463H119.937v-8.363H133.87Z" transform="translate(-106.904 -109.923)" fill="#ff5f3b"/>
      <path id="Path_495" data-name="Path 495" d="M208.7,301.46a1.129,1.129,0,1,0,1.124,1.127A1.129,1.129,0,0,0,208.7,301.46Z" transform="translate(-188.705 -274.724)" fill="#ff5f3b"/>
    </g>
  </g>
</svg>
