<svg xmlns="http://www.w3.org/2000/svg" viewBox="0 0 325.98 47.31" width="172" height="25"><defs><style>.cls-1{fill:#377cc3;}</style></defs><title>Asset 1</title><g id="Layer_2" data-name="Layer 2"><g id="Layer_1-2" data-name="Layer 1"><path class="cls-1" d="M209.57,46.77h9.2l8-33.06,6.86,33.06h9.1L257.28,0h-10l-9,33L231.4,0l-9.46.06-7.42,33L206.15,0h-9.32Z"/><path class="cls-1" d="M23.9,20.14V10.91L37.26,23.59,24,36l-.06-9.08L0,47.31H28.41c12.67,0,20.91-11.57,20.94-23.54C49.39,10.93,39.12-.36,28,0L.24.06,23.9,20.14"/><path class="cls-1" d="M265.6,29.57,272,9.31l6.1,20.26Zm-15.35,17.2h9.84l3.16-9.86H280.3l3,9.86h10L277.21,0H266.75Z"/><path class="cls-1" d="M123.38,29.57,129.8,9.31l6,20.26ZM108,46.77h9.92l3.17-9.86h17l3,9.86h10L135,0H124.52Z"/><path class="cls-1" d="M300.41,46.77h9.66V29L326,0H315.86L305.52,20.65,295.66,0H285.2l15.25,29Z"/><path class="cls-1" d="M77.86,38.7V7.76h6.59C90.34,7.76,92.84,9.27,95,12c1.9,2.38,3.5,6.24,3.5,12.35,0,10.39-5,14.33-11.56,14.33Zm-9.74,8.07H88.66c9.83,0,19.47-8.21,19.47-23.1C108.13,8.09,98.6,0,88.59,0H68.12Z"/><path class="cls-1" d="M154.64,46.77h9.41V15.2l19.34,31.57h9.91V.06h-9.54V31.67L164.11,0h-9.53Z"/></g></g></svg>