<svg xmlns="http://www.w3.org/2000/svg" width="31.871" height="31.86" viewBox="0 0 31.871 31.86">
  <g id="data-science" transform="translate(-10 -10.174)">
    <g id="Group_212" data-name="Group 212" transform="translate(10 10.174)">
      <path id="Path_137" data-name="Path 137" d="M25.1-501.732a5.351,5.351,0,0,0-2.814,1.718,10.466,10.466,0,0,0-1.015,1.233c-.218.324-.4.591-.411.6a5.2,5.2,0,0,1-.66-.118,7.035,7.035,0,0,0-1.737-.143,5.016,5.016,0,0,0-2.677.5,3.233,3.233,0,0,0-1.1.791,3.234,3.234,0,0,0-.791,1.1,5.014,5.014,0,0,0-.5,2.677,7.036,7.036,0,0,0,.143,1.737,5,5,0,0,1,.118.66c-.012.006-.23.156-.486.324a8.155,8.155,0,0,0-1.481,1.22A5.105,5.105,0,0,0,10-485.9a5.232,5.232,0,0,0,.355,1.643,7.956,7.956,0,0,0,2.7,3.013c.324.218.591.4.6.4a4.754,4.754,0,0,1-.106.635,10.524,10.524,0,0,0-.131,2.832A4.408,4.408,0,0,0,14.7-474.66a4.266,4.266,0,0,0,2.054,1.158,9.856,9.856,0,0,0,3.449-.006,5.2,5.2,0,0,1,.66-.118c.012.012.193.28.411.6a7.928,7.928,0,0,0,3.038,2.714,5.076,5.076,0,0,0,1.643.342,4.931,4.931,0,0,0,2.44-.8,10.418,10.418,0,0,0,2.552-2.776c.056-.1.106-.1.716.031a7.037,7.037,0,0,0,1.805.143,5.461,5.461,0,0,0,1.649-.137,4.325,4.325,0,0,0,3.218-3.218,5.45,5.45,0,0,0,.137-1.65,7.358,7.358,0,0,0-.137-1.8,4.667,4.667,0,0,1-.125-.66c.012-.012.28-.193.6-.411a7.928,7.928,0,0,0,2.714-3.038,5.138,5.138,0,0,0,.342-1.631,5.232,5.232,0,0,0-.355-1.643,7.955,7.955,0,0,0-2.7-3.013c-.324-.218-.591-.4-.6-.411a5.194,5.194,0,0,1,.118-.66,9.856,9.856,0,0,0,.006-3.449,4.337,4.337,0,0,0-2.913-3.131,8.493,8.493,0,0,0-3.785-.075,4.638,4.638,0,0,1-.635.106c-.006-.006-.187-.274-.4-.6A9.576,9.576,0,0,0,28.463-501,4.246,4.246,0,0,0,25.1-501.732Zm1.432.946a4.721,4.721,0,0,1,2.4,1.395A8.543,8.543,0,0,1,30.1-497.9a4.769,4.769,0,0,1-.461.168,21.058,21.058,0,0,0-2.851,1.282l-.852.467-.8-.436a23.73,23.73,0,0,0-2.907-1.32,4.413,4.413,0,0,1-.461-.162,2.333,2.333,0,0,1,.261-.411C23.4-500.219,24.964-501.084,26.533-500.785Zm-6.524,3.368a1.427,1.427,0,0,1,.386.106c0,.012-.087.193-.187.4a21.2,21.2,0,0,0-1.282,3.5c-.056.23-.137.417-.174.417-.118,0-1.718.5-2.341.728-.324.118-.884.355-1.239.523a5.23,5.23,0,0,1-.666.287,8.006,8.006,0,0,1-.212-1.911,4.379,4.379,0,0,1,.442-2.179A3.545,3.545,0,0,1,17-497.386,7.7,7.7,0,0,1,20.009-497.418Zm14.61-.025a3.566,3.566,0,0,1,2.515,1.892,4.392,4.392,0,0,1,.442,2.185,8.251,8.251,0,0,1-.212,1.911,1.824,1.824,0,0,1-.411-.174,20.649,20.649,0,0,0-3.5-1.276l-.411-.106-.106-.411a20.579,20.579,0,0,0-1.276-3.492c-.1-.206-.187-.386-.187-.4a8.749,8.749,0,0,1,1.494-.243A7.789,7.789,0,0,1,34.619-497.443Zm-3.648,1.176A21.822,21.822,0,0,1,31.9-493.7c.118.411.118.448.025.423-.137-.044-1.923-.33-2.384-.386-.324-.031-.417-.087-1.071-.579-.392-.3-.915-.678-1.158-.847l-.448-.305.143-.112a15.081,15.081,0,0,1,3.573-1.538A4.827,4.827,0,0,1,30.972-496.266Zm-8.727-.5a21.912,21.912,0,0,1,2.627,1.27l.137.106-.336.224c-.187.125-.7.5-1.139.834l-.8.6-.965.143c-.529.081-1.177.187-1.432.236s-.473.081-.479.081.093-.336.212-.728a18.416,18.416,0,0,1,.921-2.465c.212-.454.3-.585.4-.585A5.718,5.718,0,0,1,22.244-496.764Zm4.457,2.428c.367.261.666.479.666.486s-.641.012-1.432.012-1.432-.006-1.432-.012a10.814,10.814,0,0,1,1.432-.952A4.247,4.247,0,0,1,26.7-494.336Zm1.867,1.562c.174.031.367.162.778.517a32.176,32.176,0,0,1,2.664,2.633l.759.859.056.417c.062.548.062,4.345,0,4.887-.05.417-.062.43-.591,1.027A37.907,37.907,0,0,1,29.4-479.6c-.6.529-.61.542-1.027.591-.541.062-4.339.062-4.88,0-.4-.05-.436-.069-.965-.529a41.441,41.441,0,0,1-2.957-2.957c-.461-.529-.479-.56-.529-.965-.025-.23-.05-1.326-.05-2.44s.025-2.21.05-2.44c.05-.4.069-.436.529-.965a33.933,33.933,0,0,1,3.436-3.361,2.566,2.566,0,0,1,.766-.143C24.435-492.867,28.158-492.836,28.569-492.774Zm-8.235,1.239c-.56.56-1.027,1.015-1.033,1.009s.286-1.681.305-1.706,1.581-.311,1.693-.324A12.918,12.918,0,0,1,20.333-491.535Zm11.168-.84a3.944,3.944,0,0,1,.734.174,13.1,13.1,0,0,1,.336,1.693c-.006,0-.467-.461-1.027-1.021-.734-.735-.977-1.015-.872-1C30.754-492.513,31.127-492.444,31.5-492.376Zm-13.066,1.214c-.081.442-.18,1.077-.218,1.413l-.075.6-.541.716c-.3.392-.678.915-.847,1.158l-.305.448-.106-.143a18.189,18.189,0,0,1-1.55-3.48,8.656,8.656,0,0,1,3.05-1.32c.392-.118.722-.212.722-.212S18.509-491.61,18.435-491.162Zm16.452-.336a10.554,10.554,0,0,1,2.172.971,8.723,8.723,0,0,1-.909,2.353c-.305.616-.591,1.17-.641,1.233-.081.106-.106.081-.392-.336-.174-.249-.554-.772-.847-1.158-.492-.647-.541-.735-.579-1.064-.056-.467-.342-2.253-.386-2.39-.025-.093.012-.093.423.025C33.978-491.8,34.5-491.629,34.887-491.5ZM14.1-489.618a22.242,22.242,0,0,0,1.32,2.926l.436.791-.436.8A23.829,23.829,0,0,0,14.1-482.2a4.41,4.41,0,0,1-.162.461,8.575,8.575,0,0,1-1.494-1.164c-1.525-1.5-1.849-3.194-.928-4.831a5.878,5.878,0,0,1,1.052-1.3,13.636,13.636,0,0,1,1.351-1.04A2,2,0,0,1,14.1-489.618Zm24.258-.174c2.913,2.079,3.312,4.675,1.064,6.891a8.012,8.012,0,0,1-1.5,1.164c-.006-.012-.112-.292-.224-.616a20.916,20.916,0,0,0-1.637-3.424.208.208,0,0,1,.012-.261c.243-.386.84-1.531,1.083-2.073a16.954,16.954,0,0,0,.728-1.9C37.887-490.116,37.943-490.085,38.36-489.792ZM18-485.9c0,.784-.006,1.432-.012,1.432a10.8,10.8,0,0,1-.952-1.432,10.794,10.794,0,0,1,.952-1.432C17.993-487.334,18-486.692,18-485.9Zm16.5-.579a3.113,3.113,0,0,1,.342.579,9.411,9.411,0,0,1-.822,1.264l-.143.174v-2.876l.143.174C34.09-487.072,34.308-486.761,34.495-486.481Zm-17.542,2.229c.243.342.61.84.815,1.108a1.526,1.526,0,0,1,.448,1.089c.075.635.293,1.961.349,2.141.025.093-.012.093-.423-.025a17.093,17.093,0,0,1-3.343-1.32,13.738,13.738,0,0,1,1.432-3.392c.106-.181.212-.305.236-.28S16.711-484.595,16.953-484.252Zm18.818-.156a19.886,19.886,0,0,1,1.12,2.477l.236.641-.137.087a19.17,19.17,0,0,1-3.262,1.263c-.411.118-.448.118-.423.025.044-.137.33-1.924.386-2.39.037-.33.087-.417.579-1.064.292-.386.672-.9.84-1.152s.33-.43.355-.4S35.628-484.663,35.771-484.408Zm-15.444,4.133c.735.735.977,1.015.872,1a11.174,11.174,0,0,1-1.562-.324,13.163,13.163,0,0,1-.336-1.693C19.306-481.3,19.767-480.835,20.327-480.274Zm12.232-.884a11.94,11.94,0,0,1-.324,1.556,11.169,11.169,0,0,1-1.562.324c-.106.019.137-.261.872-1,.56-.56,1.021-1.021,1.027-1.021A.469.469,0,0,1,32.559-481.158Zm-17.386,1.1a20.662,20.662,0,0,0,2.957,1.077l.7.193.106.411a20.777,20.777,0,0,0,1.276,3.492,1.842,1.842,0,0,1,.174.411,8.25,8.25,0,0,1-1.911.212,4.389,4.389,0,0,1-2.185-.442,3.614,3.614,0,0,1-1.9-2.515,8.8,8.8,0,0,1,.006-2.59,4.161,4.161,0,0,1,.118-.554C14.519-480.362,14.818-480.225,15.173-480.056Zm22.285.112a10.264,10.264,0,0,1-.031,2.975,3.644,3.644,0,0,1-2.49,2.533,8.308,8.308,0,0,1-2.838.087,5.772,5.772,0,0,1-.6-.125,5.233,5.233,0,0,1,.287-.666,20.856,20.856,0,0,0,1.077-2.951l.193-.7.7-.193a19.8,19.8,0,0,0,2.926-1.071c.342-.168.641-.305.66-.305A1.028,1.028,0,0,1,37.458-479.945Zm-16.44,1.6c.529.087,1.127.174,1.32.2.33.037.417.087,1.064.579.386.293.909.672,1.158.847.417.286.442.311.336.392-.062.05-.616.336-1.233.641a8.723,8.723,0,0,1-2.353.909,14.831,14.831,0,0,1-1.338-3.33c-.118-.411-.118-.448-.025-.423C20-478.513,20.489-478.426,21.018-478.345Zm10.881.237a14.824,14.824,0,0,1-1.338,3.33,7.748,7.748,0,0,1-1.955-.7,15.114,15.114,0,0,1-1.693-.89c-.025-.025.156-.18.4-.355s.766-.548,1.152-.84l.7-.535.8-.106c.442-.062,1.064-.162,1.388-.218s.61-.118.635-.125A1.462,1.462,0,0,1,31.9-478.108Zm-4.569.187a10.9,10.9,0,0,1-1.407.921,11.746,11.746,0,0,1-1.419-.952c0-.006.641-.012,1.425-.012A10.736,10.736,0,0,1,27.33-477.921Zm-.859,2.39a21.336,21.336,0,0,0,3.467,1.55.373.373,0,0,1,.168.075,9.345,9.345,0,0,1-1.17,1.494,4.147,4.147,0,0,1-3.249,1.432,5.146,5.146,0,0,1-3.641-2.5,3.475,3.475,0,0,1-.28-.43c0-.019.075-.05.174-.075a21.318,21.318,0,0,0,3.66-1.675,1.35,1.35,0,0,1,.311-.156A3,3,0,0,1,26.471-475.531Z" transform="translate(-10 501.826)" fill="#1c7f94"/>
      <path id="Path_138" data-name="Path 138" d="M209.06-302.612v.5h1v-1h-1Z" transform="translate(-202.586 309.573)" fill="#1c7f94"/>
      <path id="Path_139" data-name="Path 139" d="M760.31-302.612v.5h1v-1h-1Z" transform="translate(-735.909 309.573)" fill="#1c7f94"/>
      <path id="Path_140" data-name="Path 140" d="M380.58-164.921a5.761,5.761,0,0,0-1.9.622,1.8,1.8,0,0,0-.84.815c-.125.249-.125.355-.112,3.53l.019,3.268.187.274c.573.809,2.029,1.326,3.766,1.326s3.193-.517,3.766-1.326l.187-.274.019-3.268c.012-3.175.012-3.28-.112-3.53C385.037-164.572,382.684-165.25,380.58-164.921Zm2.851,1.089c.647.156,1.127.43,1.22.7.131.361-.411.735-1.351.953a10.131,10.131,0,0,1-3.187,0c-.847-.193-1.4-.529-1.4-.847s.567-.666,1.369-.834a5.667,5.667,0,0,1,1.805-.131A6.452,6.452,0,0,1,383.431-163.831Zm-3.162,2.652a6.737,6.737,0,0,0,1.432.112,5.915,5.915,0,0,0,2.478-.423l.511-.206v.386c0,.473-.112.641-.579.859a5.136,5.136,0,0,1-2.409.386,5.135,5.135,0,0,1-2.409-.386c-.467-.218-.579-.386-.579-.859v-.386l.517.206A6.882,6.882,0,0,0,380.269-161.179Zm-.548,1.855a7.156,7.156,0,0,0,4.457-.174l.511-.206v.386c0,.473-.112.641-.579.859a5.136,5.136,0,0,1-2.409.386,5.135,5.135,0,0,1-2.409-.386c-.467-.218-.579-.386-.579-.872v-.392l.243.125A5.632,5.632,0,0,0,379.721-159.324Zm.548,2.135a7.15,7.15,0,0,0,1.432.112,6.018,6.018,0,0,0,2.478-.43l.511-.206v.386c0,.473-.112.641-.579.859a5.136,5.136,0,0,1-2.409.386,5.135,5.135,0,0,1-2.409-.386c-.467-.218-.579-.386-.579-.859v-.386l.517.206A7.655,7.655,0,0,0,380.269-157.189Z" transform="translate(-365.765 175.958)" fill="#1c7f94"/>
      <path id="Path_141" data-name="Path 141" d="M209.06,248.638v.5h1v-1h-1Z" transform="translate(-202.586 -223.75)" fill="#1c7f94"/>
      <path id="Path_142" data-name="Path 142" d="M760.31,248.638v.5h1v-1h-1Z" transform="translate(-735.909 -223.75)" fill="#1c7f94"/>
    </g>
  </g>
</svg>
