<svg xmlns="http://www.w3.org/2000/svg" width="20" height="24" viewBox="0 0 20 24">
  <path id="database" d="M22,18.055v2.458C22,22.438,17.345,24,12,24S2,22.438,2,20.513V18.055c2.418,1.738,7.005,2.256,10,2.256S19.588,19.788,22,18.055ZM12,14.646c-3.006,0-7.588-.523-10-2.256v2.434c0,1.926,4.656,3.487,10,3.487s10-1.562,10-3.487V12.39C19.582,14.128,14.995,14.646,12,14.646ZM12,0C6.656,0,2,1.562,2,3.488S6.656,6.975,12,6.975,22,5.413,22,3.488,17.345,0,12,0Zm0,8.975c-3.006,0-7.588-.523-10-2.256v2.44c0,1.926,4.656,3.487,10,3.487s10-1.562,10-3.487V6.719C19.582,8.457,14.995,8.975,12,8.975Z" transform="translate(-2)" fill="#67abe6"/>
</svg>
