<svg width="135" height="41" xmlns="http://www.w3.org/2000/svg" viewBox="0 0 150 46.81"><defs><style>.cls-1{fill:#0083ca;fill-rule:evenodd;}</style></defs><title>Asset 2</title><g id="Layer_2" data-name="Layer 2"><g id="Layer_1-2" data-name="Layer 1"><path class="cls-1" d="M0,2.5H18.24l2,.08,1.91.17L24,3.16l1.75.42,1.58.67,1.5.66,1.41.84,1.34.91,1.16,1L33.9,8.75l1,1.16.91,1.25.75,1.33.75,1.34.59,1.41.5,1.42L64.3,0l9.41,6.33-20.16,13,3.25,2.17L77.12,8.58l8.75,5.83L65.8,27.65l3.41,2.08,20.41-13V2.5h15V30.9h13.32V44.23H89.62V30.57L64.38,46.81,38.65,29.4l-.5,1.5-.5,1.42-.75,1.41-.75,1.42-.92,1.25-1,1.25-1.08,1.16-1.25,1-1.25,1-1.5.83-1.5.75L26,43.06l-1.75.5-1.84.33-1.91.25-2.08.09H0V2.5ZM14.33,15.57h3.91l1.75.17,1.41.5,1.25.75,1.09,1,.75,1.17.58,1.25.33,1.41.09,1.42-.09,1.41-.33,1.42-.58,1.25-.84,1.16-1,1-1.25.75-1.49.5-1.67.17H14.33V15.57ZM121.68,2.5h15.08V30.9H150V44.23H121.68V2.5Z"/></g></g></svg>