<svg xmlns="http://www.w3.org/2000/svg" viewBox="0 0 175.75 33.39"><defs><style>.cls-1{fill:#ed1c24;fill-rule:evenodd;}</style></defs><title>denso</title><g id="Layer_2" data-name="Layer 2"><g id="Layer_1-2" data-name="Layer 1"><path class="cls-1" d="M15.32,4.85l7-.06c6.29.11,7,3.79,4.17,12.15-2.39,7.13-6.12,11.48-13.2,11.42H7.74L15.32,4.85Zm127.87,9.3c4.12-10,9.52-13.76,20.61-14,9.92-.22,14.32,4.35,10.7,15.77-3.9,12.42-11,17.44-21.68,17.44-11.75,0-14.7-7.13-9.63-19.17Zm7.63.67C153.38,8.47,157.11,4.07,162.63,4c5,0,5.85,3.57,3.62,11.2-2.84,9.81-7,14.1-12.59,14-6.24-.06-6.13-6.19-2.84-14.38ZM137.17,7l1.89-5.46A31.21,31.21,0,0,0,129.15,0c-6.91,0-12.09,2.12-14.21,7-3.34,7.41,1.34,9.69,7,12.31,8.25,3.84,3.51,10.47-4.4,9.8-3.17-.27-6-1.72-8.75-3.06L107,31.59a30.58,30.58,0,0,0,12.15,1.73c8.19-.5,13.26-3.79,15.32-9,2.34-5.91-1.28-9.53-6.69-11.26C116.5,9.47,123.24-1.17,137.17,7ZM76.5.67A16.75,16.75,0,0,1,78.5,4L69.42,32.65h5.52l7.57-24,8.69,24H99l-.33-.89L108.53.67H103l-7.24,23L87.36.67c-3.62,0-7.24.06-10.86,0ZM45.35.67a12.78,12.78,0,0,1,2,3.29l-9,28.69h23.9l1.12-3.57H47.19l3.57-11.19H61.45l1.12-3.51H51.87L55.1,4.12H70.7L71.76.67c-8.8,0-17.61.06-26.41,0ZM7.08.67A14.64,14.64,0,0,1,9.08,4L0,32.65H7.8l4.57-.06c13.37,0,19.72-6.63,22.4-15.26C38.61,5,33.93.73,22.56.73L7.08.67Z"/></g></g></svg>