<svg xmlns="http://www.w3.org/2000/svg" width="35" height="50" viewBox="0 0 35 50">
  <g id="design-icon1" transform="translate(-75.447 0)">
    <g id="Group_444" data-name="Group 444" transform="translate(81.386 27.914)">
      <g id="Group_443" data-name="Group 443" transform="translate(0)">
        <path id="Path_496" data-name="Path 496" d="M137.788,286a.99.99,0,1,0,.99.99A.99.99,0,0,0,137.788,286Z" transform="translate(-136.798 -286)" fill="#ff5f3b"/>
      </g>
    </g>
    <g id="Group_446" data-name="Group 446" transform="translate(81.386 31.594)">
      <g id="Group_445" data-name="Group 445" transform="translate(0)">
        <path id="Path_497" data-name="Path 497" d="M137.788,326a.99.99,0,0,0-.99.99v12.469a.99.99,0,1,0,1.979,0V326.99A.99.99,0,0,0,137.788,326Z" transform="translate(-136.798 -326)" fill="#ff5f3b"/>
      </g>
    </g>
    <g id="Group_448" data-name="Group 448" transform="translate(75.447 0)">
      <g id="Group_447" data-name="Group 447" transform="translate(0 0)">
        <path id="Path_498" data-name="Path 498" d="M109.249.734a.974.974,0,0,0-.612-.677.963.963,0,0,0-.9.131c-.969.714-5.84,4.389-6.634,6.584a4.9,4.9,0,0,0,.269,3.944,46.738,46.738,0,0,0-3.5,6.406V.976A.973.973,0,0,0,96.9,0H89.148a.973.973,0,0,0-.969.977V20.117H88l-1.655-6.489,0-.01L84.841,7.959h0a.985.985,0,0,0-.031-.1c0-.01-.008-.019-.012-.029s-.019-.044-.029-.065l-.017-.03c-.011-.02-.022-.04-.035-.059L84.7,7.651c-.013-.019-.027-.038-.042-.056l-.012-.015L78.892.752a.967.967,0,0,0-1.69.442l-1.738,8.85c0,.007,0,.013,0,.02,0,.025-.008.051-.011.077s0,.022,0,.033,0,.049,0,.073,0,.023,0,.034,0,.05.007.074,0,.02,0,.03a.986.986,0,0,0,.021.1l1.5,5.654,1.009,4.02a2.879,2.879,0,0,0-1.561.815,2.939,2.939,0,0,0,1.087,4.833V45.117A4.87,4.87,0,0,0,82.363,50h19.385a4.87,4.87,0,0,0,4.846-4.883V25.81a2.931,2.931,0,0,0,1.938-2.763,2.928,2.928,0,0,0-2.361-2.877,48.5,48.5,0,0,0,1.242-7.179,4.838,4.838,0,0,0,2.8-2.879C111.008,7.912,109.55,1.914,109.249.734Zm-6.587,11.547a4.833,4.833,0,0,0,2.775,1.04,49.013,49.013,0,0,1-1.251,6.8H98.646A56.737,56.737,0,0,1,102.663,12.281ZM90.117,1.953h5.815V4.2H93.994a.977.977,0,0,0,0,1.953h1.938V8.105H93.994a.977.977,0,0,0,0,1.953h1.938v1.953H93.994a.977.977,0,0,0,0,1.953h1.938v1.953H93.994a.977.977,0,0,0,0,1.953h1.938v2.246H90.117Zm-11.4,1.606L82.691,8.28a4.5,4.5,0,0,1-5.179,1.4Zm-.875,8.257a6.323,6.323,0,0,0,1.306.137,6.459,6.459,0,0,0,4.31-1.655l1.016,3.821,1.53,6H79.98l-1.12-4.463,0-.013Zm26.816,33.3a2.922,2.922,0,0,1-2.908,2.93H82.363a2.922,2.922,0,0,1-2.908-2.93V25.976h25.2Zm1.938-22.07a.973.973,0,0,1-.284.69.959.959,0,0,1-.685.286H78.486a.978.978,0,0,1-.685-1.667.959.959,0,0,1,.685-.286h27.139A.974.974,0,0,1,106.594,23.047Zm1.8-13.6a2.9,2.9,0,0,1-2.11,1.859,2.865,2.865,0,0,1-1.617-.108,2.9,2.9,0,0,1-1.345-1.014h0a2.945,2.945,0,0,1-.393-2.741c.363-1.005,2.728-3.148,4.785-4.778C108.277,5.254,108.754,8.441,108.391,9.444Z" transform="translate(-75.447 0)" fill="#ff5f3b"/>
      </g>
    </g>
  </g>
</svg>
