<svg id="XMLID_816_" xmlns="http://www.w3.org/2000/svg" width="40" height="45" viewBox="0 0 40 45">
  <g id="XMLID_1663_">
    <g id="XMLID_709_">
      <path id="XMLID_710_" d="M231.711,364.99a.745.745,0,0,0-.552.258.958.958,0,0,0,0,1.243.721.721,0,0,0,1.1,0,.958.958,0,0,0,0-1.243A.745.745,0,0,0,231.711,364.99Z" transform="translate(-212.889 -332.911)" fill="#ff5f3b"/>
      <path id="XMLID_734_" d="M422.551,335.12a.746.746,0,0,0-.553.258.96.96,0,0,0,0,1.243.722.722,0,0,0,1.105,0,.958.958,0,0,0,0-1.243A.747.747,0,0,0,422.551,335.12Z" transform="translate(-388.819 -305.666)" fill="#ff5f3b"/>
      <path id="XMLID_735_" d="M126.72,287a.745.745,0,0,0-.552.258.958.958,0,0,0,0,1.243.721.721,0,0,0,1.1,0,.958.958,0,0,0,0-1.243A.746.746,0,0,0,126.72,287Z" transform="translate(-116.1 -261.775)" fill="#ff5f3b"/>
      <path id="XMLID_744_" d="M40,9.539a.834.834,0,0,0-.781-.879h-1.2a10.191,10.191,0,0,0-.655-1.78l.85-.957a.958.958,0,0,0,0-1.243L35.84,2.013a.722.722,0,0,0-1.1,0l-.85.957A7.953,7.953,0,0,0,32.3,2.232V.879A.834.834,0,0,0,31.52,0H28.167a.834.834,0,0,0-.781.879V2.236a7.952,7.952,0,0,0-1.579.737l-.854-.961a.722.722,0,0,0-1.1,0L21.476,4.68a.949.949,0,0,0-.217.769H3.128A3.344,3.344,0,0,0,0,8.968V33.22a3.344,3.344,0,0,0,3.128,3.519H15.541v2.988H13.669a3.01,3.01,0,0,0-2.815,3.167v1.227a.834.834,0,0,0,.781.879H26.01a.834.834,0,0,0,.781-.879V42.894a3.01,3.01,0,0,0-2.815-3.167H22.1V36.738H34.51a3.344,3.344,0,0,0,3.128-3.519v-14.4l.573-.645a.958.958,0,0,0,0-1.243l-.854-.96a10.194,10.194,0,0,0,.656-1.776h1.206a.74.74,0,0,0,.552-.257A.938.938,0,0,0,40,13.312ZM25.229,42.894v.348H12.416v-.348a1.339,1.339,0,0,1,1.253-1.409H23.976A1.34,1.34,0,0,1,25.229,42.894Zm-4.687-3.167H17.1V36.738h3.437ZM36.075,33.22A1.674,1.674,0,0,1,34.51,34.98H3.128A1.673,1.673,0,0,1,1.562,33.22V31.211H30.607a.885.885,0,0,0,0-1.758H1.562V26.982H7.526a.885.885,0,0,0,0-1.758H1.562V8.968A1.674,1.674,0,0,1,3.128,7.207H22.188a10.243,10.243,0,0,0-.507,1.453H20.469a.74.74,0,0,0-.552.257.938.938,0,0,0-.229.621v3.773a.834.834,0,0,0,.781.879h1.216a10.2,10.2,0,0,0,.652,1.769l-.86.968a.958.958,0,0,0,0,1.243l2.371,2.668a.722.722,0,0,0,1.1,0l.86-.968a7.951,7.951,0,0,0,1.573.734v1.368a.834.834,0,0,0,.781.879h3.354a.834.834,0,0,0,.781-.879V20.608a7.949,7.949,0,0,0,1.576-.733l.857.964a.721.721,0,0,0,1.1,0l.236-.265V33.22Zm2.362-20.786H37.41a.808.808,0,0,0-.763.689,8.324,8.324,0,0,1-.927,2.512.963.963,0,0,0,.105,1.1l.729.82-1.267,1.425-.731-.822a.718.718,0,0,0-.9-.165.75.75,0,0,0-.07.045,6.5,6.5,0,0,1-2.231,1.038.862.862,0,0,0-.613.858v1.165H28.948V19.926a.862.862,0,0,0-.612-.858,6.507,6.507,0,0,1-2.228-1.04.719.719,0,0,0-.42-.138.741.741,0,0,0-.553.258l-.734.826L23.134,17.55l.734-.826a.963.963,0,0,0,.105-1.1,8.324,8.324,0,0,1-.923-2.505.808.808,0,0,0-.763-.689H21.25V10.418h1.035a.808.808,0,0,0,.763-.69A8.326,8.326,0,0,1,23.97,7.22a.963.963,0,0,0-.105-1.1L23.134,5.3,24.4,3.877l.728.819a.718.718,0,0,0,.985.111,6.5,6.5,0,0,1,2.222-1.035.863.863,0,0,0,.612-.858V1.758h1.791V2.912a.862.862,0,0,0,.613.858,6.505,6.505,0,0,1,2.237,1.042.768.768,0,0,0,.071.045.718.718,0,0,0,.9-.165l.725-.815L36.554,5.3l-.725.815a.864.864,0,0,0-.1.134.972.972,0,0,0-.008.962,8.322,8.322,0,0,1,.925,2.515.808.808,0,0,0,.763.69h1.026v2.015Z" fill="#ff5f3b"/>
      <path id="XMLID_999_" d="M324.844,68C322.173,68,320,70.445,320,73.449s2.173,5.449,4.844,5.449,4.844-2.445,4.844-5.449S327.515,68,324.844,68Zm0,9.141a3.717,3.717,0,1,1,3.281-3.691A3.508,3.508,0,0,1,324.844,77.141Z" transform="translate(-295 -62.023)" fill="#ff5f3b"/>
      <path id="XMLID_1012_" d="M154.451,187.22a.744.744,0,0,0-.552.258.959.959,0,0,0,0,1.244.723.723,0,0,0,1.1,0,.959.959,0,0,0,0-1.244A.746.746,0,0,0,154.451,187.22Z" transform="translate(-141.665 -170.765)" fill="#ff5f3b"/>
      <path id="XMLID_1094_" d="M97.495,123.434a.976.976,0,0,0-.078-.667L96.1,120.2a.736.736,0,0,0-1.067-.322l-.751.488a4.838,4.838,0,0,0-.782-.509v-.975a.834.834,0,0,0-.781-.879H90.078a.834.834,0,0,0-.781.879v.975a4.845,4.845,0,0,0-.782.509l-.751-.488a.706.706,0,0,0-.593-.088.8.8,0,0,0-.474.409l-1.319,2.57a.941.941,0,0,0,.286,1.2l.752.488c-.013.169-.02.338-.02.507s.007.339.02.507l-.752.488a.941.941,0,0,0-.286,1.2l1.319,2.57a.8.8,0,0,0,.474.41.706.706,0,0,0,.593-.088l.751-.488a4.84,4.84,0,0,0,.782.509v.975a.834.834,0,0,0,.781.879h2.638a.834.834,0,0,0,.781-.879v-.975a4.846,4.846,0,0,0,.782-.509l.751.488a.736.736,0,0,0,1.067-.322l1.319-2.57a.976.976,0,0,0,.078-.667.873.873,0,0,0-.364-.534l-.752-.488c.014-.169.02-.338.02-.507s-.007-.339-.02-.508l.752-.488A.874.874,0,0,0,97.495,123.434Zm-2.73.737a4.386,4.386,0,0,1,0,1.584.923.923,0,0,0,.374.94l.534.347-.538,1.048-.535-.347a.714.714,0,0,0-.911.106,3.347,3.347,0,0,1-1.217.792.876.876,0,0,0-.537.835v.693H90.859v-.693a.876.876,0,0,0-.537-.835,3.347,3.347,0,0,1-1.217-.792.714.714,0,0,0-.911-.106l-.535.347-.538-1.048.534-.347a.923.923,0,0,0,.374-.94,4.391,4.391,0,0,1,0-1.584.923.923,0,0,0-.374-.94l-.534-.347.538-1.048.535.347a.714.714,0,0,0,.911-.106,3.347,3.347,0,0,1,1.217-.792.876.876,0,0,0,.537-.835v-.693h1.076v.693a.876.876,0,0,0,.537.835,3.347,3.347,0,0,1,1.217.792.715.715,0,0,0,.911.106l.535-.347.538,1.048-.534.347A.923.923,0,0,0,94.764,124.171Z" transform="translate(-78.61 -107.629)" fill="#ff5f3b"/>
    </g>
  </g>
</svg>
