<svg id="Layer_1" data-name="Layer 1" xmlns="http://www.w3.org/2000/svg" xmlns:xlink="http://www.w3.org/1999/xlink" viewBox="0 0 279.56 119.59" width="150" height="66"><defs><style>.cls-1{fill:#007360;}.cls-2{fill:url(#linear-gradient);}.cls-3{fill:url(#New_Gradient_Swatch_1);}.cls-4{fill:url(#linear-gradient-2);}.cls-5{fill:url(#linear-gradient-3);}.cls-6{fill:url(#linear-gradient-4);}</style><linearGradient id="linear-gradient" x1="-7899.69" y1="657.81" x2="-8063.28" y2="520.54" gradientTransform="translate(2681.2 -66.16) scale(0.3)" gradientUnits="userSpaceOnUse"><stop offset="0" stop-color="#fff4f3"/><stop offset="0.07" stop-color="#feedee"/><stop offset="0.17" stop-color="#fdd9e0"/><stop offset="0.29" stop-color="#fab8c8"/><stop offset="0.43" stop-color="#f68ba8"/><stop offset="0.58" stop-color="#f2517e"/><stop offset="0.74" stop-color="#ec0b4d"/><stop offset="0.76" stop-color="#eb0045"/></linearGradient><linearGradient id="New_Gradient_Swatch_1" x1="-7979.77" y1="562.25" x2="-7724.5" y2="825.02" gradientTransform="translate(2681.2 -66.16) scale(0.3)" gradientUnits="userSpaceOnUse"><stop offset="0" stop-color="#f1f7e8"/><stop offset="0.24" stop-color="#8dc75a"/><stop offset="0.34" stop-color="#86c35a"/><stop offset="0.48" stop-color="#73b75b"/><stop offset="0.65" stop-color="#53a55c"/><stop offset="0.85" stop-color="#288b5e"/><stop offset="1" stop-color="#007360"/></linearGradient><linearGradient id="linear-gradient-2" x1="-7870.79" y1="410.19" x2="-7870.79" y2="922.27" gradientTransform="translate(2681.2 -66.16) scale(0.3)" gradientUnits="userSpaceOnUse"><stop offset="0" stop-color="#fefefe"/><stop offset="1" stop-color="#8bc549"/></linearGradient><linearGradient id="linear-gradient-3" x1="-7863.14" y1="646.1" x2="-7891.54" y2="485.04" gradientTransform="translate(2681.2 -66.16) scale(0.3)" gradientUnits="userSpaceOnUse"><stop offset="0" stop-color="#e5ecf7"/><stop offset="0.15" stop-color="#e1eaf6"/><stop offset="0.29" stop-color="#d7e3f3"/><stop offset="0.41" stop-color="#c4d8ee"/><stop offset="0.54" stop-color="#abc7e7"/><stop offset="0.66" stop-color="#8ab3de"/><stop offset="0.78" stop-color="#6199d3"/><stop offset="0.89" stop-color="#327cc7"/><stop offset="1" stop-color="#005cb9"/></linearGradient><linearGradient id="linear-gradient-4" x1="-7859.68" y1="574.68" x2="-7859.68" y2="833.24" gradientTransform="translate(2681.2 -66.16) scale(0.3)" gradientUnits="userSpaceOnUse"><stop offset="0" stop-color="#fefefe"/><stop offset="1" stop-color="#bddd95"/></linearGradient></defs><title>dewa</title><path class="cls-1" d="M182.5,128.63V114.71h-3.61V127c0,5.11-3.15,7.64-9.52,7.64H126V115.85H112c-3.58,0-6.39.5-8.49,2.05-3,2.24-4.51,4.92-4.51,9.45,0,8.36,4.36,10.86,13,10.86h10.16v1c-.67,2.54-3.32,3.3-9.55,3.3H90.35v3.61h23.27c4.49,0,7.66-.54,9.52-1.56s2.87-3.16,2.87-6.33h44.78C178,138.21,182.5,134.08,182.5,128.63Zm-60.15,6H112c-6.25,0-9.34-.62-9.34-7.25,0-5.46,3.14-7.73,9.34-7.87v0h10.35ZM78.63,146.1h3.61V114.71H78.63ZM181.29,141c-1.61,0-2.38.58-2.38,1.73s.77,1.89,2.38,1.89,2.46-.62,2.46-1.89S182.91,141,181.29,141Zm24.64-26.26H191.17v3.61h15.29c6.46,0,9.68,1.83,9.68,9v7.29H188.36v3.61h31.39V124.77C219.75,116.36,211.69,114.71,205.93,114.71ZM174.87,141c-1.62,0-2.39.58-2.39,1.73s.77,1.89,2.39,1.89,2.45-.62,2.45-1.89S176.48,141,174.87,141Z" transform="translate(-78.63 -79.9)"/><path class="cls-1" d="M105.94,153.9v7.78H91.55c-7.08,0-12.92,3-12.92,11.63s3.77,11.57,11.26,11.93c.53,0,5.14,0,5.72,0,5,0,8.23-1,10.29-2.45v2.47h3.63V153.9Zm0,19.4c0,5.36-3.11,8.38-9.75,8.38-1.09,0-6.14,0-7-.1-4.58-.4-6.84-2.1-6.84-8.28s3.29-8,9.83-8h13.8Z" transform="translate(-78.63 -79.9)"/><path class="cls-1" d="M127.57,161.68c-4.29,0-7.73.86-10.15,2.51a6.65,6.65,0,0,0-3,5.5v7.75c0,3.15.94,5.28,2.89,6.3s5.07,1.55,9.6,1.55h9.65v-3.61h-8.63c-6.84,0-9.9-1.1-9.9-4.26h12.47c4.45,0,7.42-.64,9-2,1.33-1.13,2-3,2-5.86C141.54,164.88,136.55,161.68,127.57,161.68ZM136.16,173c-1.18.58-3.59.86-7.26.86H118v-4.06c0-2.62,3.89-4.46,9.58-4.46,6.32,0,10.22,1.64,10.22,4.42C137.79,171.51,137.25,172.38,136.16,173Z" transform="translate(-78.63 -79.9)"/><path class="cls-1" d="M216.86,163.23c-1.87-1-5.07-1.55-9.59-1.55h-9.65v3.61h8.63c6.84,0,9.89,1.1,9.89,4.26H203.68c-4.46,0-7.42.64-9.06,2-1.32,1.12-2,3-2,5.86,0,4.7,5,7.9,14,7.9a18.67,18.67,0,0,0,9.58-2.16v2.16h3.61V169.53C219.75,166.38,218.81,164.25,216.86,163.23Zm-10.3,18.45c-6.32,0-10.22-1.64-10.22-4.41,0-1.81.54-2.67,1.63-3.25s3.59-.86,7.26-.86h10.91v4.06C216.14,179.84,212.26,181.68,206.56,181.68Z" transform="translate(-78.63 -79.9)"/><path class="cls-1" d="M185.28,176c.27,3.64-3.07,5.72-8.49,5.72-4.58,0-8-3.36-7.92-5.72V161.68h-3.63V176c.07,3.64-3.09,5.72-8.5,5.72-4.88,0-8-2.4-7.86-5.82V161.68h-3.63v15.6a7.17,7.17,0,0,0,2.8,5.5c2.07,1.66,5,2.51,8.69,2.51,4.93,0,8.45-1.35,10.35-3.55a7.59,7.59,0,0,0,1,1c2.08,1.66,5,2.51,8.69,2.51,7.69,0,12.09-3.26,12.09-8V161.68h-3.6Z" transform="translate(-78.63 -79.9)"/><path class="cls-2" d="M240.38,134.39c0-1.25.05-2.48.14-3.71a49.86,49.86,0,0,1,70.84-41.63,52.25,52.25,0,0,1,6.3,1.38,51.66,51.66,0,0,0-79.1,44,51.9,51.9,0,0,0,16.72,38.15,56.34,56.34,0,0,1-3-5.72A49.88,49.88,0,0,1,240.38,134.39Z" transform="translate(-78.63 -79.9)"/><path class="cls-3" d="M302.78,88.38a55.56,55.56,0,1,0,55.41,55.56A55.49,55.49,0,0,0,302.78,88.38Zm-5.63,90.56A42.94,42.94,0,1,1,340,136,42.89,42.89,0,0,1,297.15,178.94Z" transform="translate(-78.63 -79.9)"/><path class="cls-4" d="M342,134.39a51.87,51.87,0,0,0-24.31-44,52.25,52.25,0,0,0-6.3-1.38A50,50,0,1,1,255,169.76c-.93-.94-1.82-1.93-2.68-2.94a56.34,56.34,0,0,0,3,5.72A51.67,51.67,0,0,0,342,134.39Z" transform="translate(-78.63 -79.9)"/><path class="cls-5" d="M264.18,96.79a51,51,0,0,1,72.35,0,51.73,51.73,0,0,1,8.41,11.12,56.12,56.12,0,0,1,5.48,7.66,53,53,0,0,0-103.09,17.5,54.72,54.72,0,0,0,.3,5.61,55,55,0,0,1,1.72-9.41A51.13,51.13,0,0,1,264.18,96.79Z" transform="translate(-78.63 -79.9)"/><path class="cls-6" d="M300.35,186.22a53.18,53.18,0,0,0,50.07-70.65,56.12,56.12,0,0,0-5.48-7.66,51.2,51.2,0,1,1-95.75,25.16c0-1.28.07-2.55.16-3.8a55,55,0,0,0-1.72,9.41A53.08,53.08,0,0,0,300.35,186.22Z" transform="translate(-78.63 -79.9)"/></svg>