<svg xmlns="http://www.w3.org/2000/svg" viewBox="0 0 227.02 176.82"><defs><style>.cls-1{fill:#e5352c;}.cls-1,.cls-2{fill-rule:evenodd;}.cls-2{fill:#434242;}</style></defs><title>Asset 2</title><g id="Layer_2" data-name="Layer 2"><g id="Layer_1-2" data-name="Layer 1"><path class="cls-1" d="M15.36,0H210.91a15.4,15.4,0,0,1,15.36,15.36V54H0V15.36A15.4,15.4,0,0,1,15.36,0ZM226.27,121.38v40.08a15.4,15.4,0,0,1-15.36,15.36H15.36A15.4,15.4,0,0,1,0,161.46V121.38Z"/><path class="cls-2" d="M0,57.69H33.72c18.54,0,33.71,10.61,33.71,29.41h0c0,16.17-6.18,29.41-33.71,29.41H0V57.69Zm189.56,0c20.69,0,37.46,13.25,37.46,29.6s-16.77,29.59-37.46,29.59S152.1,103.63,152.1,87.29s16.77-29.6,37.46-29.6Zm0,12.74c7.45,0,13.49,7.55,13.49,16.86s-6,16.86-13.49,16.86-13.49-7.55-13.49-16.86,6-16.86,13.49-16.86ZM75.27,57.69H97.78v.53L121,88.28V57.69h22.11v59.19H121L97.78,86.82v30.06H75.67V58.22l-.4-.53ZM16.48,71.18H31.66c8.34,0,15.17,5.74,15.17,15.92h0c0,8.76-2.78,15.92-15.17,15.92H16.48V71.18Z"/></g></g></svg>