<svg id="XMLID_24_" xmlns="http://www.w3.org/2000/svg" width="25" height="25" viewBox="0 0 25 25">
  <path id="XMLID_25_" d="M85.635,20.121q.04.04.084.076l.039.029c.017.012.033.025.05.037l.049.03.046.027.052.025.049.023.051.019.054.019.052.013.056.014.06.009.05.007c.037,0,.075.006.112.006s.075,0,.112-.006l.051-.007.059-.009.057-.014.051-.013.055-.019.05-.018.05-.023.051-.025.046-.027c.016-.01.033-.019.049-.03s.033-.024.049-.036l.041-.03q.041-.034.079-.072l0,0,5.3-5.3a1.136,1.136,0,0,0-1.607-1.607l-3.363,3.363V1.136a1.136,1.136,0,1,0-2.273,0V16.575l-3.363-3.363a1.136,1.136,0,0,0-1.607,1.607Z" transform="translate(-73.939)" fill="#bbb"/>
  <path id="XMLID_26_" d="M23.864,300H1.136a1.136,1.136,0,1,0,0,2.273H23.864a1.136,1.136,0,1,0,0-2.273Z" transform="translate(0 -277.273)" fill="#bbb"/>
</svg>
