<svg id="Group_432" data-name="Group 432" xmlns="http://www.w3.org/2000/svg" width="32" height="23.006" viewBox="0 0 32 23.006">
  <g id="Group_431" data-name="Group 431">
    <path id="Path_463" data-name="Path 463" d="M353.9,423.4h-4v8h-3l5,6,5-6h-3Z" transform="translate(-335.897 -414.399)" fill="#fff"/>
    <path id="Path_464" data-name="Path 464" d="M37.591,156.014a6.516,6.516,0,0,0-7.933-3.949A9,9,0,0,0,13,156.605a6,6,0,0,0,3,11.2h4.5l-1.669-2H16a4,4,0,0,1-.911-7.9A6.835,6.835,0,0,1,15,156.8a7,7,0,0,1,13.7-2.025,4.5,4.5,0,0,1,7.273,3.024H36a4,4,0,0,1,0,8H33.166l-1.669,2H36a6,6,0,0,0,1.594-11.79Z" transform="translate(-10 -147.8)" fill="#fff"/>
  </g>
</svg>
