<svg xmlns="http://www.w3.org/2000/svg" viewBox="0 0 90 46.03" width="70" height="36"><defs><style>.cls-1{fill:#fff;fill-rule:evenodd;}</style></defs><title>Asset 3</title><g id="Layer_2" data-name="Layer 2"><g id="Layer_1-2" data-name="Layer 1"><path class="cls-1" d="M.39,43.88a.39.39,0,0,1-.29-.1.39.39,0,0,1-.1-.29v-5.9a.41.41,0,0,1,0-.16.26.26,0,0,1,.08-.13h0a.3.3,0,0,1,.13-.09h0a.37.37,0,0,1,.15,0H.68a.41.41,0,0,1,.16,0h0A.38.38,0,0,1,1,37.3a.35.35,0,0,1,.08.13h0a.41.41,0,0,1,0,.16v1.74c0,.1,0,.21,0,.32l0,.28h.58L3.4,37.41a.48.48,0,0,1,.18-.17.51.51,0,0,1,.25-.06h.3a.35.35,0,0,1,.33.17h0a.31.31,0,0,1,0,.19.51.51,0,0,1-.08.17L2.76,40.06a1.1,1.1,0,0,1-.14.18h0l-.17.17a1.88,1.88,0,0,1,.2.19h0l.16.18h0l1.74,2.57h0a.48.48,0,0,1,.08.18h0a.31.31,0,0,1,0,.19h0a.33.33,0,0,1-.14.12.58.58,0,0,1-.19,0H3.94a.7.7,0,0,1-.25-.05h0a.58.58,0,0,1-.18-.17h0L1.62,40.88H1c0,.12,0,.23,0,.32s0,.17,0,.23v2.08a.37.37,0,0,1,0,.15h0a.29.29,0,0,1-.08.13H1a.38.38,0,0,1-.13.09h0l-.16,0Zm5.47,0h0l-.16,0h0a.57.57,0,0,1-.13-.08.71.71,0,0,1-.1-.14h0a.88.88,0,0,1,0-.17v-4a.41.41,0,0,1,0-.16.34.34,0,0,1,.09-.14h0a.34.34,0,0,1,.14-.09l.16,0H6a.45.45,0,0,1,.27.07h0a.3.3,0,0,1,.14.24v0a4.38,4.38,0,0,1,.91-.35,4.32,4.32,0,0,1,1-.13,1.7,1.7,0,0,1,.57.09,1.16,1.16,0,0,1,.44.27h0a1.16,1.16,0,0,1,.27.44,2.1,2.1,0,0,1,.08.59v3.12a.47.47,0,0,1,0,.17h0a.42.42,0,0,1-.09.14l-.14.08-.16,0H9.05l-.17,0h0a.38.38,0,0,1-.13-.09.34.34,0,0,1-.09-.14h0a.41.41,0,0,1,0-.16v-2.9A.84.84,0,0,0,8.51,40a.24.24,0,0,0-.14-.1.68.68,0,0,0-.26,0,2.76,2.76,0,0,0-.75.1l-.4.12-.47.2v3.15a.36.36,0,0,1,0,.15h0a.39.39,0,0,1-.08.14.34.34,0,0,1-.14.09h0a.47.47,0,0,1-.17,0Zm7,.12a4.72,4.72,0,0,1-.68,0,2.22,2.22,0,0,1-.55-.18,1.61,1.61,0,0,1-.44-.32,1.56,1.56,0,0,1-.32-.47h0a2.26,2.26,0,0,1-.2-.65,5.39,5.39,0,0,1-.06-.85,5.26,5.26,0,0,1,.06-.84,2.26,2.26,0,0,1,.2-.65h0a1.56,1.56,0,0,1,.32-.47,1.43,1.43,0,0,1,.44-.32,2.22,2.22,0,0,1,.55-.18,3.58,3.58,0,0,1,.68-.06,3,3,0,0,1,1,.16,1.68,1.68,0,0,1,.71.46,2.06,2.06,0,0,1,.39.8,4.76,4.76,0,0,1,0,2.21,2,2,0,0,1-.39.79,1.61,1.61,0,0,1-.71.47,3,3,0,0,1-1,.15Zm0-.93a1.47,1.47,0,0,0,.55-.09.76.76,0,0,0,.33-.25h0a1.18,1.18,0,0,0,.19-.48,3.43,3.43,0,0,0,.07-.77,2.16,2.16,0,0,0-.26-1.24h0a.76.76,0,0,0-.33-.25h0a1.47,1.47,0,0,0-.55-.09,1.53,1.53,0,0,0-.56.09.8.8,0,0,0-.34.25,1.39,1.39,0,0,0-.19.47,4.3,4.3,0,0,0-.06.77,4.22,4.22,0,0,0,.06.77,1.55,1.55,0,0,0,.19.48h0a.8.8,0,0,0,.34.25,1.53,1.53,0,0,0,.56.09Zm4.51.81h0a.62.62,0,0,1-.37-.11h0a.67.67,0,0,1-.2-.34h0l-1.17-3.88h0a.45.45,0,0,1,0-.16.23.23,0,0,1,.06-.16.34.34,0,0,1,.3-.13h.28a.51.51,0,0,1,.28.08h0a.47.47,0,0,1,.14.25h0l.84,3.11h0l.09.38,0-.09h0l.06-.29h0l.73-2.9a.55.55,0,0,1,.59-.47h.44a.56.56,0,0,1,.6.48l.71,2.9h0l.1.39.09-.39h0l.82-3.11h0a.42.42,0,0,1,.15-.23.38.38,0,0,1,.26-.08h.28a.47.47,0,0,1,.17,0,.28.28,0,0,1,.14.1.38.38,0,0,1,.06.16.31.31,0,0,1,0,.16h0l-1.15,3.88h0a.71.71,0,0,1-.22.33h0a.66.66,0,0,1-.38.11h-.46a.55.55,0,0,1-.59-.47l-.72-2.89h0l-.08-.38-.08.38h0l-.71,2.89a.58.58,0,0,1-.2.35h0a.6.6,0,0,1-.38.12Zm6.58.19V37.51a.37.37,0,0,1,.41-.42h.23a.47.47,0,0,1,.17,0h0a.41.41,0,0,1,.13.08.42.42,0,0,1,.09.14.41.41,0,0,1,0,.16h0v6.57ZM28.45,44h0a3.69,3.69,0,0,1-.69-.06,2.29,2.29,0,0,1-.56-.16,1.52,1.52,0,0,1-.44-.31,1.83,1.83,0,0,1-.34-.46h0a2.23,2.23,0,0,1-.2-.66,5.61,5.61,0,0,1-.07-.88,5.86,5.86,0,0,1,.05-.77,3.89,3.89,0,0,1,.15-.61,1.69,1.69,0,0,1,.28-.49,1.55,1.55,0,0,1,.41-.35,1.86,1.86,0,0,1,.59-.22h0a4.28,4.28,0,0,1,.76-.07,2.52,2.52,0,0,1,1.55.4h0a1.35,1.35,0,0,1,.39.52,1.86,1.86,0,0,1,.13.7h0a2.52,2.52,0,0,1-.06.58,1.5,1.5,0,0,1-.21.46,1,1,0,0,1-.37.29,1.28,1.28,0,0,1-.5.09h-2a2.33,2.33,0,0,0,.05.28,1.43,1.43,0,0,0,.09.27h0a.82.82,0,0,0,.12.2h0a1,1,0,0,0,.2.16h0a.8.8,0,0,0,.32.11,3.26,3.26,0,0,0,.5,0l.59,0,.7-.07h0A.39.39,0,0,1,30,43h0a.35.35,0,0,1,.14.06h0a.37.37,0,0,1,.15.27.3.3,0,0,1,0,.16.27.27,0,0,1-.05.15.32.32,0,0,1-.11.12h0a.35.35,0,0,1-.14.06,1.63,1.63,0,0,1-.28.07l-.36.06a6.32,6.32,0,0,1-.91.06Zm-1.21-2.88H29a.48.48,0,0,0,.18,0h0a.33.33,0,0,0,.13-.07.2.2,0,0,0,.07-.13,1.3,1.3,0,0,0,0-.31h0a1,1,0,0,0-.05-.32.49.49,0,0,0-.15-.19.55.55,0,0,0-.29-.12,2,2,0,0,0-.47-.05,2.33,2.33,0,0,0-.4,0,1,1,0,0,0-.29.07.62.62,0,0,0-.19.12h0a.62.62,0,0,0-.15.2h0a1.52,1.52,0,0,0-.1.32c0,.14,0,.29-.05.48Zm0,0ZM33.33,44a3.47,3.47,0,0,1-.68-.07,2,2,0,0,1-.54-.18,1.7,1.7,0,0,1-.42-.33,1.66,1.66,0,0,1-.3-.46,2.06,2.06,0,0,1-.17-.63,5,5,0,0,1-.06-.82,6.86,6.86,0,0,1,.05-.83,3.29,3.29,0,0,1,.15-.65h0a1.81,1.81,0,0,1,.26-.48,1.48,1.48,0,0,1,.37-.34h0a2.09,2.09,0,0,1,.5-.19,3.1,3.1,0,0,1,.64-.06,4.2,4.2,0,0,1,.72.06,3.78,3.78,0,0,1,.6.17c0-.07,0-.16,0-.25s0-.28,0-.44v-1a.47.47,0,0,1,0-.17h0a.35.35,0,0,1,.23-.21h0a.41.41,0,0,1,.16,0h.23a.47.47,0,0,1,.17,0h0a.33.33,0,0,1,.14.1h0a.41.41,0,0,1,.08.13.77.77,0,0,1,0,.15v5.83a.41.41,0,0,1-.07.25h0a.47.47,0,0,1-.21.15,2.58,2.58,0,0,1-.38.1l-.5.09-.53.06-.46,0Zm1.21-4.78Zm-1.26,3.84h.28l.3,0h0l.29,0,.22-.05h0v0h0V40.16h0V40.1h0a4.79,4.79,0,0,0-1.21-.18c-.41,0-.67.11-.79.33a1.8,1.8,0,0,0-.14.49,4,4,0,0,0,0,.74,3.24,3.24,0,0,0,0,.45,2.7,2.7,0,0,0,.06.41,1,1,0,0,0,.11.32h0a.91.91,0,0,0,.18.21.8.8,0,0,0,.28.13h0a1.48,1.48,0,0,0,.39.05Zm5.34,2.74h0a9,9,0,0,1-1.53-.07h0a.38.38,0,0,1-.25-.15h0a.56.56,0,0,1-.08-.3.5.5,0,0,1,.09-.29.35.35,0,0,1,.13-.11h0a.32.32,0,0,1,.17,0h0l.89,0h.58a2,2,0,0,0,.54-.11.86.86,0,0,0,.35-.21,1.24,1.24,0,0,0,.27-.9h0v-.11c-.16.08-.31.14-.44.19l-.41.13-.36.07-.35,0a1.86,1.86,0,0,1-.77-.15h0a1.31,1.31,0,0,1-.56-.46,1.89,1.89,0,0,1-.31-.76,4.76,4.76,0,0,1-.11-1.07,5.49,5.49,0,0,1,0-.58c0-.18,0-.35.07-.5a2.72,2.72,0,0,1,.15-.43,1.88,1.88,0,0,1,.21-.37,2.06,2.06,0,0,1,.3-.29,1.79,1.79,0,0,1,.39-.2h0a1.71,1.71,0,0,1,.47-.12,3.33,3.33,0,0,1,.56,0l.42,0h0l.47.06.47.08c.14,0,.28.06.41.09a.44.44,0,0,1,.16.06h0a.48.48,0,0,1,.19.27h0a.41.41,0,0,1,0,.16v3.74a4.17,4.17,0,0,1,0,.74,2.67,2.67,0,0,1-.17.58,1.55,1.55,0,0,1-.3.44,1.46,1.46,0,0,1-.42.32,2,2,0,0,1-.55.2,3.43,3.43,0,0,1-.68.08Zm1.16-2.4ZM38.45,43a2.2,2.2,0,0,0,.5-.06,2.3,2.3,0,0,0,.33-.1l.46-.19h0V40a5.06,5.06,0,0,0-.58-.1l-.5,0h0a1.48,1.48,0,0,0-.38,0A1.07,1.07,0,0,0,38,40h0a.6.6,0,0,0-.19.17h0a.87.87,0,0,0-.15.27h0a1.88,1.88,0,0,0-.09.43,4.33,4.33,0,0,0,0,.66,4.11,4.11,0,0,0,0,.53,1.63,1.63,0,0,0,.07.37.9.9,0,0,0,.12.24h0a.71.71,0,0,0,.15.15h0a.85.85,0,0,0,.22.09,1.42,1.42,0,0,0,.31,0ZM44,44h0a3.69,3.69,0,0,1-.69-.06,2.17,2.17,0,0,1-.56-.16,1.52,1.52,0,0,1-.44-.31A1.83,1.83,0,0,1,42,43h0a2.23,2.23,0,0,1-.2-.66,5.61,5.61,0,0,1-.07-.88,5.86,5.86,0,0,1,.05-.77,3.89,3.89,0,0,1,.15-.61,1.69,1.69,0,0,1,.28-.49,1.55,1.55,0,0,1,.41-.35A1.86,1.86,0,0,1,43.2,39h0A4.28,4.28,0,0,1,44,39a2.52,2.52,0,0,1,1.55.4h0a1.35,1.35,0,0,1,.39.52,1.86,1.86,0,0,1,.13.7h0a2.52,2.52,0,0,1-.06.58,1.5,1.5,0,0,1-.21.46,1,1,0,0,1-.37.29,1.28,1.28,0,0,1-.5.09h-2a2.33,2.33,0,0,0,0,.28,1.43,1.43,0,0,0,.09.27h0a.82.82,0,0,0,.12.2h0a1,1,0,0,0,.2.16h0a.8.8,0,0,0,.32.11,3.26,3.26,0,0,0,.5,0l.59,0,.7-.07h0a.39.39,0,0,1,.15,0h0a.35.35,0,0,1,.14.06h0a.37.37,0,0,1,.15.27.3.3,0,0,1,0,.16.27.27,0,0,1-.05.15.32.32,0,0,1-.11.12h0a.35.35,0,0,1-.14.06,1.63,1.63,0,0,1-.28.07l-.36.06A6.32,6.32,0,0,1,44,44Zm-1.21-2.88h1.73a.48.48,0,0,0,.18,0h0a.33.33,0,0,0,.13-.07.2.2,0,0,0,.07-.13,1.3,1.3,0,0,0,0-.31h0a1,1,0,0,0-.05-.32.49.49,0,0,0-.15-.19.55.55,0,0,0-.29-.12A2,2,0,0,0,44,39.9a2.33,2.33,0,0,0-.4,0,1,1,0,0,0-.29.07.62.62,0,0,0-.19.12h0a.62.62,0,0,0-.15.2h0a1.52,1.52,0,0,0-.1.32c0,.14,0,.29,0,.48Zm0,0Z"/><path class="cls-1" d="M54.88,38.71V42h0a1.3,1.3,0,0,0,.19.78.66.66,0,0,0,.5.22h7.22a1.2,1.2,0,0,0,.58-.18.45.45,0,0,0,.18-.24l-.27.07a2.49,2.49,0,0,1-1.12,0,1.87,1.87,0,0,1-.94-.64h0a1.78,1.78,0,0,1-.35-1.14,1.82,1.82,0,0,1,1-1.85,2.2,2.2,0,0,1,1.62-.09,1.66,1.66,0,0,1,1.16,1.58h0v2.08A1.64,1.64,0,0,1,64,43.65a2.27,2.27,0,0,1-1.13.38H55.54a1.7,1.7,0,0,1-1.3-.61,1.87,1.87,0,0,1-.36-.81l-.35.14a2.42,2.42,0,0,1-.75.1,1.31,1.31,0,0,1-1-.39,1.38,1.38,0,0,1-.46-.69,1.49,1.49,0,0,1,0-.81,1.66,1.66,0,0,1,.33-.68h0a1.29,1.29,0,0,1,.51-.39,5,5,0,0,1,1.09-.45l.54-.16v-.57Zm32.66-2.1v7.52H86.47V36.61Zm-8.29,6.15a6.88,6.88,0,0,0-.47-1.21l0-.07a.6.6,0,0,0-.38-.35,1,1,0,0,0-.45-.05.77.77,0,0,0-.37.12.37.37,0,0,0-.16.26v0a11,11,0,0,0-.16,1.21l.06,0a.21.21,0,0,0,0,.12.59.59,0,0,0,.23.08h1.31a1.07,1.07,0,0,0,.32-.12h0l.06-.06Zm-3.08-.1a12.72,12.72,0,0,1,.17-1.33,1.38,1.38,0,0,1,.61-1,1.82,1.82,0,0,1,.87-.31,2.06,2.06,0,0,1,.92.12,1.64,1.64,0,0,1,1,1,9.87,9.87,0,0,1,.66,1.81l.08,0h2.08a1.08,1.08,0,0,0,.69-.26,1,1,0,0,0,.2-.72h0V36.6h1.07V42h0A2,2,0,0,1,84,43.4a2.11,2.11,0,0,1-1.41.6H80.28a1.62,1.62,0,0,1-.56-.25A2.27,2.27,0,0,1,79,44H77.5a1.55,1.55,0,0,1-.86-.34,2.05,2.05,0,0,1-.75.39l-.15,0H74.08l-.11,0a2.3,2.3,0,0,1-.75-.28h0l-.16-.12-.31.16a4.44,4.44,0,0,1-1,.25H68.56a2.44,2.44,0,0,1-.85-.24v.4a2.07,2.07,0,0,1-1,1.48,3.17,3.17,0,0,1-1.53.32V45a2.27,2.27,0,0,0,1-.18,1,1,0,0,0,.47-.71V40.58h1.07v1.53a1,1,0,0,0,.22.59,1.12,1.12,0,0,0,.71.31h3L72,43a3.58,3.58,0,0,1-.51-.52,2.33,2.33,0,0,1-.56-1.27,1.4,1.4,0,0,1,.86-1.55,2.47,2.47,0,0,1,.91-.27,3,3,0,0,1,1,0h0a1.93,1.93,0,0,1,1.63,1.73l-.06.3a6.12,6.12,0,0,1-.76,1.14,3.57,3.57,0,0,1-.43.44l.08,0h1.54a.94.94,0,0,0,.32-.19,1.45,1.45,0,0,0,.18-.16Zm-2.49-.8a4.44,4.44,0,0,0,.53-.8.94.94,0,0,0-.77-.64h0a2.21,2.21,0,0,0-.63,0,1.86,1.86,0,0,0-.55.16c-.2.1-.33.26-.3.43V41a1.38,1.38,0,0,0,.33.73,3.49,3.49,0,0,0,.7.62l.28-.24,0,.07a2.53,2.53,0,0,0,.37-.36ZM62.86,36.78a.56.56,0,1,1-.56.56.56.56,0,0,1,.56-.56Zm-8.57,0a.56.56,0,1,1-.56.56.56.56,0,0,1,.56-.56Zm-1.45,0a.56.56,0,1,1-.56.56.56.56,0,0,1,.56-.56Zm1,4.89V40.1l-.3.1a4.2,4.2,0,0,0-.93.39l-.11,0a.5.5,0,0,0-.19.15h0a.86.86,0,0,0-.17.36.78.78,0,0,0,0,.4.66.66,0,0,0,.22.32l.06.06a.55.55,0,0,0,.4.14,1.59,1.59,0,0,0,.48-.07,1.2,1.2,0,0,0,.42-.22l.1-.1Zm9.79-.33v-.9h0a.62.62,0,0,0-.46-.58.93.93,0,0,0-.41-.06,1.07,1.07,0,0,0-.39.1.77.77,0,0,0-.4.83v.07a.79.79,0,0,0,.12.49h0a.76.76,0,0,0,.4.26,1.24,1.24,0,0,0,.61,0A1.3,1.3,0,0,0,63.6,41.34Z"/><path class="cls-1" d="M33.05,11.5V.15h2.6a3,3,0,0,1,3,3v7.47H35.29A4,4,0,0,0,33.05,11.5Z"/><path class="cls-1" d="M51,.08A9,9,0,0,1,50.83,18c-4.06,0-8.16-.09-12.23-.09v6.45a5.37,5.37,0,0,1-5.35,5.35H26.38A5.37,5.37,0,0,1,21,24.37V12l3.66,0a2.58,2.58,0,0,1,2.19,2.11v7A3.1,3.1,0,0,0,30,24.22h3.08v-9.3a3,3,0,0,1,3-3H51a3.13,3.13,0,0,0,3.19-3.05,3.12,3.12,0,0,0-3.19-3Z"/><path class="cls-1" d="M24,.15h2.9v11.3c-1.71-1.56-4.77-1.2-5.85-1V3.1A3,3,0,0,1,24,.15Z"/><path class="cls-1" d="M86.54.15H90V26.8a2.92,2.92,0,0,1-2.92,2.92H84.17V2.53A2.38,2.38,0,0,1,86.54.15Z"/><path class="cls-1" d="M5.56,5.72H8.83A3.29,3.29,0,0,1,12.11,9V20.94a3.28,3.28,0,0,1-3.28,3.28H5.56V5.72ZM.13.15V29.72H12.35a5.37,5.37,0,0,0,5.36-5.35V5.5A5.37,5.37,0,0,0,12.35.15Z"/><path class="cls-1" d="M58.57,16a9.47,9.47,0,0,1-5.72,13.46c-2.58.76-5.37.27-8,.27A2.85,2.85,0,0,1,42,26.88l.07-7.57,5.84-.06v1.84h0a3.17,3.17,0,1,0,5.41-2.24A6.84,6.84,0,0,0,58.57,16Z"/><path class="cls-1" d="M49.47,19.24H51a1.56,1.56,0,1,1-1.56,1.57Z"/><path class="cls-1" d="M63.23,19.39h5.63v7.52a2.83,2.83,0,0,1-2.81,2.81H63.23Z"/><path class="cls-1" d="M80.77,16.61a6.65,6.65,0,0,1-5.62,2.78v7.52A2.82,2.82,0,0,0,78,29.72h2.81Z"/><path class="cls-1" d="M68.86,10.58c-3.36,0-3.88-.48-5.63,1V5.44A5.64,5.64,0,0,1,68.31.25H70.1a2.42,2.42,0,0,0-1.24,2.22Z"/><path class="cls-1" d="M63.21,17.79H75A6,6,0,0,0,81,11.85V6A6,6,0,0,0,75.55.06L73.16,0a2.79,2.79,0,0,0-2.78,2.78V5.52l0,0H72a3.27,3.27,0,1,1,0,6.54c-2,0-4,0-5.94,0A2.85,2.85,0,0,0,63.21,15Z"/><path class="cls-1" d="M26,31.09h1.56A1.56,1.56,0,1,1,26,32.65Z"/><path class="cls-1" d="M30.63,31.09h1.56a1.56,1.56,0,1,1-1.56,1.56Z"/><path class="cls-1" d="M42.11.09h7.36V6.37a2.41,2.41,0,0,0-1.71,2.3v1.75H42.11Z"/></g></g></svg>