<?xml version="1.0" encoding="UTF-8"?>
<!DOCTYPE svg PUBLIC "-//W3C//DTD SVG 1.1//EN" "http://www.w3.org/Graphics/SVG/1.1/DTD/svg11.dtd">
<!-- Creator: CorelDRAW X7 -->
<svg xmlns="http://www.w3.org/2000/svg" xml:space="preserve" width="170px" height="43px" version="1.1" style="shape-rendering:geometricPrecision; text-rendering:geometricPrecision; image-rendering:optimizeQuality; fill-rule:evenodd; clip-rule:evenodd"
viewBox="0 0 2324 579"
 xmlns:xlink="http://www.w3.org/1999/xlink" >
 <defs>
  <style type="text/css">
   <![CDATA[
    .fil3 {fill:none}
    .fil5 {fill:#2B2A29}
    .fil1 {fill:#29853B}
    .fil0 {fill:#2A2520}
    .fil2 {fill:#D2372C}
    .fil4 {fill:#2B2A29;fill-rule:nonzero}
   ]]>
  </style>
 </defs>
 <g id="Layer_x0020_1">
  <metadata id="CorelCorpID_0Corel-Layer"/>
  <g id="dubaiPetroleum.svg">
   <g id="svgg">
    <g>
     <path id="path0" class="fil0" d="M321 299l-6 1 4 0c2,1 5,1 6,1 2,1 5,1 8,2 2,1 5,1 7,2 7,2 16,5 20,7 9,4 16,7 19,9 4,3 11,7 12,9 18,15 25,26 33,48 3,10 3,35 0,46 -2,6 -5,14 -6,16 0,1 -1,4 -2,6 -2,4 -6,10 -10,17 -1,1 -3,4 -5,6 -2,3 -4,5 -5,6 -2,3 -15,16 -18,19 -2,1 -4,3 -5,4 -2,1 -4,3 -5,4 -2,1 -4,3 -5,3 -1,2 -9,7 -13,9 -5,4 -23,13 -24,13 -1,0 -2,1 -3,1 -3,2 -10,5 -11,5 0,0 -2,0 -3,1 -1,1 -4,2 -6,2 -2,1 -4,1 -5,2 -1,0 -4,1 -7,2 -4,1 -9,2 -11,3 -3,1 -7,1 -8,2 -2,0 -5,0 -7,1 -6,2 -29,4 -42,4 -12,0 -13,0 -14,1 -1,1 -1,1 5,1 3,0 10,1 16,1 13,1 45,0 51,-2 1,0 5,-1 8,-1 3,-1 7,-1 8,-2 1,0 4,-1 6,-1 3,-1 6,-1 7,-2 0,0 2,-1 4,-1 2,-1 5,-1 6,-2 2,-1 4,-1 4,-1 1,0 3,-1 5,-2 1,0 3,-1 4,-1 1,0 2,-1 4,-1 1,-1 3,-2 4,-2 2,0 3,-1 4,-1 1,-1 2,-1 3,-2 2,0 3,-1 4,-1 0,-1 1,-1 3,-2 1,0 3,-1 3,-1 1,-1 3,-2 4,-2 1,0 2,-1 3,-1 0,-1 1,-2 3,-2 1,0 2,0 2,-1 0,0 1,-1 2,-1 1,-1 3,-2 4,-2 4,-3 6,-4 7,-4 0,0 1,-1 2,-2 2,-1 3,-2 3,-2 1,0 1,0 2,-1 1,0 1,-1 2,-1 0,0 1,0 2,-1 0,-1 1,-2 2,-2 1,-1 2,-1 3,-2 0,0 0,-1 1,-1 0,0 1,0 1,-1 1,0 9,-6 11,-8 0,0 2,-1 3,-3 1,-1 3,-2 3,-2 0,0 11,-11 11,-11 0,-1 0,-1 0,-1 1,0 1,0 1,0 0,-1 1,-2 2,-3 2,-2 6,-7 9,-11 1,-1 2,-2 3,-3 1,-2 1,-3 1,-3 0,-1 1,-2 2,-2 1,-1 1,-2 1,-3 0,0 1,-1 2,-2 1,-1 1,-2 1,-3 0,0 1,-1 1,-2 1,0 2,-2 2,-3 0,-1 1,-3 2,-3 0,0 0,-2 1,-3 0,-2 1,-3 1,-4 1,-1 2,-3 2,-5 0,-2 1,-4 1,-5 1,0 1,-3 2,-6 0,-3 1,-7 1,-8 1,-5 1,-15 0,-18 0,-2 -1,-6 -1,-8 -1,-3 -1,-6 -2,-6 0,-1 -1,-3 -1,-4 0,-2 -1,-4 -2,-5 0,-1 -1,-3 -1,-4 -1,-1 -1,-2 -2,-3 0,0 -1,-1 -1,-2 0,0 0,-1 -1,-1 -1,-1 -1,-2 -2,-3 0,-1 -1,-3 -2,-3 0,0 -1,-1 -1,-2 0,0 0,-1 -1,-1 0,0 -1,-1 -2,-2 -2,-3 -7,-8 -11,-12 -2,-2 -4,-4 -5,-4 -1,-1 -2,-2 -2,-2 -1,0 -1,0 -2,-1 -1,-1 -2,-2 -4,-2 -1,-1 -2,-1 -2,-2 0,0 0,0 -1,-1 -1,0 -2,-1 -3,-1 -1,-1 -2,-1 -3,-2 -1,0 -2,0 -2,-1 -1,-1 -2,-1 -3,-2 -1,0 -3,0 -3,-1 -1,-1 -3,-1 -4,-1 -1,-1 -2,-1 -3,-2 -1,0 -2,-1 -4,-1 -1,0 -3,-1 -4,-2 -1,0 -3,-1 -5,-1 -2,-1 -5,-1 -5,-2 -1,0 -3,-1 -6,-1 -2,-1 -5,-1 -6,-2 -2,0 -5,-1 -9,-1 -3,-1 -7,-1 -9,-2 -2,-1 -18,-1 -28,-1l0 0zm-126 249c-1,1 1,1 5,1 5,0 5,0 3,-1 -4,0 -7,0 -8,0z"/>
    </g>
    <g>
     <path id="path1" class="fil1" d="M307 298c-22,1 -26,2 -11,3 8,1 25,5 31,8 1,0 3,1 3,1 2,0 13,6 16,7 0,1 1,2 2,2 2,0 19,15 19,16 0,1 1,2 2,3 10,11 15,38 9,52 0,2 -1,5 -1,6 -1,2 -2,4 -2,5 0,1 -2,3 -3,6 -1,2 -2,4 -3,5 0,0 -1,1 -1,2 -1,2 -2,3 -3,4 0,1 -2,3 -3,5 -14,19 -49,45 -71,52 -2,1 -3,1 -3,2 0,0 -2,1 -4,1 -1,1 -3,1 -3,2 -1,0 -9,3 -16,5 -20,6 -53,11 -70,10 -12,-1 -39,-5 -43,-7 -1,0 -2,-1 -4,-1 -27,-7 -51,-30 -56,-55 -2,-10 -4,-11 -5,-5 0,1 -1,5 -1,8 -1,7 -1,19 0,24 0,3 1,6 1,7 1,5 6,18 8,21 1,1 1,2 1,3 0,0 3,4 7,10 6,8 18,19 28,25 6,4 20,11 22,11 0,0 1,1 2,1 2,1 5,2 8,3 2,1 5,2 6,3 1,0 3,1 5,2 2,0 4,1 5,1 1,1 3,2 5,2 2,0 4,1 5,1 1,1 3,1 5,1 1,1 4,1 7,2 2,1 7,1 12,2 4,0 9,1 11,1 4,1 34,1 38,0 2,0 7,-1 12,-1 5,-1 10,-1 12,-2 1,0 5,-1 8,-1 3,-1 7,-2 8,-2 2,-1 4,-1 5,-1 1,0 2,-1 4,-1 1,-1 4,-2 6,-2 2,0 5,-1 5,-1 1,-1 3,-2 4,-2 3,-1 7,-2 13,-4 2,-1 4,-2 5,-2 1,0 3,-1 3,-1 0,-1 2,-1 3,-2 1,0 3,-1 3,-1 1,0 2,-1 3,-1 2,-1 3,-2 4,-2 0,0 2,-1 3,-2 2,0 3,-1 3,-1 0,0 1,-1 2,-1 0,0 2,-1 3,-1 0,-1 3,-2 5,-3 3,-2 5,-3 6,-4 0,0 1,-1 3,-1 1,-1 2,-1 2,-2 0,0 2,-1 4,-3 10,-6 12,-7 13,-8 0,-1 3,-3 6,-6 13,-10 34,-32 34,-35 0,0 1,-2 5,-6 0,-1 0,-2 0,-2 0,0 1,-1 1,-2 1,-1 8,-14 8,-15 0,0 1,-2 1,-3 2,-3 4,-11 5,-14 0,-1 1,-4 1,-6 2,-6 2,-25 0,-29 0,-2 -1,-5 -1,-7 -1,-3 -2,-6 -2,-6 -1,-1 -1,-2 -1,-3 0,-1 -6,-12 -9,-17 -7,-11 -28,-31 -33,-31 0,0 -1,0 -2,-1 -1,-1 -13,-7 -14,-7 0,0 -2,-1 -4,-2 -2,-1 -4,-2 -5,-2 0,0 -2,0 -3,-1 -3,-1 -11,-4 -14,-4 -1,0 -4,-1 -5,-2 -2,0 -6,-1 -8,-1 -2,0 -6,-1 -9,-2 -4,-1 -7,-1 -28,-2 -3,0 -12,1 -20,1l0 0zm42 2c2,1 6,1 9,2 4,0 7,1 9,1 1,1 4,1 6,2 3,0 5,1 6,1 0,1 3,1 5,2 2,0 4,1 5,1 1,1 3,2 4,2 2,0 3,1 4,1 1,1 2,1 3,2 1,0 3,0 4,1 0,1 2,1 3,1 1,1 2,1 3,2 0,1 1,1 2,1 1,1 2,1 3,2 1,0 2,1 3,1 1,1 1,1 1,1 0,1 1,1 2,2 2,0 3,1 4,2 1,1 1,1 2,1 0,0 1,1 2,2 1,0 3,2 5,4 4,4 9,9 11,12 1,1 2,2 2,2 1,0 1,1 1,1 0,1 1,2 1,2 1,0 2,2 2,3 1,1 1,2 2,3 1,0 1,1 1,1 0,1 1,2 1,2 1,1 1,2 2,3 0,1 1,3 1,4 1,1 2,3 2,5 0,1 1,3 1,4 1,0 1,3 2,6 0,2 1,6 1,8 1,3 1,13 0,18 0,1 -1,5 -1,8 -1,3 -1,6 -2,6 0,1 -1,3 -1,5 0,2 -1,4 -2,5 0,1 -1,2 -1,4 -1,1 -1,3 -1,3 -1,0 -2,2 -2,3 0,1 -1,3 -2,3 0,1 -1,2 -1,2 0,1 0,2 -1,3 -1,1 -2,2 -2,2 0,1 0,2 -1,3 -1,0 -2,1 -2,2 0,0 0,1 -1,3 -1,1 -2,2 -3,3 -3,4 -7,9 -9,11 -1,1 -2,2 -2,3 0,0 0,0 -1,0 0,0 0,0 0,1 0,0 -11,11 -11,11 0,0 -2,1 -3,2 -1,2 -3,3 -3,3 -2,2 -10,8 -11,8 0,1 -1,1 -1,1 -1,0 -1,1 -1,1 -1,1 -2,1 -3,2 -1,0 -2,1 -2,2 -1,1 -2,1 -2,1 -1,0 -1,1 -2,1 -1,1 -1,1 -2,1 0,0 -1,1 -3,2 -1,1 -2,2 -2,2 -1,0 -3,1 -7,4 -1,0 -3,1 -4,2 -1,0 -2,1 -2,1 0,1 -1,1 -2,1 -2,0 -3,1 -3,2 -1,0 -2,1 -3,1 -1,0 -3,1 -4,2 0,0 -2,1 -3,1 -2,1 -3,1 -3,2 -1,0 -2,1 -4,1 -1,1 -2,1 -3,2 -1,0 -2,1 -4,1 -1,0 -3,1 -4,2 -2,0 -3,1 -4,1 -1,0 -3,1 -4,1 -2,1 -4,2 -5,2 0,0 -2,0 -4,1 -1,1 -4,1 -6,2 -2,0 -4,1 -4,1 -1,1 -4,1 -7,2 -2,0 -5,1 -6,1 -1,1 -5,1 -8,2 -3,0 -7,1 -8,1 -6,2 -38,3 -51,2 -6,0 -13,-1 -16,-1 -6,0 -6,0 -5,-1 1,-1 2,-1 14,-1 13,0 36,-2 42,-4 2,-1 5,-1 7,-1 1,-1 5,-1 8,-2 2,-1 7,-2 11,-3 3,-1 6,-2 7,-2 1,-1 3,-1 5,-2 2,0 5,-1 6,-2 1,-1 3,-1 3,-1 1,0 8,-3 11,-5 1,0 2,-1 3,-1 1,0 19,-9 24,-13 4,-2 12,-7 13,-9 1,0 3,-2 5,-3 1,-1 3,-3 5,-4 1,-1 3,-3 5,-4 3,-3 16,-16 18,-19 1,-1 3,-3 5,-6 2,-2 4,-5 5,-6 4,-7 8,-13 10,-17 1,-2 2,-5 2,-6 1,-2 4,-10 6,-16 3,-11 3,-36 0,-46 -8,-22 -15,-33 -33,-48 -1,-2 -8,-6 -12,-9 -3,-2 -10,-5 -19,-9 -4,-2 -13,-5 -20,-7 -2,-1 -5,-1 -7,-2 -3,-1 -6,-1 -8,-2 -1,0 -4,0 -6,-1l-4 0 6 -1c10,0 26,0 28,1l0 0zm-146 248c2,1 2,1 -3,1 -4,0 -6,0 -5,-1 1,0 4,0 8,0z"/>
    </g>
    <g>
     <path id="path2" class="fil2" d="M255 18c0,1 0,3 1,8 2,17 -3,39 -12,56 -1,2 -3,4 -3,6 -1,1 -2,3 -3,4 -4,6 -9,13 -12,18 -4,5 -5,7 -8,11 -1,1 -2,3 -4,5 -1,2 -3,4 -3,5 -1,1 -2,2 -3,3 -4,6 -14,22 -16,26 -1,1 -2,2 -2,3 -2,2 -13,24 -13,26 0,0 -1,1 -1,2 -1,1 -2,4 -2,6 -1,2 -2,5 -2,7 -1,2 -2,6 -3,14 -4,19 -4,51 0,56 3,5 6,3 12,-7 3,-5 8,-13 13,-19 1,-2 3,-5 4,-5 2,-3 9,-13 32,-41 14,-17 25,-32 27,-37 1,-1 1,-2 2,-2 1,-2 2,-3 7,-13 2,-4 3,-8 3,-8 0,-1 1,-2 2,-4 5,-13 8,-32 7,-51 0,-13 -1,-19 -4,-30 0,-1 -1,-5 -2,-7 0,-2 -1,-4 -1,-4 -1,-1 -1,-3 -1,-4 -1,-3 -4,-10 -9,-19 -2,-4 -5,-6 -6,-5l0 0zm32 63c0,1 0,3 1,14 0,6 1,8 0,13 0,3 -1,8 -1,11 -1,6 -3,14 -4,18 -1,2 -1,4 -2,6 0,2 -1,5 -2,6 0,1 -1,2 -1,3 0,0 -5,11 -8,16 -3,5 -13,20 -22,32 -2,2 -4,4 -4,4 0,1 -3,4 -6,8 -3,4 -9,11 -12,15 -4,5 -9,11 -12,15 -9,11 -17,22 -24,34 -4,7 -11,20 -15,30 -1,3 -2,6 -2,8 -1,1 -2,4 -2,5 0,2 -1,5 -2,8 -3,11 -2,33 1,46 0,2 1,5 1,6 1,2 1,4 2,6 3,8 4,12 5,14 1,1 2,3 2,3 0,0 0,2 1,3 1,1 1,2 2,3 0,2 6,11 8,12 6,4 9,-1 7,-10 -1,-8 0,-24 4,-35 7,-19 26,-44 52,-67 3,-3 7,-6 9,-8 2,-2 4,-4 5,-4 0,0 8,-8 13,-12 12,-11 25,-26 29,-35 1,-1 3,-3 4,-5 1,-2 2,-4 2,-4 0,-1 0,-2 1,-3 1,-1 2,-3 2,-3 0,0 0,-2 1,-3 7,-16 12,-49 9,-67 0,-3 -1,-8 -1,-11 -2,-7 -4,-16 -9,-28 -2,-4 -9,-19 -11,-22 0,-1 -2,-3 -3,-4 -4,-8 -15,-20 -17,-20 0,0 -1,1 -1,2z"/>
    </g>
    <path id="path3" class="fil3" d="M0 290l0 289 290 0 289 0 0 -289 0 -290 -289 0 -290 0 0 290m259 -270c1,1 2,2 2,3 5,9 8,16 9,19 0,1 0,3 1,4 0,0 1,2 1,4 1,2 2,6 2,7 7,27 6,60 -3,81 -1,2 -2,3 -2,4 0,0 -1,4 -3,8 -5,10 -6,11 -7,13 -1,0 -1,1 -2,2 -2,5 -13,20 -27,37 -23,28 -30,38 -32,41 -1,0 -3,3 -4,5 -5,6 -10,14 -13,19 -6,10 -9,12 -12,7 -4,-5 -4,-37 0,-56 1,-8 2,-12 3,-14 0,-2 1,-5 2,-7 0,-2 1,-5 2,-6 0,-1 1,-2 1,-2 0,-2 11,-24 13,-26 0,-1 1,-2 2,-3 2,-4 12,-20 16,-26 1,-1 2,-2 3,-3 0,-1 2,-3 3,-5 2,-2 3,-4 4,-5 3,-4 4,-6 8,-11 3,-5 8,-12 12,-18 1,-1 2,-3 3,-4 0,-2 2,-4 3,-6 9,-17 14,-39 12,-56 -2,-9 -1,-11 3,-6m34 63c4,4 9,11 12,16 1,1 3,3 3,4 2,3 9,18 11,22 5,12 7,21 9,28 0,3 1,8 1,11 3,18 -2,51 -9,67 -1,1 -1,3 -1,3 0,0 -1,2 -2,3 -1,1 -1,2 -1,3 0,0 -1,2 -2,4 -1,2 -3,4 -4,5 -4,9 -17,24 -29,35 -5,4 -13,12 -13,12 -1,0 -3,2 -5,4 -2,2 -6,5 -9,8 -26,23 -45,48 -52,67 -4,11 -5,27 -4,35 2,9 -1,14 -7,10 -2,-1 -8,-10 -8,-12 -1,-1 -1,-2 -2,-3 -1,-1 -1,-3 -1,-3 0,0 -1,-2 -2,-3 -1,-2 -2,-6 -5,-14 -1,-2 -1,-4 -2,-6 0,-1 -1,-4 -1,-6 -3,-13 -4,-35 -1,-46 1,-3 2,-6 2,-8 0,-1 1,-4 2,-5 0,-2 1,-5 2,-8 4,-10 11,-23 15,-30 7,-12 15,-23 24,-34 3,-4 8,-10 12,-15 3,-4 9,-11 12,-15 3,-4 6,-7 6,-8 0,0 2,-2 4,-4 9,-12 19,-27 22,-32 3,-5 8,-16 8,-16 0,-1 1,-2 1,-3 1,-1 2,-4 2,-6 1,-2 1,-4 2,-6 1,-4 3,-12 4,-18 0,-3 1,-8 1,-11 1,-5 0,-7 0,-13 -2,-18 -2,-18 5,-12m49 215c5,0 10,1 13,1 3,1 7,2 9,2 2,0 6,1 8,1 1,1 4,2 5,2 3,0 11,3 14,4 1,1 3,1 3,1 1,0 3,1 5,2 2,1 4,2 4,2 1,0 13,6 14,7 1,1 2,1 2,1 5,0 26,20 33,31 3,5 9,16 9,17 0,1 0,2 1,3 0,0 1,3 2,6 0,2 1,5 1,7 2,4 2,23 0,29 0,2 -1,5 -1,6 -1,3 -3,11 -5,14 0,1 -1,3 -1,3 0,1 -7,14 -8,15 0,1 -1,2 -1,2 0,0 0,1 0,2 -4,4 -5,6 -5,6 0,3 -21,25 -34,35 -3,3 -6,5 -6,6 -1,1 -3,2 -13,8 -2,2 -4,3 -4,3 0,1 -1,1 -2,2 -2,0 -3,1 -3,1 -1,1 -3,2 -6,4 -2,1 -5,2 -5,3 -1,0 -3,1 -3,1 -1,0 -2,1 -2,1 0,0 -1,1 -3,1 -1,1 -3,2 -3,2 -1,0 -2,1 -4,2 -1,0 -2,1 -3,1 0,0 -2,1 -3,1 -1,1 -3,1 -3,2 0,0 -2,1 -3,1 -1,0 -3,1 -5,2 -6,2 -10,3 -13,4 -1,0 -3,1 -4,2 0,0 -3,1 -5,1 -2,0 -5,1 -6,2 -2,0 -3,1 -4,1 -1,0 -3,0 -5,1 -1,0 -5,1 -8,2 -3,0 -7,1 -8,1 -2,1 -7,1 -12,2 -5,0 -10,1 -12,1 -4,1 -34,1 -38,0 -2,0 -7,-1 -11,-1 -5,-1 -10,-1 -12,-2 -3,-1 -6,-1 -7,-2 -2,0 -4,0 -5,-1 -1,0 -3,-1 -5,-1 -2,0 -4,-1 -5,-2 -1,0 -3,-1 -5,-1 -2,-1 -4,-2 -5,-2 -1,-1 -4,-2 -6,-3 -3,-1 -6,-2 -8,-3 -1,0 -2,-1 -2,-1 -2,0 -16,-7 -22,-11 -10,-6 -22,-17 -28,-25 -4,-6 -7,-10 -7,-10 0,-1 0,-2 -1,-3 -2,-3 -7,-16 -8,-21 0,-1 -1,-4 -1,-7 -1,-5 -1,-17 0,-24 0,-3 1,-7 1,-8 1,-6 3,-5 5,5 5,25 29,48 56,55 2,0 3,1 4,1 4,2 31,6 43,7 17,1 50,-4 70,-10 7,-2 15,-5 16,-5 0,-1 2,-1 3,-2 2,0 4,-1 4,-1 0,-1 1,-1 3,-2 22,-7 57,-33 71,-52 1,-2 3,-4 3,-5 1,-1 2,-2 3,-4 0,-1 1,-2 1,-2 1,-1 2,-3 3,-5 1,-3 3,-5 3,-6 0,-1 1,-3 2,-5 0,-1 1,-4 1,-6 6,-14 1,-41 -9,-52 -1,-1 -2,-2 -2,-3 0,-1 -17,-16 -19,-16 -1,0 -2,-1 -2,-2 -3,-1 -14,-7 -16,-7 0,0 -2,-1 -3,-1 -6,-3 -23,-7 -31,-8 -10,-1 -12,-1 -7,-2 5,-1 30,-2 38,-2 3,1 10,1 15,1"/>
   </g>
  </g>
  <path class="fil4" d="M528 529l0 -8c4,-1 7,-3 8,-6 2,-4 2,-11 2,-23l0 -112c0,-12 0,-20 -2,-23 -1,-3 -4,-5 -8,-6l0 -8 66 0c11,0 20,2 29,5 8,3 16,8 23,14 10,10 18,22 24,37 6,15 9,31 9,49 0,12 -2,23 -5,33 -4,11 -9,20 -16,28 -6,7 -13,12 -20,15 -8,3 -18,5 -30,5l-80 0zm54 -44l0 6c0,8 1,13 2,15 2,2 6,3 11,3 12,0 21,-5 28,-16 7,-12 10,-27 10,-48 0,-23 -4,-42 -12,-58 -8,-16 -17,-24 -28,-24 -4,0 -7,2 -9,5 -1,3 -2,10 -2,19l0 98z"/>
  <path id="1" class="fil4" d="M698 485l0 -61c0,-9 -1,-15 -2,-18 -2,-3 -5,-5 -9,-6l0 -7 50 -3 0 90c0,8 1,14 3,18 1,4 4,6 8,6 6,0 11,-4 14,-12 4,-8 5,-19 5,-34l0 -34c0,-9 0,-15 -2,-18 -2,-3 -5,-5 -9,-6l0 -7 50 -3 0 107c0,9 1,15 3,18 2,3 4,5 9,6l0 8 -47 0c-1,-4 -2,-7 -2,-10 -1,-4 -1,-8 -2,-12 -6,9 -12,15 -19,19 -7,4 -14,7 -22,7 -10,0 -17,-4 -22,-11 -4,-7 -6,-19 -6,-37z"/>
  <path id="2" class="fil4" d="M826 529l0 -7c4,-1 7,-2 8,-5 2,-3 3,-9 3,-18l0 -125c0,-11 -1,-18 -2,-21 -1,-3 -4,-4 -7,-5l0 -7 48 -9 0 58 6 0c13,0 23,0 30,2 6,2 13,5 18,9 8,6 14,15 19,26 5,11 7,23 7,35 0,12 -2,23 -6,33 -4,9 -10,17 -17,23 -4,4 -10,7 -15,8 -6,2 -15,3 -26,3l-66 0zm50 -47c0,11 1,19 3,22 2,4 5,5 10,5 7,0 13,-4 17,-13 5,-8 7,-20 7,-34 0,-17 -3,-30 -8,-38 -5,-9 -12,-13 -22,-13 -1,0 -3,0 -5,0 -1,0 -2,0 -2,0l0 71z"/>
  <path id="3" class="fil4" d="M1030 452c-10,4 -17,8 -22,14 -5,6 -7,13 -7,22 0,4 1,8 3,11 2,3 4,4 7,4 6,0 11,-3 14,-10 3,-7 5,-17 5,-30l0 -11zm-59 -11l5 -50c0,0 0,1 1,1 4,1 6,2 8,2 1,0 6,-1 14,-4 9,-3 18,-4 26,-4 7,0 13,0 18,2 6,1 11,3 14,6 5,3 8,7 10,12 2,5 3,13 3,25l0 60c0,11 1,18 3,21 2,4 5,7 10,10l0 7 -45 0c-2,-2 -3,-5 -4,-8 -1,-3 -1,-6 -2,-10 -4,7 -9,13 -15,16 -6,4 -14,6 -22,6 -11,0 -19,-4 -25,-10 -5,-7 -8,-16 -8,-28 0,-15 5,-28 16,-38 11,-9 28,-17 52,-22l0 -9c0,-7 -2,-12 -5,-15 -2,-4 -7,-5 -13,-5 -8,0 -16,3 -22,9 -6,6 -11,15 -13,26l-6 0z"/>
  <path id="4" class="fil4" d="M1122 332c5,0 10,3 14,8 4,5 6,11 6,18 0,7 -2,13 -6,18 -4,4 -9,7 -14,7 -6,0 -11,-3 -15,-7 -4,-5 -6,-11 -6,-18 0,-7 2,-13 6,-18 4,-5 9,-8 15,-8zm-21 100c0,-12 -1,-19 -2,-22 -1,-2 -3,-4 -6,-5l0 -7 47 -8 0 99c0,13 1,21 3,25 1,4 4,6 9,8l0 7 -61 0 0 -7c4,-1 6,-3 8,-5 1,-3 2,-9 2,-18l0 -67z"/>
  <path id="5" class="fil4" d="M1233 529l0 -8c4,-1 6,-3 8,-6 1,-4 2,-11 2,-23l0 -112c0,-12 -1,-20 -2,-23 -2,-3 -4,-5 -8,-6l0 -8 90 0c16,0 27,2 33,7 6,5 10,13 10,24 0,16 -7,30 -20,41 -13,12 -33,22 -60,30l0 44c0,14 2,22 4,26 2,3 6,5 11,6l0 8 -68 0zm53 -106c13,-7 22,-13 27,-19 5,-7 7,-14 7,-22 0,-6 -1,-11 -4,-15 -4,-3 -8,-5 -15,-5 -6,0 -10,1 -12,3 -2,2 -3,7 -3,14l0 44z"/>
  <path id="6" class="fil4" d="M1430 435c-1,-9 -3,-16 -6,-21 -3,-5 -7,-7 -11,-7 -5,0 -9,3 -13,8 -3,5 -5,12 -5,21 0,1 0,3 0,6 0,2 0,3 0,4l35 -11zm-34 28c2,14 6,25 12,33 7,9 15,13 24,13 8,0 15,-3 20,-9 6,-6 10,-14 14,-26l5 1 -12 55c-2,0 -3,0 -4,0 -2,0 -3,0 -4,0 -2,0 -7,0 -13,1 -6,1 -11,2 -15,2 -21,0 -38,-7 -51,-22 -13,-14 -19,-32 -19,-54 0,-21 5,-38 17,-51 12,-14 27,-20 46,-20 14,0 25,4 34,12 9,9 16,23 21,42l-75 23z"/>
  <path id="7" class="fil4" d="M1490 411l-12 0 0 -9c4,0 8,-3 11,-10 4,-6 5,-14 5,-22 0,-2 0,-3 0,-5 0,-2 0,-5 -1,-9l36 -17 0 54 17 0c3,0 5,0 7,-1 2,-1 4,-2 6,-3l-6 24c-1,-1 -2,-2 -4,-2 -1,0 -4,0 -6,0l-14 0 0 73c0,9 1,16 3,19 2,4 5,6 9,6 4,0 7,-2 11,-6 3,-5 6,-10 9,-18l5 2 -12 39c-7,3 -13,4 -18,5 -4,2 -9,2 -13,2 -11,0 -20,-3 -25,-11 -5,-7 -8,-18 -8,-33l0 -78z"/>
  <path id="8" class="fil4" d="M1581 424c0,-9 0,-15 -2,-18 -2,-3 -5,-5 -9,-6l0 -7 46 -3c1,3 2,7 3,11 0,4 1,9 1,14 5,-9 11,-16 16,-21 5,-4 11,-6 17,-6 2,0 5,0 9,1l0 0 -7 38c-4,-2 -7,-4 -9,-5 -3,-1 -5,-2 -8,-2 -6,0 -11,3 -14,10 -2,6 -4,19 -4,39l0 20c0,13 1,21 3,25 2,4 5,6 9,8l0 7 -61 0 0 -7c4,-1 7,-3 8,-5 2,-3 2,-9 2,-18l0 -75z"/>
  <path id="9" class="fil4" d="M1724 407c-6,0 -11,4 -15,12 -3,8 -5,18 -5,32 0,19 2,34 6,45 4,10 9,15 17,15 6,0 10,-4 14,-12 3,-8 5,-19 5,-32 0,-19 -2,-34 -6,-44 -4,-11 -9,-16 -16,-16zm-63 52c0,-23 6,-40 17,-54 12,-13 27,-19 47,-19 20,0 35,6 47,19 11,14 17,31 17,54 0,23 -6,41 -17,54 -11,13 -27,20 -47,20 -20,0 -35,-7 -47,-20 -11,-13 -17,-31 -17,-54z"/>
  <path id="10" class="fil4" d="M1809 374c0,-11 -1,-18 -2,-21 -1,-3 -4,-4 -7,-5l0 -7 48 -9 0 157c0,13 1,21 2,25 2,4 5,6 9,8l0 7 -61 0 0 -7c4,-1 7,-3 8,-5 2,-3 3,-9 3,-18l0 -125z"/>
  <path id="11" class="fil4" d="M1944 435c-1,-9 -3,-16 -6,-21 -3,-5 -6,-7 -11,-7 -5,0 -9,3 -12,8 -4,5 -6,12 -6,21 0,1 0,3 1,6 0,2 0,3 0,4l34 -11zm-33 28c2,14 6,25 12,33 6,9 14,13 24,13 7,0 14,-3 19,-9 6,-6 11,-14 14,-26l6 1 -13 55c-1,0 -3,0 -4,0 -1,0 -3,0 -4,0 -2,0 -6,0 -12,1 -6,1 -11,2 -16,2 -20,0 -37,-7 -50,-22 -13,-14 -20,-32 -20,-54 0,-21 6,-38 18,-51 12,-14 27,-20 45,-20 14,0 26,4 34,12 9,9 16,23 21,42l-74 23z"/>
  <path id="12" class="fil4" d="M2004 485l0 -61c0,-9 -1,-15 -2,-18 -2,-3 -5,-5 -9,-6l0 -7 50 -3 0 90c0,8 1,14 3,18 1,4 4,6 8,6 6,0 11,-4 14,-12 4,-8 5,-19 5,-34l0 -34c0,-9 0,-15 -2,-18 -2,-3 -5,-5 -9,-6l0 -7 50 -3 0 107c0,9 1,15 3,18 2,3 4,5 9,6l0 8 -47 0c-1,-4 -2,-7 -2,-10 -1,-4 -1,-8 -2,-12 -6,9 -12,15 -19,19 -7,4 -14,7 -22,7 -10,0 -17,-4 -22,-11 -4,-7 -6,-19 -6,-37z"/>
  <path id="13" class="fil4" d="M2263 529l0 -7c4,-1 7,-3 8,-7 2,-4 3,-10 3,-20l0 -53c0,-9 -1,-16 -2,-19 -2,-4 -4,-6 -8,-6 -5,0 -9,4 -12,12 -3,8 -5,20 -5,35l0 25c0,13 1,22 2,25 2,4 4,7 8,8l0 7 -59 0 0 -7c4,-1 6,-3 8,-7 2,-4 2,-10 2,-20l0 -53c0,-9 0,-15 -2,-19 -1,-4 -4,-6 -7,-6 -6,0 -10,4 -13,12 -3,8 -4,20 -4,35l0 25c0,13 0,21 2,25 1,4 4,7 8,8l0 7 -59 0 0 -7c4,-1 6,-3 8,-5 1,-3 2,-9 2,-18l0 -75c0,-9 -1,-15 -3,-18 -1,-3 -4,-5 -8,-6l-1 -7 46 -3c1,3 2,6 3,11 1,4 1,9 2,14 5,-9 11,-16 17,-21 7,-4 14,-6 22,-6 7,0 12,2 17,6 4,4 7,10 9,19 6,-9 12,-15 18,-19 7,-4 14,-6 21,-6 10,0 17,3 21,10 4,7 6,19 6,37l0 58c0,11 0,18 2,22 2,4 5,6 9,7l0 7 -61 0z"/>
  <path class="fil5" d="M686 56c0,0 -12,6 -11,21 14,70 41,172 -92,162 -67,-10 -50,-52 -45,-64 5,-12 30,-38 30,-29 0,9 -21,29 -10,45 10,16 65,24 91,13 6,-1 33,-9 20,-66 -8,-35 -20,-67 -23,-76 -3,-9 -3,-18 8,-24 10,-5 12,-7 18,0 6,8 15,18 14,18z"/>
  <path class="fil5" d="M794 255c-22,10 -38,9 -57,8 -20,-2 -33,-8 -25,-14 11,3 34,3 48,-3 15,-6 41,-25 53,-37 12,-13 24,-33 14,-29 -43,18 -56,-14 -41,-37 10,-14 15,-20 26,-20 50,0 35,104 -18,132zm13 -107c6,0 11,5 11,10 0,5 -5,9 -11,9 -6,0 -11,-4 -11,-9 0,-5 5,-10 11,-10z"/>
  <path class="fil5" d="M859 255c0,0 5,-3 18,-2 13,1 23,1 42,-7 20,-8 35,-25 39,-30 5,-5 5,-11 0,-15 -5,-4 -17,-15 -17,-15 0,0 -6,-3 -1,-8 5,-4 14,-17 14,-17 0,0 7,-3 13,3 6,5 9,9 17,9 9,0 38,-1 38,-1 0,0 10,-3 12,-8 3,-5 8,-8 12,-4 3,4 5,10 15,11 11,0 47,-1 47,-1l10 -11c0,0 9,0 14,7 5,6 9,5 14,5 5,-1 276,-1 276,-1 0,0 19,-4 20,-23 0,-20 -8,-81 -7,-89 2,-9 16,-18 20,0 4,17 5,81 15,97 10,16 12,17 23,17 10,0 29,-1 29,-1 0,0 10,-4 11,-14 1,-10 -15,-67 -16,-86 -1,-18 1,-19 5,-25 4,-7 13,-9 20,0 7,8 13,13 5,22 -9,8 -10,26 -3,44 7,17 10,57 0,70 -10,14 -15,17 -27,18 -12,2 -44,2 -44,2 0,0 -9,-2 -14,-9 -5,-7 -9,-28 -13,-21 -4,7 -17,26 -31,28 -14,2 -279,3 -279,3 0,0 -11,-6 -14,-10 -4,-3 1,-12 -7,-7 -8,5 -8,11 -19,13 -12,2 -47,1 -47,1 0,0 -2,-3 -7,-6 -5,-3 -11,-13 -16,-6 -5,7 -5,12 -17,14 -12,2 -34,0 -34,0 0,0 -6,43 -29,57 -24,15 -46,16 -61,11 -15,-5 -26,-16 -26,-15z"/>
  <rect class="fil5" transform="matrix(0.465954 -0.530148 0.669922 0.497003 995.601 130.575)" width="30.545" height="30.545" rx="5" ry="5"/>
  <rect class="fil5" transform="matrix(0.465954 -0.530148 0.669922 0.497003 1033.25 130.575)" width="30.545" height="30.545" rx="5" ry="5"/>
  <rect class="fil5" transform="matrix(0.465954 -0.530148 0.669922 0.497003 1098.6 229.317)" width="30.545" height="30.545" rx="5" ry="5"/>
  <path class="fil5" d="M2158 126c0,0 9,26 7,36 -2,10 -14,31 -34,37 -19,5 -313,2 -313,2 0,0 -22,4 -11,10 12,5 31,5 40,12 8,7 11,15 1,26 -10,12 -72,28 -111,25 -39,-3 -61,-27 -61,-37 0,-11 -2,-24 7,-38 9,-14 18,-29 16,-18 -1,11 -11,30 -3,42 8,12 25,28 63,26 37,-1 65,1 73,-5 8,-6 27,-10 3,-11 -25,0 -49,-2 -52,-11 -3,-9 0,-25 10,-34 11,-8 28,-15 42,-15 14,0 301,-2 301,-2 0,0 16,-2 8,-11 -8,-9 -19,-10 -14,-15 5,-6 13,-17 14,-22 1,-7 14,-2 14,3z"/>
  <rect class="fil5" transform="matrix(0.465954 -0.530148 0.669922 0.497003 1722.71 296.304)" width="30.545" height="30.545" rx="5" ry="5"/>
  <rect class="fil5" transform="matrix(0.465954 -0.530148 0.669922 0.497003 1761.14 293.972)" width="30.545" height="30.545" rx="5" ry="5"/>
  <rect class="fil5" transform="matrix(0.465954 -0.530148 0.669922 0.497003 2125.91 226.341)" width="30.545" height="30.545" rx="5" ry="5"/>
  <path class="fil5" d="M2249 95c0,0 -5,-3 -9,3 -4,6 -14,18 -14,18 0,0 -1,8 4,9 6,1 55,19 59,27 3,8 2,12 -10,16 -12,4 -73,2 -73,2 0,0 -4,1 -6,9 -1,8 -3,15 -3,15 0,0 2,6 10,6 8,0 57,0 76,-8 19,-8 29,-41 13,-59 -17,-18 -47,-39 -47,-38z"/>
 </g>
</svg>
