<svg xmlns="http://www.w3.org/2000/svg" viewBox="0 0 500 516.47"><defs><style>.cls-1{fill:#f5f5f5;}</style></defs><title>Asset 1</title><g id="Layer_2" data-name="Layer 2"><g id="Layer_1-2" data-name="Layer 1"><path class="cls-1" d="M493.58,351.19c-8.67,10.42-20.52,13.73-33.39,13.38-11.52-.32-4.12-11.81-8.84-16.4-.82-.8-1.1-2.21-1.49-3.39-6.33-18.7-12.88-37.34-18.74-56.19a18.15,18.15,0,0,1,1-12.07c10-20.95,4.19-39.15-8.53-56.56-1.59-2.18-3.16-5.3-2.88-7.78,1.35-11.88,7.79-26-13.62-25.73-6.75-12.33-15.13-5.4-24.4-3.36-14.13,3.12-30.62,9-41.53-6.2-9.94-13.91-27.68-25.64-17.92-47.41.93-2.08.69-5,.18-7.38-4-18.26,6.19-30.25,18-41.72a60.28,60.28,0,0,0,7.37-9.59c3.55-5.26,6.53-10.94,10.37-16,4.4-5.75,8.69-10.5-.91-15.75-2.55-1.39-5-6.91-4.25-9.7,2.28-8.78-1.69-11.37-9.11-14Q270-11.45,193.29,8.66C171.25,14.49,147.85,20,140.65,47c-.34,1.3-2.24,2.42-3.65,3.18-14.07,7.63-26.7,16-17.79,38.76-5.23-3.65-7.42-4.37-8.18-5.83C104.23,70,97.75,68.28,84.32,72.74c-15.16,5-21.92,18.07-31,28.9-7,8.26-5.79,16.55,2.38,22,8.5,5.63,14.57,2.4,19.75-5.4,1.95-2.94,5.37-4.91,8.12-7.33l3.13,2.47C84.83,120.66,83,128,80.88,136.46c4.66.27,8.48-.58,10.86.9,3.12,1.93,7.11,5.62,7.24,8.7.82,20.43.52,20.44,19.65,21.4.17,0,.31.55.46.94-15.79,5.09-19.81,3.29-29.19-12-1.89-3.08-4.26-6.79-7.31-8.08-15.71-6.62-31.72-12.54-47.33-18.6C-13.46,207.93-15.13,325.34,52,414c66.25,87.55,181.44,124,287,89.72C413,479.7,499.6,393,500,341,497.45,345.09,495.87,348.44,493.58,351.19Zm-209-100.06c-9.51,11.93-10.84,25.32-11.08,39.6-.21,12-4,21.79-17.82,24.79-7.87,1.72-9.4,7.75-10.78,15.71-1.91,11.06-7.26,21.69-12.35,31.89-1.16,2.31-7.32,2.12-12,3.29,3.2,8.3,7.6,17.78-7.44,18.92,1,6.67-11.85,8.41-5.82,17.79,1.8,2.8-1.91,9.14-.63,13.78.34,6.34-.82,13.26,1.38,18.87,3,7.74,8.59,14.5,13.21,21.92a5.52,5.52,0,0,1-3.82.83c-18.87-4.29-39-23.87-37.09-50.41.36-4.81-5.17-9.79-5.93-15-3.63-24.84-7.44-49.72-9.43-74.73-1.31-16.59-3.84-30.27-20.88-38.79-6.82-3.41-10.6-13.19-15.36-20.34S117.47,245,115.68,237c-2.22-9.89-4.16-23,.53-30.58,8.27-13.28,9.53-24.69,3.23-38,3.28-.81,8.24-.82,9.18-2.77,6.77-13.91,17.55-8.34,28-7.12,17.54,2.06,32.8,7.75,44,22.25,1.39,1.81,5.77,1,8,2.51,5.41,3.68,13.41,7.11,15,12.26,5,16.85,20.24,19,32.45,25.52,8.24,4.38,17.39,7.11,25.5,11.7C289.3,237.19,289.11,245.41,284.55,251.13Z"/></g></g></svg>