<svg xmlns="http://www.w3.org/2000/svg" viewBox="0 0 120.91 118.33" width="65" height="65"><defs><style>.cls-1{fill:#24195d;}.cls-1,.cls-2,.cls-3,.cls-4,.cls-5,.cls-6{fill-rule:evenodd;}.cls-2{fill:#5f2282;}.cls-3{fill:#4bc2f1;}.cls-4{fill:#861c81;}.cls-5{fill:#009ee3;}.cls-6{fill:#7f7d82;}</style></defs><title>Asset 1</title><g id="Layer_2" data-name="Layer 2"><g id="Layer_1-2" data-name="Layer 1"><polygon class="cls-1" points="11.72 46.34 24.74 38.52 24.74 23.17 11.72 30.99 11.72 46.34"/><polygon class="cls-2" points="37.75 46.34 24.74 38.52 24.74 23.17 37.75 30.99 37.75 46.34"/><polygon class="cls-1" points="37.75 46.34 50.76 38.52 50.76 23.17 37.75 30.99 37.75 46.34"/><polygon class="cls-1" points="63.77 0 50.76 7.82 50.76 23.17 63.77 15.35 63.77 0"/><polygon class="cls-3" points="37.75 46.34 50.76 38.52 63.27 46.14 50.26 53.96 37.75 46.34"/><polygon class="cls-1" points="37.75 46.34 37.74 61.34 50.26 68.97 50.26 53.96 37.75 46.34"/><polygon class="cls-4" points="25.13 69.11 37.74 61.34 50.26 68.97 37.65 76.74 25.13 69.11"/><polygon class="cls-4" points="25.13 69.11 12.52 61.34 0 68.97 12.61 76.74 25.13 69.11"/><polygon class="cls-3" points="88.8 46.34 75.79 38.52 63.27 46.14 76.28 53.96 88.8 46.34"/><polygon class="cls-5" points="88.8 46.34 75.79 38.52 75.81 22.96 88.81 30.78 88.8 46.34"/><path class="cls-6" d="M58.08,96.76V84.25H68.51V96.76Zm17.42,0V84.25c.18-1.79.17-7-7-7H51.09V96.76H37.69l-4,7h45a5.44,5.44,0,0,0,4.74-3.4,4.73,4.73,0,0,0,4.52,3.4h32.81v-7H103.49V84.25h13l4.46-7H103.49a6.41,6.41,0,0,0-7,6.28V96.76h-7V64l-7,3.28V96.76h-7Z"/><polygon class="cls-6" points="112.42 108.79 114.13 108.79 116.55 114.39 118.97 108.79 119.2 108.79 120.69 108.79 120.91 108.79 120.91 118.33 119.2 118.33 119.2 112.24 117.49 116.19 117.33 116.19 115.78 116.19 115.61 116.19 114.13 112.75 114.13 118.33 112.42 118.33 112.42 108.79"/><polygon class="cls-6" points="96.34 118.33 96.34 116.61 96.34 114.42 96.34 112.7 96.34 110.5 96.34 108.79 98.05 108.79 102.55 108.79 102.55 110.5 98.05 110.5 98.05 112.7 101.8 112.7 101.8 114.42 98.05 114.42 98.05 116.61 102.55 116.61 102.55 118.33 98.05 118.33 96.34 118.33"/><polygon class="cls-6" points="104.43 118.33 104.43 116.61 104.43 108.79 106.14 108.79 106.14 116.61 110.65 116.61 110.65 118.33 106.14 118.33 104.43 118.33"/></g></g></svg>