<svg xmlns="http://www.w3.org/2000/svg" viewBox="0 0 40.91 32.15" width="18" height="18"><defs><style>.cls-1{isolation:isolate;}.cls-2{fill:#0454a1;}</style></defs><title>Asset 12</title><g id="Layer_2" data-name="Layer 2"><g id="Layer_1-2" data-name="Layer 1"><g class="cls-1"><g class="cls-1"><path class="cls-2" d="M40.91,3.65A6,6,0,0,1,39.79,7.1,10.76,10.76,0,0,1,37,9.91L26.32,17.33l-1,.69q-.74.54-1.23.87c-.33.22-.72.47-1.19.74a6.66,6.66,0,0,1-1.31.62,3.55,3.55,0,0,1-1.14.21h-.05a3.55,3.55,0,0,1-1.14-.21A6.66,6.66,0,0,1,18,19.63c-.47-.27-.86-.52-1.19-.74s-.74-.51-1.23-.87l-1-.69c-1.39-1-3.38-2.36-6-4.17S4.44,10.27,3.93,9.91A11.09,11.09,0,0,1,1.26,7.27,5.33,5.33,0,0,1,0,4.15a4.61,4.61,0,0,1,1-3A3.26,3.26,0,0,1,3.65,0H37.26a3.56,3.56,0,0,1,2.57,1.07A3.52,3.52,0,0,1,40.91,3.65Zm0,6.71V28.49a3.67,3.67,0,0,1-3.65,3.66H3.65a3.52,3.52,0,0,1-2.58-1.08A3.52,3.52,0,0,1,0,28.49V10.36a12,12,0,0,0,2.31,2Q10.58,18,13.65,20.23c.87.64,1.57,1.14,2.11,1.49a12.58,12.58,0,0,0,2.16,1.1,6.66,6.66,0,0,0,2.51.56h.05A6.66,6.66,0,0,0,23,22.82a12.58,12.58,0,0,0,2.16-1.1c.54-.35,1.24-.85,2.11-1.49q3.89-2.81,11.37-7.88A11.89,11.89,0,0,0,40.91,10.36Z"/></g></g></g></g></svg>