<svg xmlns="http://www.w3.org/2000/svg" width="48.857" height="48.858" viewBox="0 0 48.857 48.858">
  <g id="ribbon" transform="translate(-0.004)">
    <g id="Group_230" data-name="Group 230" transform="translate(7.637)">
      <g id="Group_229" data-name="Group 229">
        <path id="Path_175" data-name="Path 175" d="M96.787,0a16.795,16.795,0,1,0,16.795,16.795A16.813,16.813,0,0,0,96.787,0Zm8.828,14.419-2.9,3.634.318,4.748a1.519,1.519,0,0,1-.641,1.347,1.539,1.539,0,0,1-.886.281,1.5,1.5,0,0,1-.6-.122l-4.122-1.75-4.119,1.75A1.527,1.527,0,0,1,90.545,22.8l.318-4.748-2.9-3.634a1.527,1.527,0,0,1,.806-2.431l4.33-1.133,2.376-4a1.583,1.583,0,0,1,2.623,0l2.376,4,4.333,1.133a1.529,1.529,0,0,1,.809,2.431Z" transform="translate(-79.992)" fill="#c19bde"/>
      </g>
    </g>
    <g id="Group_232" data-name="Group 232" transform="translate(0.004 26.698)">
      <g id="Group_231" data-name="Group 231">
        <path id="Path_176" data-name="Path 176" d="M7.255,279.776.207,292.012a1.528,1.528,0,0,0,1.719,2.238l8.965-2.409,2.385,8.965a1.531,1.531,0,0,0,1.273,1.121c.067.006.137.009.2.009a1.527,1.527,0,0,0,1.322-.763l6.666-11.537A19.855,19.855,0,0,1,7.255,279.776Z" transform="translate(-0.004 -279.776)" fill="#c19bde"/>
      </g>
    </g>
    <g id="Group_234" data-name="Group 234" transform="translate(26.123 26.698)">
      <g id="Group_233" data-name="Group 233">
        <path id="Path_177" data-name="Path 177" d="M296.256,292.012,289.2,279.776a19.85,19.85,0,0,1-15.485,9.86l6.666,11.537a1.527,1.527,0,0,0,1.322.763,1.444,1.444,0,0,0,.2-.012,1.535,1.535,0,0,0,1.276-1.121l2.385-8.965,8.965,2.409a1.528,1.528,0,0,0,1.722-2.235Z" transform="translate(-273.72 -279.776)" fill="#c19bde"/>
      </g>
    </g>
  </g>
</svg>
