<svg xmlns="http://www.w3.org/2000/svg" width="28.633" height="28.633" viewBox="0 0 28.633 28.633">
  <path id="finance" d="M14.317,0A14.317,14.317,0,1,0,28.633,14.317,14.317,14.317,0,0,0,14.317,0ZM15.51,20.219v1.256H14.317V20.284a8.258,8.258,0,0,1-3.579-.867l.543-1.961a7.285,7.285,0,0,0,3.848.644c1.371-.31,1.651-1.72.136-2.4-1.111-.518-4.507-.96-4.507-3.869,0-1.626,1.24-3.082,3.56-3.4V7.158H15.51V8.373a11.026,11.026,0,0,1,2.913.5l-.432,1.965a7.636,7.636,0,0,0-2.915-.555c-1.776.1-1.933,1.642-.693,2.286,2.043.96,4.705,1.673,4.705,4.232,0,2.05-1.6,3.14-3.579,3.417Z" fill="#9a9eac"/>
</svg>
