<svg xmlns="http://www.w3.org/2000/svg" width="149.865" height="50" viewBox="0 0 149.865 50">
  <g id="Layer_x0020_1" transform="translate(0.335 0.008)">
    <path id="Path_1478" data-name="Path 1478" d="M48.175,65.688c.241.08.161,0,.321.08.241.161.08.08.241.321.241.321.722.883,1.2.883.482-.08,0-.161.722.482l.482.482c-.08.241-.08.08-.08.321.562.883-.241,0,.4,1.284a4.286,4.286,0,0,0,1.043,1.284c.642.482,2.087,1.926,2.408,2.167,1.043-1.124.8-1.284.8-3.05v-11.8l-.642.642c0,.241.08.161-.161.161a.42.42,0,0,1-.321.642c-.562.321,0-.161-.562.482L51.3,62.478c-.883.8-.642.241-1.043-.08l.4.642a10.449,10.449,0,0,1-1.445,1.2c-.482.4-.963,1.284-1.525.883Zm6.18-6.982c.241-.161.161.08.161-.321a3.476,3.476,0,0,1-.08-.4l.4-.08-.241.4h.562l.562-.482V43.136l6.34,1.284a80.8,80.8,0,0,1-.321,12.44c-.642,6.581-2.889,13.8-7.3,18.379-1.2,1.124-2.087,1.846-3.451,2.969a32.69,32.69,0,0,1-3.933,2.568c-.963.08-6.741-4.815-7.3-5.457a28.072,28.072,0,0,1-4.976-7.945c-2.488-5.939-3.21-15.891-2.729-22.953l6.1-1.124c.08,1.284,0,10.754,0,13.4,0,1.2-.161.8.482,1.525.4-.161.08,0,.241-.161.722-.4.4.241.482.4.08.321,0,.08.241.241.963.8,3.692,2.889,4.013,3.21l-.241.321h.08c.482-.562,4.013,2.889,4.254,2.889.08-.08-.8-.161-.161-.642-.321.321-.161.241-.482.08.161-.482.963-.883,1.445-1.284.4-.321,1.2-1.2,1.605-1.043l.161-.16v-.161c.482-.482,3.13-2.648,3.451-2.568.08.4-1.124,1.043-1.445,1.364-.562.4-1.124.883-1.685,1.364l3.21-2.568.321.321c.08-.161,0-.161-.08-.241-.08-.161-.08.08,0-.161.08-.161.161.08.161.08-.482-.642.08-.08-.482-.241ZM43.68,62.237h0Zm10.835-6.9a3.6,3.6,0,0,0,.08-.883,3.292,3.292,0,0,1,.08-.883c0-1.766-.482-4.173,0-4.655.482.8.241,3.772.161,4.976L54.6,55.255Zm-3.371-.722.562.321-.161.562c-.321-.08-.321-.161-.642-.4Zm-7.464-.4a2.5,2.5,0,0,0,.482.321l.321-.4c.161.08.08,0,.241.241a.617.617,0,0,1,.241.161l-.241.562-.562-.4c-.241.482,0,.241-.321.482l-.482-.562Zm1.766-1.926c-.482-.642,0-.963.321-1.284-.161.321-.321.321-.241.8.321,0,.161.08.4-.161C45.928,52.125,45.847,52.286,45.446,52.286Zm-2.087-1.525c.161-1.124.642-.8,1.525-.8,0,.4-.08.482-.4.722-.161.08-.321.08-.4.161l-.4.161s.08.08.241-.482C43.52,50.6,43.6,50.68,43.359,50.761Zm2.889,2.648c.08-.562,3.21-2.729,3.451-2.809-.08.562-.4.642-.722.963A18.161,18.161,0,0,1,46.249,53.409Zm-4.976-1.525c.722-.161,1.043-1.284,1.766-1.445-.241.642-.963,1.043-1.284,1.766.321.321.963.642.4,1.445-.4.642-.883.562-1.445.241-.08-.883.241-.8.4-1.445-.722-.642-.883-.8-.562-1.284C41.112,51.322,41.032,51.4,41.273,51.884Zm.321-1.926a.617.617,0,0,1,.161-.241l.161-.241a2.724,2.724,0,0,1,.482.482l-.161.482-.562-.4-.241.482a1.44,1.44,0,0,1-.562-.4.3.3,0,0,1,.08-.241c.161-.482,0-.08.161-.241A2.5,2.5,0,0,1,41.594,49.958ZM50.9,49c.241.161.161,0,.562.482l-.241.482a1.44,1.44,0,0,1-.562-.4Zm1.043,4.254L50.1,52.607c.08-.722.722-.883,1.284-1.2.08-.562,0-1.766.642-1.685.963.08.4,1.124.321,1.605,1.766.4.08-1.766.8-2.729.562.241.562,1.846.4,2.568-.241,1.124-1.284.562-2.327.883.4.883,2.408.8,3.29,1.284-.4.722-.642.321-1.605.482-1.846.161-3.371,1.124-5.3,1.124-2.327,0-2.729-.8-3.531-2.408-.963,1.043-.482,1.525-1.766,2.327a3.566,3.566,0,0,1-3.13.482c.883-.4,1.846-.562,2.809-1.043,2.006-.963.722-.8,1.043-2.247.321.08.4.642.8.161.321-.4.08-.642.642-.8.321.963-.161,1.284.8,2.167C46.971,55.175,51.385,53.81,51.947,53.249Zm-6.822-7.464a1.356,1.356,0,0,0-.161.4c-.161.482.08.321.08.321l.241-.08c0-.08,0,0,.08-.08l-.161.642s-.08.08-.4,0a.6.6,0,0,1-.08-.722c0-.08.08-.161.161-.241ZM41.514,45.3l.562.321-.241.562c-.321-.161-.241-.161-.562-.321l-.241.482-.562-.482.241-.482.482.321Zm10.674-.321Zm-4.815-.722c.241-.161.08.4.241.08h.08l-.08-.08c-.241-.482,0-.321.241-.321l-.08.963c-.722,0-.562.883-1.766,1.043.08-.161-.08-.08.161-.241C46.971,45.063,47.212,45.464,47.372,44.26Zm4.575,2.087.08-.08.08-.08h0l.722-.482c1.685-1.124.722-1.605,1.284-2.087.161-.08.08,0,.241-.08.482-.08.08,0,.241.08a6.931,6.931,0,0,1-.08,1.2c-.482.08-.4.08-.722.4A2.625,2.625,0,0,1,51.947,46.347Zm-8.908.161c0-.562.321-.562.8-.883l2.729-2.006c0,.4,0,.321-.241.562A20.685,20.685,0,0,1,43.038,46.507Zm6.581,1.445c.562-.562-1.445-2.087-1.525-2.247-.562-1.043,1.284-1.364,2.006-1.685A10.754,10.754,0,0,1,52.99,42.9c1.364.08-.161,1.846-.722,2.087l.883-1.364c-.642-.321-3.852,1.364-4.334,1.766a13.5,13.5,0,0,1,1.445,1.846c.8,1.043.8.963,2.087.482-.883-.8-1.124-.161-1.846-.4.161-1.043,1.124-.722,1.926-.4.642.241,1.685.4,2.247.642-.321.883-1.364.321-2.488.722-1.2.482-1.284.722-1.926-.4-.321.4,0,.482-.642.8-.963.4-.321.963-2.006,1.766-2.969,1.364-1.2-1.926-1.525-2.408-.562-.4-.883.883-2.327.722-1.2-.161-1.364-1.124-2.087-1.284L40.55,49a1.364,1.364,0,0,1-.241-2.247c-.161.562-.4,1.364.241,1.605.642-.241.482-1.284,1.284-1.364.562-.08.963.722,1.605,1.043,2.006.963,2.167-1.685,3.531-1.525.321.4.562,1.364-.08,1.766-.4.241-.482.08-.642.642-.4,1.284.562,1.846,2.568,0-.562-.08-.963.08-1.043-.562a1.386,1.386,0,0,1,.4-1.043C49.138,47.39,49.058,48.514,49.619,47.952ZM47.131,81.9c1.284-1.043,2.729-1.766,4.013-2.809a19.335,19.335,0,0,0,3.531-3.21c8.106-8.989,8.347-20.064,8.427-32.263a42.771,42.771,0,0,1-12.68-3.692c-5.217-2.568-1.685-2.568-6.982,0a26.639,26.639,0,0,1-3.772,1.605A42.748,42.748,0,0,1,31,43.618c0,9.39.08,15.891,3.21,24a27.905,27.905,0,0,0,5.217,8.427C40.791,77.406,45.446,81.338,47.131,81.9Z" transform="translate(-28.82 -34.957)" fill="#fff" fill-rule="evenodd"/>
    <path id="Path_1479" data-name="Path 1479" d="M18.311,46.943c-1.685-.562-6.34-4.494-7.7-5.859A27.905,27.905,0,0,1,5.39,32.657c-3.13-8.106-3.21-14.607-3.21-24a42.748,42.748,0,0,0,8.668-2.087A26.638,26.638,0,0,0,14.62,4.969c5.3-2.568,1.766-2.568,6.982,0a42.771,42.771,0,0,0,12.68,3.692c-.08,12.2-.321,23.274-8.427,32.263a19.335,19.335,0,0,1-3.531,3.21C21.04,45.177,19.6,45.9,18.311,46.943ZM-.308,9.062c0,9.871.241,18.459,4.414,26.886A27.9,27.9,0,0,0,13.9,47.184a35.374,35.374,0,0,0,4.254,2.809c1.124-.241,7.143-4.815,7.945-5.618a29.9,29.9,0,0,0,5.859-7.7c4.976-9.31,4.735-19.422,4.735-29.855,0-.722-.08-.482-2.327-.8A36.929,36.929,0,0,1,19.515.8c-.963-.562-1.124-1.2-2.006-.482C13.5,3.284,8.279,4.889,3.143,5.852-.87,6.574-.308,5.29-.308,9.062Z" transform="translate(0 0)" fill-rule="evenodd"/>
    <path id="Path_1480" data-name="Path 1480" d="M60.29,125.836c-.482,0-.963-.562-1.2-.883a2.672,2.672,0,0,0-.482-.241c0,.321.161.16-.161.241-.241-.16-.08-.08-.241-.321l-4.173-3.371-.4.482c.08-.482.321-.482.321-.562l.08-.08h.08c.161.321.241.321.482.562l3.692,3.05.241-.161-.482-.562c.562.4,1.043-.482,1.525-.883a10.448,10.448,0,0,0,1.445-1.2l-.4-.642c.4.321.161.883,1.043.08l2.729-2.408c.562-.642,0-.161.562-.482a.42.42,0,0,0,.321-.642c-.161-.08-.08-.08-.241-.241s.161-.08-.16-.08c0,.161-.08-.241,0,.08l.241.562-.321-.321c-.16-.161-.08,0-.08-.241l-.642.562c.562.161,0-.4.482.241,0,0-.08-.241-.16-.08-.08.241-.08,0,0,.161.08.08.16.08.08.241l-.321-.321-3.21,2.568c.562-.482,1.124-.963,1.685-1.364.321-.321,1.525-.963,1.445-1.364-.321-.08-2.969,2.087-3.451,2.568v.161l-.161.161c-.4-.161-1.2.722-1.605,1.043-.482.4-1.284.8-1.445,1.284.321.161.161.241.482-.08-.642.482.241.562.161.642-.241,0-3.772-3.451-4.254-2.889-.241.562.08.161-.241.241l.161-.241.241-.321c-.321-.321-3.05-2.408-4.013-3.21l-.4-.161c.08.321.161.241.241.4l-.241.08v-.241l-.241.161h-.08l.08.321.161.08v.321c.482.161.161-.161.642.241l3.05,2.809c.321-.08.161.241.321-.321.4.642,0-.4.08.161v.08c0,.161-.08.161-.161.241.08,0,.321-.161.161.241l2.568,2.167,1.124.883c.08.08.08,0,.161.16l.08.08c.161-.08.08-.08.08.08l.08.08.161.08c.161,0,.08,0,.08.16l.08.08c.161,0,.08-.08.08.08l.241.241c.161,0,.161-.08.161.08l.562.562-.321.321.161-.482-.4-.241-.08.161.642,1.364c.161,0,.161-.08.08.08l.08.161.241-.08h.08v.241l.321.241.161.241h0v-.08l-.08-.161h-.08l-.161-.161V128h-.161l.161-.482c.08.321,0,.08.161.241h.161l-.482-.562c-.08.4-.08.4-.4.642l.321-.642a.617.617,0,0,1,.161-.241,1.882,1.882,0,0,0,.883.883h-.4c.241.08.161,0,.241.321h0v.4c.4-.241.241-.241.642-.321l-.161.161.08.161.08.161c.562.482.482.562.642,1.364a13.462,13.462,0,0,1,1.605,2.648c.08.241.08.562.161.642h0l.08.08c.08,0,.08-.161.241.08-.08.562-5.217,4.575-6.34,4.9-1.445-.883-5.939-3.933-6.34-4.976h.161a11.006,11.006,0,0,1,1.284-2.648c.642-.883.241-.161.562-1.2.161-.482.562-.883.722-1.284a2.216,2.216,0,0,1-.642-.482l-.241.241a4.006,4.006,0,0,1-1.605,2.006c-.642.4-1.284,1.364-1.846,1.605-.963-.963-.883-1.445-.883-3.05,0-2.889-.161-9.55,0-11.557l.321.161h.241l-.08-.161c-.642-.722-.482-.321-.482-1.525,0-2.648.08-12.119,0-13.4l-6.1,1.124c-.482,7.063.241,17.014,2.729,22.953a28.072,28.072,0,0,0,4.976,7.945c.562.642,6.34,5.538,7.3,5.457a32.691,32.691,0,0,0,3.933-2.568c1.364-1.124,2.247-1.846,3.451-2.969,4.414-4.575,6.661-11.8,7.3-18.379a80.8,80.8,0,0,0,.321-12.44L66.068,102v14.687l-.562.482.08.161h-.08l-.161-.241c-.241.161-.161.241-.4.08.321.482.161.321.482.482l.642-.642v11.8c0,1.766.241,1.926-.8,3.05-.321-.241-1.766-1.685-2.408-2.167a4.286,4.286,0,0,1-1.043-1.284c-.642-1.284.161-.4-.4-1.284l-.321-.161h.08a.079.079,0,0,1,.08-.08l.241-.08-.482-.482a3.348,3.348,0,0,0-.482-.161c.08.8.161.161.562.722-.321-.161-.08,0-.241-.08l-.482-.4c.161.321.161.241.4.482l.4.4c-.482.642-.321.321-.321.722.562-.08,0-.08.241-.161h.08l.161.08a.079.079,0,0,1,.08.08c-.562.321-.321.241-.722-.08l-.161.321-.161-.321c.321-.08.562-.482.722-.722l-2.408-2.006c-.08-.16-.161-.08.08-.241.241.562.4.642.963,1.043l.482.4h.08l-.08-.16A3.477,3.477,0,0,0,60.29,125.836Zm-7.3,1.364-.161.321c.562.241.241,0,.321.321,0,0,.08-.08.08,0l.241-.241c0,.4-.161.241.161.4v-.241l-.321-.722C53.147,127.2,53.307,127.12,52.986,127.2Zm3.13-.963L56.2,126l.161-.08.08-.08.722-.642c-.241-.4-.4-.321-.642-.642-.161.241-.4.241-.642.562a2.164,2.164,0,0,1-.562.642,10.46,10.46,0,0,1-1.605,1.2c.08-.161,0-.08.161-.241.241-.241.08-.08.241-.08,0,0-.08-.241-.161-.16l-.161.241c-.241.241-.08.08-.4.241h.08c.08.321-.08-.08.241.08a.079.079,0,0,0,.08.08c-.241.08-.08-.08-.321.241.883.722.321.8,1.525-.4Zm-2.327-.08-.722.4.08.321c.241,0,.241,0,.562-.321C53.95,126.318,54.11,126.318,53.789,126.157Zm1.605-1.043c-.321.241-.722.8-1.124.722l.161.4c.161-.08.08,0,.161-.08l.722-.562a1.472,1.472,0,0,0,.562-.8ZM43.356,109.063v-4.815l4.254-.883v25.6c-1.043-.883-2.889-6.822-3.29-8.828A55.769,55.769,0,0,1,43.356,109.063Zm23.6-5.7,4.494.883c.161,6.42,0,13.965-2.167,20.064-.4,1.2-1.605,4.414-2.327,4.976Z" transform="translate(-39.169 -93.821)" fill-rule="evenodd"/>
    <path id="Path_1481" data-name="Path 1481" d="M160.952,394.531c-.161,0-.161,0-.08-.161l-.08-.161c-.321.161,0-.08-.161.08l-.321.321c-.321,0-.161,0-.321-.08h0c-.321-.161-.321-.161-.482-.482v-.241h-.08c-.08.08.08.161-.241.08-.161,0-.08,0-.08-.161l-.08-.08-.642-1.364.08-.16v-.161c-.161,0-.161.08-.161-.08l-.241-.241-.08-.08c-.161,0-.161,0-.08-.08l-.08-.161c-.161.08-.161.08-.161-.08-.161,0-.08.08-.08-.08l-.08-.08c-.161,0-.161.08-.08-.08h-.241l-.722.642c0,.16.08.16-.08.08,0,.161,0,.161-.161.08l-.08.241c.161,0,0-.08,0,.16.161.161.241.241,0,.321a3.749,3.749,0,0,1-.4.8c-.161.241-.321.642-.562.482-.161.482-.241.722-.722.8-.482,0-.482-.241-.722-.482-.16.4-.562.8-.722,1.284-.321,1.043.08.321-.562,1.2a11.007,11.007,0,0,0-1.284,2.648H151c.4,1.043,4.9,4.093,6.34,4.976,1.124-.321,6.26-4.334,6.34-4.9-.161-.241-.161-.08-.241-.08l-.08-.08h0c-.08-.08-.08-.4-.16-.642a13.46,13.46,0,0,0-1.605-2.648C161.433,395.093,161.514,395.013,160.952,394.531Z" transform="translate(-139.189 -359.627)" fill="#fff" fill-rule="evenodd"/>
    <path id="Path_1482" data-name="Path 1482" d="M350,144.923c.722-.562,1.926-3.772,2.327-4.976,2.167-6.1,2.327-13.644,2.167-20.064L350,119Z" transform="translate(-322.219 -109.456)" fill="#b22128" fill-rule="evenodd"/>
    <path id="Path_1483" data-name="Path 1483" d="M56,124.7a55.769,55.769,0,0,0,.963,11.075c.4,2.006,2.247,7.945,3.29,8.828V119L56,119.883Z" transform="translate(-51.814 -109.456)" fill="#b22128" fill-rule="evenodd"/>
    <path id="Path_1484" data-name="Path 1484" d="M123.516,301l.241-.4c-.161-.08-.08,0-.241-.161l.161-.321.08-.08c0-.08.08-.08.08-.161v-.08l-.08-.321.722-.4.482-.321c.4.08.8-.482,1.124-.722v-.08l.8-.8c-.08.08,0,0-.08-.08l-2.568-2.167c-.241-.16-.241-.241-.4-.4l-3.05-2.809c-.482-.4-.161-.08-.642-.241v-.321c-.161,0-.161.08-.161-.08l-.08-.321-.4-.562-.321-.161c-.161,2.006,0,8.668,0,11.557,0,1.605-.08,2.087.883,3.05.562-.241,1.2-1.2,1.846-1.605A4.006,4.006,0,0,0,123.516,301Z" transform="translate(-109.86 -266.733)" fill="#fff" fill-rule="evenodd"/>
    <path id="Path_1485" data-name="Path 1485" d="M719.488,204.655a.645.645,0,0,1,.722-.482c.4,0,.482.241.482.642A1.1,1.1,0,0,1,719.488,204.655Zm16.292-4.173a24.019,24.019,0,0,0-2.568.642c-1.043.4-.963.722-1.2,1.846l2.006,2.006a7.379,7.379,0,0,1-3.05-.241V203.13c-.963.321-.722.963-1.043,1.846-.321,0-2.729.08-2.969,0-.562-.161-1.2-1.124-1.605-1.525l-.642,1.043.883,1.124c-.562.4.241.241-1.926,1.605-1.124.8-1.445.321-2.488.08.482-1.605,1.043-3.29-.4-4.414-1.284-.08-2.327,2.568-1.364,3.13,1.043.562,1.364-.4,1.685-.8.4.883-.883,1.766-1.364,2.087-1.525,1.2-2.327.321-2.729.642.8.883,3.451,1.124,3.933-.4.883.241,2.408,1.284,3.451.8,1.364-.642,1.124-1.2,1.926-2.408.321.321,1.364.161,2.006.161,1.846.08.963.161,1.766-.562.642.482.482.642,1.685.642,2.488-.08,1.846.241,2.729-.8l.722.722h3.13a4.926,4.926,0,0,0,.08-2.648c-.161-1.605.241-1.043.722-2.087-.562-.642-1.043-.4-1.525-1.364l-.722,1.284c.321.562.321-.241.642,1.685.4,1.926.8,2.327-1.605,2.006a2.721,2.721,0,0,1-1.124-.722,20.465,20.465,0,0,1-1.846-1.926l2.568-.722Z" transform="translate(-659.765 -183.956)" fill="#221e1f" fill-rule="evenodd"/>
    <path id="Path_1486" data-name="Path 1486" d="M1202.86,204.334a1.478,1.478,0,0,1,1.124-.482,1.088,1.088,0,0,1,.482.883C1203.9,205.056,1203.021,205.056,1202.86,204.334Zm-10.594,1.2c.562.642.4.642,1.605.642.562-.08,1.525,0,2.006-.08,1.364-.4.963-1.124,3.29-.8l.161.8h8.507a5.86,5.86,0,0,0,.16-2.648c-.241-1.525.241-1.124.722-2.087-.642-.642-1.043-.241-1.525-1.364l-.722,1.284a2.4,2.4,0,0,1,.562,1.284c.562,2.648.482,2.408-.482,2.408a12.945,12.945,0,0,1-1.766,0c.562-.8.722-1.525.08-2.247-.8-.16-1.364.482-1.846.8-.8.642-.482.562-1.043,1.445h-1.926l.321-.963a9.887,9.887,0,0,1-3.29-.883,1.7,1.7,0,0,0-2.568,1.124c.963-.241,1.685-.482,2.488.241a1.888,1.888,0,0,1-1.364.482c-2.969,0-2.568.241-2.488-1.846-1.043.482-.642.8-1.043,1.846-2.889.321-2.809.08-4.173-1.525l-.642,1.043c1.2,1.124.722,1.525-.321,2.327-1.766,1.445-1.364.562-2.969.562a3.629,3.629,0,0,0,2.969.963,4.76,4.76,0,0,0,1.846-2.408c.4.4,2.327.161,3.13.161Z" transform="translate(-1089.285 -183.956)" fill="#221e1f" fill-rule="evenodd"/>
    <path id="Path_1487" data-name="Path 1487" d="M1685.648,209.772c.161-.321.161-.4.481-.482a1.427,1.427,0,0,1,.562.642c.16.562,0,.241,0,.321C1686.13,210.414,1685.729,210.254,1685.648,209.772Zm10.273-.883V210.9a5.519,5.519,0,0,0-1.043.482c-.883.482-2.247.241-3.371.241l-.8-.8-.481.8-2.568.08c-.642.963-.642,1.766-1.766,2.247a3.548,3.548,0,0,1-2.889-.963c.481-.241,1.124.4,2.247,0,.722-.321,1.365-.722,1.525-1.284-1.2-.08-2.247-.241-1.766-1.605.4-.883.642-2.006,1.686-2.006.963.562.642,1.605,1.124,2.408h2.488c-.08-.482-.883-.883-1.284-1.284-.562-.642-.883-.482-.562-1.685.241-1.043,2.407-1.284,3.531-1.525l-.161,1.124-2.648.642a21.874,21.874,0,0,0,2.327,2.408c.562.562,3.291.562,4.013,0-1.043-.8-1.284-.562-2.408-.482a1.614,1.614,0,0,1,2.568-.963C1695.761,208.809,1695.841,208.809,1695.921,208.889Z" transform="translate(-1548.237 -189.474)" fill="#221e1f" fill-rule="evenodd"/>
    <path id="Path_1488" data-name="Path 1488" d="M149.329,104.217c.321-.321.562-.08.642.241A1.532,1.532,0,0,1,149.329,104.217Zm-1.284-.642a.79.79,0,0,1-.642-.241C147.724,102.933,147.965,103.414,148.045,103.575Zm2.729.482c-.562.562-.482-.562-1.445-.642a1.386,1.386,0,0,0-.4,1.043c.08.642.482.482,1.043.562-2.006,1.846-2.969,1.284-2.568,0,.161-.562.241-.4.642-.642.642-.4.4-1.364.08-1.766-1.364-.161-1.525,2.488-3.531,1.525-.642-.321-1.043-1.124-1.605-1.043-.8.08-.642,1.124-1.284,1.364-.642-.241-.4-1.043-.241-1.605a1.364,1.364,0,0,0,.241,2.247l1.124-1.525c.722.161.883,1.124,2.087,1.284,1.445.161,1.766-1.124,2.327-.722.321.482-1.445,3.772,1.525,2.408,1.685-.8,1.043-1.364,2.006-1.766.642-.321.321-.4.642-.8.642,1.124.722.883,1.926.4,1.124-.4,2.167.161,2.488-.722-.562-.241-1.605-.4-2.247-.642-.8-.321-1.766-.642-1.926.4.722.241.963-.4,1.846.4-1.284.482-1.284.562-2.087-.482a13.5,13.5,0,0,0-1.445-1.846c.482-.4,3.692-2.087,4.334-1.766l-.883,1.364c.562-.241,2.087-2.006.722-2.087a10.754,10.754,0,0,0-2.889,1.124c-.722.321-2.568.642-2.006,1.685C149.329,101.969,151.336,103.494,150.774,104.056Zm2.568-2.969Z" transform="translate(-129.975 -91.062)" fill-rule="evenodd"/>
    <path id="Path_1489" data-name="Path 1489" d="M586.043,220.889c.8-.642.482.08,1.124-1.124.241.241.08-.08.241.321l.08.963A4.21,4.21,0,0,1,586.043,220.889Zm9.229,1.766c.321-1.685.642-2.408-.562-3.692l-.482,1.043.642,1.525c-.963.08-2.648.241-3.13-.321l.08-1.525c-.963.321-.642.883-.883,1.846l-2.488-.08c-.642-.482-.321-2.729-.8-3.451a2.474,2.474,0,0,0-.562,1.124c-.161.963-1.685.241-2.087,2.889l1.926.321.642-.883c.482,1.605-.241,1.2,3.13,1.2l.321-.562c.562.8.722.642,1.926.562A22.513,22.513,0,0,0,595.273,222.655Z" transform="translate(-538.358 -200.511)" fill="#221e1f" fill-rule="evenodd"/>
    <path id="Path_1490" data-name="Path 1490" d="M1569.445,220.648c.722-.4.562-.722.883-.8l.16,1.284-1.364-.241Zm5.618-.4a.679.679,0,0,1,.562,0,1.576,1.576,0,0,1,.241.8l-1.124-.562Zm-5.778-.4c-.8.482-1.043.963-1.284,2.167l1.926.321.562-.883.482,1.2h2.488l.562-.883,2.247.8c1.124-1.926.722-1.284.16-3.531-1.685,0-2.408,1.284-2.889,2.488l-2.247-.08-.722-3.451c-.161.482-.4.562-.482,1.124C1570.006,219.605,1569.846,219.525,1569.284,219.846Z" transform="translate(-1442.467 -200.511)" fill="#221e1f" fill-rule="evenodd"/>
    <path id="Path_1491" data-name="Path 1491" d="M145.6,171.846c.4.08.482.161.4.642h-.4Zm.562.883c.08-.482.642-1.525-.321-1.605-.642-.08-.562,1.124-.642,1.685-.562.321-1.2.482-1.284,1.2l1.846.642c-.562.562-4.976,1.926-6.661.321-.963-.883-.482-1.2-.8-2.167-.562.161-.321.4-.642.8-.4.482-.482-.08-.8-.161-.321,1.445.963,1.284-1.043,2.247-.963.482-1.926.642-2.809,1.043a3.566,3.566,0,0,0,3.13-.482c1.284-.8.8-1.284,1.766-2.327.8,1.605,1.2,2.408,3.531,2.408,1.926,0,3.451-.963,5.3-1.124.963-.161,1.2.241,1.605-.482-.883-.482-2.889-.4-3.29-1.284,1.043-.321,2.087.241,2.327-.883.161-.722.161-2.327-.4-2.568C146.242,170.963,147.928,173.13,146.162,172.729Z" transform="translate(-122.634 -156.363)" fill-rule="evenodd"/>
    <path id="Path_1492" data-name="Path 1492" d="M1014.21,202.494l.321.642h-.883C1013.648,203.056,1014.21,202.575,1014.21,202.494Zm.161-1.2a7.4,7.4,0,0,0-2.247-2.488c-.321.08.08.08-.321.241-.482.08-.321-.161-.722.08l-.08,1.124c1.846,1.2,1.364.642,1.846.642l1.124,1.2c-1.926,1.685-1.284.642-2.006.642-.321,1.846-.321,1.525,3.21,1.525.241-2.969-.722-1.605,0-2.809.08-.321.161-.321.241-.642.08-.482,0-.482.321-.722a1.836,1.836,0,0,0,.8-1.043c-.722-.562-.8-.321-1.2-1.043C1013.809,199.525,1015.494,200.327,1014.371,201.29Z" transform="translate(-930.169 -182.116)" fill="#221e1f" fill-rule="evenodd"/>
    <path id="Path_1493" data-name="Path 1493" d="M1147.717,231.2c.241.08,1.284.963,1.043,1.2a2.484,2.484,0,0,1-1.525.08A1.477,1.477,0,0,1,1147.717,231.2Zm.321-1.2c-.562.482-3.371,4.013-.4,3.692,1.124-.08,1.525-.642,1.766-1.685C1149.643,230.883,1148.68,230.4,1148.038,230Z" transform="translate(-1054.607 -211.548)" fill="#221e1f" fill-rule="evenodd"/>
    <path id="Path_1494" data-name="Path 1494" d="M1512.537,204c-.321.241-.161.08-.4.482-.562.963-.481.722-.241,2.167a9.7,9.7,0,0,0,.482,3.05,4.805,4.805,0,0,0,.4-2.729C1512.7,205.926,1512.618,204.963,1512.537,204Z" transform="translate(-1390.696 -187.635)" fill="#221e1f" fill-rule="evenodd"/>
    <path id="Path_1495" data-name="Path 1495" d="M1097.083,209.7c.642-2.167.562-1.525.321-4.334,0-.321,0-1.124-.241-1.364-.722,1.364-.8.642-.562,2.648l.241,2.327C1096.923,209.3,1096.923,209.538,1097.083,209.7Z" transform="translate(-1008.789 -187.635)" fill="#221e1f" fill-rule="evenodd"/>
    <path id="Path_1496" data-name="Path 1496" d="M148.835,196.05c-.321-.642.4-1.043.722-.08A.6.6,0,0,1,148.835,196.05Zm.08-1.605c-.241-.482-.161-.562-.722-.722-.321.482-.161.642.562,1.284-.16.642-.482.562-.4,1.445.562.321,1.043.4,1.445-.241.562-.8-.08-1.124-.4-1.445.321-.722,1.043-1.124,1.284-1.766C149.959,193.161,149.638,194.284,148.916,194.445Z" transform="translate(-136.463 -177.518)" fill-rule="evenodd"/>
    <path id="Path_1497" data-name="Path 1497" d="M174,381.371c.161.161.08.08.241.161l-.241.4.241-.241a2.216,2.216,0,0,0,.642.482c.241.241.241.482.722.482.482-.08.562-.321.722-.8l-.161-.4-.241.161c.08,0,.08.16.161.241a4.479,4.479,0,0,1-.4.642l-.241-.08-.241.08c.08-.16,0-.08.241-.16l-.08-.16c-.161.241-.161.16-.241.16-.08-.321,0-.16.161-.482.08.16.08-.16.08.16l.161-.16c-.241-.08-.161,0-.08-.08l.161-.08.08-.08c.241-.241.16-.08.321-.241s0,0,.161-.241a1.229,1.229,0,0,0,.4.562l-.161-.482c-.08-.4,0-.321.241-.562.4.16,0,.08.4.241-.08-.4-.161-.321-.08-.642h.321v.321c.241-.08.16-.161,0-.321,0-.241.16-.16,0-.16l.08-.241c.161.08.161.08.161-.08.16.08.08.08.08-.08l-.08.08-.161.08-.08.241-1.124.722c-1.2,1.2-.642,1.124-1.525.4.241-.321.08-.16.321-.241a.079.079,0,0,1-.08-.08c-.321-.161-.161.241-.241-.08h-.08c.321-.16.161,0,.4-.241l.161-.241c.08-.08.161.161.161.161-.161,0,0-.161-.241.08-.161.16-.08.08-.161.241a10.46,10.46,0,0,0,1.605-1.2,2.164,2.164,0,0,0,.562-.642c.241-.321.482-.321.642-.562.241.321.4.241.642.642h.241c-.08.161-.08.08.08.08l.08.08c0,.16-.08.08.08.08,0,.161,0,.161.161.08l.08.161c-.08.08-.08.08.08.08l.08.08c0-.161.08-.08-.08-.08l-.08-.08c0-.161.08-.161-.08-.161l-.161-.08-.08-.08c0-.161.08-.161-.08-.08l-.08-.08c-.08-.161-.08-.08-.161-.161L177.29,378c.08.08,0,.161.08.08l-.8.8v.08l.482-.321a1.472,1.472,0,0,1-.562.8l-.722.562c-.08.08,0,0-.161.08l-.161-.4-.482.321c.321.161.161.161-.08.4-.321.321-.321.321-.562.321v.08c0,.08-.08.08-.08.161l-.08.08c.321-.08.161,0,.321-.161l.321.722v.241c-.321-.16-.161,0-.161-.4l-.241.241c0-.08-.08,0-.08,0C174.241,381.371,174.562,381.612,174,381.371Z" transform="translate(-160.344 -347.67)" fill="#737272" fill-rule="evenodd"/>
    <path id="Path_1498" data-name="Path 1498" d="M849,209.618a9.407,9.407,0,0,0,.883.4c.562.08.562-.4.883-.321,1.043.161.722.883,1.685-.321a2.3,2.3,0,0,0-.883-.482c-.4-.08-.482.4-.883.321C850.124,209.217,849.8,208.254,849,209.618Z" transform="translate(-781.171 -192.13)" fill="#221e1f" fill-rule="evenodd"/>
    <path id="Path_1499" data-name="Path 1499" d="M185.865,345.217c-.722-.642-.241-.562-.722-.482a3.477,3.477,0,0,1-.08.4l.08.16h-.08l-.482-.4c-.562-.4-.722-.482-.963-1.043-.241.161-.161.08-.08.241l2.408,2.006c-.16.241-.4.642-.722.722l.161.321.161-.321c.4.321.161.4.722.08a.079.079,0,0,0-.08-.08l-.16-.08h-.08c-.241.08.321.08-.241.161,0-.4-.161-.08.321-.722l-.4-.4c-.241-.241-.241-.16-.4-.482l.482.4c.161.08-.08-.08.241.08-.4-.562-.482.08-.562-.722A3.35,3.35,0,0,1,185.865,345.217Zm-.722,1.846c0,.241.08.08-.08.321-.241.241,0,0-.241.161l-.08-.161.08.161v.08c.161.08,0,.08.321.08l.321-.321c.161-.16-.161.08.161-.08l.08.161c-.08.16-.08.16.08.16l-.08-.16-.08-.161.161-.161c-.4.08-.241.08-.642.321Zm-.482.321-.321-.241c.161.321.161.321.482.482Zm-.161-.482.161-.241c-.161-.16-.08.08-.161-.241l-.161.482h.161v0Zm.321-.241.241.321.08.08c-.08-.321,0-.241-.241-.321h.4a1.882,1.882,0,0,1-.883-.883.617.617,0,0,0-.161.241l-.321.642c.321-.241.321-.241.4-.642Zm-.883.161c0,.161-.08.161.08.161.321.08.161,0,.241-.08l-.241.08-.08-.161c.08-.161.08-.08-.08-.08Zm-.642-1.766c0-.16,0-.08-.161-.08,0,.16,0,.08.161.08v.16l-.08.161.08-.161.4.241-.161.482.321-.321Zm1.2,2.167.161.16Zm-.562-3.371c-.161-.241,0-.161-.241-.321-.161-.08-.08,0-.321-.08l-.241.16-3.692-3.05c-.241-.241-.321-.241-.482-.562h-.08l-.08.08c0,.08-.241.08-.321.562l.4-.482,4.173,3.371c.161.241,0,.16.241.321.321-.08.161.08.161-.241A2.672,2.672,0,0,1,183.939,343.852ZM178,340.482c.161.161.161.241.4.4.161-.4-.08-.241-.161-.241.08-.08.161-.08.161-.241v-.08c-.08-.562.321.482-.08-.16C178.161,340.722,178.321,340.4,178,340.482Zm.642-.482h-.08l-.161.241C178.722,340.161,178.4,340.562,178.642,340Zm7.624,6.019c0-.241,0-.08.08-.321l-.241.08a.079.079,0,0,0-.08.08h-.08Z" transform="translate(-164.023 -312.72)" fill="#919091" fill-rule="evenodd"/>
    <path id="Path_1500" data-name="Path 1500" d="M1267.889,289.482l-.883-.482a4.446,4.446,0,0,1-.642.482l-.722-.4c-.4.161-.482.321-.642.8l.883.4.562-.4a4.666,4.666,0,0,0,.883.4Z" transform="translate(-1163.784 -265.813)" fill="#221e1f" fill-rule="evenodd"/>
    <path id="Path_1501" data-name="Path 1501" d="M1149.364,205.969a2.877,2.877,0,0,0-.883-.321c-.241.321-.4.321-.482.722l.8.4.482-.4.883.4a1.139,1.139,0,0,0,.642-.722C1149.846,205.488,1150.167,205.488,1149.364,205.969Z" transform="translate(-1056.174 -189.123)" fill="#221e1f" fill-rule="evenodd"/>
    <path id="Path_1502" data-name="Path 1502" d="M640.247,291.2c.161-.321.4-.321.562-.8l-.883-.4c-.241.161-.321.321-.642.4a2.816,2.816,0,0,1-.642-.4,1.677,1.677,0,0,0-.642.8,7.423,7.423,0,0,1,.8.4,2.544,2.544,0,0,0,.482-.4C639.685,290.883,639.846,291.124,640.247,291.2Z" transform="translate(-587.105 -266.733)" fill="#221e1f" fill-rule="evenodd"/>
    <path id="Path_1503" data-name="Path 1503" d="M323.387,180.42l.08-.08.241-1.364c.08-1.2.321-4.173-.161-4.976-.482.482,0,2.889,0,4.655a3.292,3.292,0,0,0-.08.883A3.6,3.6,0,0,1,323.387,180.42Z" transform="translate(-297.692 -160.042)" fill-rule="evenodd"/>
    <path id="Path_1504" data-name="Path 1504" d="M1565,203.642c.642.642.722.482,1.2.08.562.321,1.043.722,1.445-.241-.241-.161-.562-.321-.8-.482l-.562.4-.8-.4a1.113,1.113,0,0,0-.241.321C1565,203.562,1565.08,203.321,1565,203.642Z" transform="translate(-1439.708 -186.715)" fill="#221e1f" fill-rule="evenodd"/>
    <path id="Path_1505" data-name="Path 1505" d="M581,203.642c.883.722.8.4,1.284.08a2.966,2.966,0,0,0,.883.4,4.018,4.018,0,0,0,.562-.642l-.722-.482-.722.4c-.4-.161-.321-.241-.722-.4A4.02,4.02,0,0,0,581,203.642Z" transform="translate(-534.679 -186.715)" fill="#221e1f" fill-rule="evenodd"/>
    <path id="Path_1506" data-name="Path 1506" d="M181,110.889a20.684,20.684,0,0,0,3.29-2.327c.241-.241.241-.161.241-.562l-2.729,2.006C181.321,110.327,181,110.327,181,110.889Z" transform="translate(-166.782 -99.339)" fill-rule="evenodd"/>
    <path id="Path_1507" data-name="Path 1507" d="M221,197.809a18.16,18.16,0,0,0,2.729-1.846c.321-.321.642-.4.722-.963C224.21,195.08,221.08,197.247,221,197.809Z" transform="translate(-203.572 -179.357)" fill-rule="evenodd"/>
    <path id="Path_1508" data-name="Path 1508" d="M1158.338,245a1.477,1.477,0,0,0-.482,1.284,2.484,2.484,0,0,0,1.525-.08C1159.622,245.963,1158.578,245.08,1158.338,245Z" transform="translate(-1065.228 -225.344)" fill="#fff" fill-rule="evenodd"/>
    <path id="Path_1509" data-name="Path 1509" d="M294.247,107.181c0-.4.08-.161.241-.241C294.408,107.1,294.488,107.1,294.247,107.181ZM292,109.428a2.625,2.625,0,0,0,1.846-1.124c.321-.321.241-.321.722-.4a6.931,6.931,0,0,0,.08-1.2c-.161-.08.241-.161-.241-.08-.16.08-.08,0-.241.08-.562.482.4.963-1.284,2.087l-.722.482h0l-.08.08Z" transform="translate(-268.873 -98.039)" fill-rule="evenodd"/>
    <path id="Path_1510" data-name="Path 1510" d="M1012.4,288.929c.161-.482.562-.241.883-.241l.08-.4c-.8-.241-1.2.241-1.364,1.043l.562.161c-.161.321-.241.08-.321.562.321-.08.482-.321.8-.4.642-.241.562.08.8-.562C1013.284,289.09,1012.722,289.17,1012.4,288.929Z" transform="translate(-931.089 -265.1)" fill="#221e1f" fill-rule="evenodd"/>
    <path id="Path_1511" data-name="Path 1511" d="M685,209.722l.963.562a1.749,1.749,0,0,0,.4-.321.812.812,0,0,0,.321-.562l-1.043-.4Z" transform="translate(-630.333 -192.233)" fill="#221e1f" fill-rule="evenodd"/>
    <path id="Path_1512" data-name="Path 1512" d="M1419,248.482c.161.722,1.043.722,1.605.4a1.088,1.088,0,0,0-.482-.883A1.478,1.478,0,0,0,1419,248.482Z" transform="translate(-1305.425 -228.103)" fill="#fff" fill-rule="evenodd"/>
    <path id="Path_1513" data-name="Path 1513" d="M1333.124,292.2c.161-.321.321-.321.481-.722-.321-.161-.562-.321-.883-.482a1.416,1.416,0,0,0-.722.642A1.294,1.294,0,0,0,1333.124,292.2Z" transform="translate(-1225.407 -267.652)" fill="#221e1f" fill-rule="evenodd"/>
    <path id="Path_1514" data-name="Path 1514" d="M1419,208.642l.722.562a2.276,2.276,0,0,0,.722-.482c-.08-.241,0-.161-.4-.482-.08-.08-.241-.161-.321-.241A1.416,1.416,0,0,0,1419,208.642Z" transform="translate(-1305.425 -191.314)" fill="#221e1f" fill-rule="evenodd"/>
    <path id="Path_1515" data-name="Path 1515" d="M188.2,407.364l-.08.08-.161.08c-.08.08-.161,0,.08.08l-.08-.08.161-.08.08-.08h.241l.241-.161.16.4c.241.161.4-.241.562-.482a3.749,3.749,0,0,0,.4-.8V406h-.321c-.08.321,0,.241.08.642-.4-.161,0-.08-.4-.241-.241.241-.321.16-.241.562l.161.482a1.229,1.229,0,0,1-.4-.562c-.161.241,0,.08-.161.241S188.442,407.124,188.2,407.364Zm-.321.562v-.161c0-.321,0,0-.08-.161-.161.321-.241.161-.161.482C187.719,408.087,187.719,408.167,187.88,407.926Zm.08.241v-.08c-.241.08-.161,0-.241.16Z" transform="translate(-172.859 -373.423)" fill-rule="evenodd"/>
    <path id="Path_1516" data-name="Path 1516" d="M185,187.316c.241-.08.161-.161.562-.241-.161.562-.241.482-.241.482l.4-.161c.08-.08.241-.08.4-.161.321-.241.4-.321.4-.722C185.642,186.514,185.161,186.192,185,187.316Z" transform="translate(-170.461 -171.513)" fill-rule="evenodd"/>
    <path id="Path_1517" data-name="Path 1517" d="M598,241.124a4.209,4.209,0,0,0,1.445.161l-.08-.963c-.16-.4,0-.08-.241-.321C598.482,241.2,598.8,240.482,598,241.124Z" transform="translate(-550.315 -220.746)" fill="#fff" fill-rule="evenodd"/>
    <path id="Path_1518" data-name="Path 1518" d="M154.722,181.482a2.5,2.5,0,0,0-.482-.321c-.161.161,0-.241-.161.241a.3.3,0,0,0-.08.241,1.439,1.439,0,0,0,.562.4l.241-.482.562.4.161-.482a2.725,2.725,0,0,0-.482-.482l-.161.241A.617.617,0,0,0,154.722,181.482Z" transform="translate(-141.949 -166.481)" fill-rule="evenodd"/>
    <path id="Path_1519" data-name="Path 1519" d="M1582,242.043l1.364.241L1583.2,241c-.321.08-.16.4-.883.8Z" transform="translate(-1455.343 -221.665)" fill="#fff" fill-rule="evenodd"/>
    <path id="Path_1520" data-name="Path 1520" d="M149.722,129.4l-.482-.321-.241.482.562.482.241-.482c.321.161.241.161.562.321l.241-.562-.562-.321Z" transform="translate(-137.35 -118.654)" fill-rule="evenodd"/>
    <path id="Path_1521" data-name="Path 1521" d="M185,239.482l.482.562c.321-.241.08,0,.321-.482l.562.4.241-.562a.617.617,0,0,0-.241-.161c-.161-.241-.08-.16-.241-.241l-.321.4a2.5,2.5,0,0,1-.482-.321Z" transform="translate(-170.461 -219.826)" fill-rule="evenodd"/>
    <path id="Path_1522" data-name="Path 1522" d="M1717.043,247.963c0-.08.161.241,0-.321a1.427,1.427,0,0,0-.562-.642c-.321.08-.321.161-.482.482C1716.08,247.963,1716.482,248.124,1717.043,247.963Z" transform="translate(-1578.589 -227.184)" fill="#fff" fill-rule="evenodd"/>
    <path id="Path_1523" data-name="Path 1523" d="M219.364,112.027c-.161,1.2-.4.8-1.2,1.445-.241.161-.08.08-.161.241,1.2-.161,1.043-1.043,1.766-1.043l.08-.963c-.241,0-.482-.161-.241.321l.08.08h-.08C219.445,112.428,219.605,111.866,219.364,112.027Z" transform="translate(-200.812 -102.724)" fill-rule="evenodd"/>
    <path id="Path_1524" data-name="Path 1524" d="M748,252.482a1.1,1.1,0,0,0,1.2.161c0-.4-.08-.642-.482-.642A.645.645,0,0,0,748,252.482Z" transform="translate(-688.277 -231.782)" fill="#fff" fill-rule="evenodd"/>
    <path id="Path_1525" data-name="Path 1525" d="M1652,245.551l1.124.562a1.576,1.576,0,0,0-.241-.8.679.679,0,0,0-.562,0Z" transform="translate(-1519.725 -225.574)" fill="#fff" fill-rule="evenodd"/>
    <path id="Path_1526" data-name="Path 1526" d="M125.124,287.154c-.241-.161-.161.08-.241-.241-.08-.16.241-.8-.482-.4-.161.161.161,0-.241.161l.08.161H124l.4.562h.08l.241-.16v.241l.241-.08c-.08-.16-.16-.08-.241-.4Zm-.482.642-.161-.08C124.482,287.876,124.482,287.8,124.642,287.8Zm-.4-.642c-.08-.161-.08-.161.161-.4a.28.28,0,0,0,.08-.161c.161.321,0,.161.241.4C124.482,287.074,124.482,287.234,124.241,287.154Z" transform="translate(-114.356 -263.405)" fill="#737272" fill-rule="evenodd"/>
    <path id="Path_1527" data-name="Path 1527" d="M157.078,223.492a.6.6,0,0,0,.722-.08C157.48,222.449,156.757,222.85,157.078,223.492Z" transform="translate(-144.706 -204.96)" fill="#fff" fill-rule="evenodd"/>
    <path id="Path_1528" data-name="Path 1528" d="M276,175.562a1.44,1.44,0,0,0,.562.4l.241-.482c-.4-.482-.321-.321-.562-.482Z" transform="translate(-254.157 -160.962)" fill-rule="evenodd"/>
    <path id="Path_1529" data-name="Path 1529" d="M279,245.482c.321.241.321.321.642.4l.16-.562-.562-.321Z" transform="translate(-256.917 -225.344)" fill-rule="evenodd"/>
    <path id="Path_1530" data-name="Path 1530" d="M201.078,136.2c.321.08.4,0,.4,0l.161-.642c-.08.08-.08,0-.08.08l-.241.08s-.241.161-.08-.321a1.356,1.356,0,0,1,.161-.4l-.241.241c-.08.08-.161.161-.161.241A.6.6,0,0,0,201.078,136.2Z" transform="translate(-185.094 -124.172)" fill-rule="evenodd"/>
    <path id="Path_1531" data-name="Path 1531" d="M259,423.241v.321l.161.16h.08l.08.161c.241-.161,0,.08.241-.161.16-.241.08-.08.08-.321h0l-.08-.08-.241-.321h-.16Z" transform="translate(-238.522 -389.059)" fill="#fff" fill-rule="evenodd"/>
    <path id="Path_1532" data-name="Path 1532" d="M191.241,423.08l-.161.08.08.08L191,423.4v.161l.08.16v.08l.241.08a4.477,4.477,0,0,0,.4-.642c-.08-.08-.08-.241-.16-.241h-.241Z" transform="translate(-175.979 -389.059)" fill="#fff" fill-rule="evenodd"/>
    <path id="Path_1533" data-name="Path 1533" d="M208.665,201.284c.4,0,.482-.161.482-.642-.241.241-.08.161-.4.161-.08-.482.08-.482.241-.8C208.665,200.321,208.184,200.642,208.665,201.284Z" transform="translate(-192.039 -183.956)" fill-rule="evenodd"/>
    <path id="Path_1534" data-name="Path 1534" d="M322.332,287.043c.241,0,.161.08.161-.161-.321-.161-.161,0-.482-.482.241.161.161.08.4-.08l.16.241h.08l-.08-.161h-.562l.241-.4-.4.08a3.475,3.475,0,0,0,.08.4c0,.4.08.161-.161.321,0,.241-.08.08.08.241l.321.321-.241-.562c-.08-.321,0,.08,0-.08.321,0,0-.08.16.08S322.171,286.963,322.332,287.043Z" transform="translate(-296.236 -263.054)" fill="#737272" fill-rule="evenodd"/>
    <path id="Path_1535" data-name="Path 1535" d="M1044.562,254c0,.08-.562.562-.562.642h.883Z" transform="translate(-960.521 -233.622)" fill="#fff" fill-rule="evenodd"/>
    <path id="Path_1536" data-name="Path 1536" d="M290,193.642h.4c.08-.482,0-.562-.4-.642Z" transform="translate(-267.034 -177.518)" fill="#fff" fill-rule="evenodd"/>
    <path id="Path_1537" data-name="Path 1537" d="M126.45,289.562c.241.08.241-.08.482-.161-.241-.241-.08-.08-.241-.4a.28.28,0,0,1-.08.161C126.37,289.4,126.37,289.4,126.45,289.562Z" transform="translate(-116.566 -265.813)" fill-rule="evenodd"/>
    <path id="Path_1538" data-name="Path 1538" d="M221,151.214a.79.79,0,0,0,.642.241C221.562,151.294,221.321,150.812,221,151.214Z" transform="translate(-203.572 -138.942)" fill="#fff" fill-rule="evenodd"/>
    <path id="Path_1539" data-name="Path 1539" d="M245.642,162.5c-.08-.321-.321-.562-.642-.241A1.532,1.532,0,0,0,245.642,162.5Z" transform="translate(-225.645 -149.108)" fill="#dfdedf" fill-rule="evenodd"/>
    <path id="Path_1540" data-name="Path 1540" d="M320,111.241c.241-.08.161-.08.241-.241C320.08,111.08,320,110.839,320,111.241Z" transform="translate(-294.626 -102.099)" fill="#dfdedf" fill-rule="evenodd"/>
    <path id="Path_1541" data-name="Path 1541" d="M595.642,386.457H595V381.08h3.852v.321h-3.21v2.568h2.568v.321h-2.568Zm6.34.08a2.4,2.4,0,0,1-1.605-.482,2.055,2.055,0,0,1-.642-1.525V381.08h.642v3.451a1.906,1.906,0,0,0,.241.963,1.876,1.876,0,0,0,.562.562,3.449,3.449,0,0,0,.963.161,1.65,1.65,0,0,0,1.2-.4,1.44,1.44,0,0,0,.4-.562,2.343,2.343,0,0,0,.16-.722V381.08h.321v3.451a2.008,2.008,0,0,1-.241,1.043,2.276,2.276,0,0,1-.8.722A3.22,3.22,0,0,1,601.982,386.538Zm3.932,0a1.193,1.193,0,0,1-.722-.161.822.822,0,0,1-.482-.4l.241-.241a.8.8,0,0,0,.4.321.59.59,0,0,0,.482.161.678.678,0,0,0,.482-.161,1.293,1.293,0,0,0,.321-.562,2.885,2.885,0,0,0,.161-.883V381.08h.642v3.531a1.821,1.821,0,0,1-.241,1.043,1.748,1.748,0,0,1-.562.722A2.343,2.343,0,0,1,605.915,386.538Zm7.223-.08H612.5l-.883-1.926h-2.488l-.883,1.926h-.321l2.408-5.377h.482Zm-1.685-2.247-1.124-2.408-1.043,2.408Zm3.291,2.247H614.1V381.08h.642Zm5.3,0h-.722l-1.525-2.488h-1.525v2.488h-.642V381.08h2.327a1.907,1.907,0,0,1,.963.241,1.248,1.248,0,0,1,.642.482,1.185,1.185,0,0,1-.16,1.605,1.831,1.831,0,0,1-.963.482Zm-2.087-2.809a1.1,1.1,0,0,0,1.124-1.124,1.03,1.03,0,0,0-.321-.8,1.226,1.226,0,0,0-.8-.321h-1.685v2.247Zm8.106,2.809h-.642l-.883-1.926h-2.488l-.883,1.926h-.321l2.408-5.377h.4Zm-1.685-2.247L623.25,381.8l-1.043,2.408Zm7.464,2.247H631.2v-2.488h-3.531v2.488h-.642V381.08h.642v2.568H631.2V381.08h.642Zm7.384,0h-3.933V381.08h3.852v.321h-3.21v2.247h2.889v.321H635.93v2.167h3.291Zm3.05-2.327h-2.087v-.321h2.087Zm3.692,2.408a2.638,2.638,0,0,1-1.364-.321,4.294,4.294,0,0,1-1.043-1.043,2.638,2.638,0,0,1-.321-1.364,2.749,2.749,0,0,1,.321-1.445,3.006,3.006,0,0,1,1.043-.963,2.706,2.706,0,0,1,1.364-.4,4.028,4.028,0,0,1,.963.161,2.881,2.881,0,0,1,.8.562l-.321.321a1.823,1.823,0,0,0-1.445-.722,1.843,1.843,0,0,0-1.124.321,2.514,2.514,0,0,0-.642.883,2.188,2.188,0,0,0-.321,1.284,3.194,3.194,0,0,0,.963,2.087,1.843,1.843,0,0,0,1.124.321,1.823,1.823,0,0,0,1.445-.722v-1.525h-.642v-.321h1.284v1.846l-.16.161c-.08.161-.241.241-.4.4A2.47,2.47,0,0,1,645.962,386.538Zm5.7,0a2.836,2.836,0,0,1-1.364-.321,3.928,3.928,0,0,1-.963-1.043,2.706,2.706,0,0,1-.4-1.364A2.812,2.812,0,0,1,650.3,381.4a2.958,2.958,0,0,1,1.364-.4,2.487,2.487,0,0,1,1.364.4,3.005,3.005,0,0,1,1.043.963,2.748,2.748,0,0,1,.321,1.445,2.638,2.638,0,0,1-.321,1.364,4.292,4.292,0,0,1-1.043,1.043A2.459,2.459,0,0,1,651.661,386.538Zm0-.321a1.842,1.842,0,0,0,1.124-.321,3.192,3.192,0,0,0,.963-2.087,3.083,3.083,0,0,0-.562-1.766,1.864,1.864,0,0,0-1.525-.722,1.613,1.613,0,0,0-1.043.321,1.962,1.962,0,0,0-.722.883,3.326,3.326,0,0,0-.241,1.284,2.679,2.679,0,0,0,.241,1.2,1.93,1.93,0,0,0,1.766,1.2Zm5.618.241h-.4l-2.247-5.377h.642l2.006,4.655,1.926-4.655h.321Zm7.143,0h-4.013V381.08h3.852v.321h-3.21v2.247h2.889v.321h-2.889v2.167h3.371Zm5.3,0H669l-1.525-2.488h-1.525v2.488H665.3V381.08h2.327a2.137,2.137,0,0,1,.963.241,1.248,1.248,0,0,1,.642.482,1.185,1.185,0,0,1-.16,1.605,1.831,1.831,0,0,1-.963.482Zm-2.087-2.809a1.1,1.1,0,0,0,1.124-1.124,1.03,1.03,0,0,0-.321-.8,1.226,1.226,0,0,0-.8-.321h-1.685v2.247Zm7.384,2.809h-.241l-3.932-4.414v4.414h-.321V381.08h.562l3.611,4.173V381.08h.321Zm6.421,0h-.642v-4.494l-2.087,4.494h-.321l-2.087-4.494v4.494h-.321V381.08h.642l2.087,4.575,2.087-4.575h.642Zm4.815,0h-3.932V381.08h3.852v.321h-3.21v2.247h2.889v.321H682.96v2.167h3.29Zm5.457,0h-.321l-3.932-4.414v4.414h-.321V381.08h.562l3.692,4.173V381.08h.321Zm3.451,0h-.642V381.4h-1.926v-.321h4.494v.321h-1.926Z" transform="translate(-547.556 -350.429)" fill="#2b2a29"/>
  </g>
</svg>
