<svg width="145" height="34" xmlns="http://www.w3.org/2000/svg" xmlns:xlink="http://www.w3.org/1999/xlink" viewBox="0 0 167.64 40.45"><defs><style>.cls-1{fill:none;}.cls-2{clip-path:url(#clip-path);}.cls-3,.cls-4{fill:#385cad;}.cls-4{fill-rule:evenodd;}</style><clipPath id="clip-path"><rect class="cls-1" width="41.74" height="40.45"/></clipPath></defs><title>Asset 3</title><g id="Layer_2" data-name="Layer 2"><g id="Layer_1-2" data-name="Layer 1"><g class="cls-2"><path class="cls-3" d="M24.7,14.92c0-2.29,1.55-4.52,2.4-4.09s-.72,2.64-2.4,4.09m-10.56.84c0-1.84,1.82-5.35,2.93-5,1.31.43-1.09,4-2.93,5ZM12.29,29a1.27,1.27,0,0,1-1.39-1.39c0-2.41,3.33-4.7,5.85-5.93C16.3,25,15.16,28.81,12.29,29Zm15.37-7.82a3.2,3.2,0,0,0-3.35,3.07c0,1.4.84,2.51,2,2.51a.72.72,0,0,0,.79-.73c0-.72-1-.9-.89-2a1.36,1.36,0,0,1,1.39-1.19c1.34,0,2,1.3,2,2.64A3.44,3.44,0,0,1,26.15,29c-2.35,0-3.85-2.24-3.85-4.64A5.15,5.15,0,0,1,25.87,19s3.22.57,3.12-.84c0-.62-1-.86-1.64-.88a4.36,4.36,0,0,0-1.49.23,1.79,1.79,0,0,1-.82-1C27.33,14.75,29,13.08,29,11.18a1.84,1.84,0,0,0-2-1.91c-2.29,0-4,2.91-4,5.54a4.81,4.81,0,0,0,.11,1.28A51.47,51.47,0,0,1,18.59,19a9.71,9.71,0,0,1,.22-1.7c.67-.72,1.59-1.81,1.59-2.65a.66.66,0,0,0-.67-.72c-1.12,0-2,1.67-2.18,2.84a3.66,3.66,0,0,1-2.35,1.4,1,1,0,0,1-.95-.84C16.37,16.6,19,13.69,19,11.06a1.69,1.69,0,0,0-1.9-1.79c-2.52,0-4.64,3.75-4.64,6.66-.89,0-1.23-.95-1.23-1.68a11.23,11.23,0,0,1,.28-1.68.45.45,0,0,0-.45-.5c-.83,0-1.34,1.12-1.34,2.4a2.93,2.93,0,0,0,2.8,3,2.55,2.55,0,0,0,2.34,2.07,3.48,3.48,0,0,0,2.24-.78c-.05.39-.11.72-.17,1.06a27.46,27.46,0,0,0-5.87,3.63,5.82,5.82,0,0,0-2,4,3.08,3.08,0,0,0,3.24,3.24c2.57,0,4.53-2.07,5.48-4.92a21.89,21.89,0,0,0,.74-5.08,49.06,49.06,0,0,0,5.13-3.25,2.11,2.11,0,0,0,.56.68,6.94,6.94,0,0,0-4,6.42c0,2.91,2,6.15,5.81,6.15a5.33,5.33,0,0,0,5.37-5.14c0-2.3-1.29-4.41-3.75-4.41Zm9.61,4.79s0,0-.11,0-.06,0,0-.07a15.64,15.64,0,0,0,.67-4.3c0-2.46-1-4-2.29-4A1.3,1.3,0,0,0,34.14,19c0,1.51,1.85,1.62,1.85,4.92a13,13,0,0,1-.73,4c-2.07,7-8.66,10.23-15.09,10.23a16,16,0,0,1-5.69-.89.09.09,0,0,1,0-.11s.06-.07.08-.06a14.06,14.06,0,0,0,4.3.67c2.46,0,3.91-1,3.91-2.24a1.38,1.38,0,0,0-1.39-1.4c-1.51,0-1.62,1.9-4.87,1.9a13.54,13.54,0,0,1-4.07-.72C5.48,33.2,2.17,26.66,2.18,20.17a18.54,18.54,0,0,1,.9-5.7.1.1,0,0,1,.1,0,.08.08,0,0,1,.06.07,14.84,14.84,0,0,0-.67,4.3c0,2.46,1,3.91,2.29,3.91A1.32,1.32,0,0,0,6.2,21.4c0-1.51-1.84-1.67-1.84-4.91a13.26,13.26,0,0,1,.73-4.08C7.21,5.47,13.75,2.23,20.17,2.18a16.85,16.85,0,0,1,5.7.95.08.08,0,0,1,0,.1s-.05.06-.07.06a12.23,12.23,0,0,0-4.31-.72c-2.4,0-3.91,1-3.91,2.29A1.34,1.34,0,0,0,19,6.2c1.51,0,1.62-1.84,4.86-1.84a13.55,13.55,0,0,1,4.08.72c7,2.13,10.17,8.72,10.23,15.09a17.35,17.35,0,0,1-.9,5.75ZM20.17,1A19.23,19.23,0,1,0,39.4,20.17,19.23,19.23,0,0,0,20.17,1Zm0,39.4A20.18,20.18,0,1,1,40.35,20.17,20.17,20.17,0,0,1,20.17,40.35Z"/></g><path class="cls-4" d="M100.71,17.12a1.81,1.81,0,0,0,.43-.63c1.56-2.82,3.09-5.58,4.67-8.48.29-.52.52-1,.9-1.13a1.52,1.52,0,0,1,2.06.74,8,8,0,0,1,.08,2.14V23a6.33,6.33,0,0,1-.12,2.06,1.1,1.1,0,0,1-1.32.11c-.27-.24-.19-1.22-.19-1.9V8.79a2.56,2.56,0,0,0-.39.58c-1.61,2.89-3.14,5.75-4.79,8.72-.36.65-.61,1.35-1.6,1.13-.45-.1-.73-.59-1-1.09-1.75-3.07-3.5-6.38-5.14-9.38V23.19a5.17,5.17,0,0,1-.12,1.91,1.06,1.06,0,0,1-1.32.08c-.27-.29-.2-1.35-.2-2.07V9.64a6.82,6.82,0,0,1,.12-2.1,1.48,1.48,0,0,1,2-.66c.46.18.69.58,1,1.09,1.68,3.08,3.38,6.13,5,9.15Z"/><path class="cls-4" d="M115.24,14.66a7.79,7.79,0,0,0,.08,7.44,4.21,4.21,0,0,0,4,1.79,4.42,4.42,0,0,0,2.46-1.24c1.37-1.39,1.84-4.52,1.05-6.86a4.12,4.12,0,0,0-4.71-2.92,4,4,0,0,0-2.92,1.79Zm2.84-3.42a5.84,5.84,0,0,1,5.45,2.18A8.44,8.44,0,0,1,125,18.25c.08,3.84-1.94,6.84-5.41,7.24a5.88,5.88,0,0,1-6.19-3.23,10,10,0,0,1-.74-5.42,7.55,7.55,0,0,1,.74-2.41,5.75,5.75,0,0,1,3.34-3,6.53,6.53,0,0,1,1.33-.23Z"/><path class="cls-4" d="M130,13.57a5.22,5.22,0,0,1,3.9-2.37c3.19-.25,5.21,1.4,5.41,4.28.07,1.1,0,3.51,0,5V23c0,.56.16,1.93-.2,2.25a1.17,1.17,0,0,1-1.36-.07c-.33-.38-.19-1.43-.19-2.18V20.62c0-1.79.09-3.37,0-4.67-.15-2-1.35-3.36-3.9-3.12A3.92,3.92,0,0,0,130.54,15c-.85,1.74-.55,5-.55,7.6,0,.59.19,2.12-.15,2.53a1.26,1.26,0,0,1-1.29.11c-.51-.34-.31-2.37-.31-3.3V14.7c0-1-.19-2.92.35-3.23a1.12,1.12,0,0,1,1.25.16c.36.43,0,1.28.15,1.94Z"/><path class="cls-4" d="M74.57,9.63c0-.51,0-1.26.16-1.44s1.48-.12,2.06-.12h4.36c.72,0,1.64.09,1.91-.27a1.16,1.16,0,0,0,0-1.17c-.18-.21-.48-.23-.86-.23-2,0-3.73,0-5.52,0a18.27,18.27,0,0,0-2.22,0c-1.29.15-1.6,1.08-1.6,2.53v10.9c0,1.31-.17,3.46.19,4.17.49.93,1.69.81,3.16.81h4.67c.73,0,1.8.14,2.14-.19a1.13,1.13,0,0,0,0-1.29c-.27-.29-1.31-.19-2-.19H76.71A6.64,6.64,0,0,1,74.65,23a28,28,0,0,1-.08-3.46c0-1.19,0-2.4,0-3.51h5.72c.6,0,1.48.09,1.76-.19A1.11,1.11,0,0,0,82,14.53c-.31-.24-1.17-.15-1.75-.15-1.92,0-4.06,0-5.69,0V9.63Zm-8.06,10a9.41,9.41,0,0,1-.08,2.68c-.19.39-1.14.64-1.59.78a9,9,0,0,1-2.07.35,6.1,6.1,0,0,1-6.3-3.27,9,9,0,0,1-1-3.85c-.21-4.69,2-8,6-8.49a7.35,7.35,0,0,1,4.79,1.13c.26.16.48.39.86.35a.87.87,0,0,0,.77-.94c0-.53-.61-.8-1-1a9,9,0,0,0-5.14-1.17A8.24,8.24,0,0,0,55,10.33a12.49,12.49,0,0,0-.74,9,7.54,7.54,0,0,0,5.41,5.37,11.72,11.72,0,0,0,4.87.08,10.19,10.19,0,0,0,2-.66,2.56,2.56,0,0,0,1.52-1.21,4.43,4.43,0,0,0,.19-1.87V17.14c0-.58.08-1.51-.19-1.79s-.92-.19-1.48-.19H64.88c-.84,0-2.79-.2-3.2.19a1,1,0,0,0-.07,1.21c.21.3.61.27,1.13.27h3.77V19.6Z"/><path class="cls-3" d="M56.88,40.45a4.37,4.37,0,0,1-1.22-.15,1.85,1.85,0,0,1-.79-.45,1.89,1.89,0,0,1-.45-.77,4.28,4.28,0,0,1-.15-1.2V34.76a.62.62,0,0,1,.13-.45.36.36,0,0,1,.31-.13.39.39,0,0,1,.32.13.67.67,0,0,1,.12.45V38a3.35,3.35,0,0,0,.13,1,1.32,1.32,0,0,0,.52.68,1.79,1.79,0,0,0,1,.24,1.48,1.48,0,0,0,1.25-.5A2.13,2.13,0,0,0,58.41,38V34.76a.67.67,0,0,1,.12-.45.39.39,0,0,1,.31-.13.39.39,0,0,1,.32.13.62.62,0,0,1,.13.45v3.12a4.57,4.57,0,0,1-.14,1.21,1.86,1.86,0,0,1-.5.79,2,2,0,0,1-.74.43,3.56,3.56,0,0,1-1,.14Z"/><path class="cls-3" d="M65.65,40.45a.61.61,0,0,1-.24,0,.44.44,0,0,1-.19-.12,1,1,0,0,1-.2-.22l-.22-.3L62.35,36l-.4-.61v4.52a.66.66,0,0,1-.11.42.38.38,0,0,1-.29.12.35.35,0,0,1-.28-.12.62.62,0,0,1-.12-.42v-5a1.26,1.26,0,0,1,.06-.42.53.53,0,0,1,.19-.23.59.59,0,0,1,.31-.09.44.44,0,0,1,.21,0,.57.57,0,0,1,.16.11,1.54,1.54,0,0,1,.17.22l.15.23.05.09L65,38.69l.39.6V34.72a.64.64,0,0,1,.11-.42.33.33,0,0,1,.27-.12.36.36,0,0,1,.28.11.63.63,0,0,1,.12.43v5.09c0,.56-.25.64-.5.64Z"/><path class="cls-3" d="M68.5,40.45a.39.39,0,0,1-.31-.13.69.69,0,0,1-.12-.45V34.76a.67.67,0,0,1,.12-.45.39.39,0,0,1,.31-.13.39.39,0,0,1,.32.13.62.62,0,0,1,.13.45v5.11a.67.67,0,0,1-.13.45.39.39,0,0,1-.32.13Z"/><path class="cls-3" d="M72.75,40.45a.39.39,0,0,1-.31-.13.64.64,0,0,1-.13-.45V34.94H70.66a.54.54,0,0,1-.35-.09.3.3,0,0,1-.09-.23.26.26,0,0,1,.09-.23.5.5,0,0,1,.35-.1h4.18a.57.57,0,0,1,.35.09.31.31,0,0,1,.1.24.3.3,0,0,1-.09.23.6.6,0,0,1-.36.09H73.19v4.93a.67.67,0,0,1-.12.45.39.39,0,0,1-.32.13Z"/><path class="cls-3" d="M80.65,40.34H77.09a.66.66,0,0,1-.46-.13.62.62,0,0,1-.13-.46V34.88a.92.92,0,0,1,.06-.37.33.33,0,0,1,.16-.15.76.76,0,0,1,.37-.07h3.46a.45.45,0,0,1,.32.09.24.24,0,0,1,.09.2.28.28,0,0,1-.08.21.57.57,0,0,1-.33.08H77.38v2h2.94a.45.45,0,0,1,.3.08.29.29,0,0,1,0,.4.45.45,0,0,1-.3.08H77.38v2.28h3.27a.57.57,0,0,1,.33.08.34.34,0,0,1,.08.23.25.25,0,0,1-.08.21.48.48,0,0,1-.33.09Z"/><path class="cls-3" d="M83.43,34.9v4.83h1.21l.53,0a2.23,2.23,0,0,0,.43-.1,1.32,1.32,0,0,0,.42-.24,2.59,2.59,0,0,0,.73-2.08,3,3,0,0,0-.32-1.55,1.5,1.5,0,0,0-.83-.7,3.9,3.9,0,0,0-1.09-.14H83.43Zm1.44,5.44H83.16a.8.8,0,0,1-.43-.08.28.28,0,0,1-.14-.18,1.82,1.82,0,0,1,0-.45V34.88a.67.67,0,0,1,.12-.46.68.68,0,0,1,.47-.13h1.7a4.16,4.16,0,0,1,1.09.12,1.75,1.75,0,0,1,.78.42,3.06,3.06,0,0,1,.94,2.47,4.64,4.64,0,0,1-.1,1,2.77,2.77,0,0,1-.29.81,2.48,2.48,0,0,1-.5.63,1.89,1.89,0,0,1-.51.34,2.15,2.15,0,0,1-.61.18,4.46,4.46,0,0,1-.77.06Z"/><path class="cls-3" d="M94.73,40.45a2.88,2.88,0,0,1-1.47-.33,2,2,0,0,1-.65-.63,1.37,1.37,0,0,1-.24-.73.35.35,0,0,1,.1-.26.36.36,0,0,1,.27-.1.27.27,0,0,1,.2.07.8.8,0,0,1,.19.32,3.15,3.15,0,0,0,.3.56,1.38,1.38,0,0,0,.48.41,2,2,0,0,0,1.86-.16,1,1,0,0,0,.45-.85.88.88,0,0,0-.26-.67,1.31,1.31,0,0,0-.59-.36c-.21-.08-.5-.15-.85-.24a5.38,5.38,0,0,1-1.13-.36,1.67,1.67,0,0,1-.66-.53,1.32,1.32,0,0,1-.24-.81,1.41,1.41,0,0,1,.26-.83,1.59,1.59,0,0,1,.74-.56,3.25,3.25,0,0,1,1.22-.21,3,3,0,0,1,1,.14,2.16,2.16,0,0,1,.66.35,1.42,1.42,0,0,1,.36.45,1,1,0,0,1,.11.43.4.4,0,0,1-.11.28.31.31,0,0,1-.25.11.29.29,0,0,1-.19,0,1.52,1.52,0,0,1-.22-.32,1.83,1.83,0,0,0-.47-.63,1.46,1.46,0,0,0-.94-.26,1.54,1.54,0,0,0-.94.27.83.83,0,0,0-.41.71.81.81,0,0,0,.15.46,1.12,1.12,0,0,0,.37.31,1.48,1.48,0,0,0,.42.17l.63.18a8.87,8.87,0,0,1,1,.27,2.69,2.69,0,0,1,.7.35,1.28,1.28,0,0,1,.42.48,1.46,1.46,0,0,1,.15.73,1.69,1.69,0,0,1-.26.94,1.8,1.8,0,0,1-.8.65,3,3,0,0,1-1.29.25Z"/><path class="cls-3" d="M100.54,40.45a.41.41,0,0,1-.32-.13.7.7,0,0,1-.12-.46V34.94H98.45a.56.56,0,0,1-.36-.09.3.3,0,0,1-.09-.23.24.24,0,0,1,.1-.23.49.49,0,0,1,.35-.1h4.17a.5.5,0,0,1,.36.1.31.31,0,0,1,0,.46.56.56,0,0,1-.36.09H101v4.92a.69.69,0,0,1-.12.46.39.39,0,0,1-.31.13Z"/><path class="cls-3" d="M106.42,34.71l-.2.57-1,2.67-.1.29h2.55L107.6,38l-1-2.68-.2-.56Zm2.4,5.74a.31.31,0,0,1-.17,0,.31.31,0,0,1-.11-.09.87.87,0,0,1-.13-.24l-.15-.34-.31-.81,0-.14H105l-.06.14-.3.83a2.88,2.88,0,0,1-.28.6.29.29,0,0,1-.25.09.42.42,0,0,1-.29-.12.35.35,0,0,1-.12-.26.82.82,0,0,1,0-.21l.14-.38,1.66-4.2.07-.19.1-.25a2.68,2.68,0,0,1,.19-.38.7.7,0,0,1,.22-.2.75.75,0,0,1,.35-.08.72.72,0,0,1,.35.08.74.74,0,0,1,.23.2,1.82,1.82,0,0,1,.16.31l.2.5,1.69,4.18a2.15,2.15,0,0,1,.19.61.35.35,0,0,1-.13.26.38.38,0,0,1-.3.13Z"/><path class="cls-3" d="M112.17,40.45a.39.39,0,0,1-.31-.13.65.65,0,0,1-.13-.46V34.94h-1.65a.51.51,0,0,1-.35-.09.27.27,0,0,1-.09-.23.29.29,0,0,1,.09-.23.49.49,0,0,1,.35-.1h4.17a.5.5,0,0,1,.36.1.31.31,0,0,1,0,.46.56.56,0,0,1-.36.09h-1.64v4.92a.68.68,0,0,1-.13.46.39.39,0,0,1-.31.13Z"/><path class="cls-3" d="M119.94,40.34h-3.56a.68.68,0,0,1-.47-.13.67.67,0,0,1-.12-.46V34.88a1,1,0,0,1,.06-.37.26.26,0,0,1,.16-.15.76.76,0,0,1,.37-.07h3.46a.45.45,0,0,1,.32.09.22.22,0,0,1,.08.2.28.28,0,0,1-.08.21.51.51,0,0,1-.32.08h-3.17v2h2.93a.49.49,0,0,1,.31.07.26.26,0,0,1,.07.2.25.25,0,0,1-.07.2.43.43,0,0,1-.31.08h-2.93v2.28h3.27a.45.45,0,0,1,.32.09.27.27,0,0,1,.09.22.26.26,0,0,1-.09.21.45.45,0,0,1-.32.09Z"/><path class="cls-3" d="M123.25,40.45a3,3,0,0,1-1.47-.33,1.93,1.93,0,0,1-.64-.63,1.33,1.33,0,0,1-.25-.73.38.38,0,0,1,.11-.26.36.36,0,0,1,.27-.1.29.29,0,0,1,.2.07.91.91,0,0,1,.19.31,3,3,0,0,0,.29.57,1.33,1.33,0,0,0,.49.41,1.74,1.74,0,0,0,.78.16,1.77,1.77,0,0,0,1.08-.32,1,1,0,0,0,.45-.85.92.92,0,0,0-.26-.67,1.47,1.47,0,0,0-.59-.36c-.22-.08-.5-.15-.86-.24a5.68,5.68,0,0,1-1.12-.36,1.7,1.7,0,0,1-.67-.53,1.52,1.52,0,0,1,0-1.64,1.69,1.69,0,0,1,.75-.56,3.21,3.21,0,0,1,1.22-.21,3,3,0,0,1,1,.14,1.9,1.9,0,0,1,.65.35,1.63,1.63,0,0,1,.37.45,1,1,0,0,1,.11.43.41.41,0,0,1-.12.28.28.28,0,0,1-.25.11.31.31,0,0,1-.19,0,1.48,1.48,0,0,1-.21-.31,1.79,1.79,0,0,0-.48-.64,1.43,1.43,0,0,0-.93-.26,1.61,1.61,0,0,0-.94.26.86.86,0,0,0-.41.72.75.75,0,0,0,.15.46,1.23,1.23,0,0,0,.36.31,1.85,1.85,0,0,0,.42.17l.64.17c.36.09.68.18,1,.28a2.86,2.86,0,0,1,.7.35,1.3,1.3,0,0,1,.42.48,1.58,1.58,0,0,1,.15.73,1.69,1.69,0,0,1-.27.94,1.77,1.77,0,0,1-.79.65,3,3,0,0,1-1.3.25Z"/><path class="cls-4" d="M144.12,16.84a5,5,0,0,1,1.52-3.5,4.09,4.09,0,0,1,2.22-1c3-.29,4.28,1.67,4.39,4.48Zm4.94-6.11a5.81,5.81,0,0,0-6,3.5,9,9,0,0,0-.74,3.35c-.11,4,1.58,6.71,4.9,7.36a8.08,8.08,0,0,0,5.1-.78c.3-.17,1-.54,1-1.05a.89.89,0,0,0-.7-.86,1.33,1.33,0,0,0-.82.28,6.33,6.33,0,0,1-2.61.89,4.4,4.4,0,0,1-4.05-1.6A5.42,5.42,0,0,1,144,18.44h7a7.26,7.26,0,0,0,2.26-.08c.82-.35.77-1.41.66-2.49-.31-2.89-2-4.95-4.87-5.14Zm18.53.58a1.09,1.09,0,0,0-1.36-.39c-.34.19-.42,1-.54,1.52a41.92,41.92,0,0,1-1.56,4.71,41.26,41.26,0,0,1-2.69,5.65,48.39,48.39,0,0,1-3.62-10.28c-.19-.85-.11-1.82-1.2-1.67s-.69,1.43-.47,2.37c.16.67.34,1.33.47,1.75a38.66,38.66,0,0,0,3.89,9.35c-.6.87-1.16,1.67-1.87,2.53a6.73,6.73,0,0,1-2.34,2.06c-.31.14-1,.23-1.12.51a.89.89,0,0,0,.38,1.13,3,3,0,0,0,2.07-.47,9.09,9.09,0,0,0,1.87-1.71,24.82,24.82,0,0,0,1.59-2,32.11,32.11,0,0,0,2.69-4.52,53.59,53.59,0,0,0,3.62-9,3.22,3.22,0,0,0,.19-1.56Z"/></g></g></svg>