<svg width="65" height="65" xmlns="http://www.w3.org/2000/svg" xmlns:xlink="http://www.w3.org/1999/xlink" viewBox="0 0 34.9 34.9"><defs><style>.cls-1{fill:none;}.cls-2{clip-path:url(#clip-path);}.cls-3{fill:#385cad;}</style><clipPath id="clip-path"><rect class="cls-1" width="36.11" height="34.99"/></clipPath></defs><title>Asset 4</title><g id="Layer_2" data-name="Layer 2"><g id="Layer_1-2" data-name="Layer 1"><g class="cls-2"><path class="cls-3" d="M21.37,12.91c0-2,1.34-3.91,2.07-3.55s-.62,2.29-2.07,3.55m-9.14.72C12.23,12,13.8,9,14.77,9.32c1.13.38-.95,3.44-2.54,4.31ZM10.63,25a1.09,1.09,0,0,1-1.2-1.2c0-2.08,2.88-4.07,5.05-5.13-.38,2.9-1.36,6.21-3.85,6.33Zm13.3-6.77A2.77,2.77,0,0,0,21,20.93c0,1.21.72,2.18,1.69,2.18a.62.62,0,0,0,.67-.63c0-.63-.83-.79-.76-1.73a1.18,1.18,0,0,1,1.2-1c1.16,0,1.7,1.12,1.7,2.28a3,3,0,0,1-2.91,3c-2,0-3.33-1.93-3.33-4a4.46,4.46,0,0,1,3.09-4.6s2.78.5,2.69-.72c0-.54-.83-.74-1.41-.77a4.07,4.07,0,0,0-1.29.21,1.58,1.58,0,0,1-.72-.89c2-1.5,3.39-2.95,3.39-4.59A1.59,1.59,0,0,0,23.35,8c-2,0-3.48,2.52-3.48,4.79A4.42,4.42,0,0,0,20,13.92a45.73,45.73,0,0,1-3.88,2.51A9,9,0,0,1,16.27,15a4.44,4.44,0,0,0,1.37-2.3.57.57,0,0,0-.58-.62c-1,0-1.69,1.44-1.88,2.46a3.22,3.22,0,0,1-2,1.21.86.86,0,0,1-.82-.73c1.83-.62,4.11-3.14,4.11-5.41A1.48,1.48,0,0,0,14.79,8c-2.18,0-4,3.24-4,5.76-.77,0-1.06-.83-1.06-1.45A10,10,0,0,1,10,10.87a.39.39,0,0,0-.39-.43c-.72,0-1.16,1-1.16,2.08a2.53,2.53,0,0,0,2.42,2.61,2.2,2.2,0,0,0,2,1.79,3,3,0,0,0,1.93-.68c0,.34-.1.63-.14.92A23.62,23.62,0,0,0,9.57,20.3a5,5,0,0,0-1.74,3.43,2.66,2.66,0,0,0,2.8,2.81c2.23,0,3.92-1.79,4.74-4.26A19.2,19.2,0,0,0,16,17.89a46,46,0,0,0,4.44-2.81,1.86,1.86,0,0,0,.48.58,6,6,0,0,0-3.43,5.56,5.07,5.07,0,0,0,5,5.32,4.61,4.61,0,0,0,4.65-4.45c0-2-1.11-3.82-3.24-3.82Zm8.31,4.15s0,0-.09,0-.06,0,0-.06a13.35,13.35,0,0,0,.57-3.72c0-2.13-.86-3.43-2-3.43a1.13,1.13,0,0,0-1.16,1.2c0,1.31,1.6,1.41,1.6,4.26a11.19,11.19,0,0,1-.63,3.48c-1.79,6-7.49,8.84-13,8.84a13.74,13.74,0,0,1-4.93-.77.07.07,0,0,1,0-.09s.05-.06.07,0a12,12,0,0,0,3.72.58c2.13,0,3.38-.87,3.38-1.94a1.2,1.2,0,0,0-1.21-1.21c-1.3,0-1.4,1.65-4.2,1.65a11.79,11.79,0,0,1-3.53-.63c-6-1.84-8.85-7.49-8.85-13.1a16.63,16.63,0,0,1,.78-4.93.09.09,0,0,1,.09,0s.06.05,0,.06a12.77,12.77,0,0,0-.58,3.72c0,2.13.87,3.38,2,3.38a1.15,1.15,0,0,0,1.16-1.16c0-1.3-1.6-1.45-1.6-4.25a11.49,11.49,0,0,1,.63-3.53c1.84-6,7.49-8.8,13.05-8.84a15,15,0,0,1,4.93.81.09.09,0,0,1,0,.09.07.07,0,0,1-.07,0,10.84,10.84,0,0,0-3.72-.62c-2.08,0-3.38.87-3.38,2a1.16,1.16,0,0,0,1.21,1.16c1.3,0,1.4-1.6,4.2-1.6a11.49,11.49,0,0,1,3.53.63c6,1.83,8.79,7.54,8.84,13.05a15,15,0,0,1-.77,5ZM17.45.82A16.63,16.63,0,1,0,34.08,17.45,16.64,16.64,0,0,0,17.45.82Zm0,34.08A17.45,17.45,0,1,1,34.9,17.45,17.44,17.44,0,0,1,17.45,34.9Z"/></g></g></g></svg>