<svg xmlns="http://www.w3.org/2000/svg" width="50" height="50" viewBox="0 0 51.001 51.001">
  <path id="goal" d="M47.256,12.2l2.474-2.473A1.494,1.494,0,0,0,48.8,7.178L44.21,6.791,43.822,2.2a1.494,1.494,0,0,0-2.545-.931L38.8,3.745A25.5,25.5,0,0,0,7.468,43.533,25.5,25.5,0,0,0,47.256,12.2ZM41.338,8.3A1.5,1.5,0,0,0,42.7,9.663l2.64.223-3.574,3.574-3.9-.329-.329-3.9,3.574-3.574ZM30.58,25.5a5.085,5.085,0,1,1-2.7-4.489l-3.432,3.432a1.494,1.494,0,1,0,2.113,2.113l3.432-3.432A5.046,5.046,0,0,1,30.58,25.5Zm-.533-6.661a8.077,8.077,0,1,0,2.113,2.113l4.266-4.266a14.062,14.062,0,1,1-2.113-2.113ZM41.418,41.419A22.512,22.512,0,1,1,9.581,9.583,22.522,22.522,0,0,1,36.623,5.925L34.938,7.61A1.494,1.494,0,0,0,34.5,8.629c0,.054,0,.109,0,.164l.2,2.384a17.047,17.047,0,1,0,5.118,5.118l2.384.2c.042,0,.084.005.126.005h.021l.059,0c.032,0,.065,0,.1-.008l.06-.009c.032-.005.063-.011.094-.018l.059-.015c.03-.008.06-.018.09-.028l.058-.021c.029-.011.058-.024.087-.037l.055-.026c.029-.015.057-.031.084-.047l.05-.03c.03-.019.058-.04.086-.062l.04-.03a1.48,1.48,0,0,0,.117-.1l1.685-1.685a22.522,22.522,0,0,1-3.658,27.042Zm0,0" transform="translate(0.001 -0.001)" fill="#ff5f3b"/>
</svg>
