<svg id="google-icon" xmlns="http://www.w3.org/2000/svg" width="27.173" height="27.728" viewBox="0 0 27.173 27.728">
  <path id="Path_155" data-name="Path 155" d="M143.859,109.6a11.881,11.881,0,0,0-.293-2.834H130.55v5.145h7.641a6.775,6.775,0,0,1-2.834,4.5l-.026.172,4.116,3.188.285.028a13.555,13.555,0,0,0,4.128-10.2" transform="translate(-116.686 -95.423)" fill="#4285f4"/>
  <path id="Path_156" data-name="Path 156" d="M26.31,167.492a13.214,13.214,0,0,0,9.181-3.358l-4.375-3.389a8.205,8.205,0,0,1-4.806,1.386,8.346,8.346,0,0,1-7.887-5.761l-.163.014-4.28,3.312-.056.156a13.854,13.854,0,0,0,12.385,7.641" transform="translate(-12.446 -139.764)" fill="#34a853"/>
  <path id="Path_157" data-name="Path 157" d="M5.977,80.345A8.535,8.535,0,0,1,5.515,77.6a8.969,8.969,0,0,1,.447-2.742l-.008-.184L1.621,71.312l-.142.067a13.835,13.835,0,0,0,0,12.447l4.5-3.481" transform="translate(0 -63.739)" fill="#fbbc05"/>
  <path id="Path_158" data-name="Path 158" d="M26.31,5.361a7.684,7.684,0,0,1,5.361,2.064L35.584,3.6A13.32,13.32,0,0,0,26.31,0,13.854,13.854,0,0,0,13.925,7.641l4.483,3.481a8.38,8.38,0,0,1,7.9-5.761" transform="translate(-12.446)" fill="#eb4335"/>
</svg>
