<svg xmlns="http://www.w3.org/2000/svg" width="29" height="30" viewBox="0 0 29 30">
  <g id="graphic-design" transform="translate(-14.983 0)">
    <path id="Path_534" data-name="Path 534" d="M34.234,134.186a5.245,5.245,0,0,1-1.483,3.065,5.378,5.378,0,0,1-4.223,1.435,3.439,3.439,0,0,0-1.925.34,2.092,2.092,0,0,1-2.872-.1,2.144,2.144,0,0,1-.328-2.568l.336-.536a4.158,4.158,0,0,0,.233-1.728,5.47,5.47,0,0,1,1.424-4.255,5.148,5.148,0,0,1,3.05-1.5,4.97,4.97,0,0,1,1.025-2.147H17.391a2.419,2.419,0,0,0-2.407,2.424v12.024H40.1V128.706l-3.051,3.767A4.912,4.912,0,0,1,34.234,134.186Z" transform="translate(-0.001 -119.018)" fill="#708da1"/>
    <path id="Path_535" data-name="Path 535" d="M14.983,395.6a2.418,2.418,0,0,0,2.407,2.424h6.841V400.1H22.715a.908.908,0,0,0,0,1.816h9.647a.908.908,0,0,0,0-1.816H30.846v-2.079h6.841a2.418,2.418,0,0,0,2.407-2.424v-.775H14.983v.775Z" transform="translate(0 -371.922)" fill="#708da1"/>
    <path id="Path_536" data-name="Path 536" d="M180.731,197.774h0a.3.3,0,0,0,.43.426,4.509,4.509,0,0,1,3.195-.775,3.721,3.721,0,0,0,2.9-.9,3.423,3.423,0,1,0-4.841-4.841,3.721,3.721,0,0,0-.9,2.9,4.5,4.5,0,0,1-.773,3.193Z" transform="translate(-155.716 -179.63)" fill="#708da1"/>
    <path id="Path_537" data-name="Path 537" d="M273.708,125.344a3.13,3.13,0,0,0,1.523-1.015l1.16-1.422-4.134-4.134-1.416,1.157a3.126,3.126,0,0,0-1.018,1.522,5.238,5.238,0,0,1,3.884,3.892Z" transform="translate(-239.538 -111.876)" fill="#708da1"/>
    <path id="Path_538" data-name="Path 538" d="M342.738.545A1.851,1.851,0,0,0,340.252.42l-6.876,5.616,3.874,3.874,5.613-6.879a1.851,1.851,0,0,0-.125-2.486Z" transform="translate(-299.301 0)" fill="#708da1"/>
  </g>
</svg>
