<svg xmlns="http://www.w3.org/2000/svg" width="35" height="29.167" viewBox="0 0 35 29.167">
  <path id="iconmonstr-medical-1" d="M10.208,7.833V4.917A2.918,2.918,0,0,1,13.125,2h8.75a2.918,2.918,0,0,1,2.917,2.917V7.833h7.292A2.918,2.918,0,0,1,35,10.75v17.5a2.918,2.918,0,0,1-2.917,2.917H2.917A2.918,2.918,0,0,1,0,28.25V10.75A2.918,2.918,0,0,1,2.917,7.833Zm8.75,10.208V13.667H16.042v4.375H11.667v2.917h4.375v4.375h2.917V20.958h4.375V18.042ZM21.146,4.917H13.854a.729.729,0,0,0-.729.729V7.833h8.75V5.646a.729.729,0,0,0-.729-.729" transform="translate(0 -2)" fill="#ff1414" fill-rule="evenodd"/>
</svg>
