<svg xmlns="http://www.w3.org/2000/svg" viewBox="0 0 215.47 164.01" width="92" height="70"><defs><style>.cls-1{fill:#006bb6;}.cls-1,.cls-2,.cls-4,.cls-6,.cls-8{fill-rule:evenodd;}.cls-2{fill:#fff;}.cls-10,.cls-3,.cls-5,.cls-7,.cls-9{fill:none;}.cls-10,.cls-3,.cls-5,.cls-6,.cls-7,.cls-8,.cls-9{stroke:#006bb6;}.cls-10,.cls-3,.cls-8{stroke-linecap:round;stroke-linejoin:round;}.cls-3,.cls-8{stroke-width:0.6px;}.cls-4,.cls-6,.cls-8{fill:#aec2e4;}.cls-5,.cls-6,.cls-7,.cls-9{stroke-miterlimit:2.61;}.cls-5,.cls-6{stroke-width:0.14px;}.cls-7{stroke-width:1.14px;}.cls-9{stroke-width:0.98px;}.cls-10{stroke-width:0.45px;}</style></defs><title>Asset 1</title><g id="Layer_2" data-name="Layer 2"><g id="Layer_1-2" data-name="Layer 1"><polygon class="cls-1" points="0 0 215.47 0 215.47 130.3 0 164.01 0 0 0 0"/><path class="cls-2" d="M46.41,113.4a20.29,20.29,0,0,0,4.2-1.55,36.72,36.72,0,0,0,7.89-5.14c5.75-5.06,11.41-13.56,11.41-27.37V63.56H23V79.34c0,13.81,5.66,22.31,11.41,27.37a34.39,34.39,0,0,0,7.8,5.14,22.13,22.13,0,0,0,4.21,1.55Z"/><path class="cls-2" d="M93.84,39H94c5.15,0,7-1.46,7-5.4S99.24,27.79,95,27.79a2.61,2.61,0,0,0-1.2.17c-.09.09-.18.26-.18.78v10.2h.09c.09.09.09.09.17.09ZM93.58,48c0,1.72.18,2.23,1,2.57a6.15,6.15,0,0,0,.68.26c.26,0,.52.09.78.09s.25,0,.34.08a.75.75,0,0,1,.43.09,1,1,0,0,1,.51.86c0,.68-.68.94-1.2.94-.34,0-2-.26-5-.26a50.65,50.65,0,0,0-5.06.26c-.52,0-1.21-.26-1.21-.94a1,1,0,0,1,.52-.86.75.75,0,0,1,.43-.09.54.54,0,0,1,.34-.08c.26,0,.52-.09.77-.09a5.67,5.67,0,0,0,.69-.26c.86-.34.94-.85.94-2.57V30.71c0-1.63-.17-2.15-.86-2.49L87,28a2.25,2.25,0,0,1-.77-.08h-.43a.51.51,0,0,0-.35-.09.84.84,0,0,1-.6-.77c0-.77.78-.94,1.21-.94.17,0,1.28.08,3.08.08,2.75,0,5.15-.17,7.29-.17,6.52,0,10,2,10,7,0,3.78-2.23,6.18-6.43,7l-.17.08,7.63,8.92a4.91,4.91,0,0,0,2.4,1.63,6.61,6.61,0,0,0,.94.43c.09.09.26.18.43.35a.68.68,0,0,1,.18.51c0,.69-.69.94-1.12.94a27.28,27.28,0,0,0-3-.17h-1.8a2.2,2.2,0,0,1-2.06-.77L95.21,41.6a1.67,1.67,0,0,0-1.54-.68h-.09v7Z"/><path class="cls-2" d="M155.34,39.37c0-7.8-3.6-12-8.75-12-5,0-8.75,4.38-8.75,11.93s3.78,12.18,8.67,12.18,8.83-4.21,8.83-12.1Zm-8.57-13.89A15.16,15.16,0,0,1,157.57,30,13.18,13.18,0,0,1,161,39.46a13.87,13.87,0,0,1-4.11,9.95,15.84,15.84,0,0,1-10.3,3.94,14.77,14.77,0,0,1-10.2-3.86,12.34,12.34,0,0,1-4.29-10,13.78,13.78,0,0,1,4-9.78,15,15,0,0,1,10.64-4.28Z"/><path class="cls-2" d="M25.13,28.05a2.23,2.23,0,0,0-.77-.09l-.43-.08a.49.49,0,0,1-.34-.09A.75.75,0,0,1,23,27c0-.69.77-.86,1.2-.86s2.14.09,5.06.09,4.72-.09,5-.09a2.29,2.29,0,0,1,.77.09.81.81,0,0,1,.43.77.8.8,0,0,1-.43.69,1.7,1.7,0,0,1-.6.17c-.35.08-.86.08-1.46.25-.86.26-1.2.86-1.2,2.66v7.12H44.52V30.79c0-1.71-.17-2.23-.94-2.57a1.59,1.59,0,0,0-.69-.17,2.29,2.29,0,0,0-.77-.09c-.26-.08-.52-.08-.78-.17a1,1,0,0,1-.6-.77.86.86,0,0,1,.52-.77,2.26,2.26,0,0,1,.77-.09c.26,0,2,.09,5,.09s4.54-.09,5-.09,1.29.17,1.29.86a.85.85,0,0,1-.6.77.75.75,0,0,1-.43.09L51.9,28a2.32,2.32,0,0,0-.78.09,5.6,5.6,0,0,0-.68.17c-.77.34-.95.86-.95,2.57V48c0,1.72.18,2.23.95,2.66a1.7,1.7,0,0,0,.68.17c.26.09.6.09.78.17h.42a.71.71,0,0,1,.35.17.77.77,0,0,1,.6.78c0,.77-.77.94-1.29.94-.26,0-1.89-.17-5-.17s-4.72.17-5,.17c-.51,0-1.29-.17-1.29-.94a.77.77,0,0,1,.6-.78.71.71,0,0,1,.35-.17h.43a7.52,7.52,0,0,1,.77-.17,2.18,2.18,0,0,0,.69-.17c.77-.43.94-.94.94-2.66V40.14H31.74V48c0,1.72.17,2.23.94,2.66a3,3,0,0,0,.69.17,7.52,7.52,0,0,1,.77.17h.43a.68.68,0,0,1,.34.17.71.71,0,0,1,.52.78c0,.77-.69.94-1.2.94-.26,0-2-.17-5-.17s-4.72.17-5.06.17c-.52,0-1.2-.17-1.2-.94a.77.77,0,0,1,.6-.78.68.68,0,0,1,.34-.17h.35c.25-.08.51-.08.77-.17a2.74,2.74,0,0,0,.77-.17c.77-.43.86-.94.86-2.66V30.79c0-1.71-.17-2.23-.86-2.57a5.35,5.35,0,0,0-.69-.17Z"/><path class="cls-2" d="M77.89,48.55a4.91,4.91,0,0,0,.43-.94,2.73,2.73,0,0,0,.17-.78l.08-.34c.09-.08.09-.26.17-.34a1,1,0,0,1,.78-.52.83.83,0,0,1,.85.69,1,1,0,0,1,.09.51v.52c0,1.2-.17,2.49-.17,3.86s-.26,1.63-1.72,1.63c-.77,0-5.49-.26-14.24-.26-3,0-4.63.26-5,.26-.52,0-1.2-.26-1.2-.94a1,1,0,0,1,.51-.86A.75.75,0,0,1,59.1,51c.09-.08.17-.08.34-.08s.52-.09.78-.09a6.15,6.15,0,0,0,.68-.26c.77-.34,1-.85,1-2.57V30.71c0-1.63-.18-2.15-1-2.49a6.15,6.15,0,0,0-.68-.26,2.59,2.59,0,0,1-.78-.08H59.1a.62.62,0,0,0-.34-.09.83.83,0,0,1-.6-.77c0-.77.68-.94,1.2-.94.34,0,2.4.17,6,.17,2.75,0,5.84-.17,9.44-.17h.86a4.83,4.83,0,0,1,1.11.08,2,2,0,0,1,.77.09,1.26,1.26,0,0,1,.95,1.28c0,.35-.17,1-.17,2.06s.17,1.63.17,2c0,.51-.17,1.2-.95,1.2a1,1,0,0,1-.85-.52,3.86,3.86,0,0,0-.09-.43l-.09-.34a3.6,3.6,0,0,0-.17-.86,3,3,0,0,0-.34-.77c-.94-1.54-2.83-1.8-6.52-1.8h-.34a7.46,7.46,0,0,0-1.46.08,1.94,1.94,0,0,0-.6.09c-.09.09-.09.09-.09.17s-.08.09-.08.17a2.87,2.87,0,0,0-.09,1v8.24H67c2.58-.17,3.69-.6,4.46-1.8a1.85,1.85,0,0,0,.35-.86c.08-.34.17-.6.25-.94v-.35c.09-.17.09-.25.17-.43a.87.87,0,0,1,.78-.6,1.08,1.08,0,0,1,1,1.2c0,.78-.18,2.15-.18,4.12,0,2.57.18,4.2.18,4.8s-.26,1.21-1,1.21a.68.68,0,0,1-.68-.43.31.31,0,0,1-.09-.26l-.09-.34c-.08-.18-.08-.43-.17-.69a4.08,4.08,0,0,1-.25-.77c-.69-1.37-2-1.89-4.81-1.89h-.08l-.09,5.83c0,4.21.26,5.06,5.15,5.06,3.34,0,5-.51,5.92-2.14Z"/><path class="cls-2" d="M126.44,50.78c.34,0,.6.09.85.09l.43.08a.51.51,0,0,1,.35.09.78.78,0,0,1,.6.86c0,.68-.69.94-1.29.94-.34,0-2.14-.26-5.32-.26s-5,.26-5.32.26c-.51,0-1.28-.26-1.28-.94a.77.77,0,0,1,.6-.86.48.48,0,0,1,.34-.09l.43-.08c.26,0,.51-.09.86-.09a3,3,0,0,0,.77-.26c.94-.34,1.11-.94,1.11-2.57V30.71c0-1.63-.17-2.15-.94-2.49a4,4,0,0,0-.77-.26,3.14,3.14,0,0,1-.86-.08,2.56,2.56,0,0,1-.86-.09.83.83,0,0,1-.68-.77.63.63,0,0,1,.34-.6,2,2,0,0,1,.43-.26,3.14,3.14,0,0,1,.86-.08c.43,0,2.06.17,5,.17s4.72-.17,5.06-.17a2.79,2.79,0,0,1,.77.08c.18.09.26.09.43.17a.8.8,0,0,1,.35.6.87.87,0,0,1-.6.78,1.82,1.82,0,0,1-.69.08c-.43.09-1,.17-1.63.34-.86.18-1.2.78-1.2,2.58V48c0,1.72.26,2.23,1,2.57a5,5,0,0,0,.86.26Z"/><path class="cls-2" d="M183,50.78c.35,0,.6.09.86.09l.43.08a.48.48,0,0,1,.34.09.77.77,0,0,1,.6.86c0,.68-.77.94-1.28.94a55.38,55.38,0,0,0-10.72,0c-.61,0-1.29-.26-1.29-.94a.86.86,0,0,1,.6-.86.75.75,0,0,1,.43-.09l.34-.08c.26,0,.6-.09.86-.09s.6-.17.86-.26c.85-.34,1-.85,1-2.57V28.31l-.09-.09a1.18,1.18,0,0,0-.6-.17c-.26,0-.6-.09-.94-.09h-1.55c-3.43,0-5.06.26-5.83,1.38a4.39,4.39,0,0,0-.6,1.88c0,.35-.09.6-.09.86a.93.93,0,0,1-.85.69.82.82,0,0,1-.78-.52c0-.08-.08-.25-.08-.34V27.28c0-1.12.68-1.46,1.63-1.46.68,0,4.8.26,12.35.26s11.67-.26,12.27-.26c1,0,1.63.34,1.63,1.46v4.63a.61.61,0,0,1-.09.34.75.75,0,0,1-.77.52c-.52,0-.69-.52-.77-.69a.75.75,0,0,1-.09-.43l-.09-.43a4.26,4.26,0,0,0-.6-1.88,3,3,0,0,0-2.14-1.12,22.93,22.93,0,0,0-4.55-.26h-.68c-.35,0-.69.09-1,.09a3.18,3.18,0,0,0-.51.08l-.09.09v.09a.52.52,0,0,0-.08.34V48c0,1.72.25,2.23,1,2.57.25.09.6.17.85.26Z"/><path class="cls-2" d="M93.5,64.16a1.23,1.23,0,0,1,1.11-.68,1.11,1.11,0,0,1,1,.68c.17.17.17.34.26.6l.26.69L101.47,83l3-9.78a23.38,23.38,0,0,0,1.28-6.26c0-.69-.42-1.29-1.45-1.38a9.13,9.13,0,0,1-1-.17.93.93,0,0,1-.86-.94,1,1,0,0,1,.51-.77,2.92,2.92,0,0,1,.86-.17c.43,0,2,.17,4.55.17,1,0,1.88-.09,2.4-.09s1,.17,1,.86a1,1,0,0,1-.26.69l-.6.25c-.26.09-.69.17-1,.26-.94.43-1.29,1.29-1.89,3.35l-6,19.21a16.22,16.22,0,0,1-.77,1.89,1.53,1.53,0,0,1-1.2.77,1.41,1.41,0,0,1-1.12-.69,6.26,6.26,0,0,1-.6-1.54l-5-17L88.27,88.35a11.73,11.73,0,0,1-.69,1.72,1.59,1.59,0,0,1-1.29.77,1.34,1.34,0,0,1-1.2-.77c-.08-.17-.17-.43-.26-.69a3.42,3.42,0,0,0-.34-.86l-6.6-20.67c-.52-1.63-.78-2.06-1.55-2.23-.43-.09-.86-.09-1.2-.17a1,1,0,0,1-.86-1,.75.75,0,0,1,.43-.77c.17,0,.26-.09.43-.09h.34c.52,0,2,.17,4.64.17,1.71,0,3.34-.17,4.71-.17a4,4,0,0,1,1,.09,1.08,1.08,0,0,1,.6.85c0,.61-.6.78-.85.86a3,3,0,0,0-1.12.17c-1.37.26-1.54.52-1.54,1.12a30.36,30.36,0,0,0,1.37,5.49c.77,2.74,1.89,6.35,3.26,10.81l.08.43,5.41-18a3.82,3.82,0,0,1,.43-1.2Z"/><path class="cls-2" d="M183,88.27a3.48,3.48,0,0,0,.86.08l.43.09a.52.52,0,0,1,.34.08.92.92,0,0,1,.6.86c0,.69-.77.94-1.28.94-.35,0-2.06-.17-5.32-.17s-5.15.17-5.4.17c-.61,0-1.29-.25-1.29-.94a.94.94,0,0,1,.6-.86c.08-.08.26-.08.43-.08l.34-.09a3.14,3.14,0,0,0,.86-.08A1.48,1.48,0,0,0,175,88c.85-.35,1-.86,1-2.58V65.79l-.09-.08a1.18,1.18,0,0,0-.6-.18h-2.49c-3.43,0-5.06.18-5.83,1.29a4.43,4.43,0,0,0-.6,1.89,2.74,2.74,0,0,1-.17.86.74.74,0,0,1-.77.68.83.83,0,0,1-.78-.51c0-.09-.08-.26-.08-.35V64.76c0-1.11.6-1.46,1.63-1.46.68,0,4.72.35,12.35.35s11.58-.35,12.27-.35c1,0,1.63.35,1.63,1.46v4.63c0,.09-.09.18-.09.35a.82.82,0,0,1-.77.51.81.81,0,0,1-.77-.68.63.63,0,0,1-.09-.43l-.09-.43a3.55,3.55,0,0,0-.68-1.89,2.74,2.74,0,0,0-2.15-1.11,30.94,30.94,0,0,0-4.46-.18h-1.63a2.85,2.85,0,0,0-.51.09l-.09.09v.17a.31.31,0,0,0-.08.25v19.3c0,1.72.17,2.23,1,2.58a1.65,1.65,0,0,0,.85.26Z"/><path class="cls-2" d="M151.57,88.27a3.44,3.44,0,0,0,.86.08l.43.09a.79.79,0,0,1,.42.08,1.09,1.09,0,0,1,.61.86c0,.69-.78.94-1.38.94-.25,0-2.06-.17-5.32-.17s-5.06.17-5.4.17c-.51,0-1.2-.25-1.2-.94a.88.88,0,0,1,.94-.94l.43-.09a3.44,3.44,0,0,0,.86-.08,1.39,1.39,0,0,0,.77-.26c.86-.35,1.12-.86,1.12-2.58V66.13a.84.84,0,0,0-.09-.34l-.08-.08a.92.92,0,0,0-.52-.18h-2.49c-3.43,0-5.06.18-5.83,1.29a3.56,3.56,0,0,0-.6,1.89c-.09.34-.09.6-.17.86s-.26.68-.77.68a.76.76,0,0,1-.78-.51.56.56,0,0,1-.08-.35V64.76c0-1.11.6-1.46,1.63-1.46.6,0,4.72.35,12.26.35s11.67-.35,12.36-.35c1,0,1.54.35,1.54,1.46v4.63a.63.63,0,0,1-.09.35.74.74,0,0,1-.77.51c-.51,0-.68-.51-.77-.68a4.28,4.28,0,0,1-.08-.43l-.09-.43a4.57,4.57,0,0,0-.6-1.89,2.88,2.88,0,0,0-2.15-1.11,32.83,32.83,0,0,0-4.54-.18h-1.63c-.26,0-.34.09-.52.09v.09a.28.28,0,0,0-.08.17c0,.08-.09.17-.09.25v19.3c0,1.72.26,2.23,1.12,2.58a1.37,1.37,0,0,0,.77.26Z"/><path class="cls-2" d="M119.92,69.65l-3.78,9.09h7.29l-3.51-9.09Zm-6.61,17.07a1.38,1.38,0,0,0,.86,1.46c.17.09.43.09.6.17l.52.09a1,1,0,0,1,.94,1,.74.74,0,0,1-.52.68,1.62,1.62,0,0,1-.77.17c-.51,0-1.71-.25-3.51-.25-1.46,0-2.58.17-3.26.17a3.29,3.29,0,0,1-1-.17.88.88,0,0,1-.08-1.55c.17-.08.25-.08.34-.17h.34c.17-.08.43-.08.69-.17a3.24,3.24,0,0,0,.77-.34c.77-.35,1.46-1.46,2.4-3.61l8.49-20.33a1.83,1.83,0,0,1,.35-.68,1.14,1.14,0,0,1,1.63,0,7.35,7.35,0,0,1,.43.77L131,85.26c.69,1.63,1.2,2.4,2.06,2.75.17.08.43.17.69.26s.43.08.6.08a1.66,1.66,0,0,1,.68.17.89.89,0,0,1,.43.77.81.81,0,0,1-.43.78,2.61,2.61,0,0,1-.85.17c-1.12,0-2.75-.17-4.81-.17-1.54,0-3.09.25-4.63.25a2.92,2.92,0,0,1-.94-.17.74.74,0,0,1-.6-.77,1,1,0,0,1,.6-.86c.25-.08.6-.08.94-.17,1.54-.17,1.63-.51,1.63-.86a7.37,7.37,0,0,0-.51-2.23l-1.63-4.37h-8.92l-1.55,3.86a5.49,5.49,0,0,0-.43,2Z"/><path class="cls-2" d="M188,110.82c-.25-.17-.34-.34-.34-1v-2.58c1-1.54,1.8-2.74,2.32-3.69l.68-1.2c.18-.34.35-.51.43-.68a1.26,1.26,0,0,1,.69-.43c.17-.09.26-.09.34-.17a.4.4,0,0,0,.35-.43c0-.35-.35-.43-.52-.43a14.3,14.3,0,0,1-1.46.08c-.77,0-1.28-.08-1.46-.08a.79.79,0,0,0-.42.08.4.4,0,0,0-.26.43.44.44,0,0,0,.43.43c.08.09.34.09.51.17s.17,0,.17.26a3.79,3.79,0,0,1-.68,1.72c-.43.77-1,1.71-1.72,2.83l-1.89-3.78a1.5,1.5,0,0,1-.34-.85c0-.09,0-.26.43-.35h.34a.49.49,0,0,0,.52-.51.56.56,0,0,0-.35-.43.71.71,0,0,0-.42-.09c-.43,0-1.21.09-2.32.09h-2a.58.58,0,0,0-.35.51c0,.26.26.43.43.52a1.18,1.18,0,0,1,.52.08.44.44,0,0,1,.34.18.42.42,0,0,1,.17.34l.26.43,2.83,5.06v2.49c0,.68-.09.85-.34,1a.31.31,0,0,0-.26.09h-.34c-.26.09-.26.09-.35.09a.56.56,0,0,0-.34.51c0,.43.43.52.69.52.08,0,.85-.09,2.14-.09s2.06.09,2.15.09c.25,0,.68-.09.68-.52A.56.56,0,0,0,189,111l-.34-.09h-.35a.3.3,0,0,0-.26-.09Z"/><path class="cls-2" d="M174.56,110.82c-.35-.17-.43-.34-.43-1v-8.41a1.06,1.06,0,0,1,.6-.17H175a13.69,13.69,0,0,1,2,.08,1.64,1.64,0,0,1,.86.43,1.4,1.4,0,0,1,.25.77l.09.43a.47.47,0,0,0,.43.35A.49.49,0,0,0,179,103l.08-.34v-1.89c0-.52-.34-.69-.85-.69-.26,0-2.06.09-5.32.09s-5.06-.09-5.32-.09c-.51,0-.86.17-.86.69v1.89c0,.17.09.25.09.34a.47.47,0,0,0,.43.26.39.39,0,0,0,.43-.35,3.39,3.39,0,0,0,.08-.43,1.42,1.42,0,0,1,.26-.77c.26-.43.94-.51,2.4-.51h1.12c.17.08.17.08.17.17v8.41c0,.68-.09.85-.43,1-.09,0-.17.09-.26.09h-.43c-.26.09-.26.09-.34.09a.56.56,0,0,0-.34.51c0,.34.42.52.68.52.09,0,.86-.09,2.32-.09s2.23.09,2.31.09c.26,0,.69-.18.69-.52a.56.56,0,0,0-.34-.51l-.35-.09h-.34c-.17,0-.26-.09-.34-.09Z"/><path class="cls-2" d="M163.66,110.82c-.34-.17-.43-.34-.43-1v-7.47c0-.85.18-.94.43-1a5.35,5.35,0,0,0,.69-.17c.17,0,.26,0,.34-.08a.37.37,0,0,0,.35-.35c0-.25-.18-.34-.18-.43a.31.31,0,0,1-.25-.08h-.35c-.17,0-.94.08-2.23.08s-2-.08-2.14-.08a.83.83,0,0,0-.43.08c-.08,0-.17,0-.17.09a.3.3,0,0,0-.26.34c0,.26.35.43.43.43a.48.48,0,0,1,.34.09h.43c.09,0,.17.08.26.08.26.09.34.26.34,1v7.47c0,.68-.08.85-.34,1-.17,0-.26.09-.34.09h-.35a1.06,1.06,0,0,1-.42.09.56.56,0,0,0-.35.51c0,.34.52.52.69.52s.94-.09,2.31-.09,2.15.09,2.32.09.69-.18.69-.52a.57.57,0,0,0-.35-.51l-.34-.09H164c-.17,0-.26-.09-.35-.09Z"/><path class="cls-2" d="M150.37,111.43a2.88,2.88,0,0,0,.68.34,4.55,4.55,0,0,0,2.06.51c2.49,0,4.38-1.54,4.38-3.69s-1.37-3.08-3.6-4l-1-.51a6.07,6.07,0,0,1-.78-.43,1.28,1.28,0,0,1-.51-1.12,1.54,1.54,0,0,1,1.71-1.54,2.19,2.19,0,0,1,2.06,1.46,1.3,1.3,0,0,1,.26.68c.09.18.17.52.6.52a.48.48,0,0,0,.52-.34V100.7c0-.25-.09-.68-.52-.68-.26,0-.43.17-.43.25l-.17.35a3.53,3.53,0,0,0-.6-.35,4.46,4.46,0,0,0-1.8-.34,3.34,3.34,0,0,0-3.6,3.26,3.56,3.56,0,0,0,2.48,3.35c.6.25,1.2.51,1.72.77a3.63,3.63,0,0,1,1.11.77,2.39,2.39,0,0,1,.35,1.2c0,1.2-.77,1.89-2.15,1.89a2.61,2.61,0,0,1-2.48-1.89,4.14,4.14,0,0,1-.18-.77c-.08-.09-.08-.26-.17-.34a.45.45,0,0,0-.43-.26.47.47,0,0,0-.43.26.31.31,0,0,0-.08.25c0,.52.08,1,.08,1.63s-.08,1.12-.08,1.29.08.51.43.51a.5.5,0,0,0,.43-.17l.17-.25Z"/><path class="cls-2" d="M139.9,105.76c2.23,0,3-.6,3-2.23s-.78-2.4-2.58-2.4c-.34,0-.43,0-.43.09v4.54Zm0,1.12v2.92c0,.68,0,.85.35,1a.39.39,0,0,1,.25.09h.35l.34.09a.51.51,0,0,1,.26.51c0,.43-.35.52-.6.52s-.86-.09-2.15-.09-2.06.09-2.23.09-.6-.09-.6-.52a.69.69,0,0,1,.26-.51,1.1,1.1,0,0,0,.43-.09h.26a.61.61,0,0,1,.34-.09c.26-.17.34-.34.34-1v-7.47c0-.77-.08-.94-.34-1-.09,0-.17-.08-.26-.08h-.34l-.34-.09c-.18-.08-.35-.17-.35-.43,0-.43.43-.51.6-.51h1.37c1.21,0,2.23-.09,3.18-.09,2.83,0,4.46,1,4.46,3.18,0,1.71-1,2.74-2.83,3.17l3.26,3.77a3.14,3.14,0,0,0,.94.69c.17.09.34.09.43.17a.27.27,0,0,1,.17.09.61.61,0,0,1,.17.34c0,.43-.43.52-.6.52a9.52,9.52,0,0,0-1.28-.09H145a1.25,1.25,0,0,1-1-.34l-3.61-4.55c-.08-.17-.17-.17-.43-.17Z"/><path class="cls-2" d="M128.24,106.36c1.2,0,1.71.18,1.88.78.09.08.18.17.18.25l.08.35c0,.17,0,.17.09.25s.17.26.34.26a.63.63,0,0,0,.6-.6c0-.34-.17-1-.17-2.14,0-.86.09-1.46.09-1.8s-.09-.61-.52-.61a.4.4,0,0,0-.43.35l-.08.34a.75.75,0,0,0-.09.43c-.09.09-.09.17-.17.34-.26.43-.77.6-1.8.69v-3.43a1,1,0,0,1,.08-.52h.18a1.55,1.55,0,0,1,.68-.08c1.72,0,2.49.17,2.83.77.09.09.09.17.17.34v.26c.09.26.09.34.18.43a.42.42,0,0,0,.42.26c.43,0,.52-.35.52-.6s-.09-.43-.09-.86.09-.77.09-.95a.63.63,0,0,0-.52-.6.52.52,0,0,0-.34-.08h-7.55c-.17,0-.68.08-.68.51,0,.26.25.35.34.43h.34l.35.09c.08,0,.25,0,.25.08.26.09.35.26.35,1v7.47c0,.68-.09.85-.35,1a.29.29,0,0,0-.25.09h-.35a.61.61,0,0,1-.34.09.55.55,0,0,0-.34.43c0,.42.43.51.68.51h8.32c.69,0,.86-.17.86-.77s.09-1.12.09-1.63v-.26a.32.32,0,0,0-.09-.26.39.39,0,0,0-.43-.34.49.49,0,0,0-.43.26l-.08.34c-.09.09-.09.17-.09.34s-.08.26-.17.35c-.43.68-1.12.85-2.57.85-2,0-2.06-.34-2.06-2v-2.41Z"/><path class="cls-2" d="M118,105.68l-1.29,3.26-2.06-5.66a11.23,11.23,0,0,1-.51-1.72c0-.17,0-.26.51-.34.18,0,.35,0,.43-.09a.45.45,0,0,0,.43-.43c0-.43-.43-.51-.6-.51s-.86.08-2.31.08c-1.2,0-1.89-.08-2-.08a.55.55,0,0,0-.34.08.47.47,0,0,0-.09.78c.09.08.26.08.35.17a1.8,1.8,0,0,1,.6.08.75.75,0,0,1,.43.43c.17.35.34.77.6,1.37l3.09,8.24a3,3,0,0,0,.34.6.71.71,0,0,0,.51.26.68.68,0,0,0,.43-.17,1.35,1.35,0,0,1,.35-.43c.17-.35.34-.86.6-1.55l2.83-7c.51-1.2.77-1.71,1.2-1.88h.34c.09-.09.17-.09.34-.17s.17-.18.17-.35c0-.43-.42-.51-.6-.51s-.68.08-1.54.08-1.37-.08-1.54-.08-.69.08-.69.51c0,.17.09.26.26.35a.31.31,0,0,0,.25.08,3.43,3.43,0,0,0,.69.17c.09,0,.26.09.26.35a19.35,19.35,0,0,1-1.46,4Z"/><path class="cls-2" d="M107,110.82c-.35-.17-.43-.34-.43-1v-7.47c0-.85.17-1,.43-1.11s.51-.09.68-.09.26,0,.34-.08a.4.4,0,0,0,.35-.43c0-.17-.17-.26-.17-.35a.33.33,0,0,1-.26-.08h-.34c-.18,0-.95.08-2.23.08s-2-.08-2.15-.08h-.43c0,.08-.08.08-.17.17s-.17.09-.17.34.26.35.34.43a.48.48,0,0,1,.34.09h.43a.89.89,0,0,1,.26.08c.26.09.34.26.34,1v7.47c0,.68-.08.85-.34,1a.49.49,0,0,0-.34.09h-.35a1.06,1.06,0,0,1-.42.09.45.45,0,0,0-.26.43.64.64,0,0,0,.6.6c.17,0,.94-.09,2.32-.09s2.23.09,2.31.09a.66.66,0,0,0,.69-.6A.54.54,0,0,0,108,111l-.34-.09h-.34a.62.62,0,0,0-.34-.09Z"/><path class="cls-2" d="M91.44,110.82c-.43-.25-.52-.51-.52-1.28v-6.26l6.78,8.4c.09.17.26.26.34.35a.57.57,0,0,0,.52.17.51.51,0,0,0,.51-.26c0-.09.09-.17.09-.26V102.5c0-.77.08-1,.34-1.2.09,0,.17-.08.26-.08l.34-.09c.17,0,.26,0,.35-.08s.25-.18.25-.43-.08-.26-.25-.35a.56.56,0,0,0-.35-.08H98.73c-.77,0-1.37-.09-1.72-.09-.17,0-.6.09-.6.52a.5.5,0,0,0,.52.51c.77,0,1,.35,1,1.37v5.84l-6.18-7.72a.94.94,0,0,0-.86-.43H88.35c-.17.08-.34.17-.34.43a.51.51,0,0,0,.17.43.55.55,0,0,0,.34.08.63.63,0,0,0,.43.09c.34.17.6.26.77.6v7.63c0,.86-.08,1.12-.34,1.29-.09.08-.17.08-.26.17h-.34a.62.62,0,0,1-.34.09.68.68,0,0,0-.26.43c0,.25.17.42.26.42a1,1,0,0,0,.51.09h1.29c.86,0,1.37.09,1.54.09a3.41,3.41,0,0,0,.43-.09.49.49,0,0,0,.26-.43.4.4,0,0,0-.26-.43l-.26-.17H91.7c-.09,0-.18-.09-.26-.09Z"/><path class="cls-2" d="M74.88,101.3c.26.09.35.26.35,1v6c0,2.66,1.63,3.86,4.63,3.86,3.52,0,4.89-1.55,4.89-5.15v-4.72c0-.85.08-1,.43-1a4.1,4.1,0,0,0,.6-.17.69.69,0,0,0,.34-.08c.09-.09.26-.18.26-.43a.38.38,0,0,0-.34-.35.56.56,0,0,0-.35-.08c-.26,0-.77.08-1.46.08s-1.28-.08-1.63-.08a.55.55,0,0,0-.34.08.41.41,0,0,0-.26.43.54.54,0,0,0,.26.43l.34.09H83a.36.36,0,0,1,.25.08c.26.09.35.26.35,1v5.15c0,2.49-1,3.52-3.18,3.52-2,0-2.74-.86-2.74-2.92v-5.75c0-.85.17-.94.43-1a5.16,5.16,0,0,0,.68-.17.33.33,0,0,0,.26-.08.41.41,0,0,0,.26-.43c0-.17-.09-.26-.26-.35a.54.54,0,0,0-.34-.08c-.17,0-1,.08-2.23.08s-2-.08-2.15-.08a.55.55,0,0,0-.34.08c-.17.09-.34.18-.34.43s.25.35.34.43l.34.09h.35a.9.9,0,0,1,.25.08Z"/><path class="cls-3" d="M52.15,70.51c.17.17,1,0,1.89-.34a3.64,3.64,0,0,1,2.14.08m-4,2.15c.17.17,1,.08,1.89-.26a4,4,0,0,1,2.14.17m-4,2c.17.18,1,.09,1.89-.17a4.46,4.46,0,0,1,2.23.17m5.83-3.86c-.17.18-.94.09-1.88-.25a4,4,0,0,0-2.15,0m4,2.14c-.17.17-.94.09-1.88-.17a3.62,3.62,0,0,0-2.15.09m4,2c-.17.17-.94.08-1.88-.17a4.09,4.09,0,0,0-2.23.25"/><path class="cls-4" d="M60.82,85.43s-.52-.42-.18-.85c.18-.17.86-.69.86-1.38a1.41,1.41,0,0,0-.94-1.28,1.31,1.31,0,0,1-.86-.77,1.14,1.14,0,0,1-.77.77,1.49,1.49,0,0,0-1,1.28c0,.69.69,1.21.86,1.38.34.43-.17.85-.17.85s-.52.35-.86-.08c-.09-.26-.34-1.12-1-1.29a1.49,1.49,0,0,0-1.54.52,1.1,1.1,0,0,1-.95.6,1.16,1.16,0,0,1,.43,1,1.32,1.32,0,0,0,.94,1.28c.6.26,1.38-.25,1.63-.34.43-.26.69.43.69.43s.17.6-.34.77A1.89,1.89,0,0,0,56,89a1.58,1.58,0,0,0,.09,1.63,1.26,1.26,0,0,1,.26,1,1.33,1.33,0,0,1,1-.09,1.36,1.36,0,0,0,1.54-.42,2.31,2.31,0,0,0,.17-1.63c-.08-.52.6-.6.6-.6s.69.08.6.6a2.31,2.31,0,0,0,.17,1.63,1.41,1.41,0,0,0,1.55.42,1.6,1.6,0,0,1,1.11.09,1.59,1.59,0,0,1,.17-1A1.41,1.41,0,0,0,63.39,89a1.89,1.89,0,0,0-1.54-.6c-.52-.17-.35-.77-.35-.77s.26-.69.77-.43c.18.09.95.6,1.55.34a1.32,1.32,0,0,0,.94-1.28,1.16,1.16,0,0,1,.43-1,1.31,1.31,0,0,1-.94-.6,1.52,1.52,0,0,0-1.55-.52c-.6.17-.94,1-1,1.29-.25.43-.85.08-.85.08ZM46.49,79.69H67.85a38.82,38.82,0,0,1-2.4,13.81h-19V88.87h.69s.68.08.6.6a2.73,2.73,0,0,0,.08,1.63,1.53,1.53,0,0,0,1.63.42,1.38,1.38,0,0,1,1,.09,1.26,1.26,0,0,1,.26-1A1.57,1.57,0,0,0,50.87,89a1.89,1.89,0,0,0-1.55-.6c-.51-.17-.34-.77-.34-.77s.26-.69.69-.43c.25.09.94.6,1.63.34a1.32,1.32,0,0,0,.94-1.28,1.16,1.16,0,0,1,.43-1,1.09,1.09,0,0,1-1-.6,1.56,1.56,0,0,0-1.54-.52c-.69.17-.94,1-1.12,1.29-.25.43-.77.08-.77.08s-.51-.42-.17-.85c.17-.17.86-.69.86-1.38a1.49,1.49,0,0,0-1-1.28c-.43-.17-.86-.43-.94-.77h-.52V79.69Z"/><path class="cls-5" d="M60.82,85.43s-.52-.42-.18-.85c.18-.17.86-.69.86-1.38a1.41,1.41,0,0,0-.94-1.28,1.31,1.31,0,0,1-.86-.77,1.14,1.14,0,0,1-.77.77,1.49,1.49,0,0,0-1,1.28c0,.69.69,1.21.86,1.38.34.43-.17.85-.17.85s-.52.35-.86-.08c-.09-.26-.34-1.12-1-1.29a1.49,1.49,0,0,0-1.54.52,1.1,1.1,0,0,1-.95.6,1.16,1.16,0,0,1,.43,1,1.32,1.32,0,0,0,.94,1.28c.6.26,1.38-.25,1.63-.34.43-.26.69.43.69.43s.17.6-.34.77A1.89,1.89,0,0,0,56,89a1.58,1.58,0,0,0,.09,1.63,1.26,1.26,0,0,1,.26,1,1.33,1.33,0,0,1,1-.09,1.36,1.36,0,0,0,1.54-.42,2.31,2.31,0,0,0,.17-1.63c-.08-.52.6-.6.6-.6s.69.08.6.6a2.31,2.31,0,0,0,.17,1.63,1.41,1.41,0,0,0,1.55.42,1.6,1.6,0,0,1,1.11.09,1.59,1.59,0,0,1,.17-1A1.41,1.41,0,0,0,63.39,89a1.89,1.89,0,0,0-1.54-.6c-.52-.17-.35-.77-.35-.77s.26-.69.77-.43c.18.09.95.6,1.55.34a1.32,1.32,0,0,0,.94-1.28,1.16,1.16,0,0,1,.43-1,1.31,1.31,0,0,1-.94-.6,1.52,1.52,0,0,0-1.55-.52c-.6.17-.94,1-1,1.29-.25.43-.85.08-.85.08ZM46.49,79.69H67.85a38.82,38.82,0,0,1-2.4,13.81h-19V88.87h.69s.68.08.6.6a2.73,2.73,0,0,0,.08,1.63,1.53,1.53,0,0,0,1.63.42,1.38,1.38,0,0,1,1,.09,1.26,1.26,0,0,1,.26-1A1.57,1.57,0,0,0,50.87,89a1.89,1.89,0,0,0-1.55-.6c-.51-.17-.34-.77-.34-.77s.26-.69.69-.43c.25.09.94.6,1.63.34a1.32,1.32,0,0,0,.94-1.28,1.16,1.16,0,0,1,.43-1,1.09,1.09,0,0,1-1-.6,1.56,1.56,0,0,0-1.54-.52c-.69.17-.94,1-1.12,1.29-.25.43-.77.08-.77.08s-.51-.42-.17-.85c.17-.17.86-.69.86-1.38a1.49,1.49,0,0,0-1-1.28c-.43-.17-.86-.43-.94-.77h-.52V79.69Z"/><path class="cls-6" d="M25.73,87.24h4.89a.71.71,0,0,0,.35.6,1.72,1.72,0,0,0-1.12,1.37c-.09.77,1,1.29,1.8.43.35-.52.35-.43.35-.43s.08,1.37.85,1.37,1.2-.77,1.29-1.37c.09.26.34.69,1.2.86a6.16,6.16,0,0,1-1.11.51c-1.21.69-1,2.15,0,2.23H27.28a40.51,40.51,0,0,1-1.55-5.57Z"/><path class="cls-6" d="M25.05,73.43h8.23a1.57,1.57,0,0,0-.34,1.63,5.05,5.05,0,0,0,.43,1.11c-.86-.17-1.89,1.2-.43,2.32a4.41,4.41,0,0,0,.77.43.89.89,0,0,1-.34.08H31.31a1,1,0,0,0-1.72,0H25.05V73.43Z"/><path class="cls-6" d="M46.41,104.22v7.21a29.8,29.8,0,0,1-14.76-10.38h11c-.6.43-1.89.94-2.83,1.63a3.25,3.25,0,0,0-1,1.8,3.18,3.18,0,0,1,2.4-1.12c1,0,1.38,0,2.75-1.2a2.86,2.86,0,0,1-.86,1.29,4.27,4.27,0,0,0-.86,3.94c.52-1,1-2.48,2.32-3a4.09,4.09,0,0,1,1.89-.17Z"/><path class="cls-6" d="M37.83,92.81h6.6c-.25-1.46-.25-2.4-1.71-3.69a2.76,2.76,0,0,0-1.63.43,5.58,5.58,0,0,0-.86,1.89,1.07,1.07,0,0,1-2,.26c-.35.17-.35.77-.43,1.11Z"/><path class="cls-7" d="M46.41,65.79H25.05V79.6c0,26.25,21.36,31.83,21.36,31.83s21.44-5.58,21.44-31.83V65.79Z"/><path class="cls-3" d="M37.83,74.54c-.69.09-1.46-.08-1.63.77a.94.94,0,0,0-1.2.26,3.29,3.29,0,0,0-.26-1.72,1,1,0,0,0-1.2-.51.86.86,0,0,1-.34-.6c-.09-.6.17-1.12.77-1.12.17,0,.77.43.86.43a1.77,1.77,0,0,1-.43-1.11c0-.77.43-1.46,1.11-1.46s1,.6.77,1.46c.52-.34.69-.52.86-.52a.78.78,0,0,1,.6.26,1.71,1.71,0,0,0-.17.69,2.83,2.83,0,0,0,.09.86c-.26-.18-.69-.35-.95-.09-.08.17-.08.26-.17.43-.26.86,1.29,2,1.29,2ZM34.14,82.6c.17-.08.51,0,.6-.25.09-.09,0-.35,0-.35a1,1,0,0,0-1-.94c-.51,0-.94.94-1,.94a1.38,1.38,0,0,0,.26-1.37l-.09-.17a.66.66,0,0,0-.43-.52c0-.08-.17-.08-.17-.08a.94.94,0,0,0-.86.26c.09-.78,0-1.46-.85-1.63a.87.87,0,0,0-1,.85c-.17.86.34,1.12.86,1.38a4.07,4.07,0,0,0-.86.17,1,1,0,0,0-.52,1c.09.94,1.29,1.46,2.23,1.54-.77.26-.85.52-.94.86-.09.77,1,1.54,1.89,1.72a4.55,4.55,0,0,1,1.37.6c.17,0,.17-.09.34-.09a.62.62,0,0,1,.09-1c.17-.17.86-.09,1.46,0,.43.17.94.43.94.43s-.09-.52-.17-.86a.92.92,0,0,1,.08-.34,6.09,6.09,0,0,1-.85-.26c-1.2-.6-1.8-1.54-1.29-1.89Zm0,6.61c0,.34-.51,1.63-1.46,1.37-.51-.17-.6-1.11-.68-1.37-.35.43-.95,1.2-1.81.69S30,88.18,31,87.84c-.69-.6-.26-1.38.85-1.29,0,0,1.55.43,2.06,0-.6-.51-.17-1.12.52-1.12a4.12,4.12,0,0,1,2,.52c-.26-.86-.34-1.63.43-1.46s1.71.6,1.89,1.37c0,.52.34.69.25.78-1.63-.52-3.17.94-1.71,1.8a7.79,7.79,0,0,1-2.06-.09.87.87,0,0,0-1,.86Zm4.29-2.66c-.86-.09-1.72.34-1.8,1,0,.51.51.77.6.86a4.07,4.07,0,0,1-1.8-.09c-.78-.08-1,.09-1.2.52-.26.6.34,1.11,1.11,1.2a11.2,11.2,0,0,1-1.11.51,1.57,1.57,0,0,0-.86,1.29.82.82,0,0,0,.86.86c0,.51-.69.51-.69,1.28,0,.6.43.77.94.77a1.24,1.24,0,0,0,1-.6c.17-.42-.08-1.11.52-1.2a1,1,0,0,0,1.2.69c1-.43.43-1.54,1-2,.43.43.68.6,1,.51,1.28,0,.77-2,2-2.74a2.48,2.48,0,0,1,1.37-.35s-2.57-2.4-4.2-2.57Z"/><polygon class="cls-8" points="46.41 91.7 49.15 99.93 54.13 99.93 50.09 102.85 51.47 107.39 46.41 104.22 46.41 91.7 46.41 91.7"/><path class="cls-3" d="M38,82.6c-.6.18-.77.43-.77.86-.09.6.51,1.2,2,1.63a2.21,2.21,0,0,0-.51.77,1.69,1.69,0,0,0-.86-1,2.69,2.69,0,0,0-1.2-.34c-.26,0-.35.09-.35.26-.17,0-.34-.09-.51-.09-.69-.34-1.8-.94-1.8-1.8,0-.51.86-.08.86-.6a1.21,1.21,0,0,0-.26-.77l-.34-.34c-.18,0-.35-.09-.6-.09a.89.89,0,0,1-.69-.34c-.09-.17-.17-.43-.26-.6s-.17-.18-.17-.18c-.09-.77.69-.85,1.2-1l-.6-.26c-.94-.6-1-1.37-.86-1.72.26-.68.69-.86,1.12-.77a6.91,6.91,0,0,1-.52-1.71c0-.69.35-1.21,1.12-1.12s.77.51.94,1.12A2.64,2.64,0,0,1,35,75.57c.43-.43.86-.51,1.2-.26a.64.64,0,0,1,.51.52c0,.08.09.6.09.77A4.09,4.09,0,0,1,36.11,78s.52-.51,1-.43a1.11,1.11,0,0,1,.77.6,1,1,0,0,0-.35.86,2.22,2.22,0,0,0,.43,1.12s-.77-.18-.94.25c-.43.69.43,1.63,1.63,2l-.6.25Zm2.57-10.29c.09-.17.17-.26.35-.26a3,3,0,0,1,.85,0,1.25,1.25,0,0,1-.51-1.28c.08-.52.26-1,.86-1,.34,0,.43.26.51.52a1.27,1.27,0,0,1-.08-.77c.17-.78.51-1.12,1.2-1A1.4,1.4,0,0,1,44.86,70c0,.35-.08.52-.34.61h.34a1.11,1.11,0,0,1,.77,1c0,.43-.6.95-1.37.86.52,0,.52-.08.86,0a1.11,1.11,0,0,1,.77,1.2c.09.6.09,1.72-.77,2,.69.08.86.51.94,1.28A13,13,0,0,1,46,78.83l-.43.43a2.12,2.12,0,0,0-.34-1.2c-.26-.43-1.12-.35-1.72,0a2.94,2.94,0,0,0,.6-1.46c.17-.69-.09-1.63-.6-1.63-.34,0-.77.51-.77.51s.34-.94-.26-1.37A1.44,1.44,0,0,0,40.83,74a2.92,2.92,0,0,0-.26-1.72Zm5.84,31.91a3.5,3.5,0,0,0-2.15.26c-.68.43-1.2,1-2.06,2.91a4.15,4.15,0,0,1,.43-3.34c.95-1.29.95-1,1.29-1.89a4,4,0,0,1-2,1.2c-1,.09-1.72-.34-3.18,1.12.52-2,1.2-2.06,2.66-2.75a7.22,7.22,0,0,0,1.63-1A9.62,9.62,0,0,0,44,99.07c.43-.6.69-5.14.43-6.26-.34-1.46.17-2.83-4.46-5.66a2.23,2.23,0,0,0-1-.51c.09-.09-.17-.18-.17-.43.26.68,1.29.51,1.63.43.09,1.2,2.92,1.63,4,1.2a5.25,5.25,0,0,0,.17-2c.61.09.78.26,1.38-1.63a18.77,18.77,0,0,0,.43-2v22Z"/><line class="cls-9" x1="46.41" y1="65.79" x2="46.41" y2="111.25"/><path class="cls-3" d="M39.11,77.89a1,1,0,0,0-1.28.25,1,1,0,0,0-.52-.51c.26-.17.6.08.6.08a7.61,7.61,0,0,1-1.2-1c0-.35.09-1.21-.51-1.38a.74.74,0,0,1,.86-.68l.77-.09s-1.37-.94-1.29-1.89c.09-.77.6-.68,1.12-.42-.52-1.55.68-2.24,1.11-2.15s1.12.52.26,1.89a2.41,2.41,0,0,1,.86-.26c.85.17,1.11,1.46.94,2.32-.77.51-.77,1.37.6,2-.94-.43-1.72-.43-1.54.6a3.31,3.31,0,0,0,1.63,2.32,1.52,1.52,0,0,0-1,.17.58.58,0,0,0-.78.08l-.25.26s.34-1.2-.35-1.54Zm1.29,8.75c-.51.17-1.46.17-1.63-.43s.43-1.12.43-1.12a3.42,3.42,0,0,1-.86-.34c-.51-.26-1.11-.52-1.11-1.2a1,1,0,0,1,.86-1l.6-.17s-1.63-.52-1.81-1.46c-.17-.77.43-.86,1-.77-1.11-1.46.09-2.32.6-2.32s1.29.09,1,1.63a1.66,1.66,0,0,1,.6-.51c.86,0,1,1.28,1,1.71a8.83,8.83,0,0,1,0,1.46c.34-.34.68-.52.86-.43.51.09.77.34.6,1.46a1.4,1.4,0,0,0,.17,1.29c.6-1.55,2-.35,1.88,1.37a7.15,7.15,0,0,1-.17,2.06,4.65,4.65,0,0,1-2.23.08c-1.88-.43-1.8-1.28-1.8-1.28Zm4.2-.78c.26,0,.43.09.61,0,.42-.25.94-2,1.11-3-.43-1.63-1.2-1.71-1.2-1.71,0-.35.17-.52.26-.86a1.69,1.69,0,0,0,.17-1.2,3.39,3.39,0,0,0-.17-.77c-.17-.61-.86-.61-1.2-.52a1.33,1.33,0,0,0-.69.26,3.06,3.06,0,0,0,.6-2.15c-.09-.85-.6-1.28-1.37-.43.51-1.71-1.2-1.8-1.63-1.63-1.2.43-1,1.55.43,2.15a3.2,3.2,0,0,0-1.29-.26c-.69.26-.34,1.29-.09,1.72a3.33,3.33,0,0,0,1.38,1.46c-.52,0-.86,0-1,.17a1.54,1.54,0,0,1,.51.77,6.73,6.73,0,0,1,.09,2.23.91.91,0,0,1,.94-.43c1.2.26-.08,1.89.69,2.75.51-1.38,1.88-.69,1.88,1.45Zm5.15-17.41v8.84a6.34,6.34,0,0,0,3.26.08,6,6,0,0,1,4.12.52v-9.7a3.51,3.51,0,0,0-3.26-.34A4.49,4.49,0,0,1,51,68v.52a4,4,0,0,1-1.2-.09Zm14.84,0v8.84a6.47,6.47,0,0,1-3.26.08,6.74,6.74,0,0,0-4.2.52v-9.7a3.72,3.72,0,0,1,3.34-.34A4.24,4.24,0,0,0,63.3,68v.52a4.8,4.8,0,0,0,1.29-.09Zm-7.46,8.49V68.19a3.51,3.51,0,0,0-3.26-.34A4.49,4.49,0,0,1,51,68v8.15c.43.26,1.72,0,3-.17,2.58-.34,3.18.94,3.18.94Zm0,0V68.19a3.72,3.72,0,0,1,3.34-.34A4.24,4.24,0,0,0,63.3,68v8.15c-.34.26-1.71,0-2.91-.17-2.58-.34-3.26.94-3.26.94Zm3.69,8.49s-.52-.42-.18-.85c.18-.17.86-.69.86-1.38a1.41,1.41,0,0,0-.94-1.28,1.31,1.31,0,0,1-.86-.77,1.14,1.14,0,0,1-.77.77,1.49,1.49,0,0,0-1,1.28c0,.69.69,1.21.86,1.38.34.43-.17.85-.17.85s-.52.35-.86-.08c-.09-.26-.34-1.12-1-1.29a1.49,1.49,0,0,0-1.54.52,1.1,1.1,0,0,1-.95.6,1.16,1.16,0,0,1,.43,1,1.32,1.32,0,0,0,.94,1.28c.6.26,1.38-.25,1.63-.34.43-.26.69.43.69.43s.17.6-.34.77A1.89,1.89,0,0,0,56,89a1.58,1.58,0,0,0,.09,1.63,1.26,1.26,0,0,1,.26,1,1.33,1.33,0,0,1,1-.09,1.36,1.36,0,0,0,1.54-.42,2.31,2.31,0,0,0,.17-1.63c-.08-.52.6-.6.6-.6s.69.08.6.6a2.31,2.31,0,0,0,.17,1.63,1.41,1.41,0,0,0,1.55.42,1.6,1.6,0,0,1,1.11.09,1.59,1.59,0,0,1,.17-1A1.41,1.41,0,0,0,63.39,89a1.89,1.89,0,0,0-1.54-.6c-.52-.17-.35-.77-.35-.77s.26-.69.77-.43c.18.09.95.6,1.55.34a1.32,1.32,0,0,0,.94-1.28,1.16,1.16,0,0,1,.43-1,1.31,1.31,0,0,1-.94-.6,1.52,1.52,0,0,0-1.55-.52c-.6.17-.94,1-1,1.29-.25.43-.85.08-.85.08ZM47.18,88.87s.68.08.6.6a2.73,2.73,0,0,0,.08,1.63,1.53,1.53,0,0,0,1.63.42,1.38,1.38,0,0,1,1,.09,1.26,1.26,0,0,1,.26-1A1.57,1.57,0,0,0,50.87,89a1.89,1.89,0,0,0-1.55-.6c-.51-.17-.34-.77-.34-.77s.26-.69.69-.43c.25.09.94.6,1.63.34a1.32,1.32,0,0,0,.94-1.28,1.16,1.16,0,0,1,.43-1,1.09,1.09,0,0,1-1-.6,1.56,1.56,0,0,0-1.54-.52c-.69.17-.94,1-1.12,1.29-.25.43-.77.08-.77.08h0s-.51-.42-.17-.85c.17-.17.86-.69.86-1.38a1.49,1.49,0,0,0-1-1.28c-.43-.17-.86-.43-.94-.77h-.6v7.72Z"/><path class="cls-1" d="M25.48,85.86h6.26a5.26,5.26,0,0,0,.68.26,4.79,4.79,0,0,1,1.12.52,3.29,3.29,0,0,1-.86.08,3.2,3.2,0,0,1-.6-.08s-1.29-.26-1.46.6h-5l-.17-1.38Z"/><path class="cls-1" d="M25.05,79h4.54a1.25,1.25,0,0,0,.17,1.29H25.05V79Z"/><path class="cls-1" d="M31.31,79h2.32s-1.21.09-1.12.94a.91.91,0,0,0-1.12.18,2.52,2.52,0,0,0,0-.86.41.41,0,0,0-.08-.26Z"/><path class="cls-1" d="M25.13,72.14H33.2a1.12,1.12,0,0,0,.34,1.2c-.09,0-.09.09-.26.09H25.13V72.14Z"/><path class="cls-1" d="M37.83,92.81h6.6a5.91,5.91,0,0,1,.09,1.29h-9a3.08,3.08,0,0,0,.09-.69c.08-.26.17-.43.43-.43.6,1.12,1.45.69,1.71.17.09-.08.09-.34.09-.34Z"/><path class="cls-1" d="M27.19,92.81h7a.65.65,0,0,1-.18.43,1,1,0,0,0-.51.86H27.62l-.43-1.29Z"/><path class="cls-1" d="M45.38,72.14h1.11v1.29h-.6s-.17-1.12-1.2-1a1.86,1.86,0,0,0,.69-.34Z"/><path class="cls-1" d="M30.62,99.67h13a2.77,2.77,0,0,0-.26.52,3.51,3.51,0,0,1-.77.86h-11l-1-1.38Z"/><path class="cls-1" d="M46.41,92.81H65.62s-.17.52-.43,1.29H46.41V92.81Z"/><path class="cls-1" d="M46.41,79H67.85a12.3,12.3,0,0,1-.09,1.29H46.41V79Z"/><path class="cls-1" d="M59.79,85.86a1,1,0,0,1,.94,1,1.07,1.07,0,0,1-1,1.12,1,1,0,0,1-1-1,.77.77,0,0,0,.69.43.94.94,0,0,0,.94-.85,1,1,0,0,0-.51-.78Z"/><path class="cls-1" d="M47.26,85.86a1.11,1.11,0,0,1,1,1,1.07,1.07,0,0,1-1,1.12,1.13,1.13,0,0,1-1.12-1,.89.89,0,0,0,.77.43.86.86,0,0,0,.86-.85.91.91,0,0,0-.43-.78Z"/><path class="cls-10" d="M46.41,83.72c0-.52-.43-2.4-1.29-2.57"/><path class="cls-1" d="M45.12,81.15a2,2,0,0,1,.26-.78,2.92,2.92,0,0,0,.25-1.11,1.26,1.26,0,0,0,.35-.77,8.74,8.74,0,0,0,0-2.06c-.17-.69-.69-.69-.86-.77.34-.09.6-.26.77-.86a6.22,6.22,0,0,0,0-1.37h.52v9.95a1.83,1.83,0,0,1-.09-.52c-.17-.68-.6-1.71-1.2-1.71Z"/></g></g></svg>