<svg xmlns="http://www.w3.org/2000/svg" width="31.999" height="32" viewBox="0 0 31.999 32">
  <g id="Group_215" data-name="Group 215" transform="translate(-595.266 -69.119)">
    <path id="Path_152" data-name="Path 152" d="M611.265,69.119a16,16,0,1,1-16,16,16.008,16.008,0,0,1,16-16" fill="#f59953"/>
    <path id="Path_153" data-name="Path 153" d="M608.66,85.029c-.666.008-1.075.63-1.39,1.13-.679,1.078-1.413,2.221-2.046,3.183a1.047,1.047,0,0,1-.856.607.639.639,0,0,1-.547-.889c.515-1.081,2.746-4.975,2.746-8.25,0-1.133-.6-1.406-1.406-1.406h-2.812a.7.7,0,0,1,0-1.406H615a.7.7,0,1,1,0,1.406H612.19c-.8,0-1.406.273-1.406,1.406,0,3.274,2.231,7.168,2.746,8.25a.638.638,0,0,1-.547.889,1.048,1.048,0,0,1-.856-.607c-.633-.962-1.368-2.1-2.046-3.183-.318-.5-.731-1.133-1.406-1.13Z" transform="translate(2.589 3.604)" fill="#fff"/>
    <path id="Path_154" data-name="Path 154" d="M607.255,74.5a2.109,2.109,0,1,1-2.109,2.109,2.11,2.11,0,0,1,2.109-2.109" transform="translate(4.01 2.184)" fill="#fff"/>
  </g>
</svg>
