<svg xmlns="http://www.w3.org/2000/svg" width="15.896" height="15.899" viewBox="0 0 15.896 15.899">
  <g id="instagram-outline" transform="translate(-0.449 0)">
    <path id="Path_542" data-name="Path 542" d="M16.3,4.674a5.81,5.81,0,0,0-.37-1.929A4.073,4.073,0,0,0,13.608.419,5.824,5.824,0,0,0,11.679.05C10.828.009,10.558,0,8.4,0S5.971.009,5.123.047a5.811,5.811,0,0,0-1.929.37,3.879,3.879,0,0,0-1.41.919A3.914,3.914,0,0,0,.868,2.743,5.825,5.825,0,0,0,.5,4.671c-.04.851-.05,1.121-.05,3.28S.458,10.38.5,11.228a5.809,5.809,0,0,0,.37,1.929,4.072,4.072,0,0,0,2.326,2.326,5.825,5.825,0,0,0,1.929.37c.848.037,1.118.047,3.277.047s2.429-.009,3.277-.047a5.808,5.808,0,0,0,1.929-.37,4.067,4.067,0,0,0,2.326-2.326,5.829,5.829,0,0,0,.37-1.929c.037-.848.047-1.118.047-3.277s0-2.429-.04-3.277Zm-1.432,6.491a4.358,4.358,0,0,1-.273,1.475,2.637,2.637,0,0,1-1.509,1.509,4.373,4.373,0,0,1-1.475.273c-.839.037-1.09.047-3.211.047s-2.376-.009-3.212-.047a4.355,4.355,0,0,1-1.475-.273,2.446,2.446,0,0,1-.913-.593,2.472,2.472,0,0,1-.593-.913,4.374,4.374,0,0,1-.273-1.475c-.037-.839-.047-1.09-.047-3.212s.009-2.376.047-3.211A4.356,4.356,0,0,1,2.21,3.271a2.417,2.417,0,0,1,.6-.913,2.468,2.468,0,0,1,.913-.593,4.376,4.376,0,0,1,1.475-.273c.839-.037,1.09-.047,3.211-.047s2.376.009,3.212.047a4.358,4.358,0,0,1,1.475.273,2.445,2.445,0,0,1,.913.593,2.471,2.471,0,0,1,.593.913,4.375,4.375,0,0,1,.273,1.475c.037.839.047,1.09.047,3.211s-.009,2.37-.047,3.208Zm0,0" fill="#0652a4"/>
    <path id="Path_543" data-name="Path 543" d="M129.033,124.5a4.084,4.084,0,1,0,4.084,4.084A4.085,4.085,0,0,0,129.033,124.5Zm0,6.734a2.649,2.649,0,1,1,2.649-2.649A2.65,2.65,0,0,1,129.033,131.234Zm0,0" transform="translate(-120.634 -120.633)" fill="#0652a4"/>
    <path id="Path_544" data-name="Path 544" d="M364.357,89.555a.954.954,0,1,1-.954-.953A.954.954,0,0,1,364.357,89.555Zm0,0" transform="translate(-350.758 -85.85)" fill="#0652a4"/>
  </g>
</svg>
