<svg id="skill-development" xmlns="http://www.w3.org/2000/svg" width="44.001" height="44.001" viewBox="0 0 44.001 44.001">
  <path id="Path_170" data-name="Path 170" d="M18.133,264.29v-3.953a5.156,5.156,0,0,1,0-10.313v-3.867H10.927l.613-1.722a2.523,2.523,0,0,0,.147-.856,2.578,2.578,0,0,0-5.156,0,2.523,2.523,0,0,0,.147.856l.613,1.722H0A19.62,19.62,0,0,0,18.133,264.29Z" transform="translate(0 -220.288)" fill="#79bcef"/>
  <path id="Path_171" data-name="Path 171" d="M9.11,74.586a5.161,5.161,0,0,1,5.156,5.156h3.867V72.536l1.722.613a2.577,2.577,0,1,0,0-4.862l-1.722.613V61.76A19.477,19.477,0,0,0,0,79.742H3.953A5.161,5.161,0,0,1,9.11,74.586Z" transform="translate(0 -56.452)" fill="#79bcef"/>
  <path id="Path_172" data-name="Path 172" d="M204.138,301h-3.8a5.156,5.156,0,1,1-10.313,0h-3.867v7.206l-1.722-.613a2.577,2.577,0,1,0,0,4.862l1.722-.613v7.292A19.477,19.477,0,0,0,204.138,301Z" transform="translate(-165.445 -275.132)" fill="#79bcef"/>
  <path id="Path_173" data-name="Path 173" d="M259.047,10.4V5.242h-5.156a5.157,5.157,0,1,0-10.313,0H241V9.11a5.156,5.156,0,0,1,0,10.313V23.29h7.206l-.613,1.722a2.523,2.523,0,0,0-.147.856,2.578,2.578,0,1,0,5.156,0,2.523,2.523,0,0,0-.147-.856l-.613-1.722h7.206V20.712a5.236,5.236,0,0,0,5.242-5.156A5.236,5.236,0,0,0,259.047,10.4Z" transform="translate(-220.288)" fill="#79bcef"/>
</svg>
