<?xml version="1.0" encoding="utf-8"?>
<!-- Generator: Adobe Illustrator 15.1.0, SVG Export Plug-In . SVG Version: 6.00 Build 0)  -->
<!DOCTYPE svg PUBLIC "-//W3C//DTD SVG 1.1//EN" "http://www.w3.org/Graphics/SVG/1.1/DTD/svg11.dtd">
<svg version="1.1" id="Laag_1" xmlns="http://www.w3.org/2000/svg" xmlns:xlink="http://www.w3.org/1999/xlink" x="0px" y="0px"
	 width="822.05px" height="255.12px" viewBox="0 0 822.05 255.12" enable-background="new 0 0 822.05 255.12" xml:space="preserve">
<g>
	<polygon points="102.139,18.316 46.722,76.732 46.722,18.316 12.948,18.316 12.948,165.133 46.722,165.133 46.722,118.404 
		61.168,103.491 103.595,165.133 144.317,165.133 83.869,80.006 143.509,18.316 	"/>
	<rect x="169.7" y="18.316" width="33.78" height="146.817"/>
	<g>
		<defs>
			<rect id="SVGID_1_" x="12.945" y="16.835" width="796" height="221.929"/>
		</defs>
		<clipPath id="SVGID_2_">
			<use xlink:href="#SVGID_1_"  overflow="visible"/>
		</clipPath>
		<path clip-path="url(#SVGID_2_)" d="M449.765,91.754c0-25.333,18.38-44.447,42.752-44.447c24.621,0,43.181,19.29,43.181,44.875
			v0.422c0,25.338-18.379,44.442-42.752,44.442c-24.62,0-43.181-19.285-43.181-44.865V91.754z M492.934,16.835
			c-43.503,0-77.585,33.094-77.585,75.347v0.4c0,42.724,33.182,74.947,77.18,74.947c43.504,0,77.585-33.1,77.585-75.347v-0.411
			C570.113,49.046,536.932,16.835,492.934,16.835"/>
	</g>
	<polygon points="629.253,18.316 595.474,18.316 595.474,165.138 698.771,165.138 698.771,134.145 629.253,134.145 	"/>
	<polygon points="690.313,18.316 690.313,49.704 732.731,49.704 732.731,165.138 766.516,165.138 766.516,49.704 808.945,49.704 
		808.945,18.316 	"/>
	<polygon points="413.507,18.097 376.968,18.097 343.5,115.289 309.766,18.097 272.805,18.097 222.248,164.914 259.214,164.903 
		292.286,68.851 326.416,164.914 362.955,164.903 	"/>
	<g>
		<defs>
			<rect id="SVGID_3_" x="12.945" y="16.835" width="796" height="221.929"/>
		</defs>
		<clipPath id="SVGID_4_">
			<use xlink:href="#SVGID_3_"  overflow="visible"/>
		</clipPath>
		<path clip-path="url(#SVGID_4_)" d="M750.589,216.781h-7.986v-9.369h7.8c3.543,0,6.203,0.939,6.203,4.559
			C756.605,215.092,754.56,216.781,750.589,216.781 M735.835,200.914v37.098h6.768v-14.988h5.759l10.223,14.988h8.255l-11.16-15.736
			c4.586-1.31,7.503-5.243,7.503-10.305c0-7.365-5.023-11.057-13.273-11.057H735.835z M690.275,200.914v37.098h25.542v-6.428
			h-18.912v-10.119h15.5v-6.435h-15.5v-7.618h18.912v-6.498H690.275z M620.653,200.914l13.454,37.098h3.345l8.93-22.92l8.304,22.92
			h3.351l14.627-37.098h-7.184l-8.93,22.986l-8.489-22.986h-3.225l-8.864,22.925l-8.062-22.925H620.653z M579.179,228.71
			c-2.539-2.441-3.844-5.501-3.844-9.308c0-6.807,5.638-12.494,12.405-12.494c6.878,0,12.396,5.628,12.396,12.68
			c0,7.06-5.583,12.681-12.521,12.681C584.637,232.269,581.538,230.952,579.179,228.71 M573.354,232.269
			c3.593,3.999,8.989,6.495,14.199,6.495c10.663,0,19.339-8.616,19.339-19.176c0-10.431-8.676-19.167-19.092-19.167
			c-10.36,0-19.224,8.736-19.224,18.981C568.577,224.147,570.256,228.644,573.354,232.269 M539.443,216.655h-7.996v-9.243h7.75
			c4.211,0,6.011,1.438,6.011,4.559C545.208,215.03,543.282,216.655,539.443,216.655 M524.756,200.914v37.098h6.691v-14.988h8.183
			c7.568,0,12.209-4.186,12.209-10.992c0-7.06-4.767-11.117-13.142-11.117H524.756z M458.041,231.584h-4.333v-24.172h4.333
			c7.941,0,12.834,4.619,12.834,12.111C470.875,226.768,465.796,231.584,458.041,231.584 M446.946,200.914v37.098H457.8
			c11.901,0,19.832-7.426,19.832-18.549c0-11.111-7.931-18.549-19.777-18.549H446.946z M401.133,200.914v37.098h25.548v-6.428
			h-18.912v-10.119h15.5v-6.435h-15.5v-7.618h18.912v-6.498H401.133z M365.736,207.412v30.6h6.631v-30.6h10.788v-6.498h-28.202
			v6.498H365.736z M324.327,238.764c8.37,0,14.32-4.751,14.32-11.43c0-5.616-2.913-8.869-11.654-11.117
			c-4.399-1.125-7.877-2.123-7.877-5.305c0-2.38,2.545-4.186,6.516-4.186c2.967,0,5.331,1.246,7.931,3.621l4.519-4.937
			c-3.28-3.187-7.618-4.99-12.264-4.99c-8.128,0-13.893,4.244-13.893,10.738c0,5.243,3.165,8.804,10.229,10.559
			c5.397,1.306,9.357,2.183,9.357,5.741c0,2.628-2.841,4.81-6.752,4.81c-3.845,0-7.442-1.502-9.115-3.685l-5.019,4.491
			C313.353,236.515,318.436,238.764,324.327,238.764 M265.554,233.327c2.418,3.247,6.702,5.31,12.027,5.31
			c5.271,0,9.483-2.062,11.962-5.31c1.799-2.243,2.545-4.864,2.545-8.988v-23.425h-6.691v22.427c0,6.181-2.051,8.802-7.875,8.802
			c-5.771,0-7.811-2.621-7.811-8.802v-22.427h-6.697v23.425C263.015,228.463,263.755,231.084,265.554,233.327 M230.53,216.781
			h-7.997v-9.369h7.811c3.532,0,6.203,0.939,6.203,4.559C236.546,215.092,234.495,216.781,230.53,216.781 M215.776,200.914v37.098
			h6.756v-14.988h5.759l10.234,14.988h8.25l-11.162-15.736c4.59-1.31,7.503-5.243,7.503-10.305c0-7.365-5.029-11.057-13.272-11.057
			H215.776z M180.625,207.412v30.6h6.631v-30.6h10.793v-6.498h-28.216v6.498H180.625z"/>
	</g>
</g>
</svg>
