<svg width="110" height="43" xmlns="http://www.w3.org/2000/svg" viewBox="0 0 110 43.79"><defs><style>.cls-1{fill:#003087;}</style></defs><title>Asset 3</title><g id="Layer_2" data-name="Layer 2"><g id="Layer_1-2" data-name="Layer 1"><path class="cls-1" d="M85.58,0V21.85l-.28.23-.28.23-.27.24-.25.24-.25.24-.24.26-.23.25-.23.25V0H59.12V19.89h-2V0H32.68V19.92h-2V0H6.24V22.71L0,43.3H5.48l2.75-9.11H9l4.56,9.11h6.61l-4.41-9.11h10L23,43.3h6l2.74-9.09h1.32v0H46.39l-2.64,9.09h6l2.56-9.09h2.72l.07,9.09H60.2L66,34.19h3.81l-2,9.09H73.8l1.94-9.09h3.44l0,.51v.53l0,.51,0,.51,0,.24,0,.24,0,.24.05.24.06.24.06.24.06.22.07.24.09.23.08.21.09.22L80,39l.11.22.1.21.12.19.11.21.13.19.14.19.14.19.15.18.15.18.15.17.18.18.17.16.22.18.22.19.24.17.24.16.24.16.25.15.25.13.27.13.26.12.26.12.27.1.28.1.28.09.28.09.27.08.28.06.56.13.57.09.56.09.55.06.55.05.54,0,.52,0h.5l.67,0h.67l.69,0,.68,0,.69-.06.68-.06.69-.07.68-.08.7-.09.7-.11.69-.11.7-.12.7-.12.69-.14.7-.14.71-.16,2.07-8.25H110V0ZM8.5,33.33l0-.12.08.12ZM29.78,21.09l-.35,1.16L26.18,33l-.13.38H15.36l-.82-1.75L26.05,19.93h-7.4l-9,9.61,2.92-9.61H7.11V.86H29.78V21.09Zm6.3,9-.17,0H33.1l.67-2.47.31-1.22.77-2.86h2.79l.63,0h.27l.27,0,.26,0,.23,0,.21,0,.19.06.19.05.16.07.14.07.13.09.12.1.09.11.06.09,0,.1,0,.1,0,.11,0,.13v.74l0,.18,0,.19-.11.39-.12.43-.13.37-.14.36-.15.33-.17.31-.08.14-.08.14-.09.14-.11.13-.1.12-.1.12-.12.11-.12.11-.12.09-.13.1-.14.08-.15.09-.15.09-.17.06-.16.07-.17.06-.19.07-.2.05-.21,0-.2.05-.24,0-.23,0-.24,0-.26,0Zm16.52,3.2L55,24.93l.09,8.4Zm3.62-13.44H50.55l-3.9,13.44h-6l.28-.11.28-.12.27-.11.27-.13.25-.12.24-.15.25-.14.23-.15.23-.16.22-.16.21-.16.21-.19.2-.17.19-.2.18-.18.18-.21.17-.19.16-.22.15-.21L45,30l.14-.23.13-.23.13-.24.12-.26.11-.25.11-.25.09-.27.09-.27.07-.28.08-.28.06-.3.06-.28.08-.46.07-.44.05-.41,0-.4v-1.1l0-.34,0-.31-.08-.31-.09-.28L46,22.55l-.13-.26L45.72,22l-.16-.24-.19-.23-.15-.16-.15-.16-.16-.14L44.73,21l-.18-.12-.19-.12-.2-.1-.19-.1-.21-.09-.21-.07-.22-.07-.22-.06-.23-.06-.24-.05-.23-.05-.24,0-.5-.07-.5,0-.51,0H33.55V.87H56.22v19ZM70,33.33h-3.4l5.16-8ZM82.66,20.27v4.66l-.29.4-.27.42-.26.41-.25.42-.23.41-.23.43-.2.41-.2.42-.18.4-.17.41-.16.41-.14.39-.13.39-.11.38-.11.37-.09.37-.06.24-.06.25-.05.24,0,.26,0,.24,0,.24,0,.24,0,.25H75.94l2.84-13.41H69.19L60.61,33.33H60V.87H82.66v19.4ZM95.74,38.82l-.48.09-.49.06-.48.07-.48.06-.47,0-.48,0-.47,0H91.33l-.29,0-.29,0-.28,0L90.2,39l-.27,0-.25-.07-.25-.08-.24-.08L89,38.65l-.22-.1-.23-.13-.2-.12-.2-.14L87.92,38l-.18-.16-.17-.17-.16-.18-.15-.19-.14-.2L87,36.9l-.11-.22-.12-.23-.09-.24L86.59,36l-.07-.27-.07-.27,0-.29,0-.3,0-.31v-.32H96.9l-1.16,4.64Zm13.4-5.49h-5.71l.94-3.75H92.92L92,33.33H86.44v-.77l.07-.32,0-.32.07-.35.07-.34.11-.38.1-.38.12-.38.13-.37.14-.37.15-.37.16-.35.16-.36.19-.36.18-.33.2-.35.22-.32.22-.32.22-.31.25-.3.25-.29.27-.27.27-.26.29-.25.29-.24.3-.22.32-.21.33-.18.34-.17.34-.17.36-.13.38-.12.38-.09.4-.08.4-.06.42,0,.43,0,.34,0,.33,0,.34,0,.32.07.17.05.15.05.15,0,.14.07.14.06.14.08.12.08.13.08.12.1.11.11.11.1.1.13.1.11.08.14.07.15.07.15.06.16,0,.17,0,.18,0,.19v.62l0,.23h6.83l.1-.47.1-.54,0-.29,0-.31,0-.31v-.65l0-.35,0-.16,0-.17-.05-.18,0-.17,0-.18-.06-.18-.07-.17-.08-.17-.09-.17-.1-.18-.1-.17-.12-.17-.14-.19-.15-.17-.15-.17-.17-.16-.17-.16-.18-.15-.19-.14-.2-.14L103.1,20l-.21-.11-.22-.12-.23-.11-.23-.11-.25-.1-.25-.09-.26-.09-.25-.09-.28-.06-.27-.07-.29-.07-.29-.06-.29-.06-.3,0-.31,0-.64-.07-.65-.05-.69,0H95.43l-.57,0-.59,0-.62.07-.63.08-.64.11-.65.14-.32.06-.34.09-.32.09-.34.09-.34.1-.33.12-.34.11-.33.13-.33.14-.34.15-.32.15-.34.16-.33.17-.32.18-.33.19-.32.21V.86h22.7V33.33Z"/></g></g></svg>