<svg xmlns="http://www.w3.org/2000/svg" viewBox="0 0 300 85.3" width="85" height="25"><defs><style>.cls-1{fill:#069;}.cls-2{fill:#fff;}</style></defs><title>Asset 1</title><g id="Layer_2" data-name="Layer 2"><g id="Layer_1-2" data-name="Layer 1"><path class="cls-1" d="M300,76.77a8.51,8.51,0,0,1-8.5,8.53H224.2a8.51,8.51,0,0,1-8.5-8.53V8.53A8.51,8.51,0,0,1,224.2,0h67.3A8.51,8.51,0,0,1,300,8.53Z"/><path d="M0,17.2H11.34V57.94h20v9.55H0Z"/><path d="M47.08,20.86c0,3.13-2.31,5.67-6.12,5.67a5.59,5.59,0,0,1-5.89-5.67c0-3.21,2.38-5.67,6-5.67A5.6,5.6,0,0,1,47.08,20.86ZM35.37,67.49V31H46.71V67.49Z"/><path d="M53.49,42.64c0-4.55-.14-8.35-.29-11.64h9.85l.52,5.08h.22a13.1,13.1,0,0,1,11.27-5.9c7.46,0,13.06,5,13.06,15.75V67.49H76.77V47.27c0-4.7-1.64-7.91-5.74-7.91a6.24,6.24,0,0,0-5.82,4.25,8.16,8.16,0,0,0-.37,2.84v21H53.49Z"/><path d="M106.25,46.37h.15A49.6,49.6,0,0,1,109,42l7.38-11h13.66L117,45.78l14.92,21.71H118l-8.88-15-2.83,3.58V67.49H94.9v-53h11.35Z"/><path d="M140.72,52.87c.3,4.7,5,6.94,10.3,6.94a30.15,30.15,0,0,0,10.07-1.57l1.49,7.68a34.43,34.43,0,0,1-13.21,2.32c-12.38,0-19.47-7.17-19.47-18.58,0-9.25,5.74-19.48,18.43-19.48,11.79,0,16.27,9.18,16.27,18.21a26.72,26.72,0,0,1-.38,4.48Zm13.35-7.76c0-2.76-1.19-7.39-6.41-7.39-4.78,0-6.72,4.4-7,7.39Z"/><path d="M204.44,14.51V56.6c0,4.1.15,8.43.3,10.89H194.66l-.44-5.3H194c-2.24,4-6.71,6.12-11.41,6.12-8.66,0-15.6-7.38-15.6-18.73-.07-12.31,7.61-19.47,16.34-19.47,4.55,0,8,1.64,9.63,4.1h.15V14.51ZM193.1,46.45a10.14,10.14,0,0,0-.15-2.09,6.83,6.83,0,0,0-6.64-5.52c-5.23,0-7.84,4.63-7.84,10.37,0,6.19,3.06,10.07,7.76,10.07a6.71,6.71,0,0,0,6.64-5.44,14.74,14.74,0,0,0,.23-2.61Z"/><path class="cls-2" d="M243.12,20.86c0,3.13-2.31,5.67-6.12,5.67a5.59,5.59,0,0,1-5.89-5.67c0-3.21,2.39-5.67,6-5.67A5.6,5.6,0,0,1,243.12,20.86ZM231.41,67.49V31h11.34V67.49Z"/><path class="cls-2" d="M249.54,42.64c0-4.55-.15-8.35-.3-11.64h9.85l.52,5.08h.22a13.12,13.12,0,0,1,11.27-5.9c7.46,0,13.06,5,13.06,15.75V67.49H272.82V47.27c0-4.7-1.64-7.91-5.75-7.91a6.24,6.24,0,0,0-5.82,4.25,8.16,8.16,0,0,0-.37,2.84v21H249.54Z"/></g></g></svg>