<svg xmlns="http://www.w3.org/2000/svg" viewBox="0 0 36.67 35.04" width="16" height="19"><defs><style>.cls-1{isolation:isolate;}.cls-2{fill:#ffffff;}</style></defs><title>Asset 14</title><g id="Layer_2" data-name="Layer 2"><g id="Layer_1-2" data-name="Layer 1"><g id="_" data-name=" " class="cls-1"><g class="cls-1"><path class="cls-2" d="M8.83,4.08A3.76,3.76,0,0,1,7.63,7,4.51,4.51,0,0,1,4.39,8.16h0A4.32,4.32,0,0,1,1.19,7,3.93,3.93,0,0,1,0,4.08,3.83,3.83,0,0,1,1.23,1.16,4.5,4.5,0,0,1,4.44,0,4.4,4.4,0,0,1,7.62,1.16,4,4,0,0,1,8.83,4.08Zm-.5,7.31V35H.45V11.39ZM36.67,21.48V35H28.81V22.39a7,7,0,0,0-1-3.93,3.43,3.43,0,0,0-3-1.42,3.84,3.84,0,0,0-2.52.83,5.12,5.12,0,0,0-1.52,2,5.91,5.91,0,0,0-.26,1.93V35H12.68q0-9.52,0-15.44c0-4,0-6.3,0-7.07l0-1.14h7.85v3.43h-.05a10.68,10.68,0,0,1,1-1.33,9.43,9.43,0,0,1,1.35-1.24,6,6,0,0,1,2.08-1,9.34,9.34,0,0,1,2.73-.37,8.45,8.45,0,0,1,6.56,2.71C35.84,15.35,36.67,18,36.67,21.48Z"/></g></g></g></g></svg>