<svg xmlns="http://www.w3.org/2000/svg" width="25" height="45" viewBox="0 0 25 45">
  <g id="location" transform="translate(-111 -11)">
    <g id="Group_426" data-name="Group 426" transform="translate(111 11)">
      <g id="Group_425" data-name="Group 425" transform="translate(0)">
        <g id="Group_424" data-name="Group 424">
          <path id="Path_457" data-name="Path 457" d="M123.5,56,112.879,31.4A15.805,15.805,0,0,1,111,24.408C111,17.034,116.621,11,123.5,11S136,17.034,136,24.408a15.922,15.922,0,0,1-1.871,6.989v.092Zm-9.017-25.273L123.5,51.693l9.1-21.067a13.993,13.993,0,0,0,1.7-6.227c0-6.419-4.819-11.581-10.8-11.581s-10.8,5.17-10.8,11.59a14.028,14.028,0,0,0,1.7,6.227l.086.092Zm9.017,2.195c-4.379,0-7.948-3.83-7.948-8.522s3.569-8.522,7.948-8.522,7.948,3.83,7.948,8.522S127.879,32.921,123.5,32.921Zm0-15.217a6.447,6.447,0,0,0-6.25,6.7,6.265,6.265,0,1,0,12.5,0A6.447,6.447,0,0,0,123.5,17.7Z" transform="translate(-111 -11)" fill="#ff5f3b"/>
        </g>
      </g>
    </g>
  </g>
</svg>
