<svg xmlns="http://www.w3.org/2000/svg" width="186" height="65" viewBox="0 0 150 52.199">
  <g id="Layer_2" data-name="Layer 2" transform="translate(0 -0.001)" style="isolation: isolate">
    <g id="Layer_1" data-name="Layer 1" transform="translate(0 0.001)">
      <path id="Path_1" data-name="Path 1" d="M322.185,24.818a2.785,2.785,0,0,1-2.361.946c-.814-.023-.29-.835-.624-1.16a.592.592,0,0,1-.1-.232c-.448-1.322-.911-2.639-1.324-3.973a1.278,1.278,0,0,1,.072-.854,3.674,3.674,0,0,0-.6-4,.928.928,0,0,1-.2-.55c.1-.84.552-1.839-.963-1.821-.475-.87-1.069-.38-1.723-.232-1,.232-2.164.64-2.936-.438-.7-.983-1.955-1.814-1.266-3.351a.9.9,0,0,0,.012-.522c-.278-1.29.438-2.138,1.271-2.948a4.16,4.16,0,0,0,.522-.68c.25-.371.464-.772.733-1.127.311-.406.615-.742-.065-1.113a.789.789,0,0,1-.3-.7c.16-.619-.121-.8-.645-.99A17.689,17.689,0,0,0,300.958.618c-1.556.413-3.212.8-3.711,2.711-.023.093-.158.172-.257.232C295.995,4.1,295.1,4.7,295.73,6.3c-.369-.257-.524-.308-.578-.411-.48-.928-.928-1.051-1.888-.735-1.072.355-1.549,1.278-2.194,2.043a.952.952,0,0,0,.167,1.552c.578.392,1.03.169,1.392-.38a3.1,3.1,0,0,1,.575-.52l.22.176c-.128.515-.257,1.032-.408,1.624.329.019.6-.042.768.063.22.137.5.4.513.615.058,1.445.037,1.445,1.392,1.512.012,0,.021.042.032.067-1.116.359-1.392.232-2.064-.849a1.392,1.392,0,0,0-.517-.573c-1.109-.464-2.24-.886-3.344-1.313a18.109,18.109,0,0,0,1.183,20.1,18.337,18.337,0,0,0,20.282,6.341c5.237-1.7,11.365-7.828,11.386-11.5A6.888,6.888,0,0,1,322.185,24.818Zm-14.774-7.065a4.281,4.281,0,0,0-.784,2.8,1.569,1.569,0,0,1-1.259,1.753c-.557.121-.666.547-.763,1.111a8.454,8.454,0,0,1-.872,2.254c-.081.162-.517.148-.849.232.232.587.538,1.257-.526,1.336.07.464-.837.6-.41,1.259.128.2-.135.645-.044.974A4.443,4.443,0,0,0,302,30.8a10.528,10.528,0,0,0,.928,1.549.392.392,0,0,1-.269.058,3.479,3.479,0,0,1-2.621-3.562c.026-.341-.366-.7-.42-1.06-.257-1.756-.526-3.516-.666-5.283-.093-1.16-.274-2.138-1.477-2.741-.482-.232-.749-.928-1.085-1.438a5.522,5.522,0,0,1-.928-1.57,3.251,3.251,0,0,1,.037-2.162,2.558,2.558,0,0,0,.232-2.683c.232-.058.582-.058.647-.2.48-.983,1.241-.589,1.978-.5a4.294,4.294,0,0,1,3.112,1.573c.1.128.408.07.566.179.392.26.969.492,1.067.865.357,1.192,1.431,1.348,2.294,1.8.585.311,1.229.5,1.8.826A.809.809,0,0,1,307.411,17.753Z" transform="translate(-220.668 -0.001)" fill="#ffffff"/>
      <path id="Path_2" data-name="Path 2" d="M160.932,4.766A18.427,18.427,0,0,0,149.66,1.15c-4.277-.063-10.511,0-15.11-.03.03,10.945.016,24.179.016,34.866v1.141h1.139c4.339,0,8.679.019,13.016,0a25.445,25.445,0,0,0,3.593-.232c5.947-.879,10.534-3.755,13.262-9.247a19.384,19.384,0,0,0,1.758-10.437C166.916,12.181,165.017,7.892,160.932,4.766Zm-2.816,19.816a8,8,0,0,1-6.348,4.752c-3,.371-6.056.29-9.145.408V8.788a74.879,74.879,0,0,1,8.581.06c4.407.513,7.577,4.235,7.962,8.786A12.833,12.833,0,0,1,158.117,24.582Z" transform="translate(-103.344 -0.861)" fill="#ffffff"/>
      <path id="Path_3" data-name="Path 3" d="M8.132,22.171H9.56c4.465,0,10.78-.019,15.539.014V15.127H24.042c-4.982.039-9.973.019-14.946.019H8.169V9.182h19.3V1.51H0V37.362H27.461v-7.64H8.132Z" transform="translate(0 -1.16)" fill="#ffffff"/>
      <path id="Path_4" data-name="Path 4" d="M466.283,1.671c-2.041,2.9-6.121,8.765-6.937,9.922-1.946-2.783-4.817-6.879-6.935-9.927-2.714.014-7.276,0-10.057,0,3.878,5.539,8.213,11.733,11.965,17.089-4.152,5.914-8.96,12.756-13.22,18.807h10.177c2.319-3.3,7.218-10.309,8.085-11.543.376.522,5.437,7.716,8.118,11.562,3.3-.028,9.574-.063,10-.063-.169-.288-.248-.441-.346-.58-3.8-5.413-8.814-12.545-12.782-18.177,3.5-4.968,8.517-12.086,12.014-17.093C473.5,1.66,469.238,1.653,466.283,1.671Z" transform="translate(-338.795 -1.275)" fill="#ffffff"/>
      <path id="Path_5" data-name="Path 5" d="M610.91,1.31V37.174h8.3V1.31Z" transform="translate(-469.22 -1.006)" fill="#ffffff"/>
      <path id="Path_6" data-name="Path 6" d="M154.109,185.12c0,1.767.014,4.344.014,5.828-1.041-1.573-2.676-4.052-3.841-5.8-.879,0-1.913-.023-2.663-.023v8.955h2.2v-5.7c1.034,1.538,2.769,4.114,3.871,5.689h2.76v-8.948ZM149.538,187.968Z" transform="translate(-113.382 -142.185)" fill="#ffffff"/>
      <path id="Path_7" data-name="Path 7" d="M218.44,190.7c-1.048-1.341-2.67-3.776-3.825-5.5-.939,0-2.06-.026-2.686-.026v8.939h2.215v-5.685c1,1.5,2.642,3.964,3.815,5.712.983,0,2.118.023,2.751.023v-8.946c-.188-.016-1.359-.035-2.271-.044C218.424,186.738,218.44,189.537,218.44,190.7Zm-4.3-3.423h0s-.007,0-.012,0Z" transform="translate(-162.777 -142.223)" fill="#ffffff"/>
      <path id="Path_8" data-name="Path 8" d="M355.1,186.991v-1.74h-2.319v5.812c-1.044-1.589-2.674-4.105-3.818-5.826-.962,0-2.073-.028-2.672-.028v8.929h2.159V188.48c.958,1.431,2.619,3.964,3.8,5.754h2.848C355.09,192.084,355.1,188.946,355.1,186.991Zm-7.2.673v.012S347.888,187.668,347.895,187.664Z" transform="translate(-265.974 -142.254)" fill="#ffffff"/>
      <path id="Path_9" data-name="Path 9" d="M261.21,188.339c0,.6-.021,1.466-.026,1.9h2.47a3.165,3.165,0,0,1-4.439.635,2.612,2.612,0,0,1-.51-3.567c1.213-1.559,2.992-1.538,5.007.026l1.842-.986a5.442,5.442,0,0,0-7.605-1.252,4.421,4.421,0,0,0-.464,7.111,5.659,5.659,0,0,0,6.237.751,6.1,6.1,0,0,0,2.572-3.46c.1-.373.167-.809.232-1.16Z" transform="translate(-196.554 -141.394)" fill="#ffffff"/>
      <path id="Path_10" data-name="Path 10" d="M48.59,191.108c1.654-.791,2.261-1.786,2.053-3.229a2.612,2.612,0,0,0-2.377-2.347c-1.962-.121-3.943-.03-5.935-.03v8.9h2.213V191.34c.545,0,1.285,0,1.832-.012.311.5,1.28,1.953,2.057,3.1.867-.012,2.164-.046,2.591-.046C50.244,193.346,49.476,192.288,48.59,191.108ZM47.4,189.4c-.911.063-1.83.016-2.823.016v-2.131c.963,0,1.906-.044,2.843.016a.942.942,0,0,1,.928,1.009A.97.97,0,0,1,47.4,189.4Z" transform="translate(-32.512 -142.453)" fill="#ffffff"/>
      <path id="Path_11" data-name="Path 11" d="M397.119,185.763c-1.436-1.967-5.409-2.264-7.134-.543a2.248,2.248,0,0,0,.54,3.7,10.266,10.266,0,0,0,2.05.638,15.806,15.806,0,0,1,2,.485.721.721,0,0,1,.524.71c.018.19-.3.5-.534.608a3.729,3.729,0,0,1-3.792-1.053c-.751.232-1.545.494-2.048.656.07.123.146.232.19.3a5.832,5.832,0,0,0,7.482,1.591,2.551,2.551,0,0,0,1.1-2.983,2.409,2.409,0,0,0-1.855-1.656c-1.1-.3-2.227-.489-3.321-.793-.255-.072-.6-.417-.6-.631a.738.738,0,0,1,.508-.684,2.966,2.966,0,0,1,2.623.359,2.586,2.586,0,0,1,.582.673c.67-.165,1.623-.424,2.185-.589A6.868,6.868,0,0,0,397.119,185.763Z" transform="translate(-298.571 -141.394)" fill="#ffffff"/>
      <path id="Path_12" data-name="Path 12" d="M615.589,192.491v-1.927h4.655v-1.716h-4.639v-1.524h5.334V185.48h-7.67v8.941c2-.014,5.566-.03,7.763,0v-1.934C619.3,192.48,617.183,192.491,615.589,192.491Z" transform="translate(-471.033 -142.461)" fill="#ffffff"/>
      <path id="Path_13" data-name="Path 13" d="M535.823,191.089c-.072,1.243-.675,1.612-2.227,1.561-1.229-.042-1.749-.485-1.793-1.651-.039-1.12-.028-4.043-.025-5.566-.71.016-1.672,0-2.278,0,0,2.143.032,4.193.032,6.462a2.623,2.623,0,0,0,1.992,2.319,7.29,7.29,0,0,0,4.34.093,3.068,3.068,0,0,0,2.229-2.67c0-2.278.037-4.01.037-6.237h-2.252C535.878,185.8,535.911,189.563,535.823,191.089Z" transform="translate(-406.692 -142.4)" fill="#ffffff"/>
      <path id="Path_14" data-name="Path 14" d="M87.54,185H85.022c-.7,1.663-1.763,4.135-2.4,5.622-.464,1.09-.928,2.185-1.459,3.419.566,0,1.577-.012,2.356-.016.206-.533.564-1.392.809-1.971h3.838c.218.52.554,1.317.821,1.932.86-.012,1.937-.028,2.458-.028C91.307,193.593,88.737,187.8,87.54,185Zm-2.447,5.172c.385-.986.74-1.9,1.16-3.015.434,1.1.789,2,1.185,3.015Z" transform="translate(-62.336 -142.093)" fill="#ffffff"/>
      <path id="Path_15" data-name="Path 15" d="M.62,185.167v1.988h3.1v7.018H6.056c-.026-1.9,0-5.242,0-7.028.9.019,2.412,0,3.129,0,.014-.232.03-1.324.037-1.976C7.058,185.167,2.87,185.165.62,185.167Z" transform="translate(-0.476 -142.22)" fill="#ffffff"/>
      <path id="Path_16" data-name="Path 16" d="M486.37,185.127v1.981h3.092v6.97h2.319v-6.958c.779,0,2.227.012,3.2.014V185.12C492.7,185.15,488.708,185.127,486.37,185.127Z" transform="translate(-373.565 -142.185)" fill="#ffffff"/>
      <path id="Path_17" data-name="Path 17" d="M571.86,187.351H575v7h2.319v-7.018h3.057V185.4H571.86Z" transform="translate(-439.227 -142.4)" fill="#ffffff"/>
      <path id="Path_18" data-name="Path 18" d="M430.11,187.317h3.071v1.1c0,1.512-.019,4.114,0,5.879.837,0,1.821.03,2.37.03v-7.053h3.062V185.38h-8.5Z" transform="translate(-330.354 -142.385)" fill="#ffffff"/>
      <path id="Path_19" data-name="Path 19" d="M129.58,194.243h2.3V185.33h-2.3Z" transform="translate(-99.526 -142.346)" fill="#ffffff"/>
      <path id="Path_20" data-name="Path 20" d="M327.74,185.189c.019,2.319,0,6.457,0,8.881h2.3v-8.9C329.728,185.17,328.619,185.189,327.74,185.189Z" transform="translate(-251.726 -142.223)" fill="#ffffff"/>
      <path id="Path_21" data-name="Path 21" d="M471.68,194.3h2.266V185.45H471.68Z" transform="translate(-362.282 -142.438)" fill="#ffffff"/>
      <path id="Path_22" data-name="Path 22" d="M194.06,194.3h2.173V185.41H194.06Z" transform="translate(-149.051 -142.408)" fill="#ffffff"/>
    </g>
  </g>
</svg>
