<svg xmlns="http://www.w3.org/2000/svg" viewBox="0 0 385.81 102.58" width="160" height="43"><defs><style>.cls-1{fill:#c4a266;fill-rule:evenodd;}</style></defs><title>Asset 1</title><g id="Layer_2" data-name="Layer 2"><g id="Layer_1-2" data-name="Layer 1"><path class="cls-1" d="M273.05,65.7h-9.7l28.47-56H303l28.47,56h-9.8L314.18,51H280.54L273.05,65.7Zm37.6-21.65L297.36,17.92,284.07,44.05Zm-82-35.78L235.27.61H250l-21.4,7.66ZM209.68,65.82h50.06V59.46H218.32V40.13h30.74V33.56H218.32V16h41.16V9.79h-49.8v56Zm-68-56.09h36.87c9.84,0,17.89,7.31,17.89,16.24h0c0,7.78-6.12,14.33-14.2,15.89L199.55,65.7H189.39L172.33,42.21H149.46V65.7h-7.79v-56ZM179,16.39l.51.07.51.1.49.12.49.15.47.18.46.19.44.22.43.24.42.26.4.27.39.3.37.31.35.33.33.34.31.35.3.37.28.37.25.38.23.39.22.4.19.41.17.4.15.41.13.42.12.42.09.43.07.42.05.44,0,.44v.9l0,.44-.05.44-.07.42-.09.43-.12.42-.13.41-.15.41-.17.41-.19.41-.22.39-.23.39-.25.39-.28.37-.3.37-.31.35-.33.34-.35.33-.37.31-.39.3-.4.27-.42.26-.43.24-.44.22-.46.19-.47.18-.49.14-.49.13-.51.1-.51.07-.53,0-.6,0h-28V16.33h27.94l.62,0,.53,0ZM93.78,6.45a28.62,28.62,0,1,0,28.63,28.62A28.63,28.63,0,0,0,93.78,6.45Zm0-6.45c-21,0-38.11,15.7-38.11,35.07S72.74,70.13,93.78,70.13s38.11-15.7,38.11-35.06S114.83,0,93.78,0ZM0,65.82v-56H7.15V59.68H49.48v6.14Zm335.61,0h50.2V59.44H343.47V9.79h-7.86v56ZM155.38,102.21h-4.27l12.52-21.78h4.91l12.51,21.78h-4.31l-3.29-5.73H158.67l-3.29,5.73Zm16.52-8.43-5.84-10.16-5.84,10.16Zm17.25-13.35h15.5c4.13,0,7.51,2.84,7.51,6.32h0c0,3-2.57,5.58-6,6.18l7.28,9.28h-4.27L202,93.07h-8.79v9.14h-4.1V80.43ZM204.82,83l.22,0,.21,0,.21,0,.2,0,.2.07.19.08.19.08.18.09.18.11.17.1.16.12.15.12.15.13.14.13.13.14.13.14.11.15.11.14.1.16.09.15.08.16.07.16.06.16.06.16.05.16,0,.17,0,.16,0,.17v.7l0,.17,0,.16,0,.17-.05.16-.06.16-.06.16-.07.16-.08.16-.09.15-.1.16-.11.14-.11.15-.13.14-.13.14-.14.13-.15.13-.15.12-.16.12-.17.1-.18.1-.18.1-.19.08-.19.08-.2.06-.2.06-.21,0-.21,0-.22,0h-11.4V83h11.4Zm-78.37-2.59H142c4.13,0,7.51,2.84,7.51,6.32h0A6.12,6.12,0,0,1,146.13,92a9,9,0,0,1-4.32,1.06c-.8,0-1.63,0-2.47,0h-8.79v9.14h-4.1V80.43ZM142.12,83l.22,0,.21,0,.21,0,.2,0,.2.07.19.08.19.08.18.09.18.11.17.1.16.12.15.12.15.13.14.13.13.14.13.14.11.15.11.14.1.16.09.15.08.16.07.16.06.16.06.16,0,.16,0,.17,0,.16,0,.17v.7l0,.17,0,.16,0,.17,0,.16-.06.16-.06.16-.07.16-.08.16-.09.15-.1.16-.11.14-.11.15-.13.14-.13.14-.14.13-.15.13-.15.12-.16.12-.17.1-.18.1-.18.1-.19.08-.19.08-.2.06-.2.06-.21,0-.21,0-.22,0h-11.4V83h11.4ZM236.9,95.21l3.76-.24a5,5,0,0,0,1.25,2.69,6.87,6.87,0,0,0,3,1.69,17.07,17.07,0,0,0,8.65.16,5.81,5.81,0,0,0,2.6-1.35,2.6,2.6,0,0,0,.86-1.86,2.33,2.33,0,0,0-.83-1.79,6.51,6.51,0,0,0-2.71-1.28c-.81-.23-2.59-.59-5.37-1.07a34.82,34.82,0,0,1-5.81-1.36,7.91,7.91,0,0,1-3.23-2,4,4,0,0,1-1-2.71A4.56,4.56,0,0,1,239.34,83a8.14,8.14,0,0,1,3.79-2.18,19.47,19.47,0,0,1,5.53-.74,20.3,20.3,0,0,1,5.91.78,8.63,8.63,0,0,1,3.94,2.29A5.49,5.49,0,0,1,260,86.57l-3.82.21a4.18,4.18,0,0,0-2.1-3.12,10.36,10.36,0,0,0-5.25-1.06,11,11,0,0,0-5.27,1,2.75,2.75,0,0,0-1.66,2.31,2.24,2.24,0,0,0,1.17,1.93c.77.51,2.78,1,6,1.55a53.15,53.15,0,0,1,6.67,1.39A9.36,9.36,0,0,1,259.64,93a4.4,4.4,0,0,1,1.25,3.1,4.86,4.86,0,0,1-1.38,3.28,9.05,9.05,0,0,1-3.95,2.39,18.43,18.43,0,0,1-5.81.85,23.17,23.17,0,0,1-6.86-.86,9.57,9.57,0,0,1-4.34-2.59,6,6,0,0,1-1.65-3.92Zm-13.46,7V86.82h4v15.39Zm0-17.7V80.43h4v4.08ZM34.91,29.42H41.5L51.4,10.2H43L34.91,29.42Z"/></g></g></svg>