<svg xmlns="http://www.w3.org/2000/svg" width="60.003" height="60" viewBox="0 0 60.003 60">
  <g id="customer-service" transform="translate(-10.979 -11)">
    <g id="Group_344" data-name="Group 344" transform="translate(10.979 11)">
      <path id="Path_263" data-name="Path 263" d="M34.112,307.1h-10.2a12.474,12.474,0,0,0-12.5,12.257c-.38,2.045-.894,5.62.38,6.894,3.441,3.318,11.229,4.592,17.216,4.592,6.122,0,13.776-1.273,17.216-4.592,1.273-1.273.771-4.849.38-6.894A12.528,12.528,0,0,0,34.112,307.1Zm10.469,17.229c-2.424,2.424-8.424,3.955-15.429,3.955s-13.139-1.531-15.429-3.833c-.257-.514-1.482-14.363,10.2-14.939,2.657-.135,10.335,0,10.335,0C45.708,309.524,44.839,323.949,44.582,324.329Z" transform="translate(-10.979 -270.843)" fill="#ff903b"/>
      <path id="Path_264" data-name="Path 264" d="M84.978,143.68a10.09,10.09,0,0,0,0-20.18A10.184,10.184,0,0,0,74.9,133.59,10.026,10.026,0,0,0,84.978,143.68Zm0-17.62a7.532,7.532,0,1,1-7.653,7.531A7.647,7.647,0,0,1,84.978,126.059Z" transform="translate(-67.073 -109.724)" fill="#ff903b"/>
      <path id="Path_265" data-name="Path 265" d="M253.1,11V29.514h3.955v9.061l9.061-9.061h17.339V11Zm27.931,16.09H265.21L259.6,32.71V27.09h-3.955V13.559h25.384Z" transform="translate(-223.453 -11)" fill="#ff903b"/>
      <path id="Path_266" data-name="Path 266" d="M354.114,43.712a.686.686,0,0,1,.637-.38,1.381,1.381,0,0,1,.514.122,1.917,1.917,0,0,1,.257.771,1.082,1.082,0,0,1-.257.771l-1.016,1.151a10.241,10.241,0,0,0-.637.894,2.574,2.574,0,0,0-.122,1.016V49.21h2.3V48.194a.975.975,0,0,1,.122-.637l.514-.514.771-.771c0-.122.122-.257.257-.38s.257-.257.257-.38c.122,0,.122-.122.257-.38.122-.122.122-.514.122-.894a2.618,2.618,0,0,0-.894-2.167,3.667,3.667,0,0,0-2.424-.771,3.371,3.371,0,0,0-2.424.894,3.7,3.7,0,0,0-1.151,2.424h2.547a4.328,4.328,0,0,1,.367-.906Z" transform="translate(-309.54 -37.59)" fill="#ff903b"/>
      <path id="Path_267" data-name="Path 267" d="M370.2,110a1.415,1.415,0,0,0-1.016.38,1.436,1.436,0,0,0-.38,1.016,1.415,1.415,0,0,0,.38,1.016,1.253,1.253,0,0,0,1.016.38,1.415,1.415,0,0,0,1.016-.38,1.436,1.436,0,0,0,.38-1.016,1.416,1.416,0,0,0-.38-1.016A1.492,1.492,0,0,0,370.2,110Z" transform="translate(-324.985 -97.878)" fill="#ff903b"/>
    </g>
  </g>
</svg>
