<svg xmlns="http://www.w3.org/2000/svg" viewBox="0 0 274 59.6" width="150" height="33"><defs><style>.cls-1{fill:#00a94f;}.cls-2{fill:#ee3124;}.cls-3{fill:#fff;}</style></defs><title>Lulu</title><g id="Layer_2" data-name="Layer 2"><g id="Layer_1-2" data-name="Layer 1"><path class="cls-1" d="M158.5,56c3.4,1.22,11.24-4.32,12.78-5.43l.23-.17.87-3.52-1.44.58c-1.33.54-3.12.84-3.49.44-.16-.17-.21-.87.63-2.44l14-24.36.44-.65c.41-.55.82-1.11.44-1.71s-1.17-.52-1.95-.4l-6.32.85-.2.32c-.11.17-11.25,17.95-18,23.22-2.37,1.84-3.29,2.16-3.6,2.22a11.61,11.61,0,0,1,2.19-4.58l8.14-13,1-1.71A14.2,14.2,0,0,0,166,19.83a2.74,2.74,0,0,0-.69-2c-1.47-1.41-4.26.2-5.18.74l-8.26,4.91L152,27l1-.15,1.34-.18A9.54,9.54,0,0,1,153,29.34l-.43.73-.2.34c-5,8.71-10.7,19.49-10.7,23.61a3,3,0,0,0,.13.91,1.86,1.86,0,0,0,.94,1c3.82,1.52,11.62-5.33,15.89-9.49A21.58,21.58,0,0,0,157,53.19a4.08,4.08,0,0,0,.26,1.56A2.29,2.29,0,0,0,158.5,56"/><path class="cls-1" d="M249.4,55.92c3.39,1.22,11.23-4.31,12.76-5.43l.23-.17.88-3.51-1.44.58c-1.34.53-3.12.83-3.49.44-.16-.18-.21-.88.64-2.45L273,21l.46-.65c.39-.54.82-1.11.44-1.71s-1.18-.52-2-.4l-6.32.85-.21.32c-.11.18-11.24,18-18,23.22-2.37,1.84-3.3,2.16-3.62,2.22A12,12,0,0,1,246,40.29l8.14-13,1-1.7a14.31,14.31,0,0,0,1.79-5.75,2.77,2.77,0,0,0-.7-2c-1.46-1.41-4.25.21-5.16.74l-8.27,4.92.1,3.57,1-.14,1.32-.19a9.22,9.22,0,0,1-1.29,2.65l-.42.71-.2.35c-5,8.7-10.7,19.49-10.7,23.61a2.73,2.73,0,0,0,.13.91,1.85,1.85,0,0,0,.94,1c3.82,1.53,11.63-5.32,15.89-9.48a21.21,21.21,0,0,0-1.66,6.74,4,4,0,0,0,.25,1.55,2.29,2.29,0,0,0,1.25,1.2"/><path class="cls-1" d="M223.71,17.9s12.79-6.73,6.62-12.14c-4.16-3.63-13.68,8.55-15.51,13.89-3.8,11.11-13,20.56-13,20.56s9.8,13.2,16.43,12.48,8.22-7.57,8.22-7.57h6.63s-7.73,12.73-20.72,14.41c-8.62,1.11-18.38-11-18.38-11s-6.27,4.49-9.8,6c-2.5,1-6,1.32-8.12.37a2.7,2.7,0,0,1-1.65-1.81,5.07,5.07,0,0,1,.06-2.12C176.65,42.5,192,41.75,192,41.75s7-18.6,16-28.8c9.8-11.08,23.1-16.29,28.18-10.61s1.23,12.4-3.13,15.56c-6.23,4.53-9.36,0-9.36,0"/><path class="cls-1" d="M132.88,17.87s12.81-6.72,6.63-12.12C135.36,2.1,125.83,14.29,124,19.63c-3.79,11.11-13,20.56-13,20.56s9.81,13.2,16.44,12.47,8.22-7.56,8.22-7.56h6.63s-7.73,12.72-20.72,14.4c-8.61,1.12-18.39-11-18.39-11s-6.26,4.49-9.81,6c-2.48,1.06-6,1.32-8.1.36a2.64,2.64,0,0,1-1.65-1.8,5.07,5.07,0,0,1,.07-2.12c2.18-8.46,17.52-9.21,17.52-9.21s7-18.61,16-28.8C127,1.85,140.31-3.36,145.39,2.32s1.21,12.4-3.14,15.55c-6.23,4.54-9.37,0-9.37,0"/><path class="cls-2" d="M1,6.14s5-.3,13.53-3.15C25.39-.64,50.73-4.78,58.62,16.57c5.09,13.77-5.24,27.76-5.53,32.61-.34,5.57.36,8.12.36,8.12l-7.89,2.19a25.3,25.3,0,0,1-.72-11.42c1.47-7.74,8.6-18.16,7.86-25.2S49.26,4.45,34.51.81C27.08-1,19,7.1,13.08,9S3,12.44,3,12.44Z"/><path class="cls-2" d="M14.53,2.93A60,60,0,0,1,1,6.07H.92l2,6.47L13.1,9.12a36,36,0,0,0,6.61-3.46c4.63-2.8,9.88-6,14.77-4.78,11,2.7,16.91,9.9,18.15,22,.42,4.1-1.88,9.45-4.1,14.62-1.55,3.62-3.16,7.35-3.77,10.57a25.52,25.52,0,0,0,.73,11.45l0,.06,8-2.22V57.3a24.25,24.25,0,0,1-.39-8.06,26.46,26.46,0,0,1,2.29-7c2.71-6.41,6.82-16.1,3.25-25.73C49.6-8.06,18.1,1.72,14.53,2.93m.05.14c3.55-1.19,34.92-10.94,44,13.53a22.85,22.85,0,0,1,1.37,7.91c0,6.77-2.69,13.1-4.64,17.71a41.93,41.93,0,0,0-2.52,7.58c-.46,2.48.58,7.11.6,7.44L45.61,59.4a26.31,26.31,0,0,1-1-7.32,21.33,21.33,0,0,1,.36-4,54.18,54.18,0,0,1,3.76-10.53c2-4.77,4.16-9.68,4.16-13.67a8.52,8.52,0,0,0-.06-1C51.53,10.69,45.56,3.45,34.52.73c-5-1.22-10.23,2-14.89,4.8A35.3,35.3,0,0,1,13.05,9L3,12.34c0-.14-1.85-5.95-1.92-6.12A60.2,60.2,0,0,0,14.58,3.07"/><path class="cls-2" d="M4,15.59S15.3,10.5,23.91,5.66c10-5.6,37.88-11.89,45.77,9.47C74.77,28.89,67.36,41.86,66,47.37c-1.16,4.71.12,7,.12,7l-7.89,2.18s-1.24-2.25-.11-8.19c1.47-7.75,6.39-13.09,6.39-25.71,0-7.07-5.25-19.2-20.18-22.06C35.48-1.14,28.4,5.07,23.66,9,17,14.63,5.21,21.42,5.21,21.42Z"/><path class="cls-2" d="M42.82.27a17,17,0,0,0-7.91,1.24,44.53,44.53,0,0,0-11,4.08C15.36,10.38,4.07,15.47,4,15.52l-.06,0,1.26,6,.09-.05c.12-.07,11.89-6.86,18.46-12.39l.38-.31C26.89,6.42,30.6,3.36,35,1.66A47.7,47.7,0,0,1,42.81.42a13.75,13.75,0,0,1,1.51.22c14.76,2.82,20.11,14.69,20.11,22,0,8.05-2,13.22-3.83,17.78a42.19,42.19,0,0,0-2.55,7.91,24.38,24.38,0,0,0-.49,4.56,8.07,8.07,0,0,0,.61,3.69l0,0,8-2.23,0-.08S65,52,66.09,47.38a43.85,43.85,0,0,1,1.44-4.27c2.5-6.79,6.29-17,2.22-28A21.16,21.16,0,0,0,56.64,1.9,33.66,33.66,0,0,0,42.82.27m-1.09.1a46.45,46.45,0,0,0-5.68.87A16.69,16.69,0,0,1,41.73.37M24,5.72a43,43,0,0,1,9.88-3.79A43,43,0,0,0,24,8.67L23.61,9c-6.31,5.3-17.4,11.76-18.33,12.3-.06-.2-1.17-5.54-1.2-5.66C4.71,15.35,15.64,10.4,24,5.72M56.59,2a21,21,0,0,1,13,13.11,28.53,28.53,0,0,1,1.78,10.07c0,7-2.3,13.21-4,17.83a39.19,39.19,0,0,0-1.44,4.3,15.39,15.39,0,0,0-.49,3.73A7.31,7.31,0,0,0,66,54.29l-7.73,2.14a8.81,8.81,0,0,1-.56-3.6,24.93,24.93,0,0,1,.47-4.49,43.47,43.47,0,0,1,2.54-7.89c1.81-4.57,3.85-9.75,3.85-17.83,0-7.34-5.39-19.29-20.24-22.14-.22,0-.45-.06-.68-.09A33,33,0,0,1,56.59,2"/><path class="cls-1" d="M27.41,33.23h-13c0,.37.08.74.13,1.1H28.37a5.58,5.58,0,0,1-1-1.1"/><path class="cls-1" d="M36.69,34.33H46.84c0-.36.1-.73.13-1.1H37.65a5.92,5.92,0,0,1-1,1.1"/><path class="cls-1" d="M16.86,40.59H44.47c.24-.36.46-.72.67-1.11H16.21c.2.39.42.75.65,1.11"/><path class="cls-1" d="M18.47,42.67H42.88c.31-.35.62-.72.9-1.1H17.55a13.74,13.74,0,0,0,.92,1.1"/><path class="cls-1" d="M32.52,36a6.21,6.21,0,0,1-2.68-.63H14.67c.08.37.18.73.28,1.1H46.39c.1-.37.21-.73.28-1.1H35.22a6.2,6.2,0,0,1-2.7.63"/><path class="cls-1" d="M15.72,38.5H45.61a11.55,11.55,0,0,0,.45-1.1H15.28c.14.37.28.74.44,1.1"/><path class="cls-1" d="M20.75,44.76H40.59q.69-.52,1.32-1.11H19.43a15.8,15.8,0,0,0,1.32,1.11"/><path class="cls-1" d="M30.66,48.07a17.5,17.5,0,0,0,2.82-.24H27.87a17.13,17.13,0,0,0,2.79.24"/><path class="cls-1" d="M24.38,46.85H37a16.4,16.4,0,0,0,2.17-1.11H22.21a17.73,17.73,0,0,0,2.17,1.11"/><path class="cls-1" d="M20,19.73H41.33a17.15,17.15,0,0,0-1.45-1.09H21.45c-.5.34-1,.7-1.44,1.09"/><path class="cls-1" d="M18,21.82H43.39c-.31-.38-.65-.75-1-1.1H19a12.89,12.89,0,0,0-1,1.1"/><path class="cls-1" d="M38.18,32.24H47V32c0-.28,0-.55,0-.82H38.54a6.44,6.44,0,0,1-.36,1.1"/><path class="cls-1" d="M26.52,31.14H14.34c0,.27,0,.54,0,.82,0,.09,0,.19,0,.28H26.87a5,5,0,0,1-.35-1.1"/><path class="cls-1" d="M16.77,23.91H32a4.52,4.52,0,0,1,.53-.06,5.14,5.14,0,0,1,.55.06H44.83a12.8,12.8,0,0,0-.69-1.11H17.49c-.1.29-.64.91-.73,1.11"/><path class="cls-1" d="M23.13,17.65H38.2a15.92,15.92,0,0,0-2.7-1.1H25.84a16.37,16.37,0,0,0-2.71,1.1"/><path class="cls-1" d="M26.38,29.91a7.89,7.89,0,0,1,.09-.85H14.58c-.07.37-.12.73-.18,1.1h12c0-.09,0-.17,0-.25"/><path class="cls-1" d="M38.67,29.91c0,.08,0,.16,0,.25h8.29c0-.37-.1-.73-.17-1.1H38.59a6,6,0,0,1,.08.85"/><path class="cls-1" d="M27.19,27H15.11a9.75,9.75,0,0,0-.31,1.09H26.71A5.56,5.56,0,0,1,27.19,27"/><path class="cls-1" d="M38.36,28.07h8.18c-.09-.37-.19-.74-.31-1.09H37.88a6.22,6.22,0,0,1,.48,1.09"/><path class="cls-1" d="M37.18,26h8.69c-.15-.37-.33-.74-.51-1.1H36A5.77,5.77,0,0,1,37.18,26"/><path class="cls-1" d="M29.09,24.89H16.36c-.19.36-.44.73-.59,1.1H27.88a6.31,6.31,0,0,1,1.21-1.1"/><path class="cls-2" d="M31.31,20.46s8-4.31,4.17-7.78c-2.62-2.32-8.61,5.48-9.76,8.9-2.39,7.11-8.2,13.16-8.2,13.16s6.18,8.47,10.34,8S33,37.9,33,37.9H37.2s-4.86,8.15-13,9.22c-5.43.71-11.56-7-11.56-7a53.71,53.71,0,0,1-6.18,3.64C4.21,44.69.5,44.61.29,43c-.74-6.3,11.07-7.26,11.07-7.26s4.41-11.91,10.08-18.44C27.61,10.19,36,6.86,39.17,10.5s.75,7.94-2,10c-3.92,2.9-5.89,0-5.89,0"/><path class="cls-3" d="M35.43,8.75c-4.14,0-9.84,3.37-14.19,8.37-5.29,6.09-9.53,17-10.08,18.37-1.11.11-7.48.86-10.06,4A4.45,4.45,0,0,0,0,42.42q0,.3,0,.6a1.51,1.51,0,0,0,.81,1.11c1.25.7,3.87.63,5.7-.16a53.24,53.24,0,0,0,6-3.53c1,1.19,6.54,7.61,11.64,6.94C32.41,46.3,37.38,38.11,37.43,38l.22-.39H32.82l0,.2s-1,4.21-5,4.65c-3.66.4-9.1-6.59-10-7.73.9-1,5.94-6.62,8.1-13.1.88-2.6,5-8.33,7.83-9.06a1.52,1.52,0,0,1,1.51.28,2.39,2.39,0,0,1,1,2.15c-.32,2.62-5,5.17-5.07,5.2l-.25.13.16.24A3.53,3.53,0,0,0,33.32,22a5.38,5.38,0,0,0,4-1.3,8.81,8.81,0,0,0,3.56-5.72,5.86,5.86,0,0,0-1.54-4.61,5,5,0,0,0-4-1.58M1.07,43.7A1.17,1.17,0,0,1,.51,43a3.77,3.77,0,0,1,1-3.18c2.65-3.18,9.8-3.8,9.89-3.8l.15,0,.06-.15c.05-.12,4.46-11.95,10-18.37,4.27-4.89,9.8-8.17,13.8-8.18A4.49,4.49,0,0,1,39,10.67a5.32,5.32,0,0,1,1.42,4.22A8.27,8.27,0,0,1,37,20.25a4.86,4.86,0,0,1-3.61,1.2,3.13,3.13,0,0,1-1.72-.92c1.07-.62,4.76-2.92,5.07-5.44a1.83,1.83,0,0,0,0-.33,3,3,0,0,0-1.15-2.26,2,2,0,0,0-2-.41c-3.13.81-7.3,6.75-8.19,9.41-2.34,7-8.08,13-8.14,13.07l-.15.15.12.18c.26.35,6.31,8.58,10.59,8.09,3.79-.42,5.07-4,5.34-4.84h3.49c-1.08,1.63-5.66,7.8-12.59,8.71-5.21.69-11.26-6.85-11.32-6.93l-.15-.19-.21.13a51.84,51.84,0,0,1-6.12,3.62c-1.67.73-4,1-5.26.21"/><path class="cls-2" d="M28.15,28.71a4.83,4.83,0,0,1,6.91-3.07.32.32,0,1,1-.29.56,4.25,4.25,0,0,0-2-.47,4.16,4.16,0,0,0-4,3.14.33.33,0,0,1-.63-.16M28,30.31a5,5,0,0,1,0-.67.32.32,0,0,1,.64.09,3.77,3.77,0,0,0,0,.58.32.32,0,1,1-.64,0"/><path class="cls-2" d="M37.2,31.34a4.85,4.85,0,0,1-4.53,3.1,4.57,4.57,0,0,1-1.29-.17.32.32,0,1,1,.18-.61,4,4,0,0,0,1.11.14,4.19,4.19,0,0,0,3.92-2.68.32.32,0,0,1,.61.22m.3-1.65a4.61,4.61,0,0,1-.1.91.32.32,0,1,1-.63-.12,5.16,5.16,0,0,0,.08-.79.33.33,0,0,1,.65,0"/></g></g></svg>