<svg xmlns="http://www.w3.org/2000/svg" width="30.401" height="35.241" viewBox="0 0 30.401 35.241">
  <g id="Group_213" data-name="Group 213" transform="translate(-59.049 -162.588)">
    <path id="Path_143" data-name="Path 143" d="M61.223,186.624a2.224,2.224,0,0,1-2.174-1.572l.019-9.786a2.215,2.215,0,0,1,2.155-1.6,2.267,2.267,0,0,1,2.154,1.674l-.018,9.709A2.171,2.171,0,0,1,61.223,186.624Z" fill="#a4c422" fill-rule="evenodd"/>
    <path id="Path_144" data-name="Path 144" d="M87.295,186.624a2.224,2.224,0,0,1-2.174-1.572l.019-9.786a2.215,2.215,0,0,1,2.155-1.6,2.269,2.269,0,0,1,2.155,1.674l-.02,9.709A2.17,2.17,0,0,1,87.295,186.624Z" fill="#a4c422" fill-rule="evenodd"/>
    <path id="Path_145" data-name="Path 145" d="M64.594,173.669V189.21a1.807,1.807,0,0,0,1.663,1.774h1.924v5.252c0,.879.965,1.593,2.155,1.593s2.155-.714,2.155-1.593v-5.252h3.486v5.252c0,.879.965,1.593,2.155,1.593s2.155-.714,2.155-1.593v-5.252h1.906a1.611,1.611,0,0,0,1.541-1.673V173.669Z" fill="#a4c422" fill-rule="evenodd"/>
    <path id="Path_146" data-name="Path 146" d="M80.421,163.217c.094-.142.144-.494-.014-.6s-.452.062-.546.2l-1.639,2.46c.347.143.347.143.659.287Z" fill="#a4c422" fill-rule="evenodd"/>
    <path id="Path_147" data-name="Path 147" d="M74.33,164.594h-.009a11.279,11.279,0,0,0-4.081.7l.03-.012-1.7-2.465c-.1-.137-.411-.306-.563-.2s-.1.441,0,.578l1.645,2.342.005,0a9.426,9.426,0,0,0-5.068,6.771H83.752A9.145,9.145,0,0,0,74.33,164.594Z" fill="#a4c422" fill-rule="evenodd"/>
    <path id="Path_148" data-name="Path 148" d="M71.132,168.548a1,1,0,1,1-1-1A1,1,0,0,1,71.132,168.548Z" fill="#fff" fill-rule="evenodd"/>
    <path id="Path_149" data-name="Path 149" d="M79.359,168.548a1,1,0,1,1-1-1A1,1,0,0,1,79.359,168.548Z" fill="#fff" fill-rule="evenodd"/>
  </g>
</svg>
