<svg xmlns="http://www.w3.org/2000/svg" width="56.566" height="60" viewBox="0 0 56.566 60">
  <g id="agenda" transform="translate(-25.4 -11.3)">
    <g id="Group_345" data-name="Group 345" transform="translate(25.4 11.3)">
      <path id="Path_268" data-name="Path 268" d="M200.023,249.8h-6.513c-8.205,0-9.052,12.069-8.291,12.841,2.048,1.913,6.5,3.25,11.615,3.25s9.321-1.276,11.235-3.066C208.842,262.175,208.216,249.8,200.023,249.8Zm6.255,11.235c-1.533,1.41-5.237,2.294-9.444,2.294s-7.911-.9-9.444-2.294c-.123-.38.589-8.806,6.255-8.806h6.513C205.763,252.216,206.413,260.642,206.279,261.035Z" transform="translate(-165.424 -220.548)" fill="#ff903b"/>
      <path id="Path_269" data-name="Path 269" d="M231.193,144.886a6.784,6.784,0,0,0,6.893-6.893,6.893,6.893,0,1,0-6.893,6.893Zm0-11.235a4.332,4.332,0,0,1,4.464,4.342,4.472,4.472,0,1,1-4.464-4.342Z" transform="translate(-199.905 -116.407)" fill="#ff903b"/>
      <path id="Path_270" data-name="Path 270" d="M76.471,11.3H36A5.455,5.455,0,0,0,30.5,16.795V28.029H25.4V30.58h5.1v9.444H25.4v2.551h5.1V52.02H25.4v2.551h5.1V65.805A5.455,5.455,0,0,0,36,71.3H76.348a5.639,5.639,0,0,0,5.617-5.495V16.795A5.455,5.455,0,0,0,76.471,11.3Zm2.944,54.53a2.963,2.963,0,0,1-2.931,2.931H36.009a2.963,2.963,0,0,1-2.931-2.931V54.6h4.857V52.044H33.066V42.6h4.857V40.049H33.066V30.6h4.857V28.054H33.066V16.795A2.963,2.963,0,0,1,36,13.863H76.471A2.963,2.963,0,0,1,79.4,16.795V65.83Z" transform="translate(-25.4 -11.3)" fill="#ff903b"/>
    </g>
  </g>
</svg>
