<?xml version="1.0" encoding="utf-8"?>
<!-- Generator: Adobe Illustrator 22.1.0, SVG Export Plug-In . SVG Version: 6.00 Build 0)  -->
<svg version="1.1" id="Layer_1" xmlns="http://www.w3.org/2000/svg" xmlns:xlink="http://www.w3.org/1999/xlink" x="0px" y="0px"
	 viewBox="0 0 172.5 60" style="enable-background:new 0 0 172.5 60;" xml:space="preserve">
<style type="text/css">
	.st0{fill:#262262;}
</style>
<title>Asset 3</title>
<path class="st0" d="M24.2,35.2c-0.2-0.4-0.5-0.7-0.9-0.8h-1.5v0.9h-1.2v-0.9h0.4v-0.5L20,33.4V33h-0.4v0.4h-1.7v-0.9h0.8v-2.2
	l-2.6-1.7h-0.4v-0.4h0.4v-1.3h0.5v-0.5h2.1l2.6,1.8v0.4h1.3v1.4h-1.3v1.3H21v0.9h0.4v0.5h1.3v-0.5h0.4v0.8H24v-0.4h0.5v0.9H24v0.3
	C24.4,34,24.6,34.6,24.2,35.2C24.3,35.1,24.2,35.1,24.2,35.2z"/>
<path class="st0" d="M47.5,28.2v0.4h-0.4l-2.6,1.7v2.2h0.8v0.9h-1.7V33h-0.4v0.4l-0.9,0.4v0.5h0.4v0.9h-1.3v-0.9H40
	c-0.4,0.2-0.7,0.5-0.9,0.8c-0.3-0.4-0.2-1,0.2-1.3v-0.4h-0.5v-0.9h0.5v0.4h0.8v-0.8h0.4v0.5h1.3v-0.5h0.4v-0.9h-0.4v-1.3h-1.3v-1.4
	h1.3v-0.3l2.6-1.8h2.1v0.5h0.5v1.3H47.5z"/>
<path class="st0" d="M21.1,14.8h-0.2c-0.2,0-0.3,0-0.5,0c-0.1,0-0.2,0-0.3,0c-0.1,0-0.2,0-0.3,0l-0.3,0.1c-0.1,0-0.2,0-0.3,0
	c-0.1,0-0.2,0-0.3,0c-0.1,0-0.2-0.1-0.3-0.1c-0.1,0-0.2-0.1-0.2-0.2c-0.1-0.1-0.1-0.1-0.2-0.2l-0.1-0.1h0.9v-0.4l-2.6-1.7h-1.7v-0.5
	H14v0.8h-1.8v0.9h0.4v0.4h0.9v0.5h-1.3v3h-0.9v0.8h1.3V20h-0.8v0.4H14v0.9h-0.4v0.9H14v0.4h1.3v-0.8h0.9v0.8h2.2l0.8-1.3h1.7v-0.9
	c-0.6-1.1-1.5-2-2.6-2.6H17v-0.4h-0.9v-0.9H17V17h0.9v-1.3h-1.3v-0.9h1.6l0.1,0.1c0.1,0.1,0.1,0.2,0.2,0.3c0.1,0.1,0.2,0.2,0.3,0.3
	c0.1,0.1,0.3,0.1,0.4,0.2c0.1,0.1,0.3,0.1,0.4,0.1c0.1,0,0.3,0,0.4,0c0.1,0,0.2-0.1,0.4-0.1c0.1-0.1,0.2-0.1,0.3-0.2
	c0.1,0,0.1-0.1,0.2-0.2l0.1-0.2L21.1,14.8L21.1,14.8z M16.8,13.9c-0.3,0-0.6-0.2-0.6-0.4s0.3-0.4,0.6-0.4s0.6,0.2,0.6,0.4
	S17.1,13.9,16.8,13.9z"/>
<path class="st0" d="M51.8,18.2v-0.8H51v-3h-1.3v-0.5h0.9v-0.4H51v-0.9h-1.8v-0.9h-0.9v0.4h-1.7L44,13.9v0.4h0.9c0,0,0,0.1-0.1,0.1
	c-0.1,0.1-0.1,0.1-0.2,0.2c-0.1,0.1-0.1,0.1-0.2,0.2c-0.1,0-0.2,0.1-0.3,0.1c-0.1,0-0.2,0-0.3,0c-0.1,0-0.2,0-0.3,0l-0.3-0.1
	c-0.1,0-0.2,0-0.3,0c-0.1,0-0.2,0-0.3,0c-0.2,0-0.3,0-0.5,0h-0.2v0.1c0,0.1,0.1,0.1,0.1,0.2l0.1,0.2c0.1,0.1,0.1,0.1,0.2,0.2
	c0.1,0.1,0.2,0.1,0.3,0.2c0.1,0.1,0.2,0.1,0.4,0.1c0.1,0,0.3,0,0.4,0c0.1,0,0.3-0.1,0.4-0.1c0.1,0,0.3-0.1,0.4-0.2
	c0.1-0.1,0.2-0.2,0.3-0.3c0.1-0.1,0.2-0.2,0.2-0.3c0,0,0.1-0.1,0.1-0.1h1.6v0.9h-1.4v1.3h0.9v-0.5h0.9v0.9h-0.9v0.4h-1.3
	c-1.1,0.6-2,1.5-2.6,2.6v0.9H44l0.8,1.3H47v-0.8h0.9v0.8h1.3v-0.4h0.5v-0.9h-0.4v-0.9h2.1V20h-0.8v-1.8L51.8,18.2z M46.4,13.9
	c-0.3,0-0.6-0.2-0.6-0.4s0.3-0.4,0.6-0.4s0.6,0.2,0.6,0.4S46.7,13.9,46.4,13.9z"/>
<path class="st0" d="M19.3,41.2c0,0-1.2,0.5-1-1.7c0,0-3.7-3-7,0.4v2.4c0,0,2.9-1.8,7,0.2c2.9,1,3.9,0,3.9,0v-2.1
	C22.3,40.4,20.3,40,19.3,41.2z"/>
<path class="st0" d="M44.1,40.4v-3.6c0,0,0.3-0.8-12.4-1c-12.7,0.2-12.4,1-12.4,1v3.6c0,0,0.1-0.8,12.4-0.8S44.1,40.4,44.1,40.4z"/>
<path class="st0" d="M45,39.5c0.2,2.2-1,1.7-1,1.7c-1-1.2-3-0.8-3-0.8v2.1c0,0,1,1,3.9,0c4.2-1.9,7-0.2,7-0.2v-2.4
	C48.7,36.5,45,39.5,45,39.5z"/>
<path class="st0" d="M32,5.2L32,5.2l-0.4,0.1C31.8,5.2,31.9,5.2,32,5.2z"/>
<path class="st0" d="M31.6,5.3h-0.4V5.2C31.4,5.2,31.5,5.2,31.6,5.3z"/>
<path class="st0" d="M32,2.1v0.6c0.7,0.2,1.1,0.9,0.9,1.6c-0.1,0.4-0.5,0.7-0.9,0.9c-0.1,0-0.2,0.1-0.4,0.1l0,0
	c-0.1,0-0.2,0-0.4-0.1c-0.7-0.2-1.1-0.9-0.9-1.6c0.1-0.4,0.5-0.7,0.9-0.9V2.1h-1.4V1.4h1.4V0H32v1.4h1.3v0.7L32,2.1z"/>
<path class="st0" d="M38.6,9c-0.5,0.9-1.1,1.8-1.8,2.5v1.4c-3.4-0.9-6.9-0.9-10.2,0v-1.2c-0.8-0.7-1.5-1.6-2-2.6
	c-0.4-0.8-0.7-1.8-0.1-2.3s1.7,0,2.1,0.3c0.2,0.1,0.3,0.4,0.2,0.7C26.6,7.9,26.3,8,26,7.8c0,0,0,0,0,0c-0.3-0.2-0.7-0.3-1-0.4
	c0,0.4,0.1,0.8,0.3,1.1c0.4,0.8,1,1.6,1.7,2.2h1.3v-0.4h0.1v-1c-1.1-0.7-1.7-1.9-1.5-3.1c0-0.4,0.2-1.5,1.1-1.7s2,1.1,2.2,1.3
	c0.2,0.2,0.1,0.5-0.1,0.7c-0.2,0.2-0.5,0.1-0.7-0.1c-0.4-0.5-1-1-1.2-0.9S28,5.7,27.8,6.4c0,0.9,0.5,1.8,1.3,2.3
	c0.2,0.1,0.3,0.3,0.3,0.4v1.3h1.7V9l-1-0.8l0.6-0.8l0.9,0.7l0.8-0.8L33.1,8l-1,1v1.4h1.5V9.2c0-0.2,0.1-0.4,0.3-0.4
	c0.8-0.4,1.3-1.3,1.3-2.3c-0.1-0.7-0.3-0.9-0.4-0.9S34,5.9,33.7,6.5c-0.2,0.2-0.5,0.3-0.7,0.1c-0.2-0.2-0.3-0.5-0.1-0.7
	c0.2-0.3,1.2-1.6,2.2-1.3s1,1.3,1.1,1.7c0.1,1.3-0.5,2.5-1.6,3.1v1H35v0.4h1c0.7-0.6,1.3-1.4,1.7-2.2C37.9,8.2,38,7.8,38,7.5
	c-0.3,0.1-0.7,0.2-0.9,0.4c-0.2,0.1-0.5,0.1-0.7-0.1c0,0,0,0,0,0c-0.1-0.2,0-0.5,0.2-0.7c0,0,0,0,0,0c0.4-0.3,1.5-0.8,2.1-0.3
	S39,8.2,38.6,9z"/>
<path class="st0" d="M30.9,6.4c0,0.4,0.3,0.8,0.8,0.8l0,0c0.4,0,0.8-0.3,0.8-0.8c0-0.4-0.3-0.8-0.8-0.8c0,0,0,0,0,0
	C31.2,5.6,30.9,5.9,30.9,6.4C30.9,6.4,30.9,6.4,30.9,6.4z"/>
<path class="st0" d="M29,30.1L29,30.1z"/>
<path class="st0" d="M36.6,22.9L36.6,22.9z"/>
<path class="st0" d="M32.1,17.4h-0.4H32.1L32.1,17.4z"/>
<path class="st0" d="M36.6,22.9L36.6,22.9z"/>
<path class="st0" d="M32,17.4h-0.3l0,0H32z"/>
<path class="st0" d="M31.9,17.7c-0.2,0-0.3,0.1-0.3,0.2s0.1,0.1,0.3,0.1c0.2,0,0.3-0.1,0.3-0.1S32.1,17.7,31.9,17.7z"/>
<path class="st0" d="M56.6,19.1v0.4h-3.4l-1.9,1.9v1.8l2.4,2.8v1.3c-0.7,0.8-1.9,0.8-2.6,0.1c0,0-0.1-0.1-0.1-0.1v-1.7L49,23h-0.7
	c-0.6,0.5-1.5,0.5-2.2,0.1h-1.6L44,22.1h-1.7L39.7,24v-6.3l2.3,2c0.4-0.7,1-1.4,1.7-1.8c-1.5-0.4-2.9-1.2-4-2.3l0,0V15
	c-5.3-1.4-10.9-1.4-16.2,0v0.5l0,0c-1.1,1.1-2.5,1.9-4,2.3c0.7,0.5,1.3,1.1,1.7,1.8l2.3-2V24l-2.7-1.9h-1.7L18.7,23H17
	c-0.7,0.4-1.5,0.4-2.1,0h-0.7l-1.9,2.6v1.7c-0.7,0.8-1.9,0.8-2.6,0.1c0,0-0.1-0.1-0.1-0.1V26l2.4-2.8v-1.8L10,19.5H6.6v-0.4H5.7v1.7
	h0.4v0.4h1.3v1.3h0.4l0.8-1.3h0.5v-0.4h1.3v0.4H11v1.3l-2.7,3.1v2.6h0.9v0.9h2.9L11,30.8H9.7v-0.4H9.2v0.9h0.4V36H8.8v0.8h0.9v-0.3
	h0.8v0.9H10v0.4h1v-0.4h2.5v0.4H14v-1.3h1l-0.6-1l-1.2-0.3c0-0.1,0-0.2,0-0.3c0-0.1,0.1-0.1,0.1-0.2l0,0l0,0c0.3-0.2,0.6,0,0.3-0.2
	h-0.1c-0.1,0-0.3,0-0.4,0l0,0c-0.1,0-0.2,0.1-0.3,0.1c-0.2,0.2-0.3,0.3-0.5,0.5h-0.9c-0.1-2.4,4-3.8,4-3.8H17v-0.9h-0.4
	c-3.2-2.1,0.1-4.8,0.1-4.8c3.1-2.5,5.7-0.3,6.8,0.9V30l8.1,4.8l8.1-4.8v-3.6c1.1-1.2,3.7-3.3,6.8-0.9c0,0,3.3,2.6,0.1,4.8h-0.4v0.9
	h1.7c0,0,4.1,1.4,4,3.8h-0.9c-0.2-0.2-0.3-0.3-0.5-0.5c-0.1-0.1-0.2-0.1-0.3-0.1l0,0c-0.1,0-0.3,0-0.4,0h-0.1
	c-0.4,0.2,0,0.1,0.3,0.2l0,0v0c0,0,0.1,0.1,0.1,0.2c0,0.1,0,0.2,0,0.3l0,0l-1.2,0.3l-0.6,1h1v1.3h0.5v-0.4h2.5v0.4h0.9v-0.4h-0.4
	v-0.9h0.8v0.3h0.9V36h-0.8v-4.7H54v-0.9h-0.5v0.4h-1.3L51,29.1h3v-0.9h0.9v-2.6l-2.7-3.1v-1.3h0.5v-0.4H54v0.4h0.5l0.8,1.3h0.4v-1.3
	H57v-0.4h0.5v-1.7H56.6z M36.3,17.4h1v3h-1V17.4z M30.9,17.8c0.2-0.2,0.5-0.3,0.8-0.4l0,0h0.9V17c0,0,0.7-1,1.7,0v4.8h-0.9v0.9h-2.2
	v-0.4L30,21.9c0,0-0.6-1,1.7-1.1l0.8-0.4v-0.9h-0.9v-0.5h0.4v-0.5h-1.2L30.9,17.8z M31.2,19.3c0,0.1-0.1,0.2-0.2,0.3h-1.3
	c-0.1,0-0.3-0.1-0.3-0.3c0-0.1,0.1-0.2,0.3-0.2h1.3C31.1,19.1,31.2,19.2,31.2,19.3C31.2,19.3,31.2,19.3,31.2,19.3z M25.9,15.2h0.9
	v2.7h-0.9V15.2z M25.8,21l3.9-5.2c0.1-0.2,0.3-0.2,0.5-0.1c0,0,0,0,0,0c0.2,0.1,0.2,0.4,0.1,0.5c0,0,0,0,0,0l-2.9,3.9h0.1
	c0.8,0,1.5,0.3,2,0.8c0.1,0.1,0.1,0.4,0,0.5c0,0,0,0,0,0c-0.1,0.1-0.4,0.1-0.5,0c0,0,0,0,0,0c-0.4-0.4-0.9-0.6-1.4-0.6
	c-0.4,0-0.8,0.2-1.1,0.6c-0.1,0.1-0.2,0.1-0.3,0.1c-0.1,0-0.2,0-0.2-0.1C25.8,21.4,25.7,21.2,25.8,21C25.8,21,25.8,21,25.8,21z
	 M30,28.5c0,0.7-0.4,1.3-1,1.5l0,0l0,0c-1.4,0.5-1.6-1-1.6-1c0.2,0.2,0.5,0.3,0.8,0.3c0.5-0.2,0.8-0.6,0.8-1.1l0,0c0,0,0-0.1,0-0.1
	c0-0.1,0-0.2,0-0.2l0,0c0-0.8-0.4-0.9-0.4-0.9l0,0c0,0,0.4-1.6,1.8-1.7h1.2V27H30V28.5z M32.5,33h-1v-3h1V33z M38,22.5L38,22.5
	c-0.1,0.2-0.3,0.3-0.5,0.4c-0.1,0.1-0.2,0.3-0.2,0.4c-0.1-0.2-0.3-0.3-0.5-0.4h-0.1h-0.1l0,0c-0.3-0.1-0.5-0.2-0.7-0.4
	c-0.5,0.3-0.6,0.5-0.6,0.5s0.2,0.3,0.4,0.5c0.6,0.4,1,1.1,0.9,1.8c0,0,0,0,0,0.1c-0.3,0.8-1.1,1.2-1.9,1.2c-0.1,0-0.3,0-0.4-0.1v0.8
	c0,0,3.4,1.4,1.5,3c-0.4,0.2-0.9,0.4-1.4,0.4c0,0,3-1.9-0.6-2.5c0,0-1.1-0.1-1-1.8V25l-0.3-0.2c-0.2-0.1-0.4-0.3-0.6-0.4
	s-0.5-0.2-0.6-0.3L30.9,24c-0.1,0-0.2-0.1-0.4-0.1h-0.4h-0.4c-0.2,0-0.5,0.1-0.7,0.2c-0.2,0.1-0.4,0.2-0.6,0.3
	c-0.2,0.1-0.4,0.2-0.6,0.3l-0.2,0.1c0.2,0.2,0.4,0.5,0.5,0.8c0.1,0.2,0,0.4-0.2,0.5c0,0,0,0,0,0c0,0-0.1,0-0.1,0
	c-0.1,0-0.3-0.1-0.3-0.2c-0.4-0.9-1-1-1-1c-0.1,0-0.3-0.1-0.3-0.3c-0.1-0.1,0-0.3,0.1-0.4l1.2-1.3c0.1-0.2,0.4-0.2,0.5,0
	s0.2,0.4,0,0.5l0,0l-0.8,0.9c0.1,0,0.2,0.1,0.2,0.1c0-0.1,0.1-0.1,0.2-0.2c0.2-0.2,0.3-0.3,0.5-0.5c0.2-0.2,0.5-0.3,0.7-0.4
	c0.1-0.1,0.3-0.1,0.4-0.2c0.1-0.1,0.3-0.1,0.5-0.1L30,23h0.5c0.2,0,0.3,0,0.5,0.1l0.4,0.1l0.4,0.2h1.7c0.1,1,0.5,1.9,1.1,2.6
	c0.6,0,1.2-0.3,1.5-0.9c0.1-0.6-0.3-0.9-0.7-1.3s-0.6-0.5-0.6-0.9s0.3-0.7,1-1c0.1-0.1,0.2-0.1,0.3,0c0.3,0.3,0.6,0.5,1,0.5
	c0.3,0,0.6-0.3,0.8-0.7c0.1-0.1,0.2-0.2,0.3-0.1c0,0,0,0,0,0c0.1,0.1,0.1,0.2,0.1,0.3C38.3,22.1,38.2,22.3,38,22.5z"/>
<path class="st0" d="M65.5,20.1v2.1h0.1c0.3,0,0.5-0.1,0.7-0.3c0.2-0.3,0.3-0.6,0.3-0.9h0.2v2.7h-0.2c0-0.3-0.1-0.5-0.2-0.7
	c-0.1-0.2-0.2-0.3-0.3-0.4c-0.2-0.1-0.4-0.1-0.6,0v1.5c0,0.2,0,0.4,0,0.5c0,0.1,0.1,0.1,0.1,0.2c0.1,0,0.2,0,0.3,0h0.3
	c0.4,0,0.8-0.1,1.2-0.3c0.3-0.3,0.5-0.6,0.6-1h0.1L68,25h-4.5v-0.2h0.2c0.1,0,0.3,0,0.4-0.1c0.1,0,0.1-0.1,0.2-0.2
	c0-0.2,0-0.3,0-0.5v-3.5c0-0.1,0-0.3,0-0.4c0-0.1-0.1-0.2-0.1-0.2c-0.1-0.1-0.3-0.1-0.4-0.1h-0.2v-0.1h4.4v1.5h-0.1
	c0-0.3-0.1-0.6-0.3-0.8c-0.2-0.2-0.4-0.3-0.6-0.4c-0.3,0-0.5,0-0.8,0L65.5,20.1z"/>
<path class="st0" d="M70.4,21.4v0.5c0.2-0.2,0.3-0.3,0.6-0.5c0.2-0.1,0.4-0.1,0.5-0.1c0.2,0,0.4,0.1,0.6,0.2
	c0.2,0.1,0.3,0.3,0.4,0.5c0.2-0.2,0.4-0.4,0.6-0.5c0.2-0.1,0.4-0.1,0.6-0.2c0.2,0,0.4,0.1,0.6,0.2c0.1,0.1,0.2,0.3,0.3,0.4
	c0.1,0.3,0.1,0.6,0.1,0.8v1.8c0,0.2,0,0.4,0.1,0.5c0.1,0.1,0.2,0.1,0.3,0.1v0.1h-1.9v-0.1c0.1,0,0.3-0.1,0.3-0.2c0-0.2,0-0.3,0-0.5
	v-1.8c0-0.2,0-0.4,0-0.6c0-0.1-0.1-0.1-0.1-0.2c-0.1,0-0.1,0-0.2,0c-0.1,0-0.2,0-0.3,0.1c-0.1,0.1-0.3,0.2-0.3,0.4v2.1
	c0,0.2,0,0.3,0,0.5c0.1,0.1,0.2,0.2,0.3,0.2v0.1h-1.8v-0.1c0.1,0,0.2,0,0.2,0c0.1,0,0.1-0.1,0.1-0.2c0-0.1,0-0.3,0-0.4v-1.7
	c0-0.2,0-0.4,0-0.6c0-0.1-0.1-0.1-0.1-0.2c-0.1,0-0.1,0-0.2,0c-0.1,0-0.2,0-0.3,0.1c-0.2,0.1-0.3,0.2-0.4,0.4v1.9
	c0,0.2,0,0.3,0.1,0.5c0.1,0.1,0.2,0.1,0.3,0.2v0.1h-1.9v-0.1c0.1,0,0.2-0.1,0.3-0.2c0-0.2,0-0.3,0-0.5v-2.4c0-0.2,0-0.4-0.1-0.5
	c-0.1-0.1-0.2-0.1-0.3-0.1v-0.2L70.4,21.4z"/>
<path class="st0" d="M76.9,19.8v2c0.3-0.3,0.6-0.5,1-0.5c0.3,0,0.5,0.1,0.7,0.2c0.2,0.2,0.4,0.4,0.5,0.6c0.1,0.3,0.2,0.6,0.2,0.9
	c0,0.4-0.1,0.7-0.2,1.1c-0.1,0.3-0.4,0.5-0.6,0.7c-0.3,0.2-0.6,0.3-0.9,0.3c-0.2,0-0.4,0-0.5-0.1c-0.2-0.1-0.3-0.2-0.4-0.3L76,25.1
	h-0.1v-4.5c0-0.1,0-0.3,0-0.4c0-0.1-0.1-0.1-0.1-0.2c-0.1,0-0.2,0-0.3,0v-0.1L76.9,19.8z M76.9,22.1v1.6c0,0.2,0,0.4,0,0.6
	c0,0.3,0.3,0.5,0.6,0.5c0.1,0,0.2,0,0.3-0.1c0.1-0.1,0.2-0.3,0.2-0.5c0.1-0.4,0.1-0.8,0.1-1.2c0-0.4,0-0.8-0.2-1.1
	c-0.1-0.1-0.2-0.2-0.4-0.2C77.3,21.8,77.1,21.9,76.9,22.1z"/>
<path class="st0" d="M81.9,24.5c-0.3,0.3-0.7,0.5-1.2,0.6c-0.2,0-0.4-0.1-0.5-0.2c-0.1-0.1-0.2-0.3-0.2-0.5c0-0.3,0.1-0.6,0.4-0.7
	c0.5-0.4,1-0.7,1.5-0.9v-0.4c0-0.2,0-0.3,0-0.5c0-0.1-0.1-0.1-0.2-0.2c-0.1-0.1-0.2-0.1-0.3-0.1c-0.1,0-0.3,0-0.4,0.1
	c-0.1,0-0.1,0.1-0.1,0.2c0,0.1,0,0.1,0.1,0.2c0.1,0.1,0.1,0.2,0.2,0.3c0,0.1-0.1,0.2-0.2,0.3c-0.1,0.1-0.2,0.1-0.4,0.1
	c-0.1,0-0.3,0-0.4-0.1c-0.1-0.1-0.2-0.2-0.2-0.3c0-0.2,0.1-0.4,0.2-0.5c0.2-0.2,0.4-0.3,0.6-0.4c0.3-0.1,0.5-0.1,0.8-0.1
	c0.3,0,0.6,0.1,0.8,0.2c0.2,0.1,0.3,0.3,0.4,0.5c0,0.2,0,0.5,0,0.7v1.4c0,0.1,0,0.2,0,0.3c0,0,0,0.1,0,0.1H83c0,0,0.1,0,0.2-0.1
	l0.1,0.1c-0.1,0.2-0.2,0.3-0.4,0.4C82.8,25,82.7,25,82.5,25c-0.2,0-0.3,0-0.5-0.1C81.9,24.8,81.9,24.6,81.9,24.5z M81.9,24.2V23
	c-0.3,0.1-0.5,0.3-0.7,0.6c-0.1,0.1-0.2,0.3-0.2,0.4c0,0.1,0.1,0.2,0.1,0.3c0.1,0.1,0.2,0.1,0.3,0.1C81.6,24.4,81.8,24.3,81.9,24.2z
	"/>
<path class="st0" d="M86.2,21.3v1.2h-0.1c-0.1-0.3-0.3-0.5-0.5-0.7c-0.1-0.1-0.3-0.2-0.5-0.2c-0.1,0-0.2,0-0.3,0.1
	c-0.1,0.1-0.1,0.2-0.1,0.2c0,0.1,0,0.2,0.1,0.2c0.2,0.2,0.4,0.4,0.7,0.5c0.3,0.2,0.5,0.4,0.8,0.7c0.1,0.2,0.2,0.4,0.2,0.6
	c0,0.2-0.1,0.4-0.2,0.6c-0.1,0.2-0.2,0.3-0.4,0.4c-0.2,0.1-0.4,0.1-0.6,0.2c-0.2,0-0.5-0.1-0.7-0.2h-0.2c0,0-0.2,0-0.2,0.2H84v-1.3
	h0.1c0.1,0.3,0.2,0.6,0.5,0.8c0.2,0.2,0.4,0.2,0.6,0.3c0.1,0,0.2,0,0.3-0.1c0.1-0.1,0.1-0.2,0.1-0.3c0-0.1,0-0.2-0.1-0.3
	c-0.2-0.2-0.3-0.3-0.5-0.4c-0.3-0.2-0.5-0.4-0.8-0.6c-0.4-0.4-0.4-1.1,0-1.5c0.2-0.2,0.5-0.4,0.8-0.3c0.2,0,0.4,0.1,0.6,0.2h0.2h0.1
	C86,21.4,86,21.3,86.2,21.3L86.2,21.3z"/>
<path class="st0" d="M89.2,21.3v1.2h-0.1c-0.1-0.3-0.3-0.5-0.5-0.7c-0.1-0.1-0.3-0.2-0.5-0.2c-0.1,0-0.2,0-0.3,0.1
	c-0.1,0.1-0.1,0.2-0.1,0.2c0,0.1,0,0.1,0.1,0.2c0.2,0.2,0.4,0.4,0.7,0.5c0.3,0.2,0.5,0.4,0.7,0.7c0.1,0.2,0.2,0.4,0.2,0.6
	c0,0.2-0.1,0.4-0.2,0.6c-0.1,0.2-0.2,0.3-0.4,0.4c-0.2,0.1-0.4,0.1-0.6,0.2c-0.2,0-0.5-0.1-0.7-0.2h-0.2c-0.1,0-0.2,0-0.2,0.2H87
	v-1.3h0.1c0.1,0.3,0.2,0.6,0.5,0.8c0.2,0.1,0.4,0.2,0.6,0.3c0.1,0,0.2,0,0.3-0.1c0.1-0.1,0.1-0.2,0.1-0.3c0-0.1,0-0.2-0.1-0.3
	c-0.2-0.2-0.3-0.3-0.5-0.4c-0.3-0.2-0.5-0.4-0.8-0.6c-0.2-0.2-0.3-0.5-0.3-0.7c0-0.3,0.1-0.5,0.3-0.7c0.2-0.2,0.5-0.4,0.8-0.3
	c0.2,0,0.4,0.1,0.6,0.2h0.2H89c0.1-0.1,0.1-0.1,0.1-0.2L89.2,21.3z"/>
<path class="st0" d="M91.7,25.2l-1.2-2.6c-0.1-0.3-0.2-0.5-0.4-0.7c-0.1-0.1-0.2-0.2-0.3-0.2v-0.2h1.9v0.2c-0.1,0-0.2,0-0.3,0
	c0,0-0.1,0.1-0.1,0.2c0,0.2,0.1,0.4,0.2,0.6l0.6,1.4l0.4-1.1c0.1-0.3,0.2-0.5,0.2-0.8c0-0.1-0.1-0.2-0.1-0.2
	c-0.1-0.1-0.2-0.1-0.3-0.1v-0.2h1.2v0.2c-0.1,0-0.2,0.1-0.3,0.1c-0.2,0.3-0.3,0.5-0.4,0.8l-1,2.7c-0.1,0.4-0.3,0.8-0.6,1.2
	c-0.2,0.2-0.4,0.3-0.7,0.3c-0.2,0-0.4-0.1-0.5-0.2C90,26.4,90,26.3,90,26.1c0-0.1,0-0.3,0.1-0.4c0.1-0.1,0.2-0.2,0.3-0.2
	c0.1,0,0.2,0,0.3,0.1c0.1,0.1,0.1,0.3,0.1,0.4c0,0.1,0,0.1,0,0.2H91c0.1,0,0.2-0.1,0.2-0.1c0.2-0.2,0.3-0.5,0.4-0.7L91.7,25.2z"/>
<path class="st0" d="M97.7,21.3c0.3,0,0.6,0.1,0.9,0.2c0.3,0.2,0.5,0.4,0.6,0.7c0.1,0.3,0.2,0.6,0.2,1c0,0.5-0.1,0.9-0.4,1.3
	c-0.3,0.4-0.8,0.6-1.3,0.6c-0.5,0-0.9-0.2-1.2-0.6c-0.3-0.4-0.5-0.8-0.5-1.3c0-0.5,0.2-1,0.5-1.4C96.7,21.5,97.2,21.3,97.7,21.3z
	 M97.7,21.6c-0.1,0-0.2,0.1-0.3,0.2c-0.1,0.2-0.2,0.4-0.2,0.6c0,0.3,0,0.7,0,1.2c0,0.3,0,0.5,0,0.8c0,0.2,0.1,0.3,0.2,0.4
	c0.1,0.1,0.2,0.1,0.3,0.1c0.1,0,0.2,0,0.3-0.1c0.1-0.1,0.2-0.2,0.2-0.4c0.1-0.5,0.1-1,0.1-1.5c0-0.3,0-0.6-0.1-0.9
	c0-0.1-0.1-0.3-0.2-0.3C97.9,21.6,97.8,21.6,97.7,21.6L97.7,21.6z"/>
<path class="st0" d="M101.5,21.8v2.5c0,0.2,0,0.3,0.1,0.5c0.1,0.1,0.3,0.2,0.5,0.1V25h-2.1v-0.1c0.1,0,0.2,0,0.3,0
	c0.1,0,0.1-0.1,0.1-0.2c0-0.1,0-0.3,0-0.4v-2.6h-0.5v-0.4h0.5V21c0-0.4,0.1-0.7,0.4-0.9c0.3-0.3,0.7-0.4,1.1-0.4
	c0.2,0,0.5,0,0.7,0.2c0.1,0.1,0.2,0.2,0.2,0.4c0,0.1-0.1,0.2-0.2,0.3c-0.1,0.1-0.2,0.1-0.4,0.1c-0.1,0-0.2,0-0.3-0.1
	c-0.1-0.1-0.1-0.1-0.1-0.2c0-0.1,0-0.1,0-0.2c0,0,0-0.1,0-0.1c0,0,0-0.1,0-0.1c0,0-0.1,0-0.2,0c-0.1,0-0.1,0-0.2,0.1
	c-0.1,0.1-0.1,0.2-0.1,0.3v1.1h0.5v0.4L101.5,21.8z"/>
<path class="st0" d="M106,20.1v1.3h0.8v0.4H106v2.3c0,0.1,0,0.3,0,0.4c0,0.1,0,0.1,0.1,0.2c0,0,0.1,0,0.1,0c0.2,0,0.3-0.1,0.5-0.4
	l0.1,0.1c-0.1,0.4-0.5,0.7-1,0.7c-0.2,0-0.4-0.1-0.6-0.2c-0.1-0.1-0.2-0.3-0.3-0.4c0-0.2,0-0.5,0-0.7v-1.9h-0.5v-0.1
	c0.3-0.2,0.6-0.5,0.8-0.7c0.2-0.3,0.4-0.5,0.6-0.8H106z"/>
<path class="st0" d="M108.7,19.8v2.1c0.2-0.2,0.3-0.3,0.5-0.4c0.2-0.1,0.3-0.1,0.5-0.1c0.2,0,0.4,0.1,0.6,0.2
	c0.2,0.1,0.3,0.3,0.3,0.5c0.1,0.3,0.1,0.6,0.1,0.9v1.4c0,0.2,0,0.3,0,0.5c0.1,0.1,0.2,0.1,0.3,0.1V25h-1.8v-0.1
	c0.1,0,0.2-0.1,0.3-0.2c0-0.2,0-0.3,0-0.5v-1.6c0-0.2,0-0.4,0-0.6c0-0.1-0.1-0.1-0.1-0.2c-0.1,0-0.1,0-0.2,0c-0.1,0-0.2,0-0.3,0.1
	c-0.1,0.1-0.2,0.2-0.3,0.4v1.9c0,0.2,0,0.3,0,0.5c0.1,0.1,0.2,0.2,0.3,0.2v0.1h-1.7v-0.1c0.1,0,0.2-0.1,0.3-0.2c0-0.2,0-0.3,0-0.5
	v-3.7c0-0.2,0-0.3,0-0.5c-0.1-0.1-0.2-0.1-0.3-0.1v-0.1H108.7z"/>
<path class="st0" d="M114.6,23.1h-2c0,0.4,0.1,0.8,0.4,1.1c0.2,0.2,0.4,0.3,0.6,0.3c0.2,0,0.3,0,0.4-0.1c0.2-0.1,0.3-0.3,0.4-0.5
	h0.1c-0.1,0.3-0.4,0.6-0.7,0.9c-0.2,0.2-0.5,0.2-0.8,0.2c-0.5,0-1-0.2-1.2-0.6c-0.2-0.4-0.3-0.8-0.3-1.2c0-0.5,0.2-1,0.5-1.4
	c0.3-0.3,0.7-0.5,1.1-0.5c0.4,0,0.7,0.2,1,0.5C114.5,22.1,114.7,22.6,114.6,23.1z M113.7,22.8c0-0.3,0-0.6,0-0.8
	c0-0.1-0.1-0.3-0.2-0.4c-0.1,0-0.2,0-0.2,0c-0.1,0-0.3,0.1-0.3,0.2c-0.2,0.3-0.2,0.6-0.2,0.9v0.1L113.7,22.8z"/>
<path class="st0" d="M66.2,31.3l1.8,2.3c0.2,0.3,0.4,0.5,0.7,0.7c0.1,0.1,0.3,0.1,0.4,0.1v0.2h-2.7v-0.2c0.1,0,0.2,0,0.3,0
	c0,0,0-0.1,0-0.2c-0.1-0.2-0.2-0.4-0.3-0.6l-1.2-1.5l-0.2,0.2v1.4c0,0.2,0,0.3,0,0.5c0,0.1,0.1,0.1,0.2,0.2c0.1,0,0.3,0,0.4,0v0.2
	h-2.5v-0.2h0.2c0.1,0,0.3,0,0.4,0c0.1,0,0.1-0.1,0.2-0.2c0-0.2,0-0.3,0-0.5v-3.6c0-0.2,0-0.3,0-0.5c0-0.1-0.1-0.1-0.2-0.2
	c-0.1,0-0.2,0-0.4,0h-0.2v-0.1h2.6v0.1c-0.1,0-0.3,0-0.4,0c-0.1,0-0.1,0.1-0.2,0.2c0,0.2,0,0.3,0,0.5v1.6l1.9-1.5
	c0.3-0.2,0.4-0.4,0.4-0.5c0-0.1-0.1-0.2-0.2-0.2c-0.1,0-0.3,0-0.4,0v-0.1h2v0.1c-0.1,0-0.3,0-0.4,0.1c-0.3,0.2-0.5,0.3-0.7,0.5
	L66.2,31.3z"/>
<path class="st0" d="M70.8,30.9v2.9c0,0.2,0,0.3,0.1,0.5c0.1,0.1,0.2,0.1,0.3,0.1v0.1h-2v-0.1c0.1,0,0.3-0.1,0.4-0.2
	c0-0.2,0-0.3,0-0.5v-2.1c0-0.2,0-0.3-0.1-0.5c-0.1-0.1-0.2-0.1-0.3-0.1v-0.2L70.8,30.9z M70.2,29.1c0.2,0,0.3,0.1,0.4,0.2
	c0.1,0.1,0.2,0.3,0.2,0.4c0,0.1,0,0.3-0.1,0.4c-0.1,0.1-0.3,0.2-0.4,0.2c-0.2,0-0.3,0-0.5-0.2c-0.2-0.2-0.2-0.6,0-0.8c0,0,0,0,0,0
	C69.9,29.2,70.1,29.1,70.2,29.1z"/>
<path class="st0" d="M73,30.9v0.5c0.2-0.2,0.3-0.3,0.5-0.4c0.2-0.1,0.4-0.1,0.5-0.1c0.2,0,0.4,0.1,0.6,0.2c0.2,0.1,0.3,0.3,0.3,0.5
	c0,0.3,0,0.6,0,0.8v1.4c0,0.2,0,0.4,0.1,0.5c0.1,0.1,0.2,0.1,0.3,0.1v0.1h-1.8v-0.1c0.1,0,0.2-0.1,0.3-0.2c0-0.2,0-0.3,0-0.5v-1.6
	c0-0.2,0-0.4,0-0.6c0-0.1-0.1-0.1-0.1-0.2c-0.1,0-0.1,0-0.2,0c-0.2,0-0.4,0.2-0.6,0.5v1.9c0,0.2,0,0.3,0,0.5
	c0.1,0.1,0.2,0.1,0.3,0.1v0.1h-1.7v-0.1c0.1,0,0.2-0.1,0.3-0.2c0-0.2,0-0.3,0-0.5v-2.2c0-0.2,0-0.3,0-0.5C71.8,31,71.7,31,71.6,31
	v-0.2L73,30.9z"/>
<path class="st0" d="M78.3,30.9h1.2v0.4h-0.7c0.1,0.1,0.2,0.2,0.3,0.3c0.1,0.1,0.1,0.3,0.1,0.4c0,0.2-0.1,0.5-0.2,0.7
	c-0.2,0.2-0.4,0.3-0.6,0.4c-0.2,0.1-0.4,0.2-0.7,0.2h-0.5c-0.1,0-0.2,0-0.3,0.1c-0.1,0.1-0.1,0.2-0.1,0.3c0,0.1,0,0.2,0.1,0.2
	c0.1,0.1,0.2,0.1,0.3,0.1H78c0.4,0,0.8,0,1.1,0.2c0.3,0.1,0.5,0.5,0.4,0.8c0,0.2-0.1,0.4-0.2,0.6C79.2,35.8,79,36,78.8,36
	c-0.4,0.1-0.8,0.2-1.2,0.2c-0.3,0-0.6,0-0.9-0.1c-0.2,0-0.4-0.1-0.6-0.3c-0.1-0.1-0.2-0.2-0.2-0.3c0-0.1,0-0.2,0.1-0.3
	c0.1-0.1,0.3-0.2,0.5-0.2c-0.3-0.1-0.5-0.4-0.5-0.7c0-0.2,0.1-0.4,0.2-0.5c0.2-0.2,0.4-0.3,0.7-0.4c-0.3-0.1-0.6-0.3-0.8-0.5
	c-0.2-0.2-0.2-0.5-0.2-0.7c0-0.4,0.2-0.7,0.4-0.9c0.3-0.3,0.7-0.4,1.1-0.4C77.8,30.8,78,30.9,78.3,30.9z M77.4,35
	c-0.2,0-0.4,0-0.5,0c-0.1,0.1-0.2,0.2-0.2,0.3c0,0.1,0.1,0.3,0.2,0.3c0.3,0.1,0.6,0.2,0.9,0.2c0.3,0,0.6,0,0.8-0.1
	c0.2-0.1,0.3-0.2,0.3-0.4c0-0.1,0-0.1,0-0.2c-0.1-0.1-0.2-0.1-0.3-0.2C78.2,35,77.8,35,77.4,35L77.4,35z M77.6,31
	c-0.2,0-0.3,0.1-0.4,0.2c-0.1,0.3-0.2,0.6-0.2,0.9c0,0.3,0,0.5,0.2,0.8c0.1,0.1,0.2,0.2,0.4,0.2c0.2,0,0.3-0.1,0.4-0.2
	c0.1-0.3,0.2-0.5,0.2-0.8c0-0.3,0-0.7-0.2-1C77.9,31.1,77.8,31,77.6,31L77.6,31z"/>
<path class="st0" d="M83.4,29.3v4.2c0,0.2,0,0.3,0,0.5c0,0.1,0.1,0.1,0.1,0.2c0.1,0,0.2,0,0.3,0v0.1l-1.5,0.3V34
	c-0.1,0.2-0.3,0.3-0.5,0.5c-0.1,0.1-0.3,0.1-0.5,0.1c-0.5,0-0.9-0.2-1.1-0.6c-0.2-0.4-0.3-0.8-0.3-1.2c0-0.4,0.1-0.7,0.2-1
	c0.1-0.3,0.3-0.5,0.5-0.7c0.2-0.2,0.5-0.2,0.8-0.2c0.2,0,0.3,0,0.5,0.1c0.2,0.1,0.3,0.2,0.4,0.3v-1c0-0.2,0-0.3,0-0.5
	c0-0.1-0.1-0.1-0.1-0.2c-0.1,0-0.2,0-0.3,0v-0.2L83.4,29.3z M82.4,31.7c-0.2-0.4-0.4-0.6-0.7-0.6c-0.1,0-0.2,0-0.2,0.1
	c-0.1,0.1-0.2,0.3-0.2,0.4c-0.1,0.3-0.1,0.6-0.1,0.9c0,0.3,0,0.7,0.1,1c0,0.2,0.1,0.3,0.3,0.5c0.1,0,0.2,0,0.2,0
	c0.2,0,0.5-0.2,0.7-0.5V31.7z"/>
<path class="st0" d="M86,30.8c0.3,0,0.6,0.1,0.9,0.2c0.3,0.2,0.5,0.4,0.6,0.7c0.1,0.3,0.2,0.6,0.2,1c0,0.5-0.1,0.9-0.4,1.3
	c-0.3,0.4-0.8,0.6-1.3,0.6c-0.5,0-1-0.2-1.3-0.6c-0.6-0.8-0.6-1.9,0-2.7C85.1,31,85.5,30.8,86,30.8z M86,31.1
	c-0.1,0-0.2,0.1-0.3,0.2c-0.1,0.2-0.2,0.4-0.2,0.6c0,0.3,0,0.7,0,1.2c0,0.3,0,0.5,0,0.8c0,0.2,0.1,0.3,0.2,0.4
	c0.1,0.1,0.2,0.1,0.3,0.1c0.1,0,0.2,0,0.3-0.1c0.1-0.1,0.2-0.2,0.2-0.4c0.1-0.5,0.1-1,0.1-1.5c0-0.3,0-0.6-0.1-0.9
	c0-0.1-0.1-0.3-0.2-0.4C86.2,31.1,86.1,31,86,31.1L86,31.1z"/>
<path class="st0" d="M89.8,30.9v0.5c0.1-0.2,0.3-0.3,0.5-0.5c0.2-0.1,0.4-0.1,0.6-0.1c0.2,0,0.4,0.1,0.6,0.2
	c0.2,0.1,0.3,0.3,0.4,0.5c0.2-0.2,0.4-0.4,0.6-0.5c0.2-0.1,0.4-0.1,0.6-0.2c0.2,0,0.4,0.1,0.6,0.2c0.1,0.1,0.3,0.3,0.3,0.4
	C94,31.7,94,32,94,32.2V34c0,0.2,0,0.4,0.1,0.5c0.1,0.1,0.2,0.1,0.3,0.1v0.1h-1.9v-0.1c0.1,0,0.3-0.1,0.3-0.2c0,0,0.1-0.2,0.1-0.5
	v-1.8c0-0.2,0-0.4,0-0.6c0-0.1-0.1-0.1-0.1-0.2c-0.1,0-0.1,0-0.2,0c-0.1,0-0.2,0-0.3,0.1c-0.1,0.1-0.2,0.2-0.3,0.4V34
	c0,0.2,0,0.3,0,0.5c0.1,0.1,0.2,0.2,0.3,0.2v0.1h-1.9v-0.1c0.1,0,0.2,0,0.2-0.1c0,0,0.1-0.1,0.1-0.2c0-0.1,0-0.3,0-0.4v-1.7
	c0-0.2,0-0.4,0-0.6c0-0.1-0.1-0.1-0.1-0.2c-0.1,0-0.1,0-0.2,0c-0.1,0-0.2,0-0.3,0.1c-0.2,0.1-0.3,0.2-0.4,0.4V34c0,0.2,0,0.3,0,0.5
	c0.1,0.1,0.2,0.1,0.3,0.2v0.1h-1.7v-0.1c0.1,0,0.2-0.1,0.3-0.2c0.1-0.2,0.1-0.3,0.1-0.5v-2.4c0-0.2,0-0.4-0.1-0.5
	C88.5,31,88.4,31,88.3,31v-0.2L89.8,30.9z"/>
<path class="st0" d="M98.6,30.8c0.3,0,0.6,0.1,0.9,0.2c0.3,0.2,0.5,0.4,0.6,0.7c0.1,0.3,0.2,0.6,0.2,1c0,0.5-0.1,0.9-0.4,1.3
	c-0.6,0.7-1.6,0.8-2.3,0.2c-0.1-0.1-0.1-0.1-0.2-0.2c-0.6-0.8-0.6-1.9,0-2.7C97.6,30.9,98.1,30.7,98.6,30.8z M98.6,31.1
	c-0.1,0-0.3,0.1-0.3,0.2c-0.1,0.2-0.2,0.4-0.2,0.6c0,0.3,0,0.7,0,1.2c0,0.3,0,0.5,0,0.8c0,0.2,0.1,0.3,0.2,0.4
	c0.1,0.1,0.2,0.1,0.3,0.1c0.1,0,0.2,0,0.3-0.1c0.1-0.1,0.2-0.2,0.2-0.4c0.1-0.5,0.1-1,0.1-1.5c0-0.3,0-0.6-0.1-0.9
	c0-0.1-0.1-0.3-0.2-0.4C98.7,31.1,98.7,31,98.6,31.1L98.6,31.1z"/>
<path class="st0" d="M102.4,31.3v2.5c0,0.2,0,0.3,0.1,0.5c0.1,0.1,0.3,0.2,0.5,0.1v0.1h-2.1v-0.1c0.1,0,0.2,0,0.3,0
	c0.1,0,0.1-0.1,0.2-0.2c0-0.1,0-0.3,0-0.4v-2.6h-0.5v-0.4h0.5v-0.4c0-0.4,0.1-0.7,0.4-0.9c0.3-0.3,0.7-0.4,1.1-0.4
	c0.2,0,0.5,0,0.7,0.2c0.1,0.1,0.2,0.2,0.2,0.4c0,0.1-0.1,0.2-0.1,0.3c-0.1,0.1-0.2,0.1-0.4,0.1c-0.1,0-0.2,0-0.3-0.1
	c-0.1-0.1-0.1-0.1-0.1-0.2c0-0.1,0-0.1,0-0.2c0,0,0-0.1,0-0.1c0,0,0-0.1,0-0.1c0,0-0.1,0-0.2,0c-0.1,0-0.1,0-0.2,0.1
	c0,0.1,0,0.2,0,0.3v1.1h0.5v0.4L102.4,31.3z"/>
<path class="st0" d="M106.9,29.6v1.3h0.8v0.4h-0.8v2.2c0,0.1,0,0.3,0,0.4c0,0.1,0.1,0.1,0.1,0.2c0,0,0.1,0,0.1,0
	c0.2,0,0.3-0.1,0.5-0.4h0.1c-0.1,0.4-0.5,0.7-1,0.7c-0.2,0-0.4-0.1-0.6-0.2c-0.1-0.1-0.3-0.3-0.3-0.4c0-0.2,0-0.5,0-0.7v-1.8h-0.5
	v-0.1c0.3-0.2,0.6-0.4,0.8-0.7c0.2-0.3,0.4-0.5,0.6-0.8L106.9,29.6z"/>
<path class="st0" d="M109.5,29.3v2.1c0.2-0.2,0.3-0.3,0.5-0.4c0.2-0.1,0.3-0.1,0.5-0.1c0.2,0,0.4,0.1,0.6,0.2
	c0.2,0.1,0.3,0.3,0.3,0.5c0,0.3,0,0.6,0,0.9v1.4c0,0.2,0,0.4,0.1,0.5c0.1,0.1,0.2,0.1,0.3,0.1v0.1h-1.8v-0.1c0.1,0,0.2-0.1,0.3-0.2
	c0.1-0.2,0.1-0.3,0.1-0.5v-1.6c0-0.2,0-0.4,0-0.6c0-0.1-0.1-0.1-0.1-0.2c-0.1,0-0.1,0-0.2,0c-0.1,0-0.2,0-0.3,0.1
	c-0.1,0.1-0.2,0.2-0.3,0.4v1.9c0,0.2,0,0.3,0,0.5c0,0.1,0.2,0.1,0.3,0.2v0.1h-1.8v-0.1c0.1,0,0.2-0.1,0.3-0.2c0-0.2,0-0.3,0-0.5
	v-3.7c0-0.2,0-0.4-0.1-0.5c-0.1-0.1-0.2-0.1-0.3-0.1v-0.1L109.5,29.3z"/>
<path class="st0" d="M115.5,32.6h-2c0,0.4,0.1,0.8,0.4,1.1c0.2,0.2,0.4,0.3,0.6,0.3c0.2,0,0.3,0,0.4-0.1c0.2-0.1,0.3-0.3,0.4-0.5
	l0.1,0.1c-0.1,0.3-0.4,0.6-0.7,0.9c-0.2,0.2-0.5,0.2-0.8,0.2c-0.5,0-0.9-0.2-1.2-0.6c-0.2-0.4-0.4-0.8-0.3-1.2
	c0-0.5,0.1-1.1,0.5-1.5c0.3-0.3,0.7-0.5,1.2-0.5c0.4,0,0.7,0.2,1,0.5C115.4,31.6,115.6,32.1,115.5,32.6z M114.6,32.3
	c0-0.3,0-0.6,0-0.8c0-0.1-0.1-0.3-0.2-0.4c-0.1,0-0.1,0-0.2,0c-0.1,0-0.3,0.1-0.3,0.2c-0.2,0.3-0.2,0.6-0.2,0.9v0.1L114.6,32.3z"/>
<path class="st0" d="M119.7,29.3l2.5,3.2v-2.2c0-0.2,0-0.4-0.1-0.6c-0.2-0.2-0.4-0.3-0.6-0.2v-0.1h1.7v0.1c-0.2,0-0.3,0.1-0.5,0.1
	c-0.1,0-0.2,0.1-0.2,0.2c0,0.2,0,0.4,0,0.5v4.4h-0.1l-3.6-4.4v3.3c0,0.2,0.1,0.4,0.2,0.6c0.1,0.1,0.3,0.2,0.5,0.2h0.1v0.2h-1.9v-0.2
	c0.2,0,0.4,0,0.6-0.2c0.1-0.2,0.2-0.4,0.2-0.6v-3.7l-0.1-0.1c-0.1-0.1-0.2-0.2-0.3-0.3c-0.1,0-0.2,0-0.4,0v-0.1L119.7,29.3z"/>
<path class="st0" d="M126.7,32.6h-2c0,0.4,0.1,0.8,0.4,1.1c0.2,0.2,0.4,0.3,0.6,0.3c0.2,0,0.3,0,0.4-0.1c0.2-0.1,0.3-0.3,0.4-0.5
	l0.1,0.1c-0.1,0.3-0.4,0.6-0.6,0.9c-0.3,0.2-0.6,0.3-0.9,0.3c-0.5,0-0.9-0.2-1.2-0.6c-0.2-0.4-0.4-0.8-0.3-1.2
	c0-0.5,0.1-1.1,0.5-1.5c0.3-0.3,0.7-0.5,1.2-0.5c0.4,0,0.7,0.2,1,0.5C126.6,31.6,126.8,32.1,126.7,32.6z M125.8,32.3
	c0-0.3,0-0.6,0-0.8c0-0.1-0.1-0.3-0.2-0.4c-0.1,0-0.1,0-0.2,0c-0.1,0-0.3,0.1-0.3,0.2c-0.2,0.3-0.2,0.6-0.2,0.9v0.1L125.8,32.3z"/>
<path class="st0" d="M128.6,29.6v1.3h0.9v0.4h-0.9v2.2c0,0.1,0,0.3,0,0.4c0,0.1,0,0.1,0.1,0.2c0,0,0.1,0,0.1,0
	c0.2,0,0.3-0.1,0.5-0.4h0.1c-0.1,0.4-0.5,0.7-1,0.7c-0.2,0-0.4-0.1-0.6-0.2c-0.1-0.1-0.2-0.3-0.3-0.4c0-0.2,0-0.5,0-0.7v-1.8h-0.5
	v-0.1c0.3-0.2,0.6-0.4,0.8-0.7c0.2-0.3,0.4-0.5,0.6-0.8L128.6,29.6z"/>
<path class="st0" d="M131.3,29.3v2.1c0.2-0.2,0.3-0.3,0.5-0.4c0.2-0.1,0.3-0.1,0.5-0.1c0.2,0,0.4,0.1,0.6,0.2
	c0.2,0.1,0.3,0.3,0.3,0.5c0.1,0.3,0.1,0.6,0.1,0.9v1.4c0,0.2,0,0.3,0,0.5c0,0.1,0.2,0.1,0.3,0.1v0.1h-1.7v-0.1
	c0.1,0,0.2-0.1,0.3-0.2c0-0.2,0-0.3,0-0.5v-1.6c0-0.2,0-0.4,0-0.6c0-0.1-0.1-0.1-0.1-0.2c-0.1,0-0.1,0-0.2,0c-0.1,0-0.2,0-0.3,0.1
	c-0.1,0.1-0.2,0.2-0.3,0.4v1.9c0,0.2,0,0.3,0,0.5c0,0.1,0.2,0.1,0.3,0.2v0.1h-1.8v-0.1c0.1,0,0.2-0.1,0.3-0.2c0-0.2,0-0.3,0-0.5
	v-3.7c0-0.2,0-0.3,0-0.5c-0.1-0.1-0.2-0.1-0.3-0.1v-0.1L131.3,29.3z"/>
<path class="st0" d="M137.3,32.6h-2c0,0.4,0.1,0.8,0.4,1.1c0.2,0.2,0.4,0.3,0.7,0.3c0.1,0,0.3,0,0.4-0.1c0.2-0.1,0.3-0.3,0.4-0.5
	l0.1,0.1c-0.1,0.3-0.4,0.6-0.7,0.9c-0.2,0.2-0.5,0.3-0.8,0.3c-0.5,0-0.9-0.2-1.2-0.6c-0.2-0.4-0.4-0.8-0.3-1.2
	c0-0.5,0.1-1.1,0.5-1.5c0.3-0.3,0.7-0.5,1.2-0.5c0.4,0,0.7,0.2,0.9,0.5C137.2,31.6,137.4,32.1,137.3,32.6z M136.4,32.3
	c0-0.3,0-0.6,0-0.8c0-0.1-0.1-0.3-0.2-0.4c-0.1,0-0.1,0-0.2,0c-0.1,0-0.3,0.1-0.3,0.2c-0.2,0.3-0.2,0.6-0.2,0.9v0.1L136.4,32.3z"/>
<path class="st0" d="M139.2,30.9v0.8c0.2-0.3,0.4-0.5,0.6-0.7c0.1-0.1,0.3-0.2,0.5-0.2c0.1,0,0.3,0,0.3,0.1c0.1,0.1,0.1,0.2,0.1,0.4
	c0,0.1,0,0.3-0.1,0.4c-0.1,0.1-0.2,0.2-0.3,0.2c-0.1,0-0.3,0-0.3-0.1l-0.2-0.2h-0.1c-0.1,0-0.2,0-0.2,0.1c-0.1,0.1-0.2,0.2-0.2,0.4
	c-0.1,0.3-0.1,0.6-0.1,0.8v1c0,0.1,0,0.2,0,0.3c0,0.1,0.1,0.1,0.1,0.2c0.1,0,0.2,0,0.3,0v0.1h-1.9v-0.1c0.1,0,0.2,0,0.3-0.1
	c0-0.2,0-0.4,0-0.6v-2c0-0.1,0-0.3,0-0.4c0-0.1-0.1-0.1-0.1-0.2c-0.1,0-0.2,0-0.3,0v-0.2L139.2,30.9z"/>
<path class="st0" d="M142.7,29.3v4.5c0,0.2,0,0.3,0.1,0.5c0.1,0.1,0.2,0.1,0.3,0.1v0.1h-2v-0.1c0.1,0,0.3-0.1,0.4-0.2
	c0-0.2,0-0.3,0-0.5V30c0-0.2,0-0.3-0.1-0.5c-0.1-0.1-0.2-0.1-0.3-0.1v-0.1H142.7z"/>
<path class="st0" d="M145.4,34c-0.3,0.3-0.7,0.5-1.2,0.6c-0.2,0-0.4-0.1-0.5-0.2c-0.1-0.1-0.2-0.3-0.2-0.5c0-0.3,0.1-0.6,0.3-0.7
	c0.5-0.4,1-0.7,1.5-0.9v-0.4c0-0.2,0-0.3,0-0.5c0-0.1-0.1-0.1-0.2-0.2c-0.1,0-0.2,0-0.3,0c-0.1,0-0.3,0-0.4,0.1
	c-0.1,0-0.1,0.1-0.1,0.2c0,0.1,0.1,0.1,0.1,0.2c0.1,0.1,0.1,0.2,0.1,0.3c0,0.1,0,0.2-0.1,0.3c-0.1,0.1-0.2,0.1-0.4,0.1
	c-0.2,0-0.3,0-0.4-0.2c-0.1-0.1-0.2-0.2-0.2-0.3c0-0.2,0.1-0.4,0.2-0.5c0.2-0.2,0.4-0.3,0.6-0.4c0.3-0.1,0.5-0.1,0.8-0.1
	c0.3,0,0.6,0.1,0.8,0.2c0.2,0.1,0.3,0.3,0.4,0.5c0,0.2,0,0.5,0,0.7v1.4c0,0.1,0,0.2,0,0.3c0,0,0,0.1,0,0.1c0,0,0.1,0,0.1,0
	c0.1,0,0.2-0.1,0.2-0.1l0.1,0.1c-0.1,0.2-0.2,0.3-0.4,0.4c-0.1,0.1-0.3,0.1-0.5,0.1c-0.2,0-0.3,0-0.5-0.2
	C145.4,34.3,145.4,34.1,145.4,34z M145.4,33.7v-1.2c-0.3,0.1-0.5,0.3-0.7,0.6c-0.1,0.1-0.2,0.3-0.2,0.4c0,0.1,0,0.2,0.1,0.3
	c0.1,0.1,0.2,0.1,0.3,0.1C145.2,33.9,145.3,33.8,145.4,33.7z"/>
<path class="st0" d="M148.9,30.9v0.5c0.2-0.2,0.3-0.3,0.5-0.4c0.2-0.1,0.4-0.1,0.5-0.1c0.2,0,0.4,0.1,0.6,0.2
	c0.2,0.1,0.3,0.3,0.3,0.5c0,0.3,0,0.6,0,0.8v1.4c0,0.2,0,0.3,0,0.5c0,0.1,0.2,0.1,0.3,0.1v0.1h-1.7v-0.1c0.1,0,0.2-0.1,0.3-0.2
	c0-0.2,0-0.3,0-0.5v-1.6c0-0.2,0-0.4,0-0.6c0-0.1-0.1-0.1-0.1-0.2c-0.1,0-0.1,0-0.2,0c-0.2,0-0.4,0.2-0.6,0.5v1.9
	c0,0.2,0,0.4,0.1,0.5c0.1,0.1,0.2,0.1,0.3,0.1v0.1h-1.8v-0.1c0.1,0,0.2-0.1,0.3-0.2c0-0.2,0-0.3,0-0.5v-2.2c0-0.2,0-0.3,0-0.5
	c-0.1-0.1-0.2-0.1-0.3-0.1v-0.2L148.9,30.9z"/>
<path class="st0" d="M155.3,29.3v4.2c0,0.2,0,0.3,0,0.5c0,0.1,0.1,0.1,0.1,0.2c0.1,0,0.2,0,0.3,0v0.1l-1.5,0.3V34
	c-0.1,0.2-0.3,0.3-0.5,0.5c-0.1,0.1-0.3,0.1-0.5,0.1c-0.4,0-0.9-0.2-1.1-0.6c-0.2-0.4-0.3-0.8-0.3-1.2c0-0.4,0.1-0.7,0.2-1
	c0.1-0.3,0.3-0.5,0.5-0.7c0.2-0.2,0.5-0.2,0.8-0.2c0.2,0,0.3,0,0.5,0.1c0.2,0.1,0.3,0.2,0.4,0.3v-1c0-0.2,0-0.3,0-0.5
	c0-0.1-0.1-0.1-0.1-0.2c-0.1,0-0.2,0-0.3,0v-0.2L155.3,29.3z M154.2,31.7c-0.2-0.4-0.4-0.6-0.7-0.6c-0.1,0-0.2,0-0.2,0.1
	c-0.1,0.1-0.2,0.3-0.2,0.4c-0.1,0.3-0.1,0.6-0.1,0.9c0,0.3,0,0.7,0.1,1c0,0.2,0.1,0.3,0.3,0.5c0.1,0,0.2,0,0.2,0
	c0.2,0,0.4-0.2,0.6-0.5L154.2,31.7z"/>
<path class="st0" d="M158.6,30.8V32h-0.1c-0.1-0.3-0.3-0.5-0.5-0.8c-0.1-0.1-0.3-0.2-0.5-0.2c-0.1,0-0.2,0-0.3,0.1
	c-0.1,0.1-0.1,0.2-0.1,0.2c0,0.1,0,0.2,0.1,0.2c0.2,0.2,0.4,0.4,0.7,0.5c0.3,0.2,0.5,0.4,0.8,0.7c0.1,0.2,0.2,0.4,0.2,0.6
	c0,0.2-0.1,0.4-0.2,0.6c-0.1,0.2-0.2,0.3-0.4,0.5c-0.2,0.1-0.4,0.1-0.6,0.2c-0.2,0-0.5-0.1-0.7-0.2h-0.2c-0.1,0-0.2,0.1-0.2,0.2
	h-0.1v-1.3h0.1c0.1,0.3,0.3,0.6,0.5,0.8c0.2,0.2,0.4,0.2,0.6,0.3c0.1,0,0.2,0,0.3-0.1c0.1-0.1,0.1-0.2,0.1-0.3c0-0.1,0-0.2-0.1-0.3
	c-0.2-0.2-0.3-0.3-0.5-0.4c-0.3-0.2-0.5-0.4-0.8-0.6c-0.2-0.2-0.2-0.4-0.2-0.7c0-0.3,0.1-0.5,0.3-0.8c0.2-0.2,0.5-0.4,0.8-0.3
	c0.2,0,0.4,0.1,0.6,0.2h0.2h0.1c0,0,0-0.1,0.1-0.2L158.6,30.8z"/>
</svg>
