<svg xmlns="http://www.w3.org/2000/svg" viewBox="0 0 199.07 61.46" width="119" height="37"><defs><style>.cls-1,.cls-2{fill:#ffffff;}.cls-1{fill-rule:evenodd;}</style></defs><title>Asset 1</title><g id="Layer_2" data-name="Layer 2"><g id="Layer_1-2" data-name="Layer 1"><path class="cls-1" d="M35.1,0H59.73c.54,0,.73.44.43,1L26.73,60.49a2,2,0,0,1-1.53,1H.57c-.54,0-.73-.44-.43-1L33.57,1A2,2,0,0,1,35.1,0Z"/><path class="cls-1" d="M75.1,0H99.73c.54,0,.73.44.43,1L66.73,60.49a2,2,0,0,1-1.53,1h-21c-.54,0-.58-.38-.43-1l2.94-11.75L73.57,1A2,2,0,0,1,75.1,0Z"/><path class="cls-1" d="M108.75,0h24.63c.54,0,.74.44.44,1L101.18,60.49a2,2,0,0,1-1.51,1H75c-.54,0-.74-.44-.44-1L107.24,1A1.94,1.94,0,0,1,108.75,0Z"/><path class="cls-1" d="M142.16,0H166.8a1.89,1.89,0,0,1,1.48,1L199,60.49c.28.53.06,1-.47,1H173.84a1.87,1.87,0,0,1-1.47-1L141.69,1C141.41.44,141.63,0,142.16,0Z"/><rect class="cls-2" x="40.71" width="19.27" height="61.46" rx="0.98" ry="0.98"/><path class="cls-1" d="M142.16,0H166.8c.53,0,.73.44.44,1L134.73,60.49a2,2,0,0,1-1.51,1H108.58c-.53,0-.73-.44-.44-1L140.65,1A2,2,0,0,1,142.16,0Z"/><path class="cls-1" d="M137.77,40h15.61a2.71,2.71,0,0,1,1.84,1l6.29,7.84a1.21,1.21,0,0,1-.81,1.7H137.77a1.2,1.2,0,0,1-1.22-1.17V41.18A1.2,1.2,0,0,1,137.77,40Z"/><path class="cls-1" d="M189.86.9a7.59,7.59,0,0,1,5.37,13,7.6,7.6,0,1,1-5.37-13Zm4.67,2.93a6.61,6.61,0,1,0,1.93,4.67A6.62,6.62,0,0,0,194.53,3.83Z"/><path class="cls-1" d="M186.25,12.81V4.19h4.34a2.9,2.9,0,0,1,2,.66,2.21,2.21,0,0,1,.75,1.74,2,2,0,0,1-.84,1.82,2.14,2.14,0,0,1-.5.26h0a2,2,0,0,1,.29.14,1.62,1.62,0,0,1,.76,1.48l.05,1.41a1.68,1.68,0,0,0,.08.6.59.59,0,0,0,.3.28v.23h-2a1.84,1.84,0,0,1-.12-.58,7.12,7.12,0,0,1-.06-1v-.8a1,1,0,0,0-.35-.82,1.81,1.81,0,0,0-1.09-.25h-1.8v3.4h-1.8ZM188.05,8h2.09a1.61,1.61,0,0,0,1-.29,1,1,0,0,0,.35-.86A1.07,1.07,0,0,0,191.2,6a1.48,1.48,0,0,0-1-.28h-2.16Z"/></g></g></svg>