<svg xmlns="http://www.w3.org/2000/svg" width="48.857" height="30.427" viewBox="0 0 48.857 30.427">
  <g id="vegan" transform="translate(0 -96.567)">
    <g id="Group_246" data-name="Group 246" transform="translate(0 96.567)">
      <g id="Group_245" data-name="Group 245" transform="translate(0 0)">
        <path id="Path_186" data-name="Path 186" d="M16.267,110.728l14.118,14.118a39.022,39.022,0,0,0-.354-7.33c-.856-5.97-3.058-10.875-6.367-14.185S15.449,97.82,9.479,96.964a37.25,37.25,0,0,0-8.046-.3A1.49,1.49,0,0,0,.092,98a37.265,37.265,0,0,0,.3,8.046c.856,5.97,3.058,10.875,6.367,14.184s8.214,5.511,14.184,6.367a39.813,39.813,0,0,0,5.59.4c.726,0,1.318-.021,1.739-.043L14.16,112.834a1.49,1.49,0,1,1,2.106-2.106Z" transform="translate(0 -96.567)" fill="#9cec7a"/>
      </g>
    </g>
    <g id="Group_248" data-name="Group 248" transform="translate(31.54 105.584)">
      <g id="Group_247" data-name="Group 247">
        <path id="Path_187" data-name="Path 187" d="M347.78,192.465a1.49,1.49,0,0,0-1.341-1.341c-.4-.038-9.814-.869-15.3,4.615q-.32.32-.612.658a35.206,35.206,0,0,1,1.439,6.17c.1.7.179,1.376.239,2.023L336.1,200.7a1.49,1.49,0,1,1,2.107,2.107l-5.81,5.81c0,1.518-.088,2.508-.107,2.706a4.453,4.453,0,0,1-.217,1.008c3.309-.306,7.876-1.35,11.092-4.565C348.649,202.279,347.818,192.863,347.78,192.465Z" transform="translate(-330.53 -191.058)" fill="#9cec7a"/>
      </g>
    </g>
  </g>
</svg>
