<svg xmlns="http://www.w3.org/2000/svg" xmlns:xlink="http://www.w3.org/1999/xlink" width="197" height="33" viewBox="0 0 595.28 93.991" xmlns:v="https://vecta.io/nano"><defs><path id="A" d="M0 0h595.28v93.99H0z"/></defs><clipPath id="B"><use xlink:href="#A"/></clipPath><path d="M138.13 68.366h9.65c1.35 0 2.458.2 3.317.615.818.43 1.443.974 1.87 1.63.43.65.73 1.292.9 1.938a10.19 10.19 0 0 1 .183 1.819 7.7 7.7 0 0 1-.29 2.067 5.02 5.02 0 0 1-1.123 1.901c-.474.588-1.133 1.052-1.964 1.4-.85.4-1.894.6-3.112.6h-9.43v-11.96zm-1.625 25.286h1.625V81.755h9.144c5.5-.048 8.313-2.494 8.398-7.342 0-1.602-.254-2.9-.75-3.9-.505-.98-1.167-1.737-2-2.26a7.77 7.77 0 0 0-2.51-1.097c-.903-.144-1.746-.22-2.54-.22h-11.38v26.717zm22.845 0h16.82v-1.43h-15.2V66.936h-1.63zm28.43-26.716l-10.746 26.717h1.77l3.4-8.572h12.798l3.383 8.572h1.753L189.57 66.936h-1.792zm-5.044 16.716l5.94-15.104h.078l5.734 15.104h-11.753zm20.024 10h1.63V68.946h.07l17.02 24.706h1.94V66.936h-1.63v24.52h-.07l-16.9-24.52h-2.07zm26.67-1.427V80.48h15.37v-1.435h-15.37v-10.68h16.34v-1.43H227.8V93.65h18.15v-1.427zm20.03 1.427h1.62V68.946h.07l17.02 24.706h1.94V66.936h-1.63v24.52h-.07l-16.9-24.52h-2.06zm45.12-14.632h-8.74v1.43h8.74v8.717h1.4V80.45h8.72v-1.43h-8.72v-8.714h-1.4zm27.4 1.46h9.1a21.17 21.17 0 0 1 2.727.179 8.2 8.2 0 0 1 2.478.946c.784.395 1.4.97 1.855 1.725.426.74.637 1.683.637 2.83-.107 4.016-2.672 6.038-7.696 6.06h-9.1V80.48zm-1.624 13.17h10.7c2.842 0 5.103-.646 6.768-1.938 1.683-1.257 2.53-3.107 2.56-5.554-.03-1.343-.287-2.466-.784-3.36-.55-.858-1.2-1.5-1.964-1.98-.717-.5-1.4-.838-2.015-1.027-.63-.167-1.056-.225-1.282-.177l-.072-.075c1.6-.22 2.852-.865 3.774-1.952.912-1.046 1.373-2.292 1.4-3.728a9.57 9.57 0 0 0-.365-2.601c-.275-.814-.753-1.542-1.425-2.183-.62-.667-1.477-1.2-2.568-1.575-1.072-.38-2.42-.568-4.04-.568H320.35V93.65zm1.624-25.3h9.07c1.847 0 3.43.366 4.765 1.116 1.317.8 1.988 2.157 2.015 4.075-.026 3.568-2.282 5.396-6.78 5.494h-9.07V68.363zm24.35 23.865V80.48h15.37v-1.435h-15.37v-10.68h16.34v-1.43H344.7V93.65h18.15v-1.427zm21.66-12.155V68.366h9.54c1.882 0 3.486.4 4.8 1.22 1.332.876 2 2.327 2.036 4.347-.026 2.12-.657 3.672-1.908 4.646-1.287.994-2.933 1.492-4.938 1.492h-9.54zm-1.626 13.58h1.626V81.5h9.53c1.2 0 2.204.1 2.974.346.78.238 1.394.574 1.83 1.004a4.08 4.08 0 0 1 1.102 1.456c.22.57.354 1.195.4 1.87a36.04 36.04 0 0 1 .107 4.007 10.4 10.4 0 0 0 .159 1.828l.186.818c.07.307.164.58.246.822h1.835c-.467-.74-.708-1.773-.708-3.107l-.2-4.072c-.052-1.43-.447-2.7-1.185-3.786-.375-.523-.87-.965-1.492-1.313-.67-.297-1.5-.505-2.492-.64v-.074c3.738-.792 5.646-3.068 5.717-6.837-.025-2.545-.84-4.342-2.436-5.392-1.6-1.02-3.6-1.52-6.04-1.494H366.35v26.716zm32.286-26.714L387.9 93.653h1.772l3.404-8.572h12.798l3.383 8.572h1.755l-10.566-26.717h-1.796zm-5.044 16.716l5.94-15.104h.078l5.735 15.104h-11.754zm24.634-15.29v25.3h1.63v-25.3h9.43v-1.427h-20.46v1.427zm15.17 23.862V80.48h15.36v-1.435H433.4v-10.68h16.34v-1.43h-17.97V93.65h18.15v-1.427zm20.02 1.427h1.62V68.946h.07l17 24.706h1.95V66.936h-1.63v24.52h-.07l-16.9-24.52h-2.06zm48.88-13.855v1.428h9.865c.104 3.288-.75 5.92-2.543 7.898-1.806 1.977-4.332 2.976-7.578 3-3.676-.044-6.424-1.267-8.255-3.668-1.845-2.34-2.768-5.258-2.768-8.757 0-3.438.948-6.386 2.855-8.863 1.84-2.52 4.558-3.803 8.15-3.854 5 .103 8.173 2.588 9.5 7.476h1.574c-.497-2.842-1.773-5.037-3.813-6.584-2.052-1.52-4.477-2.293-7.3-2.32-4.02.082-7.1 1.48-9.285 4.224-2.216 2.708-3.322 6.018-3.322 9.924 0 3.927 1.08 7.185 3.25 9.784 1.077 1.24 2.4 2.22 3.974 2.938 1.548.735 3.328 1.113 5.358 1.14 2.388-.025 4.506-.603 6.362-1.718 1.814-1.097 3.065-2.627 3.753-4.596h.066v5.67h1.4V79.8H502.3zM518.4 92.9h1.398V81.537c.052-2.47.76-4.266 2.13-5.412 1.307-1.106 2.706-1.66 4.2-1.66.37 0 .814.044 1.337.126.492.104.995.33 1.52.697.52.323.953.838 1.313 1.533.368.732.548 1.707.548 2.92v13.17h1.4V81.537c0-2.317.596-4.07 1.784-5.265 1.164-1.208 2.66-1.8 4.492-1.8a8.38 8.38 0 0 1 1.27.126c.523.104 1.046.318 1.56.664.574.32 1.036.83 1.4 1.527.37.762.55 1.746.55 2.96v13.17h1.4V79.766c-.025-2.268-.604-3.938-1.743-5.006-1.133-1.025-2.625-1.534-4.476-1.534-3.122.02-5.235 1.386-6.312 4.07h-.082c-.185-1.05-.753-1.983-1.702-2.814-.487-.385-1.087-.697-1.8-.928-.723-.22-1.553-.33-2.513-.33-1.5.02-2.82.442-3.982 1.25-1.16.796-1.903 1.837-2.23 3.098h-.067V73.66h-1.4V92.9zm40.23-.794c-2.604-.046-4.48-1-5.636-2.88-1.174-1.815-1.747-3.946-1.722-6.397 0-2.466.6-4.476 1.8-6.02s3.06-2.332 5.558-2.356c2.337.065 4.075.926 5.23 2.587 1.147 1.65 1.722 3.577 1.722 5.788 0 2.333-.512 4.428-1.543 6.287a6.71 6.71 0 0 1-2.123 2.138c-.906.568-2.005.852-3.285.852m-8.794.793h1.4v-4.314h.072c.123.636.744 1.542 1.866 2.738.615.524 1.358 1 2.245 1.4.913.4 1.97.6 3.195.637.707 0 1.532-.133 2.486-.388.918-.243 1.825-.73 2.728-1.46.882-.742 1.63-1.813 2.256-3.2.568-1.384.867-3.205.893-5.47 0-2.744-.678-5.024-2.026-6.855-1.374-1.813-3.48-2.732-6.336-2.754-1.58 0-3.035.37-4.374 1.114-1.354.758-2.333 1.904-2.933 3.43h-.072v-11.58h-1.4V92.9zM590 79.73V92.9h1.62V66.187H590v12.116h-17.1V66.187h-1.62V92.9h1.62V79.73zM161.05.001c-7.464.096-13.278 2.72-17.434 7.864-4.205 5.06-6.306 11.374-6.306 18.916 0 7.494 2.102 13.77 6.306 18.855 4.156 5.155 9.97 7.792 17.434 7.934 7.5-.142 13.33-2.78 17.496-7.934 4.133-5.084 6.223-11.36 6.268-18.855-.045-7.542-2.135-13.855-6.268-18.916C174.378 2.723 168.55.098 161.05.001m0 7.27c5.327.096 9.17 2.1 11.523 6.027 2.377 3.83 3.562 8.33 3.562 13.484 0 5.072-1.185 9.548-3.562 13.428a13.07 13.07 0 0 1-4.57 4.378c-1.948 1.146-4.263 1.718-6.953 1.718-5.232-.096-9.054-2.124-11.464-6.097-2.448-3.88-3.643-8.356-3.597-13.428-.046-5.155 1.15-9.654 3.597-13.484 2.4-3.926 6.232-5.93 11.464-6.026m43.23 21.79h15.308c5.472.05 8.253 2.686 8.337 7.925-.083 5.348-2.865 8.043-8.337 8.1H204.28V29.06zm-8.683 23.282h22.74c6.437-.044 11.117-1.428 14.03-4.163 2.83-2.648 4.24-6.015 4.24-10.097-.046-7.208-3.167-11.587-9.362-13.15v-.13c4.658-2.05 7.012-5.7 7.058-10.92-.045-4.282-1.37-7.47-4-9.568-2.637-2.056-6.208-3.08-10.7-3.08h-24.016v51.1zm8.683-43.844h14.08c4.788-.093 7.2 2.244 7.263 7.018-.052 2.315-.708 4.058-1.995 5.253-1.374 1.24-3.13 1.86-5.268 1.86h-14.08V8.498zm42.97 43.844h36.18V44.65h-27.5V29.646h25V22.38h-25V8.93h27V1.233h-35.67zm55-43.844h14.08c1.215 0 2.343.095 3.354.277 1.076.2 1.958.582 2.692 1.168.835.512 1.5 1.278 1.968 2.277.405 1.05.605 2.424.605 4.107-.046 5.454-2.876 8.187-8.475 8.187H302.25V8.498zm-8.683 43.844h8.683V31.3h12.768c3.94 0 6.604 1.075 8.013 3.2 1.287 2.197 1.907 5.633 1.862 10.325-.053 1.242.025 2.503.2 3.805a11.2 11.2 0 0 0 1.128 3.71h9.3c-.933-1.14-1.6-2.9-2.04-5.308-.45-2.422-.683-5.145-.683-8.15 0-2.053-.225-3.734-.672-5.074-.465-1.394-1.106-2.48-1.92-3.245-.714-.837-1.538-1.457-2.447-1.85-.906-.38-1.753-.582-2.552-.632v-.14c.465-.145 1.18-.454 2.132-.942.907-.467 1.847-1.157 2.795-2.066 1.004-1.002 1.85-2.315 2.522-3.95.655-1.588.98-3.568.98-5.944-.047-9.07-5.507-13.663-16.38-13.804H293.57v51.108zm51.533 0h8.25V12.914h.13l13.77 39.428h7.16l13.72-39.428h.14v39.428h8.25V1.233h-12.07l-13.35 40.06h-.14L357.3 1.233h-12.2zm65.02 0h36.2V44.65h-27.5V29.646h25V22.38h-25V8.93h26.98V1.233h-35.67z" clip-path="url(#B)"/><path clip-path="url(#B)" d="M469.36 52.342h8.68V32.308l18.52-31.075h-9.7l-12.9 22.888-13.13-22.888h-10.07l18.6 31.085zm34.7 0h36.2V44.65h-27.5V29.646h25V22.38h-25V8.93h26.98V1.233h-35.67zm55-43.844h14.073c1.22 0 2.343.095 3.36.277 1.076.2 1.958.582 2.7 1.168.83.512 1.487 1.278 1.97 2.277.405 1.05.604 2.424.604 4.107-.047 5.454-2.877 8.187-8.476 8.187H559.09V8.498zm-8.684 43.844h8.685V31.3h12.762c3.94 0 6.607 1.075 8.02 3.2 1.286 2.197 1.907 5.633 1.86 10.325a21.31 21.31 0 0 0 .201 3.805 11.33 11.33 0 0 0 1.122 3.71h9.306c-.934-1.14-1.616-2.9-2.04-5.308-.457-2.422-.683-5.145-.683-8.15 0-2.053-.23-3.734-.672-5.074-.467-1.394-1.107-2.48-1.923-3.245-.712-.837-1.538-1.457-2.445-1.85-.908-.38-1.76-.582-2.558-.632v-.14c.47-.145 1.185-.454 2.138-.942.907-.467 1.84-1.157 2.793-2.066 1.006-1.002 1.853-2.315 2.523-3.95.656-1.588.98-3.568.98-5.944-.05-9.07-5.506-13.663-16.385-13.804h-23.682v51.108z"/><path clip-path="url(#B)" d="M46.163 1.276h46.16v45.87h-46.16zM0 1.276h23.22V70.13h69.102v22.887H0z" fill="#db0031" fill-rule="evenodd"/></svg>