<svg xmlns="http://www.w3.org/2000/svg" width="55" height="45" viewBox="0 0 57.667 45.324">
  <path id="athletism-hurdle" d="M56.342,46.575H1.325A1.325,1.325,0,0,0,0,47.9v9.844a1.325,1.325,0,0,0,1.325,1.325H4.983v31.5a1.325,1.325,0,1,0,2.65,0v-2.65h42.4v2.65a1.325,1.325,0,1,0,2.65,0v-31.5h3.658a1.325,1.325,0,0,0,1.325-1.325V47.9A1.325,1.325,0,0,0,56.342,46.575ZM40.9,56.419V49.225h5.02v7.194Zm-21.481,0V49.225H38.249v7.194Zm-7.67,0V49.225h5.02v7.194Zm-9.1-7.194H9.1v7.194H2.65ZM50.034,85.274H7.633v-26.2h42.4Zm4.983-28.855H48.569V49.225h6.448Z" transform="translate(0 -46.575)" fill="#ff5f3b"/>
</svg>
