<svg xmlns="http://www.w3.org/2000/svg" width="21.743" height="27" viewBox="0 0 21.743 27">
  <g id="audiobook" transform="translate(0 -2)">
    <path id="Path_194" data-name="Path 194" d="M77.924,401H60.82a4.5,4.5,0,0,0-2.576.712A2.821,2.821,0,0,0,57,404.093c0,1.854,1.571,3.149,3.82,3.149H76.285a2.5,2.5,0,0,0,2.458-2.531v-2.868A.832.832,0,0,0,77.924,401Z" transform="translate(-57 -378.243)" fill="#7e9bd8"/>
    <path id="Path_195" data-name="Path 195" d="M156.585,103a5.521,5.521,0,1,0,5.585,5.52A5.559,5.559,0,0,0,156.585,103Zm3.361,6.213-4.681,2.524a.806.806,0,0,1-.789-.014.787.787,0,0,1-.391-.678v-4.627a.786.786,0,0,1,.366-.663.806.806,0,0,1,.762-.055l4.681,2.1a.785.785,0,0,1,.052,1.41Z" transform="translate(-145.714 -97.207)" fill="#7e9bd8"/>
    <path id="Path_196" data-name="Path 196" d="M239,193.513l2.218-1.21L239,191.295Z" transform="translate(-229.089 -180.809)" fill="#7e9bd8"/>
    <path id="Path_197" data-name="Path 197" d="M76.285,2H59.458A2.449,2.449,0,0,0,57,4.434V21.348c.105-.084.214.8.328.722a6.262,6.262,0,0,1,3.491-.961h17.1a2.469,2.469,0,0,1,.819.14V4.434A2.449,2.449,0,0,0,76.285,2ZM67.872,18.632a7.3,7.3,0,1,1,7.375-7.3A7.348,7.348,0,0,1,67.872,18.632Z" transform="translate(-57)" fill="#7e9bd8"/>
  </g>
</svg>
