<svg xmlns="http://www.w3.org/2000/svg" width="35" height="30" viewBox="0 0 35 30">
  <g id="Group_206" data-name="Group 206" transform="translate(-271.61 -24.179)">
    <rect id="Rectangle_158" data-name="Rectangle 158" width="28.762" height="18.423" transform="translate(274.702 24.179)" fill="#80e17d"/>
    <path id="Path_121" data-name="Path 121" d="M303.974,44.553H274.245l-2.635,9.6h35Z" transform="translate(0 0.022)" fill="#80e17d"/>
    <g id="Group_205" data-name="Group 205" transform="translate(281.534 29.794)">
      <g id="Group_202" data-name="Group 202" transform="translate(4.407 5.759)">
        <path id="Path_122" data-name="Path 122" d="M287.018,37.364a3.644,3.644,0,0,1,3.144-1.816h0" transform="translate(-287.018 -35.548)" fill="none" stroke="#fff" stroke-miterlimit="10" stroke-width="1.5"/>
        <path id="Path_123" data-name="Path 123" d="M293.306,37.364a3.644,3.644,0,0,0-3.144-1.816h0" transform="translate(-287.018 -35.548)" fill="none" stroke="#fff" stroke-miterlimit="10" stroke-width="1.5"/>
      </g>
      <g id="Group_203" data-name="Group 203" transform="translate(2.135 2.939)">
        <path id="Path_124" data-name="Path 124" d="M284.746,35.857a6.275,6.275,0,0,1,5.416-3.129h0" transform="translate(-284.746 -32.728)" fill="none" stroke="#fff" stroke-miterlimit="10" stroke-width="1.5"/>
        <path id="Path_125" data-name="Path 125" d="M295.578,35.857a6.275,6.275,0,0,0-5.416-3.129h0" transform="translate(-284.746 -32.728)" fill="none" stroke="#fff" stroke-miterlimit="10" stroke-width="1.5"/>
      </g>
      <g id="Group_204" data-name="Group 204">
        <path id="Path_126" data-name="Path 126" d="M282.611,34.152a8.749,8.749,0,0,1,7.551-4.363h0" transform="translate(-282.611 -29.789)" fill="none" stroke="#fff" stroke-miterlimit="10" stroke-width="1.5"/>
        <path id="Path_127" data-name="Path 127" d="M297.714,34.152a8.752,8.752,0,0,0-7.552-4.363h0" transform="translate(-282.611 -29.789)" fill="none" stroke="#fff" stroke-miterlimit="10" stroke-width="1.5"/>
      </g>
    </g>
  </g>
</svg>
