<svg xmlns="http://www.w3.org/2000/svg" width="46.489" height="37.115" viewBox="0 0 46.489 37.115">
  <g id="Group_285" data-name="Group 285" transform="translate(1.339 1)">
    <rect id="Rectangle_241" data-name="Rectangle 241" width="36.456" height="23.984" transform="translate(3.645 0)" fill="none" stroke="#b083c1" stroke-miterlimit="10" stroke-width="2"/>
    <path id="Path_220" data-name="Path 220" d="M312.121,125.752H274.909l-3.3,11.131h43.81Z" transform="translate(-271.61 -101.768)" fill="none" stroke="#b083c1" stroke-miterlimit="10" stroke-width="2"/>
    <g id="Group_284" data-name="Group 284" transform="translate(12.971 7.746)">
      <g id="Group_281" data-name="Group 281" transform="translate(5.196 6.79)">
        <path id="Path_221" data-name="Path 221" d="M287.018,119.88a4.294,4.294,0,0,1,3.707-2.141h0" transform="translate(-287.018 -117.739)" fill="none" stroke="#b083c1" stroke-miterlimit="10" stroke-width="1.5"/>
        <path id="Path_222" data-name="Path 222" d="M293.869,119.88a4.294,4.294,0,0,0-3.707-2.141h0" transform="translate(-286.455 -117.739)" fill="none" stroke="#b083c1" stroke-miterlimit="10" stroke-width="1.5"/>
      </g>
      <g id="Group_282" data-name="Group 282" transform="translate(2.517 3.465)">
        <path id="Path_223" data-name="Path 223" d="M284.746,118.608a7.4,7.4,0,0,1,6.385-3.689h0" transform="translate(-284.746 -114.919)" fill="none" stroke="#b083c1" stroke-miterlimit="10" stroke-width="1.5"/>
        <path id="Path_224" data-name="Path 224" d="M296.548,118.608a7.4,7.4,0,0,0-6.386-3.689h0" transform="translate(-283.776 -114.919)" fill="none" stroke="#b083c1" stroke-miterlimit="10" stroke-width="1.5"/>
      </g>
      <g id="Group_283" data-name="Group 283">
        <path id="Path_225" data-name="Path 225" d="M282.611,117.123a10.315,10.315,0,0,1,8.9-5.143h0" transform="translate(-282.611 -111.98)" fill="none" stroke="#b083c1" stroke-miterlimit="10" stroke-width="1.5"/>
        <path id="Path_226" data-name="Path 226" d="M299.066,117.123a10.318,10.318,0,0,0-8.9-5.143h0" transform="translate(-281.259 -111.98)" fill="none" stroke="#b083c1" stroke-miterlimit="10" stroke-width="1.5"/>
      </g>
    </g>
  </g>
</svg>
