<svg xmlns="http://www.w3.org/2000/svg" width="41.067" height="33.335" viewBox="0 0 41.067 33.335">
  <path id="target" d="M37.5,64.867l3.325-4.433a1.2,1.2,0,0,0-.963-1.925H33.42a1.2,1.2,0,0,0-.963.481l-.127.17a16.667,16.667,0,1,0,0,11.413l.127.17a1.2,1.2,0,0,0,.963.481h6.443a1.2,1.2,0,0,0,.963-1.925Zm-6.962,3.319a14.261,14.261,0,1,1,0-6.639l-1.3,1.731-.289.385h-.835a11.513,11.513,0,1,0,0,2.406h.835l.289.385Zm-7.63-4.522a6.358,6.358,0,1,0,0,2.406h2.785a9.106,9.106,0,1,1,0-2.406ZM16.667,66.07h3.764a3.952,3.952,0,1,1,0-2.406H16.667a1.2,1.2,0,1,0,0,2.406Zm18.368-.481,2.422,3.23H34.022l-2.964-3.952,2.964-3.952h3.436l-2.422,3.23A1.2,1.2,0,0,0,35.035,65.589Z" transform="translate(0 -48.2)" fill="#6fd2bb"/>
</svg>
