<svg xmlns="http://www.w3.org/2000/svg" width="39.83" height="39.812" viewBox="0 0 39.83 39.812">
  <g id="visionary" transform="translate(0 -0.117)">
    <path id="Path_166" data-name="Path 166" d="M105.4,214.151a2.307,2.307,0,0,0,.761-1.7,2.333,2.333,0,0,0-4.665,0,2.307,2.307,0,0,0,.761,1.7l-8.48,17.115H91V233.6h4.22l7.444-15.042v12.71h-2.333V233.6h7v-2.333H105v-12.71L112.44,233.6h4.22v-2.333h-2.778Z" transform="translate(-83.924 -193.671)" fill="#59dc59"/>
    <path id="Path_167" data-name="Path 167" d="M409.329.721l.6,2.253-2.254.6L410.7,14.844l2.254-.6.6,2.253,2.253-.6L411.582.117Z" transform="translate(-375.979 0)" fill="#59dc59"/>
    <path id="Path_168" data-name="Path 168" d="M5.271,156.828l-1.207-4.506,2.254-.6.6,2.254,2.253-.6-1.811-6.76-2.253.6.6,2.253-2.254.6-1.207-4.507-2.253.6,3.018,11.266Z" transform="translate(0 -134.136)" fill="#59dc59"/>
    <path id="Path_169" data-name="Path 169" d="M122.32,68.2a4.609,4.609,0,0,1-.181-1.215,4.655,4.655,0,0,1,9.158-1.19l8.068-2.141-3.019-11.266-20.434,5.434,3.018,11.266Z" transform="translate(-106.899 -48.204)" fill="#59dc59"/>
  </g>
</svg>
