<svg xmlns="http://www.w3.org/2000/svg" width="32.651" height="39.427" viewBox="0 0 32.651 39.427">
  <g id="love" transform="translate(-43.999 0)">
    <path id="Path_183" data-name="Path 183" d="M199.134,165.054l-.988,1.632-.988-1.632a1.556,1.556,0,0,0-1.322-.737,1.127,1.127,0,0,0-1.04.869c-.291,1.047.461,2.8,3.35,4.7,2.891-1.9,3.645-3.645,3.355-4.686C201.147,163.929,199.763,164.017,199.134,165.054Z" transform="translate(-139.13 -151.612)" fill="#06d1b5"/>
    <path id="Path_184" data-name="Path 184" d="M142.085,90a8.086,8.086,0,1,0,8.086,8.086A8.1,8.1,0,0,0,142.085,90Zm.6,13.7-.6.36-.6-.36c-5.5-3.314-5.313-6.468-4.979-7.669a3.441,3.441,0,0,1,3.266-2.561,3.885,3.885,0,0,1,2.31.767,3.885,3.885,0,0,1,2.31-.767,3.45,3.45,0,0,1,3.27,2.572C148,97.235,148.181,100.381,142.68,103.694Z" transform="translate(-83.069 -83.068)" fill="#06d1b5"/>
    <path id="Path_185" data-name="Path 185" d="M69.289,34.015a45.79,45.79,0,0,0,3.075-7.6l4.285-1.451L73.9,17.936l.007-.083c.045-.564.09-1.129.107-1.726.231-8.655-6.18-16.208-15-16.125A15.155,15.155,0,0,0,44,15.016,14.86,14.86,0,0,0,47.215,24.3a6.108,6.108,0,0,1,1.4,3.769V39.427H60.17v-6.76l8.7,2.176Zm-10.274-8.6a10.4,10.4,0,1,1,10.4-10.4A10.407,10.407,0,0,1,59.015,25.412Z" transform="translate(0 0)" fill="#06d1b5"/>
  </g>
</svg>
