<svg width="174" height="50" xmlns="http://www.w3.org/2000/svg" viewBox="0 0 174 38.78"><defs><style>.cls-1{fill:#135799;}.cls-2{fill:#00a8de;}.cls-3{fill:#ee8d30;}.cls-4{fill:#00a75d;}.cls-5{fill:#ea2d30;}</style></defs><title>Asset 4</title><g id="Layer_2" data-name="Layer 2"><g id="Layer_1-2" data-name="Layer 1"><path class="cls-1" d="M49.19,25.27h3.88c1.5,0,2.08.52,2.08,1.8s-.58,1.75-2.08,1.75H49.19Zm-6,12.92h6V32.93h6.43c4.25,0,5.79-2.5,5.79-5.74,0-3.76-1.59-5.89-5.83-5.89H43.19Z"/><path class="cls-1" d="M63.38,21.3H79.53v4.11H69.39v2.28h9.42V31.8H69.39v2.27H79.53v4.12H63.38Z"/><path class="cls-1" d="M88,25.27h3.88c1.52,0,2.08.52,2.08,1.8s-.56,1.75-2.08,1.75H88Zm-6,12.92h6V32.93h6.44c4.25,0,5.78-2.5,5.78-5.74,0-3.76-1.59-5.89-5.83-5.89H82.06Z"/><path class="cls-1" d="M106.22,31a4.49,4.49,0,0,1-4.15-4.75c0-4.37,3.85-5.56,8.79-5.56,6.76,0,9.55,2,9.76,5.54h-7a1.38,1.38,0,0,0-.91-1.35,4.43,4.43,0,0,0-1.87-.36c-1.79,0-2.41.5-2.41,1.2,0,.48.19.78.8.88l7.15,1.18c3,.5,4.9,2.07,4.9,4.92,0,4.12-3,6.06-9.77,6.06-4.61,0-9.65-.71-9.68-5.68h7.25a1.31,1.31,0,0,0,.63,1.21,4.41,4.41,0,0,0,2,.35c1.86,0,2.38-.57,2.38-1.37,0-.5-.28-1-1.09-1.14Z"/><path class="cls-1" d="M123.26,21.3h6V38.19h-6Z"/><path class="cls-1" d="M151.65,31.61a8.29,8.29,0,0,1-2.56,5.25c-1.47,1.23-3.76,1.92-7.43,1.92s-10.38-.29-10.38-9,6.75-9,10.38-9,9.2.53,10,7.21h-6.78a3.11,3.11,0,0,0-3.21-3c-2.45,0-4,1.36-4,4.79s1.5,4.77,3.69,4.77c1.9,0,3-.88,3.51-2.91Z"/><path class="cls-1" d="M159.62,29.75c0-3.43,1.55-4.79,4-4.79s4,1.36,4,4.79-1.56,4.77-4,4.77S159.62,33.18,159.62,29.75Zm-6.37,0c0,8.74,6.73,9,10.37,9s10.38-.29,10.38-9-6.73-9-10.38-9S153.25,21,153.25,29.75Z"/><path class="cls-1" d="M28.34,21.67C28.72,13.43,21.63,4.17,12,3V2.91c9.55,0,16.87,8.83,16.87,15.8a10.69,10.69,0,0,1-.33,3Zm-.58,1A16.79,16.79,0,0,1,25.39,25c-1.72-9.9-9-18.54-14.13-21.07L11.13,4A45,45,0,0,1,24.88,25.4a20.19,20.19,0,0,1-3.94,2.26C16.06,22.1,11.51,11.36,10,4.55l-.15,0c0,6.61,4.73,17.83,10.46,23.3A19.84,19.84,0,0,1,16.28,29c-5.49-2.17-9.4-9.13-9.4-16.25A18.6,18.6,0,0,1,8.57,4.64l-.12,0A14.49,14.49,0,0,0,6,13c0,8.07,4,14.21,9.26,16.16a17.88,17.88,0,0,1-5.66-.28l0,.14A14.71,14.71,0,0,0,15,30,15.07,15.07,0,0,0,27.89,22.8Z"/><path class="cls-2" d="M14.35,0C9.34,0,3.46,3.63,3.46,6.92c0,1.28,1.16,2.36,3.59,2.36,5.61,0,10.85-3.86,10.85-6.86C17.9.84,16.38,0,14.35,0Zm2,2.32C16.35,4.86,11.48,8,7.42,8c-1.79,0-2.77-.7-2.77-1.87C4.65,3.51,9.57.47,13.39.47,15.86.47,16.35,1.73,16.35,2.32Z"/><path class="cls-3" d="M1.46,8.45a5.77,5.77,0,0,0-.7,2.48C.76,13,2.88,15,6.78,15,14.28,15,23,9.45,23,4.33,23,2,20.78.79,19.27.52l0,.1a3.16,3.16,0,0,1,2.2,3c0,4.08-7.66,9.64-15.29,9.64-2.92,0-4.76-1.43-4.76-3.53a4.31,4.31,0,0,1,.18-1.23Z"/><path class="cls-4" d="M26.05,4.72a3.94,3.94,0,0,1,1.44,3.13C27.49,14.48,17.08,21,7.88,21,2.39,21-.11,18.3,0,15.9H.1c.21,1.25,2,3.48,6.8,3.48,9.21,0,19.51-6.75,19.51-12.67A3.79,3.79,0,0,0,26,4.79Z"/><path class="cls-5" d="M29.52,10.91a5.23,5.23,0,0,1,.28,1.78c0,7.38-10.53,13.7-19.7,13.7-4.71,0-7.17-2.28-7.7-3.21l.09-.07a11,11,0,0,0,6.87,2c8.08,0,20.16-6.15,20.05-14.17Z"/></g></g></svg>