<svg xmlns="http://www.w3.org/2000/svg" viewBox="0 0 37.99 37.99" width="16" height="20"><defs><style>.cls-1{isolation:isolate;}.cls-2{fill:#0454a1;}</style></defs><title>Asset 10</title><g id="Layer_2" data-name="Layer 2"><g id="Layer_1-2" data-name="Layer 1"><g class="cls-1"><g class="cls-1"><path class="cls-2" d="M38,30a8.91,8.91,0,0,1-.27,1.9,11.69,11.69,0,0,1-.56,1.85q-.57,1.35-3.29,2.86a10.47,10.47,0,0,1-5,1.37,10.93,10.93,0,0,1-1.42-.09,11.3,11.3,0,0,1-1.55-.34c-.58-.16-1-.29-1.28-.39l-1.5-.55-1.32-.49a24.1,24.1,0,0,1-4.73-2.24,40,40,0,0,1-7.13-5.81A40.09,40.09,0,0,1,4.1,20.94a24.58,24.58,0,0,1-2.24-4.72Q1.79,16,1.38,14.9c-.27-.72-.46-1.22-.56-1.5s-.23-.71-.39-1.28a13.58,13.58,0,0,1-.34-1.56A10.78,10.78,0,0,1,0,9.15a10.43,10.43,0,0,1,1.38-5c1-1.82,2-2.92,2.86-3.29A10.46,10.46,0,0,1,6.08.27,9,9,0,0,1,8,0a1.54,1.54,0,0,1,.56.08c.33.11.8.79,1.43,2.05.2.34.47.83.81,1.46s.66,1.2,1,1.71.56,1,.83,1.45c.06.07.22.29.48.67a8.42,8.42,0,0,1,.58,1,1.86,1.86,0,0,1,.19.77,2.26,2.26,0,0,1-.77,1.35A13.18,13.18,0,0,1,11.37,12,16.71,16.71,0,0,0,9.7,13.41a2.1,2.1,0,0,0-.77,1.24,1.86,1.86,0,0,0,.14.61,4.17,4.17,0,0,0,.23.55,7.41,7.41,0,0,0,.37.65c.19.31.3.48.31.51a28.31,28.31,0,0,0,4.7,6.34A28.24,28.24,0,0,0,21,28l.51.31c.31.19.53.32.65.38s.31.14.55.23a1.85,1.85,0,0,0,.61.13,2,2,0,0,0,1.24-.77A15.49,15.49,0,0,0,26,26.62,13.16,13.16,0,0,1,27.5,25a2.21,2.21,0,0,1,1.35-.77,1.75,1.75,0,0,1,.77.19,6.57,6.57,0,0,1,.95.58l.68.47,1.44.84,1.71.94c.63.34,1.12.61,1.46.81,1.26.63,2,1.11,2,1.43A1.41,1.41,0,0,1,38,30Z"/></g></g></g></g></svg>