<svg xmlns="http://www.w3.org/2000/svg" width="16" height="16" viewBox="0 0 16 16"><g transform="translate(0 0.003)"><g transform="translate(0 -0.003)"><path d="M15.645,14.214a3,3,0,0,1-1.387,1.2A4.311,4.311,0,0,1,12.145,16a8.372,8.372,0,0,1-2.981-.782,10.7,10.7,0,0,1-1.989-.943A19.165,19.165,0,0,1,1.729,8.817,10.737,10.737,0,0,1,.782,6.828,8.828,8.828,0,0,1,0,3.852,4.323,4.323,0,0,1,.581,1.736,3.081,3.081,0,0,1,1.783.352,5.006,5.006,0,0,1,3.364,0,.6.6,0,0,1,3.6.031c.239.082.49.638.6.865.366.646.737,1.305,1.091,1.943.181.3.523.659.523,1.013,0,.692-2.059,1.7-2.059,2.318a2.47,2.47,0,0,0,.441.976,11.338,11.338,0,0,0,4.652,4.648,2.417,2.417,0,0,0,.98.445c.613,0,1.622-2.059,2.318-2.059.35,0,.712.342,1.009.523.638.375,1.3.729,1.943,1.091.226.115.786.362.865.6a.609.609,0,0,1,.033.239A5.089,5.089,0,0,1,15.645,14.214Z" transform="translate(0 0.003)" fill="#fff"/></g></g></svg>