<svg id="adobe-photoshop-cs6" xmlns="http://www.w3.org/2000/svg" xmlns:xlink="http://www.w3.org/1999/xlink" width="34.576" height="34" viewBox="0 0 34.576 34">
  <defs>
    <linearGradient id="linear-gradient" x1="-3.243" y1="4.849" x2="-2.86" y2="4.026" gradientUnits="objectBoundingBox">
      <stop offset="0" stop-color="#a0cbff"/>
      <stop offset="0.394" stop-color="#a0cbfe"/>
      <stop offset="0.583" stop-color="#8ec2fc"/>
      <stop offset="0.784" stop-color="#83bcfb"/>
      <stop offset="1" stop-color="#7fbafb"/>
    </linearGradient>
    <linearGradient id="linear-gradient-2" x1="-3.79" y1="5.501" x2="-3.532" y2="4.631" gradientUnits="objectBoundingBox">
      <stop offset="0" stop-color="#090058"/>
      <stop offset="1" stop-color="#070033"/>
    </linearGradient>
    <linearGradient id="linear-gradient-3" x1="-13.308" y1="10.988" x2="-11.893" y2="8.988" xlink:href="#linear-gradient"/>
    <linearGradient id="linear-gradient-4" x1="-16.914" y1="14.187" x2="-15.148" y2="11.602" xlink:href="#linear-gradient"/>
  </defs>
  <path id="Path_159" data-name="Path 159" d="M0,0H34.576V34H0Z" fill="url(#linear-gradient)"/>
  <path id="Path_160" data-name="Path 160" d="M23.859,23.459H52.936V52.052H23.859Z" transform="translate(-21.109 -20.755)" fill="url(#linear-gradient-2)"/>
  <g id="Group_216" data-name="Group 216" transform="translate(8.356 9.525)">
    <path id="Path_161" data-name="Path 161" d="M72.5,82.7s2.186-.058,3.986-.058a5.917,5.917,0,0,1,3.986,1.18,4.346,4.346,0,0,1,1.393,3.3,4.59,4.59,0,0,1-1.2,3.3,5.644,5.644,0,0,1-4.179,1.713c-.553.023-1.064.029-1.064.029v4.482H72.5Zm2.921,6.981a8.4,8.4,0,0,0,.987.01,2.328,2.328,0,0,0,2.534-2.413,2.27,2.27,0,0,0-2.3-2.413c-.6-.022-1.219,0-1.219,0Z" transform="translate(-72.497 -82.645)" fill="url(#linear-gradient-3)"/>
    <path id="Path_162" data-name="Path 162" d="M162.292,117.983a6.991,6.991,0,0,0,2.925.9c.968,0,1.367-.341,1.367-.873s-.316-1.092-1.515-1.5c-2.125-.724-2.946-1.59-2.925-2.8,0-1.958,1.641-3.427,4.187-3.427a6.131,6.131,0,0,1,2.788.711v2.35a7.153,7.153,0,0,0-2.683-.826c-.779,0-1.221.319-1.221.851,0,.49.4.745,1.662,1.192,1.956.681,2.777,1.681,2.8,3.213,0,1.937-1.493,3.477-4.46,3.384a7.045,7.045,0,0,1-2.925-.86Z" transform="translate(-151.812 -107.102)" fill="url(#linear-gradient-4)"/>
  </g>
</svg>
