<svg xmlns="http://www.w3.org/2000/svg" width="59.89" height="60" viewBox="0 0 59.89 60">
  <g id="alarm-clock" transform="translate(-10.975 -11.075)">
    <g id="Group_353" data-name="Group 353" transform="translate(10.975 11.075)">
      <path id="Path_278" data-name="Path 278" d="M116.794,71.109c0-12.526-9.8-22.787-22.04-22.921V44.747h1.91V42.2h-6.5v2.547h2.033V48.31C81.028,49.5,72.2,59.305,72.2,71.121a23.1,23.1,0,0,0,9.893,19.052l-6.71,6.367,1.751,1.849,7.212-6.845a21.744,21.744,0,0,0,20.4-.061l7.249,6.881,1.751-1.849L106.986,90.1a23.12,23.12,0,0,0,9.808-18.991ZM94.5,91.5c-10.824,0-19.75-9.171-19.75-20.387S83.538,50.722,94.5,50.722s19.75,9.171,19.75,20.387S105.321,91.5,94.5,91.5Z" transform="translate(-64.703 -38.389)" fill="#ff903b"/>
      <path id="Path_279" data-name="Path 279" d="M238.147,136.9H235.6v18.207l9.808,4.334,1.016-2.424-8.277-3.563Z" transform="translate(-208.096 -121.494)" fill="#ff903b"/>
      <path id="Path_280" data-name="Path 280" d="M29.785,14.3A11.022,11.022,0,0,0,14.2,29.885c.245.245.514.478.771.7L30.446,15.008c-.208-.245-.429-.478-.661-.71ZM15.055,26.836A8.364,8.364,0,0,1,26.7,15.106L15.055,26.836Z" transform="translate(-10.975 -11.075)" fill="#ff903b"/>
      <path id="Path_281" data-name="Path 281" d="M357.336,14.3a11.033,11.033,0,0,0-15.587,0,8.856,8.856,0,0,0-.649.722L356.565,30.6q.4-.331.771-.7A11.026,11.026,0,0,0,357.336,14.3Zm-.845,12.538-11.644-11.73a8.364,8.364,0,0,1,11.644,11.73Z" transform="translate(-300.679 -11.075)" fill="#ff903b"/>
    </g>
  </g>
</svg>
