<svg xmlns="http://www.w3.org/2000/svg" width="29" height="29" viewBox="0 0 29 29">
  <path id="gear" d="M29,16.453V12.547c-1.995-.709-3.255-.909-3.89-2.44h0c-.637-1.536.121-2.579,1.023-4.479L23.373,2.866c-1.886.9-2.94,1.661-4.479,1.023h0c-1.533-.636-1.734-1.9-2.44-3.89H12.547c-.7,1.976-.905,3.253-2.44,3.89h0c-1.536.638-2.576-.118-4.479-1.023L2.866,5.627c.9,1.895,1.661,2.941,1.023,4.479S1.976,11.844,0,12.547v3.905c1.972.7,3.253.905,3.89,2.44s-.138,2.617-1.023,4.479l2.761,2.762c1.887-.9,2.941-1.661,4.479-1.023h0c1.535.636,1.735,1.908,2.44,3.89h3.905c.7-1.977.906-3.25,2.449-3.893h0c1.525-.633,2.562.122,4.468,1.028l2.761-2.762c-.9-1.889-1.661-2.94-1.025-4.478s1.919-1.74,3.892-2.442ZM14.5,19.333A4.833,4.833,0,1,1,19.333,14.5,4.834,4.834,0,0,1,14.5,19.333Z" fill="#e6b326"/>
</svg>
