<svg xmlns="http://www.w3.org/2000/svg" width="30" height="40" viewBox="0 0 30 40">
  <g id="coins" transform="translate(-78.1 -11.5)">
    <g id="Group_443" data-name="Group 443" transform="translate(78.1 11.5)">
      <path id="Path_496" data-name="Path 496" d="M93.1,11.5c-7.454,0-15,1.791-15,5.194v6.462c0,3.4,7.546,5.194,15,5.194s15-1.783,15-5.194V16.694C108.1,13.291,100.554,11.5,93.1,11.5Zm0,1.7c8.069,0,13.246,2.045,13.246,3.493s-5.177,3.493-13.246,3.493-13.246-2.045-13.246-3.493S85.031,13.2,93.1,13.2Zm0,13.448c-8.069,0-13.246-2.045-13.246-3.493V19.263C82.518,20.989,87.83,21.88,93.1,21.88s10.582-.892,13.246-2.618v3.894C106.346,24.6,101.169,26.649,93.1,26.649Z" transform="translate(-78.1 -11.5)" fill="#ff5f3b"/>
      <path id="Path_497" data-name="Path 497" d="M93.1,219.893c-8.069,0-13.246-2.045-13.246-3.493H78.1v6.47c0,3.4,7.546,5.194,15,5.194s15-1.783,15-5.194V216.4h-1.754c0,1.456-5.177,3.493-13.246,3.493Zm13.246,2.978c0,1.448-5.177,3.493-13.246,3.493s-13.246-2.045-13.246-3.493v-3.918c5.261,3.493,21.231,3.493,26.492,0Z" transform="translate(-78.1 -199.639)" fill="#ff5f3b"/>
      <path id="Path_498" data-name="Path 498" d="M93.1,361.393c-8.069,0-13.246-2.045-13.246-3.493H78.1v6.47c0,3.4,7.546,5.194,15,5.194s15-1.783,15-5.194v-6.462h-1.754c0,1.44-5.177,3.485-13.246,3.485Zm13.246,2.978c0,1.448-5.177,3.493-13.246,3.493s-13.246-2.045-13.246-3.493v-3.918c5.261,3.493,21.231,3.493,26.492,0Z" transform="translate(-78.1 -329.565)" fill="#ff5f3b"/>
    </g>
  </g>
</svg>
