<svg xmlns="http://www.w3.org/2000/svg" xmlns:xlink="http://www.w3.org/1999/xlink" viewBox="0 0 139.58 52.38" width="150" height="57"><defs><style>.cls-1{fill:url(#GradientFill_1);}.cls-2{fill:#fff;}.cls-2,.cls-3,.cls-4,.cls-5,.cls-6,.cls-7{fill-rule:evenodd;}.cls-3{fill:#414042;}.cls-4{fill:url(#GradientFill_1-2);}.cls-5{fill:url(#GradientFill_2);}.cls-6{fill:url(#GradientFill_3);}.cls-7{fill:url(#GradientFill_1-3);}</style><linearGradient id="GradientFill_1" y1="47.97" x2="139.58" y2="47.97" gradientUnits="userSpaceOnUse"><stop offset="0" stop-color="#5b0a0f"/><stop offset="0.51" stop-color="#e61e26"/><stop offset="1" stop-color="#4f0f0f"/></linearGradient><linearGradient id="GradientFill_1-2" x1="45" y1="-11.27" x2="45" y2="50.31" xlink:href="#GradientFill_1"/><radialGradient id="GradientFill_2" cx="41.51" cy="18.43" r="24.24" gradientTransform="matrix(0.97, 0.26, -0.15, 0.56, 4.16, -2.56)" gradientUnits="userSpaceOnUse"><stop offset="0" stop-color="#090d1a"/><stop offset="0.5" stop-color="#2372b9"/><stop offset="1" stop-color="#090d1a"/></radialGradient><radialGradient id="GradientFill_3" cx="93.41" cy="31.37" r="12.4" gradientTransform="translate(13.18 114.42) rotate(-82) scale(1 2.16)" gradientUnits="userSpaceOnUse"><stop offset="0" stop-color="#bae2f2"/><stop offset="0.23" stop-color="#38a9d6"/><stop offset="1" stop-color="#090d1a"/></radialGradient><linearGradient id="GradientFill_1-3" x1="17.76" y1="22" x2="42.82" y2="42.29" xlink:href="#GradientFill_1"/></defs><title>Asset 1</title><g id="Layer_2" data-name="Layer 2"><g id="_Layer_1" data-name="#Layer 1"><rect class="cls-1" y="43.55" width="139.58" height="8.83"/><path class="cls-2" d="M6.06,50.25l-.47-.45h0a1.85,1.85,0,0,1-1,.27,1.79,1.79,0,0,1-1.39-.58,2.25,2.25,0,0,1-.51-1.55,2.34,2.34,0,0,1,.51-1.59,1.75,1.75,0,0,1,1.39-.58A1.75,1.75,0,0,1,6,46.35a2.71,2.71,0,0,1,.09,3h0l.43.41-.42.46ZM4.61,48.86,5,48.41l.44.4h0a1.86,1.86,0,0,0,.18-.88,1.75,1.75,0,0,0-.28-1.06.91.91,0,0,0-.79-.38.91.91,0,0,0-.79.38,1.76,1.76,0,0,0-.29,1.06,1.67,1.67,0,0,0,.29,1,.93.93,0,0,0,.79.37A.91.91,0,0,0,5,49.25H5Z"/><path class="cls-2" d="M7.71,46.94v1.88a.63.63,0,0,0,.11.41.46.46,0,0,0,.36.14.56.56,0,0,0,.46-.19.81.81,0,0,0,.16-.54h0v-1.7h.78v3H8.84V49.5h0a.86.86,0,0,1-.1.16,1,1,0,0,1-.82.37,1,1,0,0,1-.73-.28A1.13,1.13,0,0,1,6.93,49v-2h.78Z"/><path class="cls-2" d="M10.86,50a.92.92,0,0,1-.66-.24.85.85,0,0,1-.24-.63,1,1,0,0,1,.22-.66,1.08,1.08,0,0,1,.65-.31l.51-.07a1,1,0,0,0,.33-.1.18.18,0,0,0,.09-.1.23.23,0,0,0,0-.14.24.24,0,0,0-.13-.2.63.63,0,0,0-.37-.09.52.52,0,0,0-.35.11.47.47,0,0,0-.13.32h-.74a1,1,0,0,1,.35-.8,1.51,1.51,0,0,1,.95-.26,1.41,1.41,0,0,1,.87.24.76.76,0,0,1,.31.64v1.69a.9.9,0,0,0,0,.28.24.24,0,0,0,.13.13h0V50h-.83a2.29,2.29,0,0,1-.07-.36h0a1.18,1.18,0,0,1-.94.44Zm.93-1.19v-.35h0a1,1,0,0,1-.36.13l-.28.05a.6.6,0,0,0-.31.15.35.35,0,0,0-.11.26.37.37,0,0,0,.1.28.33.33,0,0,0,.26.1.73.73,0,0,0,.59-.26.48.48,0,0,0,.08-.16A.69.69,0,0,0,11.79,48.84Z"/><polygon class="cls-2" points="13.1 49.95 13.1 45.88 13.1 45.88 13.49 45.88 13.87 45.88 13.87 45.88 13.87 49.95 13.87 49.95 13.49 49.95 13.1 49.95"/><path class="cls-2" d="M14.5,50v-3h.77v3H14.5Zm0-4.1h.78v.74h-.78Z"/><path class="cls-2" d="M17.2,50l-.47,0a.87.87,0,0,1-.59-.16.6.6,0,0,1-.18-.49V47.5h-.4v-.56H16v-.81h.78v.81h.46v.56h-.46v1.71a.16.16,0,0,0,.06.14.65.65,0,0,0,.25,0h.15Z"/><path class="cls-2" d="M20.17,46.94,19.12,50a3.09,3.09,0,0,1-.44,1,.84.84,0,0,1-.64.19h-.37v-.63h.15c.21,0,.34,0,.4-.13a1.14,1.14,0,0,0,.12-.34h0l-1.09-3.12h.85l.64,2.23h0l.62-2.23h.81Z"/><path class="cls-2" d="M21.76,50l1.4-4.07h1L25.52,50h-.88l-.26-.83H22.87l-.26.83h-.85Zm1.87-3.16-.53,1.63h1l-.52-1.63Z"/><path class="cls-2" d="M28.38,48.84h0a1.35,1.35,0,0,1-.41.88,1.28,1.28,0,0,1-.9.31,1.3,1.3,0,0,1-1-.41,1.68,1.68,0,0,1-.36-1.16,1.73,1.73,0,0,1,.37-1.17,1.31,1.31,0,0,1,1-.43,1.36,1.36,0,0,1,.92.32,1.19,1.19,0,0,1,.39.85h-.79a.59.59,0,0,0-.15-.37.53.53,0,0,0-.37-.14.5.5,0,0,0-.45.24,1.35,1.35,0,0,0-.15.7,1.31,1.31,0,0,0,.15.69.51.51,0,0,0,.45.23.47.47,0,0,0,.35-.15.64.64,0,0,0,.17-.39h.79Z"/><path class="cls-2" d="M31.3,48.84h0a1.34,1.34,0,0,1-.4.88,1.5,1.5,0,0,1-1.94-.1,1.68,1.68,0,0,1-.36-1.16A1.73,1.73,0,0,1,29,47.29a1.3,1.3,0,0,1,1-.43,1.36,1.36,0,0,1,.93.32,1.15,1.15,0,0,1,.38.85h-.79a.5.5,0,0,0-.15-.37.53.53,0,0,0-.37-.14.49.49,0,0,0-.44.24,1.35,1.35,0,0,0-.15.7,1.31,1.31,0,0,0,.15.69.5.5,0,0,0,.44.23.49.49,0,0,0,.36-.15.63.63,0,0,0,.16-.39h.79Z"/><path class="cls-2" d="M31.69,50v-3h.74v.54h0a.56.56,0,0,1,.09-.17.8.8,0,0,1,.7-.45h.17v.82h-.23a.68.68,0,0,0-.52.18.72.72,0,0,0-.18.54h0V50h-.77Z"/><path class="cls-2" d="M34.86,50a1.28,1.28,0,0,1-1-.42,1.84,1.84,0,0,1-.36-1.21,1.6,1.6,0,0,1,.37-1.13,1.3,1.3,0,0,1,1-.41,1.28,1.28,0,0,1,1,.42,1.73,1.73,0,0,1,.36,1.18.55.55,0,0,1,0,.18h-2a1.05,1.05,0,0,0,.15.54.62.62,0,0,0,.54.22.55.55,0,0,0,.32-.1.4.4,0,0,0,.18-.25h.79a1.13,1.13,0,0,1-.47.72,1.52,1.52,0,0,1-.9.26Zm.59-1.89h0a1,1,0,0,0-.14-.43.54.54,0,0,0-.46-.2.52.52,0,0,0-.46.24,1.18,1.18,0,0,0-.14.39h1.2Z"/><path class="cls-2" d="M37.7,50a1.08,1.08,0,0,1-.9-.45,1.88,1.88,0,0,1-.35-1.18,1.74,1.74,0,0,1,.35-1.12,1.1,1.1,0,0,1,.9-.42.93.93,0,0,1,.8.43l0,.05h0V45.88h.77V50h-.74v-.38h0l0,0a1,1,0,0,1-.84.44Zm.21-2.48a.58.58,0,0,0-.49.24,1.22,1.22,0,0,0-.17.68,1.16,1.16,0,0,0,.17.67.58.58,0,0,0,.49.24.55.55,0,0,0,.48-.25,1.21,1.21,0,0,0,.18-.7,1,1,0,0,0-.18-.65A.54.54,0,0,0,37.91,47.55Z"/><path class="cls-2" d="M39.88,50v-3h.77v3h-.77Zm0-4.1h.79v.74h-.79Z"/><path class="cls-2" d="M42.59,50l-.48,0a.87.87,0,0,1-.59-.16.63.63,0,0,1-.17-.49V47.5h-.41v-.56h.41v-.81h.77v.81h.47v.56h-.47v1.71a.16.16,0,0,0,.06.14.65.65,0,0,0,.25,0h.16Z"/><path class="cls-2" d="M43.64,50a.92.92,0,0,1-.66-.24.85.85,0,0,1-.24-.63A1,1,0,0,1,43,48.5a1.08,1.08,0,0,1,.65-.31l.51-.07a1,1,0,0,0,.33-.1.18.18,0,0,0,.09-.1.23.23,0,0,0,0-.14.24.24,0,0,0-.13-.2.63.63,0,0,0-.37-.09.52.52,0,0,0-.35.11.47.47,0,0,0-.13.32h-.74a1,1,0,0,1,.35-.8,1.51,1.51,0,0,1,1-.26,1.43,1.43,0,0,1,.87.24.76.76,0,0,1,.31.64v1.69a.9.9,0,0,0,0,.28.24.24,0,0,0,.13.13h0V50h-.83a1.53,1.53,0,0,1-.07-.36h0a1.18,1.18,0,0,1-.94.44Zm.93-1.19v-.35h0a1,1,0,0,1-.36.13l-.28.05a.6.6,0,0,0-.31.15.35.35,0,0,0-.11.26.37.37,0,0,0,.1.28.33.33,0,0,0,.26.1.73.73,0,0,0,.59-.26.48.48,0,0,0,.08-.16A.69.69,0,0,0,44.57,48.84Z"/><path class="cls-2" d="M47.2,50l-.47,0a.87.87,0,0,1-.59-.16.6.6,0,0,1-.18-.49V47.5h-.4v-.56H46v-.81h.78v.81h.46v.56h-.46v1.71a.16.16,0,0,0,.06.14.65.65,0,0,0,.25,0h.15Z"/><path class="cls-2" d="M47.58,50v-3h.77v3h-.77Zm0-4.1h.79v.74h-.79Z"/><path class="cls-2" d="M50.27,50a1.44,1.44,0,0,1-1.09-.42,1.62,1.62,0,0,1-.41-1.15,1.65,1.65,0,0,1,.41-1.17,1.6,1.6,0,0,1,2.18,0,1.65,1.65,0,0,1,.41,1.17,1.62,1.62,0,0,1-.41,1.15,1.44,1.44,0,0,1-1.09.42Zm0-.66a.61.61,0,0,0,.52-.24,1.08,1.08,0,0,0,.18-.68,1.13,1.13,0,0,0-.18-.69.61.61,0,0,0-.52-.24.59.59,0,0,0-.52.24,1.13,1.13,0,0,0-.18.69,1.08,1.08,0,0,0,.18.68A.59.59,0,0,0,50.27,49.37Z"/><path class="cls-2" d="M52.17,50v-3h.73v.45h0c0-.06.07-.11.1-.16a1,1,0,0,1,.83-.37,1,1,0,0,1,.73.28,1.14,1.14,0,0,1,.26.79v2h-.77V48.07a.61.61,0,0,0-.12-.41.46.46,0,0,0-.36-.14.62.62,0,0,0-.47.19.81.81,0,0,0-.16.54h0V50h-.77Z"/><path class="cls-2" d="M57,50V45.88H58.9a1.36,1.36,0,0,1,.9.27.93.93,0,0,1,.32.76.9.9,0,0,1-.36.77.57.57,0,0,1-.13.08h0a1.36,1.36,0,0,1,.24.13.89.89,0,0,1,.38.79,1.2,1.2,0,0,1-.37,1,1.68,1.68,0,0,1-1.1.32H57Zm.79-3.37v.89h.94a.86.86,0,0,0,.47-.11.43.43,0,0,0,.15-.36.33.33,0,0,0-.16-.31.91.91,0,0,0-.49-.11Zm0,1.58v1.08h1a.75.75,0,0,0,.49-.14.58.58,0,0,0,.16-.43.45.45,0,0,0-.17-.38.75.75,0,0,0-.49-.13Z"/><path class="cls-2" d="M61.54,46.94v1.88a.57.57,0,0,0,.12.41.42.42,0,0,0,.35.14.58.58,0,0,0,.47-.19.87.87,0,0,0,.16-.54h0v-1.7h.77v3h-.73V49.5h0a.86.86,0,0,1-.1.16,1,1,0,0,1-.83.37.91.91,0,0,1-.72-.28,1.13,1.13,0,0,1-.26-.78v-2h.77Z"/><path class="cls-2" d="M64,50v-3h.74v.54h0l.09-.17a.81.81,0,0,1,.7-.45h.18v.82h-.23a.71.71,0,0,0-.53.18.72.72,0,0,0-.17.54h0V50H64Z"/><path class="cls-2" d="M67.15,50a1.31,1.31,0,0,1-1-.42,1.84,1.84,0,0,1-.36-1.21,1.65,1.65,0,0,1,.37-1.13,1.33,1.33,0,0,1,1-.41,1.28,1.28,0,0,1,1,.42,1.69,1.69,0,0,1,.37,1.18.55.55,0,0,1,0,.18h-2a1.16,1.16,0,0,0,.15.54.62.62,0,0,0,.54.22.53.53,0,0,0,.32-.1.4.4,0,0,0,.18-.25h.79a1.15,1.15,0,0,1-.46.72,1.55,1.55,0,0,1-.91.26Zm.59-1.89h0a.88.88,0,0,0-.14-.43.54.54,0,0,0-.46-.2.5.5,0,0,0-.45.24,1,1,0,0,0-.14.39h1.19Z"/><path class="cls-2" d="M69.62,50a.88.88,0,0,1-.65-.24.82.82,0,0,1-.25-.63,1,1,0,0,1,.22-.66,1.08,1.08,0,0,1,.65-.31l.51-.07a.86.86,0,0,0,.33-.1.18.18,0,0,0,.09-.1.23.23,0,0,0,0-.14.25.25,0,0,0-.12-.2.69.69,0,0,0-.38-.09.54.54,0,0,0-.35.11.47.47,0,0,0-.13.32h-.74a1.07,1.07,0,0,1,.35-.8,1.55,1.55,0,0,1,1-.26,1.39,1.39,0,0,1,.86.24.76.76,0,0,1,.32.64v1.69a.9.9,0,0,0,0,.28.21.21,0,0,0,.13.13h0V50h-.84a2.25,2.25,0,0,1-.06-.36h0a1.16,1.16,0,0,1-.94.44Zm.93-1.19v-.35h0a1,1,0,0,1-.36.13l-.28.05a.6.6,0,0,0-.31.15.34.34,0,0,0-.1.26.41.41,0,0,0,.09.28.33.33,0,0,0,.27.1.76.76,0,0,0,.59-.26.48.48,0,0,0,.07-.16A.69.69,0,0,0,70.55,48.84Z"/><path class="cls-2" d="M72.62,46.94v1.88a.57.57,0,0,0,.12.41.42.42,0,0,0,.35.14.58.58,0,0,0,.47-.19.87.87,0,0,0,.16-.54h0v-1.7h.77v3h-.74V49.5h0a.51.51,0,0,1-.09.16,1,1,0,0,1-.83.37.91.91,0,0,1-.72-.28,1.08,1.08,0,0,1-.26-.78v-2h.77Z"/><path class="cls-2" d="M77.49,47.49h0V50h-.77V47.49h-.43v-.56h.43v-.25a.87.87,0,0,1,.22-.64.94.94,0,0,1,.69-.22l.36,0v.64h-.25a.27.27,0,0,0-.2.06.49.49,0,0,0-.05.26v.13H78v.56Z"/><path class="cls-2" d="M79.62,50a1.44,1.44,0,0,1-1.09-.42,1.62,1.62,0,0,1-.41-1.15,1.65,1.65,0,0,1,.41-1.17,1.6,1.6,0,0,1,2.18,0,1.65,1.65,0,0,1,.41,1.17,1.62,1.62,0,0,1-.41,1.15,1.44,1.44,0,0,1-1.09.42Zm0-.66a.61.61,0,0,0,.52-.24,1.08,1.08,0,0,0,.18-.68,1.13,1.13,0,0,0-.18-.69.61.61,0,0,0-.52-.24.59.59,0,0,0-.52.24,1.13,1.13,0,0,0-.18.69,1.08,1.08,0,0,0,.18.68A.59.59,0,0,0,79.62,49.37Z"/><path class="cls-2" d="M81.51,50v-3h.74v.54h0a.56.56,0,0,1,.09-.17.8.8,0,0,1,.7-.45h.18v.82H83a.69.69,0,0,0-.53.18.72.72,0,0,0-.17.54h0V50h-.78Z"/><path class="cls-2" d="M88.33,50.25l-.47-.45h0a1.85,1.85,0,0,1-1,.27,1.8,1.8,0,0,1-1.39-.58,2.25,2.25,0,0,1-.51-1.55,2.34,2.34,0,0,1,.51-1.59,2,2,0,0,1,2.78,0,2.71,2.71,0,0,1,.09,3h0l.43.41-.42.46Zm-1.45-1.39.41-.45.44.4h0a1.85,1.85,0,0,0,.19-.88,1.76,1.76,0,0,0-.29-1.06,1,1,0,0,0-1.58,0,1.75,1.75,0,0,0-.28,1.06,1.67,1.67,0,0,0,.28,1,.93.93,0,0,0,.79.37.91.91,0,0,0,.44-.09h0Z"/><path class="cls-2" d="M90,46.94v1.88a.63.63,0,0,0,.11.41.46.46,0,0,0,.36.14.56.56,0,0,0,.46-.19.81.81,0,0,0,.16-.54h0v-1.7h.78v3h-.74V49.5h0a.83.83,0,0,1-.09.16,1,1,0,0,1-.83.37.91.91,0,0,1-.72-.28,1.08,1.08,0,0,1-.26-.78v-2H90Z"/><path class="cls-2" d="M93.13,50a.92.92,0,0,1-.66-.24.85.85,0,0,1-.24-.63,1,1,0,0,1,.22-.66,1.08,1.08,0,0,1,.65-.31l.51-.07a1,1,0,0,0,.33-.1.18.18,0,0,0,.09-.1.23.23,0,0,0,0-.14.25.25,0,0,0-.12-.2.69.69,0,0,0-.38-.09.52.52,0,0,0-.35.11.47.47,0,0,0-.13.32h-.74a1,1,0,0,1,.35-.8,1.53,1.53,0,0,1,.95-.26,1.41,1.41,0,0,1,.87.24.76.76,0,0,1,.31.64v1.69a.9.9,0,0,0,0,.28.27.27,0,0,0,.13.13h0V50h-.83a2.29,2.29,0,0,1-.07-.36h0a1.18,1.18,0,0,1-.94.44Zm.93-1.19v-.35h0a1,1,0,0,1-.36.13l-.28.05a.6.6,0,0,0-.31.15.35.35,0,0,0-.11.26.41.41,0,0,0,.1.28.33.33,0,0,0,.26.1.76.76,0,0,0,.6-.26A.84.84,0,0,0,94,49,.69.69,0,0,0,94.06,48.84Z"/><polygon class="cls-2" points="95.37 49.95 95.37 45.88 95.37 45.88 95.76 45.88 96.14 45.88 96.14 45.88 96.14 49.95 96.14 49.95 95.76 49.95 95.37 49.95"/><path class="cls-2" d="M96.77,50v-3h.77v3h-.77Zm0-4.1h.78v.74h-.78Z"/><path class="cls-2" d="M99,47.49h0V50h-.77V47.49h-.43v-.56h.43v-.25a.83.83,0,0,1,.23-.64.91.91,0,0,1,.68-.22l.36,0v.64h-.24a.28.28,0,0,0-.21.06.49.49,0,0,0,0,.26v.13h.5v.56Z"/><path class="cls-2" d="M99.85,50v-3h.77v3h-.77Zm0-4.1h.79v.74h-.79Z"/><path class="cls-2" d="M102.37,50a1.31,1.31,0,0,1-1-.42A1.84,1.84,0,0,1,101,48.4a1.65,1.65,0,0,1,.37-1.13,1.33,1.33,0,0,1,1-.41,1.28,1.28,0,0,1,1,.42,1.69,1.69,0,0,1,.37,1.18.55.55,0,0,1,0,.18h-2a1.16,1.16,0,0,0,.15.54.62.62,0,0,0,.54.22.53.53,0,0,0,.32-.1.4.4,0,0,0,.18-.25h.79a1.15,1.15,0,0,1-.46.72,1.55,1.55,0,0,1-.91.26Zm.59-1.89h0a.88.88,0,0,0-.14-.43.54.54,0,0,0-.46-.2.5.5,0,0,0-.45.24,1,1,0,0,0-.14.39H103Z"/><path class="cls-2" d="M105.22,50a1.09,1.09,0,0,1-.91-.45A1.88,1.88,0,0,1,104,48.4a1.74,1.74,0,0,1,.34-1.12,1.11,1.11,0,0,1,.9-.42.93.93,0,0,1,.8.43l0,.05h0V45.88h.77V50h-.75v-.38h0v0a1,1,0,0,1-.84.44Zm.2-2.48a.56.56,0,0,0-.48.24,1.14,1.14,0,0,0-.18.68,1.16,1.16,0,0,0,.17.67.58.58,0,0,0,.49.24.58.58,0,0,0,.49-.25,1.29,1.29,0,0,0,.17-.7,1.09,1.09,0,0,0-.17-.65A.57.57,0,0,0,105.42,47.55Z"/><path class="cls-2" d="M112.31,48.53h0a1.75,1.75,0,0,1-3,1,2.29,2.29,0,0,1-.49-1.55,2.38,2.38,0,0,1,.49-1.59,1.64,1.64,0,0,1,1.33-.58,1.73,1.73,0,0,1,1.16.39,1.59,1.59,0,0,1,.55,1.06h-.83a.77.77,0,0,0-.28-.52.88.88,0,0,0-.59-.2.85.85,0,0,0-.73.38,1.87,1.87,0,0,0-.26,1,1.8,1.8,0,0,0,.26,1,.87.87,0,0,0,.73.37.8.8,0,0,0,.59-.22.89.89,0,0,0,.28-.58h.83Z"/><path class="cls-2" d="M114.06,50a1.44,1.44,0,0,1-1.09-.42,1.62,1.62,0,0,1-.41-1.15,1.65,1.65,0,0,1,.41-1.17,1.6,1.6,0,0,1,2.18,0,1.65,1.65,0,0,1,.41,1.17,1.62,1.62,0,0,1-.41,1.15,1.44,1.44,0,0,1-1.09.42Zm0-.66a.61.61,0,0,0,.52-.24,1.08,1.08,0,0,0,.18-.68,1.13,1.13,0,0,0-.18-.69.68.68,0,0,0-1,0,1.13,1.13,0,0,0-.18.69,1.08,1.08,0,0,0,.18.68A.61.61,0,0,0,114.06,49.37Z"/><path class="cls-2" d="M116,50v-3h.74v.49h0a.73.73,0,0,1,.13-.23.86.86,0,0,1,.74-.34.8.8,0,0,1,.63.27.73.73,0,0,1,.16.23h0l.09-.16a.79.79,0,0,1,.7-.34,1,1,0,0,1,.75.29,1.18,1.18,0,0,1,.26.81v2h-.77V48.19a.82.82,0,0,0-.11-.5.37.37,0,0,0-.33-.17.46.46,0,0,0-.37.16.64.64,0,0,0-.13.44h0V50h-.77V48.06a.65.65,0,0,0-.11-.41.47.47,0,0,0-.35-.13.44.44,0,0,0-.36.16.7.7,0,0,0-.12.44h0V50H116Z"/><path class="cls-2" d="M120.7,46.94h.74v.45h0l0-.08a1,1,0,0,1,.82-.45,1.1,1.1,0,0,1,.9.42,1.8,1.8,0,0,1,.34,1.12,1.94,1.94,0,0,1-.34,1.18,1.07,1.07,0,0,1-.9.45,1,1,0,0,1-.82-.42l0,0h0v1.54h-.77V46.94Zm1.39,2.44a.58.58,0,0,0,.49-.24,1.16,1.16,0,0,0,.17-.67,1.14,1.14,0,0,0-.17-.68.57.57,0,0,0-.48-.24.56.56,0,0,0-.49.25,1.19,1.19,0,0,0-.17.7h0a1,1,0,0,0,.17.65A.59.59,0,0,0,122.09,49.38Z"/><path class="cls-2" d="M124.65,50a.92.92,0,0,1-.66-.24.85.85,0,0,1-.24-.63,1,1,0,0,1,.22-.66,1.08,1.08,0,0,1,.65-.31l.51-.07a1,1,0,0,0,.33-.1.18.18,0,0,0,.09-.1.23.23,0,0,0,0-.14.24.24,0,0,0-.13-.2.63.63,0,0,0-.37-.09.52.52,0,0,0-.35.11.47.47,0,0,0-.13.32h-.74a1,1,0,0,1,.35-.8,1.53,1.53,0,0,1,1-.26,1.41,1.41,0,0,1,.87.24.76.76,0,0,1,.31.64v1.69a.9.9,0,0,0,0,.28.27.27,0,0,0,.13.13h0V50h-.83a2.29,2.29,0,0,1-.07-.36h0a1.18,1.18,0,0,1-.94.44Zm.93-1.19v-.35h0a1,1,0,0,1-.36.13l-.28.05a.6.6,0,0,0-.31.15.35.35,0,0,0-.11.26.41.41,0,0,0,.1.28.33.33,0,0,0,.26.1.73.73,0,0,0,.59-.26.48.48,0,0,0,.08-.16A.69.69,0,0,0,125.58,48.84Z"/><path class="cls-2" d="M126.87,50v-3h.73v.45h0c0-.06.07-.11.1-.16a1,1,0,0,1,.83-.37,1,1,0,0,1,.73.28,1.14,1.14,0,0,1,.26.79v2h-.77V48.07a.61.61,0,0,0-.12-.41.46.46,0,0,0-.36-.14.58.58,0,0,0-.46.19.81.81,0,0,0-.17.54h0V50h-.77Z"/><path class="cls-2" d="M130.12,50v-3h.77v3h-.77Zm0-4.1h.79v.74h-.79Z"/><path class="cls-2" d="M132.64,50a1.27,1.27,0,0,1-1-.42,1.79,1.79,0,0,1-.37-1.21,1.65,1.65,0,0,1,.37-1.13,1.49,1.49,0,0,1,2.06,0,1.73,1.73,0,0,1,.36,1.18.55.55,0,0,1,0,.18h-2a1.16,1.16,0,0,0,.15.54.62.62,0,0,0,.54.22.53.53,0,0,0,.32-.1.4.4,0,0,0,.18-.25H134a1.15,1.15,0,0,1-.46.72,1.53,1.53,0,0,1-.91.26Zm.59-1.89h0a.79.79,0,0,0-.14-.43.54.54,0,0,0-.46-.2.5.5,0,0,0-.45.24,1,1,0,0,0-.14.39h1.19Z"/><path class="cls-2" d="M136.06,47.84h0a.32.32,0,0,0-.14-.28.58.58,0,0,0-.37-.1.61.61,0,0,0-.35.08.24.24,0,0,0-.12.22c0,.06,0,.12.14.17a2,2,0,0,0,.5.15,2.59,2.59,0,0,1,.95.36.74.74,0,0,1,.24.61.84.84,0,0,1-.35.71,1.46,1.46,0,0,1-.92.27,1.74,1.74,0,0,1-1-.27,1,1,0,0,1-.39-.77H135a.43.43,0,0,0,.18.33.78.78,0,0,0,.46.12.65.65,0,0,0,.37-.09.26.26,0,0,0,.13-.23c0-.06,0-.12-.13-.17a1.74,1.74,0,0,0-.44-.14,2.94,2.94,0,0,1-1-.37.67.67,0,0,1-.25-.58.88.88,0,0,1,.33-.72,1.23,1.23,0,0,1,.85-.28,1.56,1.56,0,0,1,1,.27.83.83,0,0,1,.37.71h-.77Z"/><path class="cls-3" d="M66.92,19.83a26,26,0,0,1,1.44-9.06,15.87,15.87,0,0,1,4.41-6.52A16.79,16.79,0,0,1,78.2,1.06h0A19,19,0,0,1,84.65,0a18.68,18.68,0,0,1,7.06,1.29A16.42,16.42,0,0,1,97.4,5.18a16.74,16.74,0,0,1,3.72,6.16,24.49,24.49,0,0,1,1.22,8q0,7.2-2.17,11.4a16.15,16.15,0,0,1-2.71,3.78,16.33,16.33,0,0,1-3.71,2.83h0a18,18,0,0,1-4.36,1.75,19,19,0,0,1-4.74.58,19.19,19.19,0,0,1-7.14-1.28,16.07,16.07,0,0,1-5.7-3.88,16.62,16.62,0,0,1-3.69-6.3,26.75,26.75,0,0,1-1.2-8.37Zm8.19,0a21,21,0,0,0,.7,5.78,10.17,10.17,0,0,0,2,3.93,9,9,0,0,0,3.05,2.33,9,9,0,0,0,3.75.77,8.8,8.8,0,0,0,3.71-.77,9.11,9.11,0,0,0,3-2.34,10.16,10.16,0,0,0,2-4,21.43,21.43,0,0,0,.71-5.9,19.43,19.43,0,0,0-.71-5.59,10.33,10.33,0,0,0-2-3.88,9.08,9.08,0,0,0-3-2.33,8.74,8.74,0,0,0-3.69-.77,8.66,8.66,0,0,0-6.8,3.08,10.2,10.2,0,0,0-2,3.92A20.87,20.87,0,0,0,75.11,19.84Z"/><path class="cls-3" d="M1.65,19.83a26,26,0,0,1,1.44-9.06A15.79,15.79,0,0,1,7.51,4.25a16.85,16.85,0,0,1,5.42-3.19h0A19.07,19.07,0,0,1,19.39,0a18.67,18.67,0,0,1,7.05,1.29,16.42,16.42,0,0,1,5.69,3.89,16.74,16.74,0,0,1,3.72,6.16,24.22,24.22,0,0,1,1.23,8q0,7.2-2.18,11.4c-.09.18-.19.35-.29.53l-6.82-4.54a19.69,19.69,0,0,0,1.1-7.06,19.78,19.78,0,0,0-.71-5.59,10.35,10.35,0,0,0-2.06-3.88,9.14,9.14,0,0,0-3-2.33,8.77,8.77,0,0,0-3.69-.77,8.66,8.66,0,0,0-6.81,3.08,10.06,10.06,0,0,0-2,3.92,20.85,20.85,0,0,0-.71,5.76q0,6.56,2.74,9.71a8.63,8.63,0,0,0,6.81,3.1,8.83,8.83,0,0,0,3.71-.77c.36-.17.39,0,.73-.26L30.43,36a11.43,11.43,0,0,1-1.95,1.35h0a17.94,17.94,0,0,1-4.35,1.75,19,19,0,0,1-4.74.58,19.2,19.2,0,0,1-7.15-1.28A16,16,0,0,1,6.55,34.5a16.37,16.37,0,0,1-3.69-6.3A26.45,26.45,0,0,1,1.65,19.83Z"/><polygon class="cls-4" points="54.31 1.29 47.38 1.29 35.68 37.76 42.61 37.76 54.31 1.29"/><polygon class="cls-5" points="56.22 23.93 49.88 23.93 47.4 30.36 58.26 30.36 60.61 37.76 68.44 37.76 56.74 1.29 52.8 13.12 56.22 23.93"/><polygon class="cls-6" points="87.45 24.44 79.5 24.51 99.93 37.76 107.89 37.69 87.45 24.44"/><path class="cls-3" d="M137.6,25.43l0,.19a18.73,18.73,0,0,1-1.81,5.72,14.47,14.47,0,0,1-3.41,4.38,14.24,14.24,0,0,1-4.7,2.76,16.75,16.75,0,0,1-5.63.92,18,18,0,0,1-6.87-1.27,15.07,15.07,0,0,1-5.41-3.81h0a16.27,16.27,0,0,1-3.49-6.16A26.6,26.6,0,0,1,105.09,20a30.25,30.25,0,0,1,.5-5.61,22.56,22.56,0,0,1,1.48-4.9,14.85,14.85,0,0,1,2.54-4,13.68,13.68,0,0,1,3.6-2.88h0A17.36,17.36,0,0,1,117.46.84a19.51,19.51,0,0,1,10.11.2A13.48,13.48,0,0,1,132,3.4a13,13,0,0,1,3.21,3.81A16.35,16.35,0,0,1,137,12.28l.2,1.12h-7.5a11.68,11.68,0,0,0-1.07-2.91A7.21,7.21,0,0,0,127,8.4a6.79,6.79,0,0,0-2.12-1.24,7.76,7.76,0,0,0-2.56-.41,9.35,9.35,0,0,0-3.85.76,8.6,8.6,0,0,0-3,2.28h0a10,10,0,0,0-2,4,22.84,22.84,0,0,0-.69,6,24.5,24.5,0,0,0,.66,6.09,10,10,0,0,0,1.92,4h0a8.33,8.33,0,0,0,2.93,2.27,8.79,8.79,0,0,0,3.69.76,8.6,8.6,0,0,0,3-.51,7.15,7.15,0,0,0,2.43-1.5h0a7.91,7.91,0,0,0,1.78-2.55,12.8,12.8,0,0,0,.87-2.93h7.54Z"/><polygon class="cls-7" points="26.02 26.53 17.98 26.53 34.79 37.76 42.61 37.76 26.02 26.53"/></g></g></svg>