<svg xmlns="http://www.w3.org/2000/svg" viewBox="0 0 37.7 35.96"><defs><style>.cls-1{fill:#ff903b;}</style></defs><title>rating-star-half</title><g id="Layer_2" data-name="Layer 2"><g id="Layer_1-2" data-name="Layer 1"><path class="cls-1" d="M37.11,15l-8.22,8,1.95,11.33a1.78,1.78,0,0,1-.14,1.17.84.84,0,0,1-.77.42,2,2,0,0,1-.91-.27L18.85,30.34,8.68,35.69a2,2,0,0,1-.91.27A.83.83,0,0,1,7,35.54a1.78,1.78,0,0,1-.14-1.17L8.81,23,.56,15A1.35,1.35,0,0,1,0,13.67q.21-.62,1.23-.78l11.37-1.65L17.74.93Q18.19,0,18.85,0T20,.93l5.1,10.31,11.37,1.65q1,.16,1.23.78C37.79,14.09,37.61,14.54,37.11,15ZM26.87,21l5.82-5.67-8.06-1.17-1.5-.23-.68-1.36-3.6-7.3V27.05l1.34.71,7.2,3.8-1.36-8L25.76,22Z"/></g></g></svg>