<svg xmlns="http://www.w3.org/2000/svg" viewBox="0 0 37.7 35.96"><defs><style>.cls-1{fill:#ff903b;}</style></defs><title>rating-star-full</title><g id="Layer_2" data-name="Layer 2"><g id="Layer_1-2" data-name="Layer 1"><path class="cls-1" d="M37.7,13.93A1.59,1.59,0,0,1,37.11,15l-8.22,8,1.95,11.33c0,.11,0,.26,0,.45a1.34,1.34,0,0,1-.24.81.8.8,0,0,1-.69.33,1.85,1.85,0,0,1-.91-.27L18.85,30.34,8.68,35.69a2,2,0,0,1-.91.27.81.81,0,0,1-.71-.33,1.34,1.34,0,0,1-.24-.81,2.48,2.48,0,0,1,0-.45L8.81,23,.57,15A1.73,1.73,0,0,1,0,13.93c0-.55.42-.9,1.27-1l11.37-1.65L17.74.93Q18.18,0,18.85,0T20,.93l5.1,10.31,11.37,1.65C37.28,13,37.7,13.38,37.7,13.93Z"/></g></g></svg>