<svg xmlns="http://www.w3.org/2000/svg" width="40" height="50" viewBox="0 0 40 53.373">
  <g id="notepad" transform="translate(4)">
    <path id="Path_460" data-name="Path 460" d="M30.138,3.624H21.561a6.078,6.078,0,0,0-11.121,0H1.862A5.868,5.868,0,0,0-4,9.486V47.511a5.868,5.868,0,0,0,5.861,5.862H30.138A5.869,5.869,0,0,0,36,47.511V9.486a5.869,5.869,0,0,0-5.862-5.862ZM11.4,6.293a1.334,1.334,0,0,0,1.3-1.048,3.392,3.392,0,0,1,6.584,0,1.334,1.334,0,0,0,1.3,1.048h2.646V7.463a3.2,3.2,0,0,1-3.193,3.193h-8.1A3.2,3.2,0,0,1,8.758,7.463V6.293ZM33.331,47.511A3.2,3.2,0,0,1,30.138,50.7H1.862a3.2,3.2,0,0,1-3.193-3.193V9.486A3.2,3.2,0,0,1,1.862,6.293H6.09V7.463a5.868,5.868,0,0,0,5.862,5.861h8.1A5.868,5.868,0,0,0,25.91,7.463V6.293h4.228a3.2,3.2,0,0,1,3.193,3.193Zm0,0" fill="#ff5f3b"/>
    <path id="Path_461" data-name="Path 461" d="M115.734,227.819l-8.76,8.553-4.448-4.342a1.334,1.334,0,0,0-1.882,1.891l.018.018,5.38,5.253a1.335,1.335,0,0,0,1.865,0l9.692-9.463a1.334,1.334,0,0,0-1.864-1.909Zm0,0" transform="translate(-93.13 -203.165)" fill="#ff5f3b"/>
  </g>
</svg>
