<svg xmlns="http://www.w3.org/2000/svg" viewBox="0 0 515.12 185.27" width="147" height="53"><defs><style>.cls-1{fill:#ed1c24;}.cls-2{fill:#fff;}</style></defs><title>Asset 1</title><g id="Layer_2" data-name="Layer 2"><g id="Layer_1-2" data-name="Layer 1"><g id="_Group_" data-name="&lt;Group&gt;"><path id="_Path_" data-name="&lt;Path&gt;" class="cls-1" d="M0,185.27c201-56,342.84-73.5,515.12-89A798.84,798.84,0,0,0,383.4,0C266,43.89,124.56,116.79,0,185.27"/><path id="_Compound_Path_" data-name="&lt;Compound Path&gt;" class="cls-2" d="M302.54,66.37a15.42,15.42,0,0,0-5.4-12.26c-5-4.39-10.54-4.49-15.34-4.59H265.59c-4.65,2.12-9.3,4.28-13.93,6.44v50.38h12.91v-24h12.3c1.07,1.46,10,18.79,12.68,24h15.38c-2.46-4.34-10.32-18-14.53-24.8,7.64-2,12.14-7.41,12.14-15.17m-14.06,3.8c-2.48,3.11-6.68,3.11-10.14,3.11H264.57V58.69h16.14c3.69.05,6.2.29,7.88,2.84a7.7,7.7,0,0,1,1.28,4.39,6.64,6.64,0,0,1-1.39,4.25m78.71-20.65h-57.3v9.82H332v47H345v-47h22.16Zm34.51,0H385.93l-28.45,56.82h13.88l6.43-13.89h30.55l6.28,13.65,13.92-1.48ZM382.52,82.58,393.72,60l10.11,22.62Z"/></g></g></g></svg>