<svg xmlns="http://www.w3.org/2000/svg" width="55" height="55" viewBox="0 0 55 55">
  <g id="decision-making" transform="translate(-11 -11)">
    <g id="Group_402" data-name="Group 402" transform="translate(11 11)">
      <path id="Path_421" data-name="Path 421" d="M136.052,317h-8.89a10.843,10.843,0,0,0-10.888,10.618c-.348,1.773-.819,4.838.348,6.016,3.053,2.952,9.72,4.018,14.985,4.018s11.932-1.066,14.973-4.018c1.167-1.179.707-4.254.348-6.016A10.819,10.819,0,0,0,136.052,317Zm9.013,14.872c-2.11,2.121-7.251,3.423-13.346,3.423s-11.348-1.3-13.346-3.3c-.236-.359-.112-2.357.236-4.018v-.236a8.522,8.522,0,0,1,8.542-8.5v-.123h9.013a8.522,8.522,0,0,1,8.542,8.5v.236C145.065,329.5,145.3,331.513,145.065,331.872Z" transform="translate(-104.107 -282.653)" fill="#ff5f3b"/>
      <path id="Path_422" data-name="Path 422" d="M186.578,166.265a8.733,8.733,0,1,0-8.778-8.733A8.7,8.7,0,0,0,186.578,166.265Zm0-15.232a6.488,6.488,0,1,1-6.555,6.488A6.549,6.549,0,0,1,186.578,151.034Z" transform="translate(-159.078 -133.333)" fill="#ff5f3b"/>
      <path id="Path_423" data-name="Path 423" d="M214.085,15.333v8.89h2.222V15.209l2.57,2.514L220.4,16.2,215.252,11,210.1,16.2l1.527,1.527Z" transform="translate(-187.752 -11)" fill="#ff5f3b"/>
      <path id="Path_424" data-name="Path 424" d="M24.346,166.552v-2.234h-9.1l2.548-2.481L16.152,160.3,11,165.373l5.152,5.2,1.639-1.65-2.424-2.368Z" transform="translate(-11 -143.542)" fill="#ff5f3b"/>
      <path id="Path_425" data-name="Path 425" d="M390.294,160.3l-1.639,1.538,2.548,2.481h-9.1v2.234h8.98l-2.424,2.368,1.639,1.65,5.152-5.2Z" transform="translate(-340.446 -143.542)" fill="#ff5f3b"/>
    </g>
  </g>
</svg>
