<svg xmlns="http://www.w3.org/2000/svg" width="26" height="30" viewBox="0 0 26 30">
  <g id="experience" transform="translate(-35.837)">
    <path id="Path_539" data-name="Path 539" d="M193.793,107.52H197.1a1.8,1.8,0,1,0-3.305,0Z" transform="translate(-148.74 -98.848)" fill="#0fb9a8"/>
    <path id="Path_540" data-name="Path 540" d="M96.886,4.395a3.56,3.56,0,0,1,3.581,4.277h4.671V6.738a.6.6,0,0,0-.611-.586h-1.234a6.205,6.205,0,0,0-.58-1.341l.873-.837a.569.569,0,0,0,0-.829l-1.729-1.657a.63.63,0,0,0-.864,0l-.873.837a6.783,6.783,0,0,0-1.4-.557V.586A.6.6,0,0,0,98.109,0H95.664a.6.6,0,0,0-.611.586V1.769a6.779,6.779,0,0,0-1.4.557l-.873-.837a.63.63,0,0,0-.864,0L90.187,3.145a.569.569,0,0,0,0,.829l.873.837a6.2,6.2,0,0,0-.58,1.341H89.246a.6.6,0,0,0-.611.586V8.672h4.673A3.558,3.558,0,0,1,96.886,4.395Z" transform="translate(-49.949 0)" fill="#0fb9a8"/>
    <path id="Path_541" data-name="Path 541" d="M61.685,186.183l-3.523-5.158A10.232,10.232,0,0,0,57.523,178H36.092c-.968,5.995.743,11.57,6.526,13.579v5.112a.888.888,0,0,0,.9.879H53.75a.889.889,0,0,0,.9-.879V192.18h2.633a.889.889,0,0,0,.9-.879v-3.75h2.759A.879.879,0,0,0,61.685,186.183Z" transform="translate(0 -167.57)" fill="#0fb9a8"/>
  </g>
</svg>
