<svg xmlns="http://www.w3.org/2000/svg" width="58.398" height="65" viewBox="0 0 58.398 65">
  <g id="support" transform="translate(-26)">
    <g id="Group_347" data-name="Group 347" transform="translate(67.895 50.273)">
      <g id="Group_346" data-name="Group 346">
        <path id="Path_271" data-name="Path 271" d="M357.27,396a1.27,1.27,0,1,0,1.27,1.27A1.27,1.27,0,0,0,357.27,396Z" transform="translate(-356 -396)" fill="#ff903b"/>
      </g>
    </g>
    <g id="Group_349" data-name="Group 349" transform="translate(26)">
      <g id="Group_348" data-name="Group 348">
        <path id="Path_272" data-name="Path 272" d="M72.29,46.168l-6.034-2.011L64.09,39.825a13.9,13.9,0,0,0,3.763-7.356l.27-1.619h2.31a3.813,3.813,0,0,0,3.809-3.809v-8a19.043,19.043,0,0,0-38.086,0v8a3.815,3.815,0,0,0,2.539,3.59v1.488A3.813,3.813,0,0,0,42.5,35.928h1.115a13.773,13.773,0,0,0,2.13,3.3c.18.207.367.407.559.6l-2.165,4.33-6.034,2.011C31.092,48.508,26,55.894,26,63.73A1.27,1.27,0,0,0,27.27,65H83.129a1.27,1.27,0,0,0,1.27-1.27C84.4,55.894,79.306,48.508,72.29,46.168ZM71.7,27.041a1.271,1.271,0,0,1-1.27,1.27H68.5c.323-2.5.538-5.16.624-7.78,0-.074,0-.146.007-.218H71.7Zm-31.738,1.27a1.271,1.271,0,0,1-1.27-1.27V20.313h2.577q.006.2.014.4s0,.009,0,.014h0c.089,2.548.3,5.139.616,7.584H39.965ZM42.5,33.389a1.271,1.271,0,0,1-1.27-1.27V30.85h1.041l.27,1.62c.052.308.115.615.188.919ZM41.237,17.773H38.744a16.5,16.5,0,0,1,32.911,0H69.162a12.858,12.858,0,0,0-12.826-12.7H54.063A12.858,12.858,0,0,0,41.237,17.773ZM54.063,7.617h2.272a10.323,10.323,0,0,1,10.29,10.335c0,.4,0,.747-.01,1.064,0,0,0,.008,0,.012L65.027,18.8a20.4,20.4,0,0,1-11.469-5.735,1.27,1.27,0,0,0-.9-.372,11.485,11.485,0,0,0-8.831,4.178A10.32,10.32,0,0,1,54.063,7.617Zm-8.7,25.771a72.565,72.565,0,0,1-1.523-12.321l1.709-2.278a8.936,8.936,0,0,1,6.608-3.54,22.963,22.963,0,0,0,12.51,6.067l1.869.267c-.125,2.651-.38,5.312-.746,7.759v0c-.116.787-.208,1.293-.442,2.707a10.783,10.783,0,0,1-7.654,8.673,9.989,9.989,0,0,1-11.213-4.8H49.07a3.815,3.815,0,0,0,3.59,2.539H55.2a3.809,3.809,0,0,0,0-7.617H52.66a3.81,3.81,0,0,0-3.592,2.539Zm7.188,9.9a12.734,12.734,0,0,0,4.722.106l-2.243,2.372Zm.733,4.324L49.26,51.876a48.371,48.371,0,0,1-2.842-6.591L47.93,42.26Zm8.967-5.787,1.727,3.454a48.357,48.357,0,0,1-2.843,6.593l-4.31-4.31ZM51.391,34.658a1.27,1.27,0,0,1,1.27-1.27H55.2a1.27,1.27,0,0,1,0,2.539H52.66A1.271,1.271,0,0,1,51.391,34.658Zm-22.8,27.8c.5-6.289,4.689-12.006,10.322-13.884L44.255,46.8a50.892,50.892,0,0,0,3.613,7.838l.007.013h0a50.9,50.9,0,0,0,3.475,5.307l1.562,2.507ZM55.2,61.329l-1.722-2.764q-.029-.046-.062-.09A48.4,48.4,0,0,1,50.555,54.2l4.528-4.788,4.771,4.771a48.352,48.352,0,0,1-2.871,4.291C56.921,58.558,57.009,58.427,55.2,61.329Zm2.286,1.132,1.562-2.507a50.886,50.886,0,0,0,3.5-5.349l.019-.034,0,0A50.849,50.849,0,0,0,66.143,46.8l5.344,1.781c5.633,1.878,9.819,7.595,10.322,13.884H57.486Z" transform="translate(-26)" fill="#ff903b"/>
      </g>
    </g>
    <g id="Group_351" data-name="Group 351" transform="translate(72.356 52.697)">
      <g id="Group_350" data-name="Group 350">
        <path id="Path_273" data-name="Path 273" d="M396.777,419.715a12.693,12.693,0,0,0-3.594-4.363,1.27,1.27,0,0,0-1.548,2.012,10.138,10.138,0,0,1,2.871,3.485,1.27,1.27,0,0,0,2.272-1.135Z" transform="translate(-391.139 -415.088)" fill="#ff903b"/>
      </g>
    </g>
  </g>
</svg>
