<svg xmlns="http://www.w3.org/2000/svg" viewBox="0 0 30 30"><defs><style>.cls-1{fill:#4181ee;}</style></defs><title>testimonials-list-goodfirms</title><g id="Layer_2" data-name="Layer 2"><g id="Layer_1-2" data-name="Layer 1"><path id="Shape" class="cls-1" d="M12.33,11.44s-1.66-.16-1.66,1.32v4.16a1.54,1.54,0,0,0,1.54,1.54h9.46v2a1,1,0,0,1-1,1H12.21A1.54,1.54,0,0,0,10.67,23v5.49A1.54,1.54,0,0,0,12.21,30H22.52a1.66,1.66,0,0,0,.32,0c1.11-.23,7.1-1.78,7.16-8.54V13a1.54,1.54,0,0,0-1.54-1.54ZM29.67,0H8.2a1.83,1.83,0,0,0-.4.05C.16,2,0,8.27,0,8.27V28.46A1.54,1.54,0,0,0,1.54,30H6.79a1.54,1.54,0,0,0,1.54-1.54V10.22a2,2,0,0,1,1.67-2H28.13A1.54,1.54,0,0,0,29.67,6.7V0Z"/></g></g></svg>