<svg xmlns="http://www.w3.org/2000/svg" width="19.485" height="17.182" viewBox="0 0 19.485 17.182">
  <g id="left-quote" transform="translate(0 -7.328)">
    <path id="Path_216" data-name="Path 216" d="M7.828,10.74A.937.937,0,0,0,8.3,9.482l-.77-1.619A.94.94,0,0,0,6.3,7.408a10.829,10.829,0,0,0-3.4,2.2,8.213,8.213,0,0,0-2.279,3.6A19.742,19.742,0,0,0,0,18.741v4.826a.946.946,0,0,0,.943.943H7.121a.946.946,0,0,0,.943-.943V17.389a.946.946,0,0,0-.943-.943H4.166a6.628,6.628,0,0,1,1.1-3.82A5.975,5.975,0,0,1,7.828,10.74Z" transform="translate(0 0)" fill="#5f84cb"/>
    <path id="Path_217" data-name="Path 217" d="M78.512,10.824a.937.937,0,0,0,.472-1.258l-.77-1.6a.94.94,0,0,0-1.226-.456,11.387,11.387,0,0,0-3.38,2.185,8.389,8.389,0,0,0-2.3,3.615,19.477,19.477,0,0,0-.613,5.517v4.826a.946.946,0,0,0,.943.943h6.178a.946.946,0,0,0,.943-.943V17.474a.946.946,0,0,0-.943-.943H74.85a6.629,6.629,0,0,1,1.1-3.82A5.974,5.974,0,0,1,78.512,10.824Z" transform="translate(-59.587 -0.085)" fill="#5f84cb"/>
  </g>
</svg>
