<svg xmlns="http://www.w3.org/2000/svg" xmlns:xlink="http://www.w3.org/1999/xlink" viewBox="0 0 30.48 30"><defs><style>.cls-1{fill:#fff;}.cls-2{fill:url(#linear-gradient);}.cls-3{fill:#3d568d;}</style><linearGradient id="linear-gradient" x1="15.24" y1="0.32" x2="15.24" y2="29.98" gradientUnits="userSpaceOnUse"><stop offset="0" stop-color="#4d69a1"/><stop offset="1" stop-color="#3c5a98"/></linearGradient></defs><title>testimonials-list-faceboook</title><g id="Layer_2" data-name="Layer 2"><g id="Layer_1-2" data-name="Layer 1"><rect class="cls-1" x="0.17" y="0.17" width="30.13" height="29.66" rx="1.37" ry="1.37"/><path class="cls-2" d="M30.31,28.45V1.55A1.38,1.38,0,0,0,28.93.17H1.55A1.38,1.38,0,0,0,.17,1.54V28.46a1.38,1.38,0,0,0,1.38,1.37h15.2V17.92H12.83v-4.1h3.92V9.36A4.6,4.6,0,0,1,21.13,4.9h4.39V8.63h-2c-1,0-2.33.81-2.33,1.81v3.38h3.95v4.1H21.17V29.83h7.76A1.38,1.38,0,0,0,30.31,28.45Z"/><path class="cls-3" d="M28.93,30H21V17.75h4V14H21V10.44c0-1.06,1.38-2,2.51-2h1.85V5.07H21.13a4.43,4.43,0,0,0-4.2,4.29V14H13v3.76h3.93V30H1.55A1.55,1.55,0,0,1,0,28.46V1.54A1.55,1.55,0,0,1,1.55,0H28.93a1.55,1.55,0,0,1,1.55,1.55v26.9A1.55,1.55,0,0,1,28.93,30Zm-7.59-.34h7.59a1.21,1.21,0,0,0,1.2-1.21V1.55A1.21,1.21,0,0,0,28.93.34H1.55A1.22,1.22,0,0,0,.34,1.54V28.46a1.21,1.21,0,0,0,1.21,1.2h15V18.09H12.66V13.65h3.92V9.36a4.77,4.77,0,0,1,4.55-4.63h4.56V8.81H23.5c-1,0-2.16.77-2.16,1.63v3.21h4v4.44h-4Z"/></g></g></svg>