<svg xmlns="http://www.w3.org/2000/svg" viewBox="0 0 29.4 30"><defs><style>.cls-1{fill:#4285f4;}.cls-2{fill:#34a853;}.cls-3{fill:#fbbc05;}.cls-4{fill:#eb4335;}</style></defs><title>testimonials-list-google</title><g id="Layer_2" data-name="Layer 2"><g id="Layer_1-2" data-name="Layer 1"><path class="cls-1" d="M29.4,15.33a12.61,12.61,0,0,0-.32-3.06H15v5.56h8.27A7.34,7.34,0,0,1,20.2,22.7l0,.19,4.45,3.45.31,0a14.66,14.66,0,0,0,4.47-11"/><path class="cls-2" d="M15,30a14.28,14.28,0,0,0,9.93-3.63L20.2,22.7A8.92,8.92,0,0,1,15,24.2,9,9,0,0,1,6.47,18H6.29L1.66,21.56l-.06.17A15,15,0,0,0,15,30"/><path class="cls-3" d="M6.47,18A9.21,9.21,0,0,1,6,15a9.77,9.77,0,0,1,.48-3v-.2L1.75,8.19l-.15.08a15,15,0,0,0,0,13.46L6.47,18"/><path class="cls-4" d="M15,5.8A8.33,8.33,0,0,1,20.8,8L25,3.9A14.39,14.39,0,0,0,15,0,15,15,0,0,0,1.6,8.27L6.45,12A9.07,9.07,0,0,1,15,5.8"/></g></g></svg>