<svg xmlns="http://www.w3.org/2000/svg" width="30" height="30" viewBox="0 0 30 30">
  <g id="Group_272" data-name="Group 272" transform="translate(-384 -778)">
    <g id="Group_271" data-name="Group 271" transform="translate(384 778)">
      <circle id="Ellipse_4" data-name="Ellipse 4" cx="15" cy="15" r="15" fill="#fff"/>
      <g id="google-icon" transform="translate(7.307 6.616)">
        <path id="Path_155" data-name="Path 155" d="M138.3,108.412a6.919,6.919,0,0,0-.17-1.651h-7.58v3H135a3.945,3.945,0,0,1-1.651,2.619l-.015.1,2.4,1.857.166.017a7.894,7.894,0,0,0,2.4-5.938" transform="translate(-122.477 -100.159)" fill="#4285f4"/>
        <path id="Path_156" data-name="Path 156" d="M21.137,162.847a7.7,7.7,0,0,0,5.346-1.956l-2.548-1.974a4.778,4.778,0,0,1-2.8.807,4.86,4.86,0,0,1-4.593-3.355l-.095.008-2.492,1.929-.033.091a8.068,8.068,0,0,0,7.212,4.449" transform="translate(-13.064 -146.7)" fill="#34a853"/>
        <path id="Path_157" data-name="Path 157" d="M3.481,76.572a4.97,4.97,0,0,1-.269-1.6,5.223,5.223,0,0,1,.26-1.6l0-.107L.944,71.312l-.083.039a8.056,8.056,0,0,0,0,7.248l2.619-2.027" transform="translate(0 -66.902)" fill="#fbbc05"/>
        <path id="Path_158" data-name="Path 158" d="M21.137,3.122a4.475,4.475,0,0,1,3.122,1.2L26.538,2.1a7.757,7.757,0,0,0-5.4-2.1,8.068,8.068,0,0,0-7.212,4.449l2.61,2.027a4.88,4.88,0,0,1,4.6-3.355" transform="translate(-13.064)" fill="#eb4335"/>
      </g>
    </g>
  </g>
</svg>
