<svg xmlns="http://www.w3.org/2000/svg" viewBox="0 0 21.3 30"><defs><style>.cls-1{fill:#01af4f;}</style></defs><title>testimonials-list-glassdoor</title><g id="Layer_2" data-name="Layer 2"><g id="Layer_1-2" data-name="Layer 1"><path class="cls-1" d="M17.05,25.72H0A4.26,4.26,0,0,0,4.28,30H17.05a4.27,4.27,0,0,0,4.25-4.28V8.12A.16.16,0,0,0,21.15,8H17.2a.16.16,0,0,0-.15.16v17.6ZM17.05,0A4.27,4.27,0,0,1,21.3,4.29h-17v17.6a.16.16,0,0,1-.16.16H.16A.16.16,0,0,1,0,21.89V4.29A4.27,4.27,0,0,1,4.26,0Z"/></g></g></svg>