<svg xmlns="http://www.w3.org/2000/svg" viewBox="0 0 30 30"><defs><style>.cls-1{fill:#fff200;}.cls-2{fill:#020100;}</style></defs><title>testimonials-list-laimoon</title><g id="Layer_2" data-name="Layer 2"><g id="Layer_1-2" data-name="Layer 1"><rect class="cls-1" width="30" height="30"/><path class="cls-2" d="M20.63,22.52c0-.62-.91-.53-.91-.53a49.41,49.41,0,0,1-5,0c-2-.14-1.83-3.13-1.83-3.23V5.59a.74.74,0,0,0-.74-.74H10.07a.74.74,0,0,0-.74.74l.05,14.24c0,.06-.24,5.12,4.21,5.25.91,0,5.27.2,6.41-.18a1,1,0,0,0,.65-.55A15.86,15.86,0,0,0,20.63,22.52Z"/></g></g></svg>