<svg xmlns="http://www.w3.org/2000/svg" viewBox="0 0 30 30"><defs><style>.cls-1{fill:#a01b2e;}.cls-2{fill:#fff;}</style></defs><title>testimonials-list-edarabia</title><g id="Layer_2" data-name="Layer 2"><g id="Layer_1-2" data-name="Layer 1"><rect class="cls-1" width="30" height="30"/><path class="cls-2" d="M4.5,22.7V7.09H14.64V9.63H7.43v3.69h5.25v2.49H7.43V20H15V22.7Z"/><path class="cls-2" d="M23.16,21.49a3.74,3.74,0,0,1-1.34,1.07,3.92,3.92,0,0,1-1.69.35A3.8,3.8,0,0,1,17,21.28a6.77,6.77,0,0,1-1.23-4.21,6.88,6.88,0,0,1,1.2-4.22A3.69,3.69,0,0,1,20,11.23a3.38,3.38,0,0,1,1.5.31,3.83,3.83,0,0,1,1.25,1V7.09h2.6v13c0,.27,0,.63,0,1.07s.06,1,.1,1.55H23.44Zm-.39-1.78V14.37a4.37,4.37,0,0,0-1-.73,2.33,2.33,0,0,0-1-.22,2,2,0,0,0-1.74,1,4.85,4.85,0,0,0-.63,2.68A4.79,4.79,0,0,0,19,19.74a2,2,0,0,0,1.76.94,2.38,2.38,0,0,0,1-.22A4,4,0,0,0,22.77,19.71Z"/></g></g></svg>