<svg xmlns="http://www.w3.org/2000/svg" viewBox="0 0 24.51 42.67" width="18" height="30"><defs><style>.cls-1{isolation:isolate;}.cls-2{fill:#ffffff;}</style></defs><title>Asset 14</title><g id="Layer_2" data-name="Layer 2"><g id="Layer_1-2" data-name="Layer 1"><g id="_" data-name=" " class="cls-1"><g class="cls-1"><path class="cls-2" d="M22.46,34.07l2.05,6.08a5.67,5.67,0,0,1-2.85,1.69,13.81,13.81,0,0,1-4.53.82A15,15,0,0,1,12.24,42a11.21,11.21,0,0,1-3.65-1.9,11.9,11.9,0,0,1-2.44-2.72A11,11,0,0,1,4.73,34.3a11.39,11.39,0,0,1-.42-3v-14H0V11.82A12.37,12.37,0,0,0,3.31,10,11.86,11.86,0,0,0,5.64,7.73,13.6,13.6,0,0,0,7.13,5.12,15.05,15.05,0,0,0,8,2.58,19.2,19.2,0,0,0,8.38.31.43.43,0,0,1,8.5.09.26.26,0,0,1,8.69,0H15V10.87h8.53v6.46H14.92V30.61a6,6,0,0,0,.17,1.44,4.7,4.7,0,0,0,.58,1.34,2.69,2.69,0,0,0,1.26,1.07,5.08,5.08,0,0,0,2.09.36A8.31,8.31,0,0,0,22.46,34.07Z"/></g></g></g></g></svg>