<svg xmlns="http://www.w3.org/2000/svg" viewBox="0 0 43.89 35.64" width="16" height="17"><defs><style>.cls-1{isolation:isolate;}.cls-2{fill:#ffffff;}</style></defs><title>Asset 13</title><g id="Layer_2" data-name="Layer 2"><g id="Layer_1-2" data-name="Layer 1"><g id="_" data-name=" " class="cls-1"><g class="cls-1"><path class="cls-2" d="M43.89,4.23a18.85,18.85,0,0,1-4.52,4.65q0,.39,0,1.17a25.41,25.41,0,0,1-1.06,7.23,26,26,0,0,1-3.21,6.92A27.15,27.15,0,0,1,30,30.06a23.07,23.07,0,0,1-7.18,4.07,26.41,26.41,0,0,1-9,1.51A25,25,0,0,1,0,31.61a20.27,20.27,0,0,0,2.17.11,17.58,17.58,0,0,0,11.17-3.85,9,9,0,0,1-8.41-6.23,11.78,11.78,0,0,0,1.7.14A9.44,9.44,0,0,0,9,21.47a8.84,8.84,0,0,1-5.16-3.11,8.66,8.66,0,0,1-2-5.72v-.11a8.8,8.8,0,0,0,4.07,1.14,8.93,8.93,0,0,1-2.93-3.2A8.82,8.82,0,0,1,1.84,6.18,8.91,8.91,0,0,1,3.06,1.64a25.47,25.47,0,0,0,8.2,6.64,25,25,0,0,0,10.35,2.78A10,10,0,0,1,21.39,9,8.66,8.66,0,0,1,24,2.63,9,9,0,0,1,37,2.84,17.53,17.53,0,0,0,42.66.67a8.76,8.76,0,0,1-3.95,5A17.93,17.93,0,0,0,43.89,4.23Z"/></g></g></g></g></svg>