<svg width="172" height="45" xmlns="http://www.w3.org/2000/svg" viewBox="0 0 187.09 34.35"><defs><style>.cls-1{fill:#d2232a;fill-rule:evenodd;}</style></defs><title>Asset 2</title><g id="Layer_2" data-name="Layer 2"><g id="Layer_1-2" data-name="Layer 1"><polygon class="cls-1" points="51.94 17.74 55.61 9.83 61.74 9.83 53.68 25.25 50.2 25.25 42.11 9.83 48.24 9.83 51.94 17.74 51.94 17.74"/><path class="cls-1" d="M90.06,14.07a3.35,3.35,0,0,1,3.52,3.49,3.52,3.52,0,0,1-7,0,3.35,3.35,0,0,1,3.51-3.49ZM93.4,25.26h5.47V.3H93.4v11a6.3,6.3,0,0,0-4.78-2c-4.57,0-7.73,3.79-7.73,8.21s3.22,8.24,7.79,8.24a5.41,5.41,0,0,0,4.66-2.23h.06v1.72Z"/><path class="cls-1" d="M109.76,14.07a3.35,3.35,0,0,1,3.51,3.49,3.52,3.52,0,0,1-7,0,3.35,3.35,0,0,1,3.52-3.49Zm8.81-4.24h-5.48v1.5a6.28,6.28,0,0,0-4.78-2c-4.57,0-7.72,3.79-7.72,8.21s3.21,8.24,7.78,8.24A5.39,5.39,0,0,0,113,23.54h.06v1.72h5.48V9.83Z"/><path class="cls-1" d="M127.62,25.26h-5.48V14.34h-1.92V9.83h1.92V7.88c0-2.14.06-3.7,1.57-5.41A7,7,0,0,1,129.09,0a4.88,4.88,0,0,1,2.34.54V5.26a4.68,4.68,0,0,0-1.92-.51c-1.41,0-1.89.84-1.89,2.59V9.83h3.81v4.51h-3.81V25.26Z"/><path class="cls-1" d="M157.44,11.82h.06a5.33,5.33,0,0,1,4.93-2.5c4.15,0,5.81,2.62,5.81,6.4v9.54h-5.48V17.74c0-1.47.24-4.06-2.46-4.06-2.23,0-2.86,1.65-2.86,3.58v8H152V9.83h5.47v2Z"/><path class="cls-1" d="M175.66,15.3a3.29,3.29,0,0,1,6.35,0Zm11.43,2.59c0-5.26-3.1-8.57-8.45-8.57-5,0-8.54,3.1-8.54,8.24,0,5.32,3.82,8.21,8.93,8.21,3.52,0,7-1.66,7.85-5.3h-5.27A2.72,2.72,0,0,1,179,21.89a3.07,3.07,0,0,1-3.43-3.43h11.52v-.57Z"/><path class="cls-1" d="M78.86,17.93a8.67,8.67,0,1,1-8.67-8.67,8.67,8.67,0,0,1,8.67,8.67Zm-13.51,0a4.84,4.84,0,1,0,4.85-4.84,6.1,6.1,0,0,1,2.49-3.44c-3.61,0-6.73,3-7.34,6.79a14.32,14.32,0,0,0,0,1.49Z"/><path class="cls-1" d="M34.22,17.24A17.11,17.11,0,1,1,17.11.14a17.11,17.11,0,0,1,17.11,17.1ZM7.56,17.17a9.55,9.55,0,1,0,9.57-9.55A12.07,12.07,0,0,1,22,.84C14.91.84,8.76,6.76,7.56,14.24a25.2,25.2,0,0,0,0,2.93Z"/><path class="cls-1" d="M132.76,17.27a8.67,8.67,0,1,1,8.67,8.67,8.67,8.67,0,0,1-8.67-8.67Zm13.51,0a4.84,4.84,0,1,0-4.85,4.84,6.11,6.11,0,0,1-2.48,3.44c3.61,0,6.72-3,7.33-6.79a11.94,11.94,0,0,0,0-1.49Z"/></g></g></svg>