<svg xmlns="http://www.w3.org/2000/svg" width="60.002" height="60" viewBox="0 0 60.002 60">
  <g id="refresh" transform="translate(-11.026 -11.071)">
    <g id="Group_352" data-name="Group 352" transform="translate(11.026 11.071)">
      <path id="Path_274" data-name="Path 274" d="M29.05,16.4A27.328,27.328,0,0,1,61.565,22.77l-8.548-1.4-.38,2.56,13.006,2.045.637-13.288-2.547-.122-.416,8.462A29.955,29.955,0,0,0,12.223,49.357l2.425-.637A27.3,27.3,0,0,1,29.05,16.4Z" transform="translate(-11.026 -11.071)" fill="#ff903b"/>
      <path id="Path_275" data-name="Path 275" d="M104.91,189.1l-2.425.637a27.45,27.45,0,0,1-46.843,25.938l8.6,1.274.38-2.425L51.5,212.479,51,225.632l2.425.122.416-8.45A29.759,29.759,0,0,0,76.106,227.3a32.563,32.563,0,0,0,13.251-2.939A29.941,29.941,0,0,0,104.91,189.1Z" transform="translate(-46.105 -167.297)" fill="#ff903b"/>
      <path id="Path_276" data-name="Path 276" d="M167.5,238.689v6.895h21.664v-6.895a7.728,7.728,0,0,0-7.777-7.789h-6.123A7.718,7.718,0,0,0,167.5,238.689Zm7.777-5.107H181.4a5.261,5.261,0,0,1,5.229,5.242v4.335H170.047v-4.348A5.258,5.258,0,0,1,175.277,233.582Z" transform="translate(-148.337 -203.978)" fill="#ff903b"/>
      <path id="Path_277" data-name="Path 277" d="M217.492,109.858a6.246,6.246,0,1,0-6.246,6.258A6.259,6.259,0,0,0,217.492,109.858Zm-9.944,0a3.7,3.7,0,1,1,3.7,3.7A3.7,3.7,0,0,1,207.547,109.858Z" transform="translate(-181.245 -92.268)" fill="#ff903b"/>
    </g>
  </g>
</svg>
