<svg xmlns="http://www.w3.org/2000/svg" width="29" height="32" viewBox="0 0 29 32">
  <g id="Group_211" data-name="Group 211" transform="translate(-268.559 -607.094)">
    <path id="Path_133" data-name="Path 133" d="M268.559,607.094h29l-2.764,28.142-11.736,3.858-11.736-3.858Z" transform="translate(0)" fill="#db3519" fill-rule="evenodd"/>
    <path id="Path_134" data-name="Path 134" d="M294.6,609.463H282.909v26.854l9.46-3.238Z" transform="translate(0.301)" fill="#ec4d1b" fill-rule="evenodd"/>
    <path id="Path_135" data-name="Path 135" d="M291.732,616.479H277.618l.305,3.738h13.415l-.179,1.817-.743,7.545-.111,1.131-1.14.315-5.691,1.571-.964.007-5.8-1.573-1.138-.309-.12-1.131-.467-4.4,3.529.039.292,2.9,4.19,1.136,4.061-1.121.452-4.6H274.688l-.126-1.544-.577-7.073-.146-1.791h1.89l16.333-.1Z" transform="translate(0 0)" fill="#e6e6e6" fill-rule="evenodd"/>
    <path id="Path_136" data-name="Path 136" d="M282.909,613.1v3.382h8.528l.323-3.44-8.851.057Zm0,7.12v3.335h4.371l-.445,4.6-3.926,1.1V632.6l.4,0,5.6-1.571,1.121-.315.11-1.131.731-7.546.176-1.817h-8.14Z" transform="translate(0.218 0)" fill="#fff" fill-rule="evenodd"/>
  </g>
</svg>
