<svg xmlns="http://www.w3.org/2000/svg" viewBox="0 0 36.63 36.91" width="18" height="20"><defs><style>.cls-1{isolation:isolate;}.cls-2{fill:#ff5f3b;}</style></defs><title>Asset 11</title><g id="Layer_2" data-name="Layer 2"><g id="Layer_1-2" data-name="Layer 1"><g class="cls-1"><g class="cls-1"><path class="cls-2" d="M11.67,1.43a17.73,17.73,0,0,1,14,0,18.07,18.07,0,0,1,5.74,3.84A18.41,18.41,0,0,1,35.2,11a17.73,17.73,0,0,1,0,14,18.36,18.36,0,0,1-3.84,5.73,18.07,18.07,0,0,1-5.74,3.84,17.49,17.49,0,0,1-7,1.43,17.79,17.79,0,0,1-8.71-2.24L0,36.91l3.24-9.65A17.61,17.61,0,0,1,.67,18,17.32,17.32,0,0,1,2.1,11a17.78,17.78,0,0,1,9.57-9.58Zm7,31.53a14.45,14.45,0,0,0,5.8-1.2,14.66,14.66,0,0,0,8-8,14.78,14.78,0,0,0,0-11.62,14.66,14.66,0,0,0-8-8,14.64,14.64,0,0,0-11.61,0,14.75,14.75,0,0,0-8,8A14.86,14.86,0,0,0,6.53,26.76L4.65,32.31l5.77-1.83A14.7,14.7,0,0,0,18.65,33Zm3.6-11.49c.62-.77,1-1.15,1.24-1.15a10.73,10.73,0,0,1,2.32,1.05A10.55,10.55,0,0,1,28,22.63,1.06,1.06,0,0,1,28,23a5,5,0,0,1-.41,1.81,3.18,3.18,0,0,1-1.69,1.56,5.7,5.7,0,0,1-2.43.63,13,13,0,0,1-4.54-1.47,13.88,13.88,0,0,1-4-2.82,31.87,31.87,0,0,1-3.53-4.41,8.33,8.33,0,0,1-1.69-4.63v-.19a5.25,5.25,0,0,1,1.76-3.76,1.82,1.82,0,0,1,1.24-.53,2.82,2.82,0,0,1,.43,0l.46,0a.94.94,0,0,1,.63.16,1.72,1.72,0,0,1,.37.65c.12.32.39,1,.78,2.1a13.86,13.86,0,0,1,.6,1.79,2.41,2.41,0,0,1-.82,1.37c-.55.58-.83.95-.83,1.11a.7.7,0,0,0,.12.36,10.51,10.51,0,0,0,2.44,3.26,14.89,14.89,0,0,0,3.6,2.41,1,1,0,0,0,.52.17C21.2,22.63,21.63,22.25,22.25,21.47Z"/></g></g></g></g></svg>