<svg width="94" height="33" xmlns="http://www.w3.org/2000/svg" viewBox="0 0 94 31.31"><defs><style>.cls-1{fill:#181718;}</style></defs><title>Asset 5</title><g id="Layer_2" data-name="Layer 2"><g id="Layer_1-2" data-name="Layer 1"><path class="cls-1" d="M48.66,30.47l-.39,0c-.67,0-1.06-.28-1.06-.74s.39-.82,1.15-.82h0c1.81,0,2.31-.54,2.31-2.47v-2.9l0-17.27c0-4.1-.26-4.71-1.89-4.71l-.37,0h-.11c-.69,0-1.07-.25-1.07-.71s.46-.73,1.26-.73l.49,0c1.32.07,3.05.12,3.73.12,1,0,2,0,3.83-.16C58.78,0,59.3,0,60.19,0c6.15,0,10.26,3.48,10.26,8.7,0,4.75-4.29,8.7-9.46,8.7a8.93,8.93,0,0,1-3.05-.54l-1.36-.47a4.88,4.88,0,0,0-1.32-.31c-.47,0-.54.18-.54,1.33v.49l.09,5.62,0,1.25,0,1.26C55,28.45,55.48,29,57.67,29h-.46c.86,0,1.21.21,1.21.72s-.45.81-1.79.81c-.31,0-.58,0-1.23-.06-1.54-.12-1.72-.17-2.61-.17q-.85,0-1.83.06l-1.22.08-1.08.06Zm6-17.2c.06,1.55,1.64,2.36,4.65,2.36a7,7,0,0,0,7-7.1c0-4.49-3-7.22-7.88-7.22-2.65,0-3.67.57-3.72,2.07l0,.83,0,.6v7.66l0,.8" transform="translate(0 0)"/><path class="cls-1" d="M72.21,30.47l-.39,0c-.67,0-1.06-.28-1.06-.74s.39-.82,1.15-.82h0c1.81,0,2.31-.54,2.31-2.47v-2.9l0-17.27c0-4.1-.26-4.71-1.89-4.71l-.37,0h-.11c-.69,0-1.06-.25-1.06-.71S71.2.19,72,.19l.49,0c1.32.07,3,.12,3.73.12,1,0,2.06,0,3.83-.16C82.33,0,82.85,0,83.74,0,89.89,0,94,3.48,94,8.7c0,4.75-4.29,8.7-9.46,8.7a8.93,8.93,0,0,1-3.05-.54l-1.36-.47a4.88,4.88,0,0,0-1.32-.31c-.47,0-.55.18-.55,1.33v.49l.09,5.62,0,1.25,0,1.26C78.54,28.45,79,29,81.22,29h-.46c.86,0,1.21.21,1.21.72s-.45.81-1.79.81c-.31,0-.58,0-1.24-.06-1.54-.12-1.71-.17-2.61-.17-.56,0-1.17,0-1.82.06l-1.22.08-1.08.06Zm6-17.2c.06,1.55,1.64,2.36,4.65,2.36a7,7,0,0,0,7-7.1c0-4.49-3-7.22-7.88-7.22-2.65,0-3.67.57-3.72,2.07l0,.83,0,.6v7.66l0,.8" transform="translate(0 0)"/><path class="cls-1" d="M26,13.31l3.18-6.62c1.94-4.07,2.73-4.95,4.47-5,1.12,0,1.43-.19,1.43-.73s-.3-.69-.88-.69c-.24,0-1,0-1.68.09s-1.19.07-1.49.07l-1.38,0-1.12,0-1-.06h-.24c-.77,0-1.13.23-1.13.74s.25.63,1.21.7C28.56,1.8,29,2,29,2.62a11.72,11.72,0,0,1-1.3,3.45l-2.58,5.3-2.7-5.75a8.87,8.87,0,0,1-1.05-2.83c0-.61.42-.92,1.27-.95l.85,0c.61,0,1-.31,1-.77S24.12.31,23.32.31H23L21.63.37,18.92.43h-1.8l-1.51,0L14.66.33h-.24c-.83,0-1.26.24-1.26.73s.4.72,1.27.76c1.67.07,2.16.62,3.9,4.42l1,2.11,3.57,7.57-4.38,9L9.71,6.69l-.47-1c-1.09-2.27-1.17-2.48-1.17-3s.34-.84,1.16-.9l.63-.05c1-.07,1.25-.22,1.25-.76s-.34-.7-1.1-.7L8.59.36,7.32.41,4.1.44H3.62l-1.3,0c-.5,0-.84,0-1,0H.9C.34.33,0,.58,0,1s.34.72,1.39.74c1.45,0,2,.68,4.15,5.41l.92,2,8.23,17.62.89,1.87c.27.56.52,1.13.74,1.69.33.84.48,1,.87,1s.5-.13.67-.59c.05-.14.18-.44.36-.9.44-1.07.69-1.7.77-1.87l1-2.24.83-1.87,3-6L29,29.53l.24.6c.27.68.48.9.86.9s.65-.27.89-1c.54-1.55,1.38-3.67,2.32-5.9L40.36,7.53c2.21-5.21,2.58-5.68,4.51-5.83C45.63,1.65,46,1.43,46,1s-.31-.72-1-.72l-.43,0L43.39.37c-.51,0-1,.07-1.39.07s-.45,0-1.84-.1L39,.27,38.06.22c-.74,0-1.13.27-1.13.77s.32.69,1.63.73c1.16,0,1.62.31,1.62,1s-.52,2.2-1.66,5l-1.68,4-2,4.83-1.75,4.09L31.56,24l-.29.65L26,13.31" transform="translate(0 0)"/></g></g></svg>