<svg xmlns="http://www.w3.org/2000/svg" width="27" height="18.904" viewBox="0 0 27 18.904">
  <path id="youtube" d="M26.444-3.124a3.382,3.382,0,0,0-2.38-2.38C21.952-6.082,13.5-6.082,13.5-6.082s-8.451,0-10.564.556a3.451,3.451,0,0,0-2.38,2.4A35.642,35.642,0,0,0,0,3.37,35.511,35.511,0,0,0,.557,9.864a3.383,3.383,0,0,0,2.38,2.38c2.135.578,10.564.578,10.564.578s8.451,0,10.564-.556a3.383,3.383,0,0,0,2.38-2.38A35.654,35.654,0,0,0,27,3.392a33.833,33.833,0,0,0-.556-6.516ZM10.81,7.418v-8.1L17.837,3.37Zm0,0" transform="translate(-0.001 6.082)" fill="#0652a4"/>
</svg>
