<?xml version="1.0" encoding="utf-8"?>
<!-- Generator: Adobe Illustrator 19.0.0, SVG Export Plug-In . SVG Version: 6.00 Build 0)  -->
<svg version="1.1" id="Layer_1" xmlns="http://www.w3.org/2000/svg" xmlns:xlink="http://www.w3.org/1999/xlink" x="0px" y="0px"
	 viewBox="0 0 108 60" style="enable-background:new 0 0 108 60;" xml:space="preserve">
<style type="text/css">
	.st0{fill:#FFFFFF;}
</style>
<g id="XMLID_39_">
	<polygon id="XMLID_60_" class="st0" points="1.4,44.1 3.4,44.1 4.7,36.6 8.4,44.6 12.2,36.6 13.5,44.1 15.5,44.1 13,30.6 8.5,40.3 
		4.1,30.6 	"/>
	<g id="XMLID_57_">
		<path id="XMLID_58_" class="st0" d="M28.8,43.7V31.1h1.9v12.6H28.8z"/>
	</g>
	<g id="XMLID_53_">
		<path id="XMLID_54_" class="st0" d="M75,38.1v5.6h-1.9V31.2H76c0.8,0,1.5,0.1,1.9,0.2c0.5,0.1,0.9,0.3,1.2,0.5
			c0.4,0.3,0.7,0.7,0.9,1.2c0.2,0.5,0.3,1,0.3,1.6c0,1-0.2,1.8-0.7,2.4c-0.5,0.6-1.2,0.9-2.2,1l4.3,5.7h-2.3l-4.2-5.6H75z
			 M75.2,36.5h0.4c1.1,0,1.8-0.1,2.2-0.4c0.4-0.3,0.5-0.7,0.5-1.3c0-0.7-0.2-1.2-0.6-1.5c-0.4-0.3-1.1-0.4-2.1-0.4h-0.4V36.5z"/>
	</g>
	<g id="XMLID_52_">
		<path id="XMLID_61_" class="st0" d="M108,37.5c0,0.9-0.2,1.7-0.5,2.5c-0.3,0.8-0.8,1.5-1.4,2.1c-0.6,0.6-1.4,1.1-2.2,1.4
			c-0.8,0.3-1.6,0.5-2.5,0.5c-0.9,0-1.7-0.2-2.6-0.5c-0.8-0.3-1.5-0.8-2.1-1.4c-0.6-0.6-1.1-1.3-1.4-2.1c-0.3-0.8-0.5-1.6-0.5-2.5
			c0-0.9,0.2-1.7,0.5-2.5c0.3-0.8,0.8-1.5,1.4-2.1c0.6-0.6,1.3-1.1,2.2-1.4c0.8-0.3,1.7-0.5,2.5-0.5c0.9,0,1.7,0.2,2.5,0.5
			c0.8,0.3,1.5,0.8,2.1,1.4c0.6,0.6,1.1,1.3,1.4,2.1C107.8,35.8,108,36.6,108,37.5z M105.9,37.5c0-0.6-0.1-1.2-0.3-1.8
			c-0.2-0.6-0.6-1.1-1-1.5c-0.4-0.4-0.9-0.8-1.5-1c-0.6-0.2-1.1-0.4-1.7-0.4c-0.6,0-1.2,0.1-1.7,0.3s-1,0.6-1.5,1
			c-0.4,0.4-0.8,0.9-1,1.5c-0.2,0.6-0.3,1.2-0.3,1.8c0,0.6,0.1,1.2,0.3,1.8c0.2,0.6,0.6,1.1,1,1.5c0.4,0.4,0.9,0.8,1.5,1
			c0.5,0.2,1.1,0.3,1.7,0.3c0.6,0,1.2-0.1,1.7-0.3c0.5-0.2,1-0.6,1.5-1c0.4-0.4,0.8-0.9,1-1.5C105.7,38.7,105.9,38.1,105.9,37.5z"/>
	</g>
	<path id="XMLID_51_" class="st0" d="M54,29.4c1.7,0,3.3,0.5,4.8,1.4c0.1,0.1,0.3,0.2,0.5,0.3v-2.2c0,0-0.1-0.1-0.3-0.2
		c0,0-0.1,0-0.1,0c0,0,0,0,0,0c-0.3-0.2-0.8-0.4-1.2-0.5l0,0c-1.7-0.6-3.4-0.7-5.2-0.4c-4.7,0.7-9.4,5.7-7.9,12.1
		c0.6,2.5,2.1,4.5,4.2,5.8c3.3,2.1,6.8,2,10.3,0.4c0.1,0,0.1-0.1,0.2-0.1v-2.3c-0.2,0.1-0.3,0.2-0.4,0.3c-1.1,0.8-2.3,1.3-3.7,1.4
		c-4,0.4-6.8-1.9-8-4.5c-0.7-1.6-0.9-3.3-0.6-5C47.1,32.9,49.9,29.5,54,29.4z"/>
	<path id="XMLID_50_" class="st0" d="M58.5,29.5"/>
	<polyline id="XMLID_49_" class="st0" points="65.5,35.5 67.4,37.4 65.5,39.3 65.5,35.5 	"/>
	<polyline id="XMLID_48_" class="st0" points="87.1,35.5 89,37.4 87.1,39.3 87.1,35.5 	"/>
	<polyline id="XMLID_47_" class="st0" points="38.3,35.5 36.4,37.4 38.3,39.3 38.3,35.5 	"/>
	<polyline id="XMLID_46_" class="st0" points="23.1,35.5 21.2,37.4 23.1,39.3 23.1,35.5 	"/>
	<path id="XMLID_45_" class="st0" d="M63.8,38.3"/>
	<polyline id="XMLID_44_" class="st0" points="46.7,9.9 39.2,17.4 46.7,24.9 46.7,9.9 	"/>
	<polyline id="XMLID_43_" class="st0" points="62.8,9.9 70.3,17.4 62.8,24.9 62.8,9.9 	"/>
	<polyline id="XMLID_42_" class="st0" points="48.8,12.9 53.3,17.4 48.8,21.9 48.8,12.9 	"/>
	<polyline id="XMLID_41_" class="st0" points="60.8,12.9 56.3,17.4 60.8,21.9 60.8,12.9 	"/>
	
		<rect id="XMLID_40_" x="49.8" y="3.9" transform="matrix(0.7071 -0.7071 0.7071 0.7071 9.7808 41.2794)" class="st0" width="9.9" height="9.9"/>
</g>
<g id="XMLID_3_">
	<path id="XMLID_36_" class="st0" d="M23.5,55.7c0,0.2,0,0.5-0.1,0.7c-0.1,0.2-0.2,0.4-0.3,0.6c-0.1,0.2-0.3,0.3-0.5,0.4
		c-0.2,0.1-0.4,0.2-0.7,0.3c-0.1,0-0.3,0.1-0.5,0.1c-0.2,0-0.4,0-0.6,0h-1v-4.1h1c0.2,0,0.4,0,0.6,0s0.3,0,0.5,0.1
		c0.3,0.1,0.5,0.2,0.7,0.3c0.2,0.1,0.3,0.3,0.5,0.4c0.1,0.2,0.2,0.4,0.3,0.6C23.5,55.2,23.5,55.4,23.5,55.7z M23,55.7
		c0-0.4-0.1-0.7-0.3-1c-0.2-0.2-0.5-0.4-0.8-0.5c-0.1,0-0.3-0.1-0.4-0.1c-0.2,0-0.3,0-0.6,0h-0.4v3.2h0.4c0.2,0,0.4,0,0.6,0
		c0.2,0,0.3,0,0.4-0.1c0.3-0.1,0.6-0.3,0.8-0.5C22.9,56.4,23,56.1,23,55.7z"/>
	<path id="XMLID_34_" class="st0" d="M25.6,57.3h2.2v0.5H25v-4.1h2.7v0.5h-2.1v1.3h1.9v0.5h-1.9V57.3z"/>
	<path id="XMLID_32_" class="st0" d="M29.8,57.8h-0.5v-4.1h2.6v0.5h-2.1v1.3h1.8v0.5h-1.8V57.8z"/>
	<path id="XMLID_30_" class="st0" d="M33.2,57.8v-4.1h0.5v4.1H33.2z"/>
	<path id="XMLID_28_" class="st0" d="M37.6,55.9c0.3,0.4,0.5,0.7,0.8,1.1h0c0-0.4,0-0.8,0-1.2v-2.2h0.5v4.1h-0.5l-1.7-2.3
		c-0.3-0.4-0.6-0.8-0.8-1.1h0c0,0.4,0,0.8,0,1.3v2.1h-0.5v-4.1h0.5L37.6,55.9z"/>
	<path id="XMLID_26_" class="st0" d="M40.6,57.8v-4.1h0.5v4.1H40.6z"/>
	<path id="XMLID_24_" class="st0" d="M45,55.9c0.3,0.4,0.5,0.7,0.8,1.1h0c0-0.4,0-0.8,0-1.2v-2.2h0.5v4.1h-0.5l-1.7-2.3
		c-0.3-0.4-0.6-0.8-0.8-1.1h0c0,0.4,0,0.8,0,1.3v2.1h-0.5v-4.1h0.5L45,55.9z"/>
	<path id="XMLID_22_" class="st0" d="M50.9,56.1h-1v-0.5h1.5v2c0,0-0.1,0-0.2,0.1c-0.1,0-0.2,0-0.3,0.1c-0.1,0-0.2,0-0.4,0
		c-0.1,0-0.3,0-0.4,0c-0.4,0-0.7,0-1-0.1c-0.3-0.1-0.5-0.2-0.7-0.4c-0.2-0.2-0.3-0.4-0.4-0.6c-0.1-0.3-0.2-0.5-0.2-0.8
		c0-0.3,0.1-0.6,0.2-0.9c0.1-0.3,0.3-0.5,0.5-0.7c0.2-0.2,0.5-0.3,0.8-0.5c0.3-0.1,0.6-0.2,1-0.2c0.1,0,0.2,0,0.3,0
		c0.1,0,0.2,0,0.3,0c0.1,0,0.2,0,0.2,0c0.1,0,0.1,0,0.2,0.1v0.4c-0.1,0-0.3-0.1-0.5-0.1c-0.2,0-0.3,0-0.5,0c-0.2,0-0.5,0-0.7,0.1
		s-0.4,0.2-0.6,0.3c-0.2,0.1-0.3,0.3-0.4,0.5c-0.1,0.2-0.2,0.5-0.2,0.8c0,0.3,0,0.5,0.1,0.7c0.1,0.2,0.2,0.4,0.4,0.5
		c0.2,0.1,0.3,0.2,0.6,0.3c0.2,0.1,0.5,0.1,0.7,0.1c0.1,0,0.3,0,0.4,0c0.1,0,0.2,0,0.3-0.1V56.1z"/>
	<path id="XMLID_20_" class="st0" d="M55.4,53.6v3.7h2.1v0.5h-2.7v-4.1H55.4z"/>
	<path id="XMLID_18_" class="st0" d="M58.9,57.8v-4.1h0.5v4.1H58.9z"/>
	<path id="XMLID_16_" class="st0" d="M61.6,57.8h-0.5v-4.1h2.6v0.5h-2.1v1.3h1.8v0.5h-1.8V57.8z"/>
	<path id="XMLID_14_" class="st0" d="M65.6,57.3h2.2v0.5H65v-4.1h2.7v0.5h-2.1v1.3h1.9v0.5h-1.9V57.3z"/>
	<path id="XMLID_12_" class="st0" d="M69.7,54.7c0,0.1,0,0.2,0.1,0.3c0.1,0.1,0.1,0.1,0.2,0.2c0.1,0.1,0.2,0.1,0.3,0.1
		c0.1,0,0.2,0.1,0.4,0.1c0.2,0,0.3,0.1,0.5,0.1c0.2,0,0.3,0.1,0.4,0.2s0.2,0.2,0.3,0.3c0.1,0.1,0.1,0.3,0.1,0.5c0,0.2,0,0.4-0.1,0.6
		c-0.1,0.2-0.2,0.3-0.4,0.4s-0.3,0.2-0.5,0.2c-0.2,0-0.4,0.1-0.7,0.1c-0.1,0-0.2,0-0.3,0c-0.1,0-0.2,0-0.3-0.1c-0.1,0-0.2,0-0.3-0.1
		c-0.1,0-0.2-0.1-0.2-0.1v-0.5c0.1,0,0.2,0.1,0.3,0.1c0.1,0,0.2,0.1,0.3,0.1c0.1,0,0.2,0,0.3,0.1c0.1,0,0.2,0,0.3,0
		c0.2,0,0.3,0,0.4,0c0.1,0,0.3-0.1,0.4-0.1c0.1-0.1,0.2-0.1,0.2-0.2c0.1-0.1,0.1-0.2,0.1-0.4c0-0.1,0-0.2-0.1-0.3
		c-0.1-0.1-0.1-0.1-0.2-0.2C71.1,56.1,71,56,70.9,56c-0.1,0-0.2-0.1-0.4-0.1c-0.2,0-0.3-0.1-0.5-0.1s-0.3-0.1-0.4-0.2
		c-0.1-0.1-0.2-0.2-0.3-0.3c-0.1-0.1-0.1-0.3-0.1-0.5c0-0.2,0-0.4,0.1-0.5c0.1-0.2,0.2-0.3,0.3-0.4c0.1-0.1,0.3-0.2,0.5-0.2
		c0.2,0,0.4-0.1,0.6-0.1c0.2,0,0.5,0,0.7,0.1c0.2,0,0.4,0.1,0.6,0.2v0.5c-0.2-0.1-0.4-0.1-0.6-0.2c-0.2,0-0.4-0.1-0.6-0.1
		c-0.2,0-0.3,0-0.4,0.1c-0.1,0-0.2,0.1-0.3,0.1c-0.1,0.1-0.1,0.1-0.2,0.2C69.7,54.5,69.7,54.6,69.7,54.7z"/>
	<path id="XMLID_10_" class="st0" d="M75.1,57.8h-0.5v-3.7h-1.5v-0.5h3.5v0.5h-1.5V57.8z"/>
	<path id="XMLID_8_" class="st0" d="M79.5,56.1v1.7h-0.5v-1.7l-1.6-2.5h0.6l1.3,2h0l1.3-2h0.6L79.5,56.1z"/>
	<path id="XMLID_6_" class="st0" d="M82.8,53.6v3.7H85v0.5h-2.7v-4.1H82.8z"/>
	<path id="XMLID_4_" class="st0" d="M86.9,57.3h2.2v0.5h-2.8v-4.1H89v0.5h-2.1v1.3h1.9v0.5h-1.9V57.3z"/>
</g>
<rect id="XMLID_2_" x="1" y="50.2" class="st0" width="107.5" height="0.5"/>
</svg>
