<svg xmlns="http://www.w3.org/2000/svg" viewBox="0 0 646.69 225.07"><defs><style>.cls-1{fill:#fff;}</style></defs><title>Asset 3</title><g id="Layer_2" data-name="Layer 2"><g id="Layer_1-2" data-name="Layer 1"><path class="cls-1" d="M437.7,107c-2.64,3.18-6.25,4.19-10.18,4.08-3.51-.1-1.25-3.6-2.69-5a2.55,2.55,0,0,1-.45-1c-1.93-5.7-3.93-11.38-5.71-17.13a5.51,5.51,0,0,1,.31-3.68c3-6.38,1.28-11.93-2.6-17.23a4,4,0,0,1-.88-2.37c.42-3.62,2.38-7.93-4.15-7.85-2.05-3.75-4.61-1.64-7.43-1-4.31,1-9.33,2.76-12.66-1.89-3-4.24-8.43-7.82-5.46-14.45a3.9,3.9,0,0,0,.05-2.25c-1.2-5.56,1.89-9.22,5.48-12.71a17.94,17.94,0,0,0,2.25-2.93c1.08-1.6,2-3.33,3.16-4.86,1.34-1.75,2.65-3.2-.28-4.8a3.4,3.4,0,0,1-1.29-3c.69-2.67-.52-3.46-2.78-4.27a76.27,76.27,0,0,0-46.21-2c-6.71,1.78-13.85,3.46-16,11.69-.1.4-.68.74-1.11,1-4.29,2.33-8.14,4.89-5.43,11.81-1.59-1.11-2.26-1.33-2.49-1.77-2.07-4-4-4.53-8.14-3.17-4.62,1.53-6.68,5.51-9.46,8.81-2.12,2.51-1.77,5,.72,6.69s4.44.73,6-1.64a13.36,13.36,0,0,1,2.48-2.24l.95.76c-.55,2.22-1.11,4.45-1.76,7,1.42.08,2.59-.18,3.31.27.95.59,2.17,1.72,2.21,2.65.25,6.23.16,6.23,6,6.52.05,0,.09.18.14.29-4.81,1.55-6,1-8.9-3.66a6,6,0,0,0-2.23-2.47c-4.78-2-9.66-3.82-14.42-5.66-14.85,23.84-15.36,59.62,5.1,86.65a79.06,79.06,0,0,0,87.45,27.34c22.58-7.32,49-33.75,49.09-49.6A29.69,29.69,0,0,1,437.7,107ZM374,76.54c-2.9,3.63-3.31,7.71-3.38,12.06-.07,3.65-1.23,6.64-5.43,7.56-2.4.52-2.87,2.36-3.29,4.79-.58,3.37-2.21,6.61-3.76,9.72-.35.7-2.23.64-3.66,1,1,2.53,2.32,5.42-2.27,5.76.3,2-3.61,2.57-1.77,5.43.55.85-.58,2.78-.19,4.2.1,1.93-.25,4,.42,5.75.92,2.36,2.62,4.42,4,6.68a1.69,1.69,0,0,1-1.16.25,15,15,0,0,1-11.3-15.36c.11-1.47-1.58-3-1.81-4.57-1.11-7.57-2.27-15.16-2.87-22.78-.4-5-1.18-9.22-6.37-11.82-2.08-1-3.23-4-4.68-6.2s-3.42-4.33-4-6.77c-.68-3-1.27-7,.16-9.32,2.52-4.05,2.9-7.52,1-11.57,1-.25,2.51-.25,2.79-.85,2.07-4.24,5.35-2.54,8.53-2.17,5.35.63,10,2.36,13.42,6.78.43.55,1.76.3,2.44.77C352.51,57,355,58,355.42,59.61c1.54,5.14,6.17,5.81,9.89,7.78,2.52,1.34,5.3,2.17,7.77,3.56S375.39,74.79,374,76.54Z"/><path class="cls-1" d="M248.3,16.84C234,5.89,217.4,1.5,199.7,1.25c-18.44-.27-45.32,0-65.15-.13.13,47.19.07,104.25.07,150.33v4.92h4.91c18.71,0,37.42.08,56.12,0a109.71,109.71,0,0,0,15.49-1c25.64-3.79,45.42-16.19,57.18-39.87,7.07-14.21,8.87-29.45,7.58-45C274.1,48.81,265.91,30.32,248.3,16.84Zm-12.14,85.44c-5.61,11.45-14.9,19-27.37,20.49-12.93,1.6-26.11,1.25-39.43,1.76V34.18c12.64,0,25-1.15,37,.26,19,2.21,32.67,18.26,34.33,37.88C241.61,82.67,240.81,92.81,236.16,102.28Z"/><path class="cls-1" d="M35.06,90.59h6.16c19.25,0,46.48-.08,67,.06V60.22s-.83,0-4.56,0c-21.48.17-43,.08-64.44.08h-4V34.59h83.21V1.51H0V156.09H118.4V123.15H35.06Z"/><path class="cls-1" d="M549.68,1.71c-8.8,12.5-26.39,37.79-29.91,42.78-8.39-12-20.77-29.66-29.9-42.8-11.7.06-31.37,0-43.36,0,16.72,23.88,35.41,50.59,51.59,73.68-17.9,25.5-38.63,55-57,81.09,12.78,0,31.81,0,43.88,0,10-14.21,31.12-44.45,34.86-49.77,1.62,2.25,23.44,33.27,35,49.85,14.22-.12,41.28-.27,43.12-.27-.73-1.24-1.07-1.9-1.49-2.5-16.38-23.34-38-54.09-55.11-78.37,15.11-21.42,36.72-52.11,51.8-73.7C580.79,1.66,562.42,1.63,549.68,1.71Z"/><path class="cls-1" d="M610.91,1.31V155.94h35.78V1.31Z"/><path class="cls-1" d="M175.6,185.12c0,7.62.06,18.73.06,25.13-4.49-6.78-11.54-17.47-16.56-25-3.79,0-8.25-.1-11.48-.1v38.61h9.48V199.2c4.46,6.63,11.94,17.74,16.69,24.53h11.9V185.15ZM155.89,197.4Z"/><path class="cls-1" d="M240,209c-4.52-5.78-11.51-16.28-16.49-23.72-4.05,0-8.88-.11-11.58-.11v38.54h9.55V199.2c4.33,6.47,11.39,17.09,16.45,24.63,4.24,0,9.13.1,11.86.1V185.36c-.81-.07-5.86-.15-9.79-.19C239.93,191.93,240,204,240,209Zm-18.52-14.76v0S221.45,194.22,221.43,194.24Z"/><path class="cls-1" d="M384.27,192.89v-7.5h-10v25.06c-4.5-6.85-11.53-17.7-16.46-25.12-4.15,0-8.94-.12-11.52-.12v38.5h9.31v-24.4c4.13,6.17,11.29,17.09,16.37,24.81h12.28C384.23,214.85,384.26,201.32,384.27,192.89Zm-31.06,2.9,0,.05C353.2,195.82,353.18,195.81,353.21,195.79Z"/><path class="cls-1" d="M278.77,202.41c0,2.6-.09,6.32-.11,8.2l10.65,0c-5.11,6.25-13.43,7.21-19.14,2.74a11.26,11.26,0,0,1-2.2-15.38c5.23-6.72,12.9-6.63,21.59.11l7.94-4.25c-7.09-10.58-21.68-12.79-32.79-5.4a19.06,19.06,0,0,0-2,30.66,24.4,24.4,0,0,0,26.89,3.24c6-3.18,9.95-10.74,11.09-14.92.44-1.61.72-3.49,1-5Z"/><path class="cls-1" d="M69.32,209.78c7.13-3.41,9.75-7.7,8.85-13.92-.76-5.29-4.61-9.77-10.25-10.12-8.46-.52-17-.13-25.59-.13V224h9.54c0-4.25,0-10.7,0-13.22,2.35,0,5.54,0,7.9-.05,1.34,2.14,5.52,8.42,8.87,13.38,3.74-.05,9.33-.2,11.17-.2C76.45,219.43,73.14,214.87,69.32,209.78Zm-5.15-7.36c-3.93.27-7.89.07-12.17.07V193.3c4.15,0,8.22-.19,12.26.07a4.06,4.06,0,0,1,4,4.35C68.32,200.49,66.77,202.24,64.17,202.42Z"/><path class="cls-1" d="M424.9,191.3c-6.19-8.48-23.32-9.76-30.76-2.34-5,5-4,12.85,2.33,15.95,2.74,1.35,5.85,2,8.84,2.75s5.89,1,8.64,2.09a3.11,3.11,0,0,1,2.26,3.06c.08.82-1.28,2.14-2.3,2.62-4.27,2-12.21.09-16.35-4.54-3.24,1-6.66,2.13-8.83,2.83.3.53.63,1,.82,1.28,6.05,9.69,22.68,13.22,32.26,6.86A11,11,0,0,0,426.57,209c-1.19-4.1-4.28-6.11-8-7.14-4.73-1.31-9.6-2.11-14.32-3.42-1.1-.31-2.57-1.8-2.59-2.72a3.18,3.18,0,0,1,2.19-2.95c2.12-1.06,7.62-1.16,11.31,1.55a11.15,11.15,0,0,1,2.51,2.9c2.89-.71,7-1.83,9.42-2.54A29.59,29.59,0,0,0,424.9,191.3Z"/><path class="cls-1" d="M623.27,215.71V207.4h20.07V200h-20v-6.57h23v-7.95H613.27c0,10.49,0,27.52,0,38.55,8.61-.06,24-.13,33.47,0,0-2.75,0-6.17,0-8.34C639.27,215.66,630.14,215.71,623.27,215.71Z"/><path class="cls-1" d="M556.76,209.93c-.31,5.36-2.91,6.95-9.6,6.73-5.3-.18-7.54-2.09-7.73-7.12-.17-4.83-.12-17.43-.11-24-3.06.07-7.21,0-9.82,0,0,9.24.14,18.08.14,27.86.26,5,3.77,8.36,8.59,10a31.43,31.43,0,0,0,18.71.4,13.23,13.23,0,0,0,9.61-11.51c0-9.82.16-17.29.16-26.89H557C557,187.14,557.14,203.35,556.76,209.93Z"/><path class="cls-1" d="M108.67,185H97.81c-3,7.17-7.6,17.83-10.36,24.24-2,4.7-4,9.42-6.29,14.74,2.44,0,6.8-.05,10.16-.07.89-2.3,2.43-6,3.49-8.5h16.55c.94,2.24,2.39,5.68,3.54,8.33,3.71-.05,8.35-.12,10.6-.12C124.91,222.05,113.83,197.09,108.67,185ZM98.12,207.3c1.66-4.25,3.19-8.18,5-13,1.87,4.76,3.4,8.61,5.11,13Z"/><path class="cls-1" d="M.62,185.17v8.57H14V224H24.06c-.11-8.21,0-22.6,0-30.3,3.87.08,10.4,0,13.49,0,.06-1,.13-5.71.16-8.52C28.38,185.17,10.32,185.16.62,185.17Z"/><path class="cls-1" d="M486.37,185.15v8.54H499.7v30.05h10v-30c3.36,0,9.6.05,13.79.06,0-2.75,0-6.78,0-8.68C513.66,185.25,496.45,185.15,486.37,185.15Z"/><path class="cls-1" d="M571.86,193.81h13.52V224h10V193.74h13.18V185.4H571.86Z"/><path class="cls-1" d="M430.11,193.73h13.24v4.75c0,6.52-.08,17.74,0,25.35,3.61,0,7.85.13,10.22.13V193.55h13.2v-8.17H430.11Z"/><path class="cls-1" d="M129.58,223.76h9.91c0-10.28,0-29.92,0-38.43h-9.91Z"/><path class="cls-1" d="M327.74,185.25c.08,10,0,27.84,0,38.29h9.91V185.17C336.31,185.17,331.53,185.25,327.74,185.25Z"/><path class="cls-1" d="M471.68,223.61h9.77V185.45h-9.77Z"/><path class="cls-1" d="M194.06,223.73h9.37V185.41h-9.37Z"/></g></g></svg>